<?xml version="1.0" encoding="utf-8" standalone="no"?>
<!DOCTYPE svg PUBLIC "-//W3C//DTD SVG 1.1//EN"
  "http://www.w3.org/Graphics/SVG/1.1/DTD/svg11.dtd">
<svg xmlns:xlink="http://www.w3.org/1999/xlink" width="432pt" height="360pt" viewBox="0 0 432 360" xmlns="http://www.w3.org/2000/svg" version="1.1">
 <metadata>
  <rdf:RDF xmlns:dc="http://purl.org/dc/elements/1.1/" xmlns:cc="http://creativecommons.org/ns#" xmlns:rdf="http://www.w3.org/1999/02/22-rdf-syntax-ns#">
   <cc:Work>
    <dc:type rdf:resource="http://purl.org/dc/dcmitype/StillImage"/>
    <dc:date>2025-06-16T01:16:27.850130</dc:date>
    <dc:format>image/svg+xml</dc:format>
    <dc:creator>
     <cc:Agent>
      <dc:title>Matplotlib v3.10.1, https://matplotlib.org/</dc:title>
     </cc:Agent>
    </dc:creator>
   </cc:Work>
  </rdf:RDF>
 </metadata>
 <defs>
  <style type="text/css">*{stroke-linejoin: round; stroke-linecap: butt}</style>
 </defs>
 <g id="figure_1">
  <g id="patch_1">
   <path d="M 0 360 
L 432 360 
L 432 0 
L 0 0 
z
" style="fill: #ffffff"/>
  </g>
  <g id="axes_1">
   <g id="patch_2">
    <path d="M 10.8 349.2 
L 421.2 349.2 
L 421.2 26.88 
L 10.8 26.88 
z
" style="fill: #ffffff"/>
   </g>
   <g id="PathCollection_1">
    <defs>
     <path id="C0_0_51466a223c" d="M 0 2.236068 
C 0.593012 2.236068 1.161816 2.000462 1.581139 1.581139 
C 2.000462 1.161816 2.236068 0.593012 2.236068 -0 
C 2.236068 -0.593012 2.000462 -1.161816 1.581139 -1.581139 
C 1.161816 -2.000462 0.593012 -2.236068 0 -2.236068 
C -0.593012 -2.236068 -1.161816 -2.000462 -1.581139 -1.581139 
C -2.000462 -1.161816 -2.236068 -0.593012 -2.236068 0 
C -2.236068 0.593012 -2.000462 1.161816 -1.581139 1.581139 
C -1.161816 2.000462 -0.593012 2.236068 0 2.236068 
z
"/>
    </defs>
    <g clip-path="url(#pf3d2273d03)">
     <use xlink:href="#C0_0_51466a223c" x="292.123097" y="209.223682" style="fill: #1f77b4; fill-opacity: 0.7; stroke: #1f77b4; stroke-opacity: 0.7"/>
    </g>
    <g clip-path="url(#pf3d2273d03)">
     <use xlink:href="#C0_0_51466a223c" x="258.949259" y="41.530909" style="fill: #1f77b4; fill-opacity: 0.7; stroke: #1f77b4; stroke-opacity: 0.7"/>
    </g>
    <g clip-path="url(#pf3d2273d03)">
     <use xlink:href="#C0_0_51466a223c" x="215.291939" y="184.376991" style="fill: #1f77b4; fill-opacity: 0.7; stroke: #1f77b4; stroke-opacity: 0.7"/>
    </g>
    <g clip-path="url(#pf3d2273d03)">
     <use xlink:href="#C0_0_51466a223c" x="219.422627" y="212.760168" style="fill: #1f77b4; fill-opacity: 0.7; stroke: #1f77b4; stroke-opacity: 0.7"/>
    </g>
    <g clip-path="url(#pf3d2273d03)">
     <use xlink:href="#C0_0_51466a223c" x="240.005437" y="229.587922" style="fill: #1f77b4; fill-opacity: 0.7; stroke: #1f77b4; stroke-opacity: 0.7"/>
    </g>
    <g clip-path="url(#pf3d2273d03)">
     <use xlink:href="#C0_0_51466a223c" x="241.44007" y="216.596522" style="fill: #1f77b4; fill-opacity: 0.7; stroke: #1f77b4; stroke-opacity: 0.7"/>
    </g>
    <g clip-path="url(#pf3d2273d03)">
     <use xlink:href="#C0_0_51466a223c" x="262.572556" y="215.924523" style="fill: #1f77b4; fill-opacity: 0.7; stroke: #1f77b4; stroke-opacity: 0.7"/>
    </g>
    <g clip-path="url(#pf3d2273d03)">
     <use xlink:href="#C0_0_51466a223c" x="383.312248" y="294.604476" style="fill: #1f77b4; fill-opacity: 0.7; stroke: #1f77b4; stroke-opacity: 0.7"/>
    </g>
    <g clip-path="url(#pf3d2273d03)">
     <use xlink:href="#C0_0_51466a223c" x="284.95721" y="150.792783" style="fill: #1f77b4; fill-opacity: 0.7; stroke: #1f77b4; stroke-opacity: 0.7"/>
    </g>
    <g clip-path="url(#pf3d2273d03)">
     <use xlink:href="#C0_0_51466a223c" x="363.341594" y="304.054715" style="fill: #1f77b4; fill-opacity: 0.7; stroke: #1f77b4; stroke-opacity: 0.7"/>
    </g>
    <g clip-path="url(#pf3d2273d03)">
     <use xlink:href="#C0_0_51466a223c" x="265.282616" y="152.898615" style="fill: #aec7e8; fill-opacity: 0.7; stroke: #aec7e8; stroke-opacity: 0.7"/>
    </g>
    <g clip-path="url(#pf3d2273d03)">
     <use xlink:href="#C0_0_51466a223c" x="198.682364" y="166.483633" style="fill: #aec7e8; fill-opacity: 0.7; stroke: #aec7e8; stroke-opacity: 0.7"/>
    </g>
    <g clip-path="url(#pf3d2273d03)">
     <use xlink:href="#C0_0_51466a223c" x="183.639842" y="152.02526" style="fill: #aec7e8; fill-opacity: 0.7; stroke: #aec7e8; stroke-opacity: 0.7"/>
    </g>
    <g clip-path="url(#pf3d2273d03)">
     <use xlink:href="#C0_0_51466a223c" x="162.915084" y="188.362141" style="fill: #aec7e8; fill-opacity: 0.7; stroke: #aec7e8; stroke-opacity: 0.7"/>
    </g>
    <g clip-path="url(#pf3d2273d03)">
     <use xlink:href="#C0_0_51466a223c" x="272.719356" y="121.476183" style="fill: #aec7e8; fill-opacity: 0.7; stroke: #aec7e8; stroke-opacity: 0.7"/>
    </g>
    <g clip-path="url(#pf3d2273d03)">
     <use xlink:href="#C0_0_51466a223c" x="296.62606" y="237.503911" style="fill: #aec7e8; fill-opacity: 0.7; stroke: #aec7e8; stroke-opacity: 0.7"/>
    </g>
    <g clip-path="url(#pf3d2273d03)">
     <use xlink:href="#C0_0_51466a223c" x="243.486321" y="183.509298" style="fill: #aec7e8; fill-opacity: 0.7; stroke: #aec7e8; stroke-opacity: 0.7"/>
    </g>
    <g clip-path="url(#pf3d2273d03)">
     <use xlink:href="#C0_0_51466a223c" x="248.616307" y="184.630938" style="fill: #aec7e8; fill-opacity: 0.7; stroke: #aec7e8; stroke-opacity: 0.7"/>
    </g>
    <g clip-path="url(#pf3d2273d03)">
     <use xlink:href="#C0_0_51466a223c" x="372.861107" y="234.479897" style="fill: #aec7e8; fill-opacity: 0.7; stroke: #aec7e8; stroke-opacity: 0.7"/>
    </g>
    <g clip-path="url(#pf3d2273d03)">
     <use xlink:href="#C0_0_51466a223c" x="266.446246" y="276.392855" style="fill: #aec7e8; fill-opacity: 0.7; stroke: #aec7e8; stroke-opacity: 0.7"/>
    </g>
    <g clip-path="url(#pf3d2273d03)">
     <use xlink:href="#C0_0_51466a223c" x="326.802015" y="286.542931" style="fill: #ffbb78; fill-opacity: 0.7; stroke: #ffbb78; stroke-opacity: 0.7"/>
    </g>
    <g clip-path="url(#pf3d2273d03)">
     <use xlink:href="#C0_0_51466a223c" x="245.363612" y="209.777153" style="fill: #ffbb78; fill-opacity: 0.7; stroke: #ffbb78; stroke-opacity: 0.7"/>
    </g>
    <g clip-path="url(#pf3d2273d03)">
     <use xlink:href="#C0_0_51466a223c" x="160.248354" y="288.160821" style="fill: #ffbb78; fill-opacity: 0.7; stroke: #ffbb78; stroke-opacity: 0.7"/>
    </g>
    <g clip-path="url(#pf3d2273d03)">
     <use xlink:href="#C0_0_51466a223c" x="267.666577" y="224.31168" style="fill: #ffbb78; fill-opacity: 0.7; stroke: #ffbb78; stroke-opacity: 0.7"/>
    </g>
    <g clip-path="url(#pf3d2273d03)">
     <use xlink:href="#C0_0_51466a223c" x="174.910223" y="189.472347" style="fill: #ffbb78; fill-opacity: 0.7; stroke: #ffbb78; stroke-opacity: 0.7"/>
    </g>
    <g clip-path="url(#pf3d2273d03)">
     <use xlink:href="#C0_0_51466a223c" x="152.420204" y="273.028117" style="fill: #ffbb78; fill-opacity: 0.7; stroke: #ffbb78; stroke-opacity: 0.7"/>
    </g>
    <g clip-path="url(#pf3d2273d03)">
     <use xlink:href="#C0_0_51466a223c" x="237.035726" y="248.78518" style="fill: #ffbb78; fill-opacity: 0.7; stroke: #ffbb78; stroke-opacity: 0.7"/>
    </g>
    <g clip-path="url(#pf3d2273d03)">
     <use xlink:href="#C0_0_51466a223c" x="264.793132" y="189.05131" style="fill: #ffbb78; fill-opacity: 0.7; stroke: #ffbb78; stroke-opacity: 0.7"/>
    </g>
    <g clip-path="url(#pf3d2273d03)">
     <use xlink:href="#C0_0_51466a223c" x="319.090806" y="218.940339" style="fill: #ffbb78; fill-opacity: 0.7; stroke: #ffbb78; stroke-opacity: 0.7"/>
    </g>
    <g clip-path="url(#pf3d2273d03)">
     <use xlink:href="#C0_0_51466a223c" x="172.757913" y="270.728961" style="fill: #ffbb78; fill-opacity: 0.7; stroke: #ffbb78; stroke-opacity: 0.7"/>
    </g>
    <g clip-path="url(#pf3d2273d03)">
     <use xlink:href="#C0_0_51466a223c" x="367.864357" y="280.636241" style="fill: #98df8a; fill-opacity: 0.7; stroke: #98df8a; stroke-opacity: 0.7"/>
    </g>
    <g clip-path="url(#pf3d2273d03)">
     <use xlink:href="#C0_0_51466a223c" x="387.132676" y="313.937893" style="fill: #98df8a; fill-opacity: 0.7; stroke: #98df8a; stroke-opacity: 0.7"/>
    </g>
    <g clip-path="url(#pf3d2273d03)">
     <use xlink:href="#C0_0_51466a223c" x="402.545455" y="270.971659" style="fill: #98df8a; fill-opacity: 0.7; stroke: #98df8a; stroke-opacity: 0.7"/>
    </g>
    <g clip-path="url(#pf3d2273d03)">
     <use xlink:href="#C0_0_51466a223c" x="275.346982" y="328.469776" style="fill: #98df8a; fill-opacity: 0.7; stroke: #98df8a; stroke-opacity: 0.7"/>
    </g>
    <g clip-path="url(#pf3d2273d03)">
     <use xlink:href="#C0_0_51466a223c" x="157.968689" y="310.074091" style="fill: #98df8a; fill-opacity: 0.7; stroke: #98df8a; stroke-opacity: 0.7"/>
    </g>
    <g clip-path="url(#pf3d2273d03)">
     <use xlink:href="#C0_0_51466a223c" x="273.670715" y="309.296375" style="fill: #98df8a; fill-opacity: 0.7; stroke: #98df8a; stroke-opacity: 0.7"/>
    </g>
    <g clip-path="url(#pf3d2273d03)">
     <use xlink:href="#C0_0_51466a223c" x="261.749508" y="315.095215" style="fill: #98df8a; fill-opacity: 0.7; stroke: #98df8a; stroke-opacity: 0.7"/>
    </g>
    <g clip-path="url(#pf3d2273d03)">
     <use xlink:href="#C0_0_51466a223c" x="151.264728" y="304.302865" style="fill: #98df8a; fill-opacity: 0.7; stroke: #98df8a; stroke-opacity: 0.7"/>
    </g>
    <g clip-path="url(#pf3d2273d03)">
     <use xlink:href="#C0_0_51466a223c" x="155.308277" y="318.114337" style="fill: #98df8a; fill-opacity: 0.7; stroke: #98df8a; stroke-opacity: 0.7"/>
    </g>
    <g clip-path="url(#pf3d2273d03)">
     <use xlink:href="#C0_0_51466a223c" x="152.043932" y="314.26958" style="fill: #98df8a; fill-opacity: 0.7; stroke: #98df8a; stroke-opacity: 0.7"/>
    </g>
    <g clip-path="url(#pf3d2273d03)">
     <use xlink:href="#C0_0_51466a223c" x="294.76223" y="184.687013" style="fill: #d62728; fill-opacity: 0.7; stroke: #d62728; stroke-opacity: 0.7"/>
    </g>
    <g clip-path="url(#pf3d2273d03)">
     <use xlink:href="#C0_0_51466a223c" x="240.319498" y="161.726726" style="fill: #d62728; fill-opacity: 0.7; stroke: #d62728; stroke-opacity: 0.7"/>
    </g>
    <g clip-path="url(#pf3d2273d03)">
     <use xlink:href="#C0_0_51466a223c" x="188.220569" y="202.116044" style="fill: #d62728; fill-opacity: 0.7; stroke: #d62728; stroke-opacity: 0.7"/>
    </g>
    <g clip-path="url(#pf3d2273d03)">
     <use xlink:href="#C0_0_51466a223c" x="199.306929" y="255.464694" style="fill: #d62728; fill-opacity: 0.7; stroke: #d62728; stroke-opacity: 0.7"/>
    </g>
    <g clip-path="url(#pf3d2273d03)">
     <use xlink:href="#C0_0_51466a223c" x="235.553694" y="294.093224" style="fill: #d62728; fill-opacity: 0.7; stroke: #d62728; stroke-opacity: 0.7"/>
    </g>
    <g clip-path="url(#pf3d2273d03)">
     <use xlink:href="#C0_0_51466a223c" x="214.001611" y="155.626987" style="fill: #d62728; fill-opacity: 0.7; stroke: #d62728; stroke-opacity: 0.7"/>
    </g>
    <g clip-path="url(#pf3d2273d03)">
     <use xlink:href="#C0_0_51466a223c" x="69.5149" y="203.675135" style="fill: #d62728; fill-opacity: 0.7; stroke: #d62728; stroke-opacity: 0.7"/>
    </g>
    <g clip-path="url(#pf3d2273d03)">
     <use xlink:href="#C0_0_51466a223c" x="85.301197" y="205.713133" style="fill: #d62728; fill-opacity: 0.7; stroke: #d62728; stroke-opacity: 0.7"/>
    </g>
    <g clip-path="url(#pf3d2273d03)">
     <use xlink:href="#C0_0_51466a223c" x="170.643278" y="185.291955" style="fill: #d62728; fill-opacity: 0.7; stroke: #d62728; stroke-opacity: 0.7"/>
    </g>
    <g clip-path="url(#pf3d2273d03)">
     <use xlink:href="#C0_0_51466a223c" x="179.879953" y="240.118353" style="fill: #d62728; fill-opacity: 0.7; stroke: #d62728; stroke-opacity: 0.7"/>
    </g>
    <g clip-path="url(#pf3d2273d03)">
     <use xlink:href="#C0_0_51466a223c" x="140.627426" y="247.369075" style="fill: #9467bd; fill-opacity: 0.7; stroke: #9467bd; stroke-opacity: 0.7"/>
    </g>
    <g clip-path="url(#pf3d2273d03)">
     <use xlink:href="#C0_0_51466a223c" x="273.584491" y="204.819063" style="fill: #9467bd; fill-opacity: 0.7; stroke: #9467bd; stroke-opacity: 0.7"/>
    </g>
    <g clip-path="url(#pf3d2273d03)">
     <use xlink:href="#C0_0_51466a223c" x="76.092562" y="195.093642" style="fill: #9467bd; fill-opacity: 0.7; stroke: #9467bd; stroke-opacity: 0.7"/>
    </g>
    <g clip-path="url(#pf3d2273d03)">
     <use xlink:href="#C0_0_51466a223c" x="117.601294" y="244.246771" style="fill: #9467bd; fill-opacity: 0.7; stroke: #9467bd; stroke-opacity: 0.7"/>
    </g>
    <g clip-path="url(#pf3d2273d03)">
     <use xlink:href="#C0_0_51466a223c" x="132.883094" y="259.374003" style="fill: #9467bd; fill-opacity: 0.7; stroke: #9467bd; stroke-opacity: 0.7"/>
    </g>
    <g clip-path="url(#pf3d2273d03)">
     <use xlink:href="#C0_0_51466a223c" x="124.053887" y="234.226138" style="fill: #9467bd; fill-opacity: 0.7; stroke: #9467bd; stroke-opacity: 0.7"/>
    </g>
    <g clip-path="url(#pf3d2273d03)">
     <use xlink:href="#C0_0_51466a223c" x="167.691944" y="253.105783" style="fill: #9467bd; fill-opacity: 0.7; stroke: #9467bd; stroke-opacity: 0.7"/>
    </g>
    <g clip-path="url(#pf3d2273d03)">
     <use xlink:href="#C0_0_51466a223c" x="132.687901" y="229.135968" style="fill: #9467bd; fill-opacity: 0.7; stroke: #9467bd; stroke-opacity: 0.7"/>
    </g>
    <g clip-path="url(#pf3d2273d03)">
     <use xlink:href="#C0_0_51466a223c" x="261.161812" y="281.905063" style="fill: #9467bd; fill-opacity: 0.7; stroke: #9467bd; stroke-opacity: 0.7"/>
    </g>
    <g clip-path="url(#pf3d2273d03)">
     <use xlink:href="#C0_0_51466a223c" x="189.073033" y="70.604067" style="fill: #9467bd; fill-opacity: 0.7; stroke: #9467bd; stroke-opacity: 0.7"/>
    </g>
    <g clip-path="url(#pf3d2273d03)">
     <use xlink:href="#C0_0_51466a223c" x="49.653511" y="226.415213" style="fill: #8c564b; fill-opacity: 0.7; stroke: #8c564b; stroke-opacity: 0.7"/>
    </g>
    <g clip-path="url(#pf3d2273d03)">
     <use xlink:href="#C0_0_51466a223c" x="370.845975" y="300.990445" style="fill: #8c564b; fill-opacity: 0.7; stroke: #8c564b; stroke-opacity: 0.7"/>
    </g>
    <g clip-path="url(#pf3d2273d03)">
     <use xlink:href="#C0_0_51466a223c" x="266.054081" y="266.146642" style="fill: #8c564b; fill-opacity: 0.7; stroke: #8c564b; stroke-opacity: 0.7"/>
    </g>
    <g clip-path="url(#pf3d2273d03)">
     <use xlink:href="#C0_0_51466a223c" x="400.73205" y="300.730443" style="fill: #8c564b; fill-opacity: 0.7; stroke: #8c564b; stroke-opacity: 0.7"/>
    </g>
    <g clip-path="url(#pf3d2273d03)">
     <use xlink:href="#C0_0_51466a223c" x="342.78877" y="278.201582" style="fill: #8c564b; fill-opacity: 0.7; stroke: #8c564b; stroke-opacity: 0.7"/>
    </g>
    <g clip-path="url(#pf3d2273d03)">
     <use xlink:href="#C0_0_51466a223c" x="218.002073" y="200.798812" style="fill: #8c564b; fill-opacity: 0.7; stroke: #8c564b; stroke-opacity: 0.7"/>
    </g>
    <g clip-path="url(#pf3d2273d03)">
     <use xlink:href="#C0_0_51466a223c" x="277.386428" y="225.675391" style="fill: #8c564b; fill-opacity: 0.7; stroke: #8c564b; stroke-opacity: 0.7"/>
    </g>
    <g clip-path="url(#pf3d2273d03)">
     <use xlink:href="#C0_0_51466a223c" x="350.986346" y="276.625258" style="fill: #8c564b; fill-opacity: 0.7; stroke: #8c564b; stroke-opacity: 0.7"/>
    </g>
    <g clip-path="url(#pf3d2273d03)">
     <use xlink:href="#C0_0_51466a223c" x="272.486137" y="186.849871" style="fill: #8c564b; fill-opacity: 0.7; stroke: #8c564b; stroke-opacity: 0.7"/>
    </g>
    <g clip-path="url(#pf3d2273d03)">
     <use xlink:href="#C0_0_51466a223c" x="105.600261" y="277.989988" style="fill: #8c564b; fill-opacity: 0.7; stroke: #8c564b; stroke-opacity: 0.7"/>
    </g>
    <g clip-path="url(#pf3d2273d03)">
     <use xlink:href="#C0_0_51466a223c" x="376.522557" y="236.912199" style="fill: #c49c94; fill-opacity: 0.7; stroke: #c49c94; stroke-opacity: 0.7"/>
    </g>
    <g clip-path="url(#pf3d2273d03)">
     <use xlink:href="#C0_0_51466a223c" x="298.675291" y="166.186005" style="fill: #c49c94; fill-opacity: 0.7; stroke: #c49c94; stroke-opacity: 0.7"/>
    </g>
    <g clip-path="url(#pf3d2273d03)">
     <use xlink:href="#C0_0_51466a223c" x="323.439152" y="334.549091" style="fill: #c49c94; fill-opacity: 0.7; stroke: #c49c94; stroke-opacity: 0.7"/>
    </g>
    <g clip-path="url(#pf3d2273d03)">
     <use xlink:href="#C0_0_51466a223c" x="235.750937" y="288.601596" style="fill: #c49c94; fill-opacity: 0.7; stroke: #c49c94; stroke-opacity: 0.7"/>
    </g>
    <g clip-path="url(#pf3d2273d03)">
     <use xlink:href="#C0_0_51466a223c" x="187.202914" y="130.244435" style="fill: #c49c94; fill-opacity: 0.7; stroke: #c49c94; stroke-opacity: 0.7"/>
    </g>
    <g clip-path="url(#pf3d2273d03)">
     <use xlink:href="#C0_0_51466a223c" x="29.454545" y="179.630335" style="fill: #c49c94; fill-opacity: 0.7; stroke: #c49c94; stroke-opacity: 0.7"/>
    </g>
    <g clip-path="url(#pf3d2273d03)">
     <use xlink:href="#C0_0_51466a223c" x="50.637694" y="180.414319" style="fill: #c49c94; fill-opacity: 0.7; stroke: #c49c94; stroke-opacity: 0.7"/>
    </g>
    <g clip-path="url(#pf3d2273d03)">
     <use xlink:href="#C0_0_51466a223c" x="185.083954" y="185.249209" style="fill: #c49c94; fill-opacity: 0.7; stroke: #c49c94; stroke-opacity: 0.7"/>
    </g>
    <g clip-path="url(#pf3d2273d03)">
     <use xlink:href="#C0_0_51466a223c" x="37.587479" y="180.459326" style="fill: #c49c94; fill-opacity: 0.7; stroke: #c49c94; stroke-opacity: 0.7"/>
    </g>
    <g clip-path="url(#pf3d2273d03)">
     <use xlink:href="#C0_0_51466a223c" x="50.337946" y="197.904771" style="fill: #c49c94; fill-opacity: 0.7; stroke: #c49c94; stroke-opacity: 0.7"/>
    </g>
    <g clip-path="url(#pf3d2273d03)">
     <use xlink:href="#C0_0_51466a223c" x="303.697955" y="288.026249" style="fill: #f7b6d2; fill-opacity: 0.7; stroke: #f7b6d2; stroke-opacity: 0.7"/>
    </g>
    <g clip-path="url(#pf3d2273d03)">
     <use xlink:href="#C0_0_51466a223c" x="282.274575" y="253.208907" style="fill: #f7b6d2; fill-opacity: 0.7; stroke: #f7b6d2; stroke-opacity: 0.7"/>
    </g>
    <g clip-path="url(#pf3d2273d03)">
     <use xlink:href="#C0_0_51466a223c" x="244.034598" y="165.999374" style="fill: #f7b6d2; fill-opacity: 0.7; stroke: #f7b6d2; stroke-opacity: 0.7"/>
    </g>
    <g clip-path="url(#pf3d2273d03)">
     <use xlink:href="#C0_0_51466a223c" x="213.24211" y="265.210201" style="fill: #f7b6d2; fill-opacity: 0.7; stroke: #f7b6d2; stroke-opacity: 0.7"/>
    </g>
    <g clip-path="url(#pf3d2273d03)">
     <use xlink:href="#C0_0_51466a223c" x="218.17871" y="263.682415" style="fill: #f7b6d2; fill-opacity: 0.7; stroke: #f7b6d2; stroke-opacity: 0.7"/>
    </g>
    <g clip-path="url(#pf3d2273d03)">
     <use xlink:href="#C0_0_51466a223c" x="332.34255" y="263.410568" style="fill: #f7b6d2; fill-opacity: 0.7; stroke: #f7b6d2; stroke-opacity: 0.7"/>
    </g>
    <g clip-path="url(#pf3d2273d03)">
     <use xlink:href="#C0_0_51466a223c" x="313.039016" y="266.275936" style="fill: #f7b6d2; fill-opacity: 0.7; stroke: #f7b6d2; stroke-opacity: 0.7"/>
    </g>
    <g clip-path="url(#pf3d2273d03)">
     <use xlink:href="#C0_0_51466a223c" x="289.307921" y="266.417213" style="fill: #f7b6d2; fill-opacity: 0.7; stroke: #f7b6d2; stroke-opacity: 0.7"/>
    </g>
    <g clip-path="url(#pf3d2273d03)">
     <use xlink:href="#C0_0_51466a223c" x="294.930789" y="266.390897" style="fill: #f7b6d2; fill-opacity: 0.7; stroke: #f7b6d2; stroke-opacity: 0.7"/>
    </g>
    <g clip-path="url(#pf3d2273d03)">
     <use xlink:href="#C0_0_51466a223c" x="298.960785" y="296.231377" style="fill: #f7b6d2; fill-opacity: 0.7; stroke: #f7b6d2; stroke-opacity: 0.7"/>
    </g>
    <g clip-path="url(#pf3d2273d03)">
     <use xlink:href="#C0_0_51466a223c" x="331.932899" y="295.848258" style="fill: #c7c7c7; fill-opacity: 0.7; stroke: #c7c7c7; stroke-opacity: 0.7"/>
    </g>
    <g clip-path="url(#pf3d2273d03)">
     <use xlink:href="#C0_0_51466a223c" x="352.470461" y="289.648935" style="fill: #c7c7c7; fill-opacity: 0.7; stroke: #c7c7c7; stroke-opacity: 0.7"/>
    </g>
    <g clip-path="url(#pf3d2273d03)">
     <use xlink:href="#C0_0_51466a223c" x="187.01708" y="166.780689" style="fill: #c7c7c7; fill-opacity: 0.7; stroke: #c7c7c7; stroke-opacity: 0.7"/>
    </g>
    <g clip-path="url(#pf3d2273d03)">
     <use xlink:href="#C0_0_51466a223c" x="162.844118" y="260.84434" style="fill: #c7c7c7; fill-opacity: 0.7; stroke: #c7c7c7; stroke-opacity: 0.7"/>
    </g>
    <g clip-path="url(#pf3d2273d03)">
     <use xlink:href="#C0_0_51466a223c" x="253.789178" y="210.457684" style="fill: #c7c7c7; fill-opacity: 0.7; stroke: #c7c7c7; stroke-opacity: 0.7"/>
    </g>
    <g clip-path="url(#pf3d2273d03)">
     <use xlink:href="#C0_0_51466a223c" x="355.973673" y="314.996428" style="fill: #c7c7c7; fill-opacity: 0.7; stroke: #c7c7c7; stroke-opacity: 0.7"/>
    </g>
    <g clip-path="url(#pf3d2273d03)">
     <use xlink:href="#C0_0_51466a223c" x="249.909044" y="135.298614" style="fill: #c7c7c7; fill-opacity: 0.7; stroke: #c7c7c7; stroke-opacity: 0.7"/>
    </g>
    <g clip-path="url(#pf3d2273d03)">
     <use xlink:href="#C0_0_51466a223c" x="311.630182" y="312.515347" style="fill: #c7c7c7; fill-opacity: 0.7; stroke: #c7c7c7; stroke-opacity: 0.7"/>
    </g>
    <g clip-path="url(#pf3d2273d03)">
     <use xlink:href="#C0_0_51466a223c" x="259.806951" y="246.442267" style="fill: #c7c7c7; fill-opacity: 0.7; stroke: #c7c7c7; stroke-opacity: 0.7"/>
    </g>
    <g clip-path="url(#pf3d2273d03)">
     <use xlink:href="#C0_0_51466a223c" x="337.978346" y="307.272236" style="fill: #c7c7c7; fill-opacity: 0.7; stroke: #c7c7c7; stroke-opacity: 0.7"/>
    </g>
    <g clip-path="url(#pf3d2273d03)">
     <use xlink:href="#C0_0_51466a223c" x="133.466404" y="204.718616" style="fill: #bcbd22; fill-opacity: 0.7; stroke: #bcbd22; stroke-opacity: 0.7"/>
    </g>
    <g clip-path="url(#pf3d2273d03)">
     <use xlink:href="#C0_0_51466a223c" x="153.872496" y="164.377532" style="fill: #bcbd22; fill-opacity: 0.7; stroke: #bcbd22; stroke-opacity: 0.7"/>
    </g>
    <g clip-path="url(#pf3d2273d03)">
     <use xlink:href="#C0_0_51466a223c" x="198.435954" y="274.056479" style="fill: #bcbd22; fill-opacity: 0.7; stroke: #bcbd22; stroke-opacity: 0.7"/>
    </g>
    <g clip-path="url(#pf3d2273d03)">
     <use xlink:href="#C0_0_51466a223c" x="193.021396" y="93.037211" style="fill: #bcbd22; fill-opacity: 0.7; stroke: #bcbd22; stroke-opacity: 0.7"/>
    </g>
    <g clip-path="url(#pf3d2273d03)">
     <use xlink:href="#C0_0_51466a223c" x="143.808662" y="153.687709" style="fill: #bcbd22; fill-opacity: 0.7; stroke: #bcbd22; stroke-opacity: 0.7"/>
    </g>
    <g clip-path="url(#pf3d2273d03)">
     <use xlink:href="#C0_0_51466a223c" x="209.767871" y="128.509862" style="fill: #bcbd22; fill-opacity: 0.7; stroke: #bcbd22; stroke-opacity: 0.7"/>
    </g>
    <g clip-path="url(#pf3d2273d03)">
     <use xlink:href="#C0_0_51466a223c" x="198.864766" y="105.090449" style="fill: #bcbd22; fill-opacity: 0.7; stroke: #bcbd22; stroke-opacity: 0.7"/>
    </g>
    <g clip-path="url(#pf3d2273d03)">
     <use xlink:href="#C0_0_51466a223c" x="165.388405" y="111.291811" style="fill: #bcbd22; fill-opacity: 0.7; stroke: #bcbd22; stroke-opacity: 0.7"/>
    </g>
    <g clip-path="url(#pf3d2273d03)">
     <use xlink:href="#C0_0_51466a223c" x="217.367863" y="127.808723" style="fill: #bcbd22; fill-opacity: 0.7; stroke: #bcbd22; stroke-opacity: 0.7"/>
    </g>
    <g clip-path="url(#pf3d2273d03)">
     <use xlink:href="#C0_0_51466a223c" x="191.693386" y="92.614084" style="fill: #bcbd22; fill-opacity: 0.7; stroke: #bcbd22; stroke-opacity: 0.7"/>
    </g>
    <g clip-path="url(#pf3d2273d03)">
     <use xlink:href="#C0_0_51466a223c" x="280.52418" y="66.272036" style="fill: #17becf; fill-opacity: 0.7; stroke: #17becf; stroke-opacity: 0.7"/>
    </g>
    <g clip-path="url(#pf3d2273d03)">
     <use xlink:href="#C0_0_51466a223c" x="257.101392" y="42.876242" style="fill: #17becf; fill-opacity: 0.7; stroke: #17becf; stroke-opacity: 0.7"/>
    </g>
    <g clip-path="url(#pf3d2273d03)">
     <use xlink:href="#C0_0_51466a223c" x="253.196838" y="92.189568" style="fill: #17becf; fill-opacity: 0.7; stroke: #17becf; stroke-opacity: 0.7"/>
    </g>
    <g clip-path="url(#pf3d2273d03)">
     <use xlink:href="#C0_0_51466a223c" x="225.905747" y="71.056022" style="fill: #17becf; fill-opacity: 0.7; stroke: #17becf; stroke-opacity: 0.7"/>
    </g>
    <g clip-path="url(#pf3d2273d03)">
     <use xlink:href="#C0_0_51466a223c" x="206.857216" y="90.382612" style="fill: #17becf; fill-opacity: 0.7; stroke: #17becf; stroke-opacity: 0.7"/>
    </g>
    <g clip-path="url(#pf3d2273d03)">
     <use xlink:href="#C0_0_51466a223c" x="226.040476" y="79.767622" style="fill: #17becf; fill-opacity: 0.7; stroke: #17becf; stroke-opacity: 0.7"/>
    </g>
    <g clip-path="url(#pf3d2273d03)">
     <use xlink:href="#C0_0_51466a223c" x="235.195308" y="76.070311" style="fill: #17becf; fill-opacity: 0.7; stroke: #17becf; stroke-opacity: 0.7"/>
    </g>
    <g clip-path="url(#pf3d2273d03)">
     <use xlink:href="#C0_0_51466a223c" x="277.334626" y="75.943506" style="fill: #17becf; fill-opacity: 0.7; stroke: #17becf; stroke-opacity: 0.7"/>
    </g>
    <g clip-path="url(#pf3d2273d03)">
     <use xlink:href="#C0_0_51466a223c" x="236.599787" y="61.30924" style="fill: #17becf; fill-opacity: 0.7; stroke: #17becf; stroke-opacity: 0.7"/>
    </g>
    <g clip-path="url(#pf3d2273d03)">
     <use xlink:href="#C0_0_51466a223c" x="258.424506" y="62.36026" style="fill: #17becf; fill-opacity: 0.7; stroke: #17becf; stroke-opacity: 0.7"/>
    </g>
    <g clip-path="url(#pf3d2273d03)">
     <use xlink:href="#C0_0_51466a223c" x="156.70649" y="217.36876" style="fill: #9edae5; fill-opacity: 0.7; stroke: #9edae5; stroke-opacity: 0.7"/>
    </g>
    <g clip-path="url(#pf3d2273d03)">
     <use xlink:href="#C0_0_51466a223c" x="312.843383" y="65.740195" style="fill: #9edae5; fill-opacity: 0.7; stroke: #9edae5; stroke-opacity: 0.7"/>
    </g>
    <g clip-path="url(#pf3d2273d03)">
     <use xlink:href="#C0_0_51466a223c" x="219.84397" y="230.388593" style="fill: #9edae5; fill-opacity: 0.7; stroke: #9edae5; stroke-opacity: 0.7"/>
    </g>
    <g clip-path="url(#pf3d2273d03)">
     <use xlink:href="#C0_0_51466a223c" x="184.567077" y="66.858432" style="fill: #9edae5; fill-opacity: 0.7; stroke: #9edae5; stroke-opacity: 0.7"/>
    </g>
    <g clip-path="url(#pf3d2273d03)">
     <use xlink:href="#C0_0_51466a223c" x="296.974914" y="84.429705" style="fill: #9edae5; fill-opacity: 0.7; stroke: #9edae5; stroke-opacity: 0.7"/>
    </g>
    <g clip-path="url(#pf3d2273d03)">
     <use xlink:href="#C0_0_51466a223c" x="295.61247" y="71.356024" style="fill: #9edae5; fill-opacity: 0.7; stroke: #9edae5; stroke-opacity: 0.7"/>
    </g>
    <g clip-path="url(#pf3d2273d03)">
     <use xlink:href="#C0_0_51466a223c" x="312.28556" y="76.795326" style="fill: #9edae5; fill-opacity: 0.7; stroke: #9edae5; stroke-opacity: 0.7"/>
    </g>
    <g clip-path="url(#pf3d2273d03)">
     <use xlink:href="#C0_0_51466a223c" x="325.840609" y="82.75112" style="fill: #9edae5; fill-opacity: 0.7; stroke: #9edae5; stroke-opacity: 0.7"/>
    </g>
    <g clip-path="url(#pf3d2273d03)">
     <use xlink:href="#C0_0_51466a223c" x="318.522413" y="66.811506" style="fill: #9edae5; fill-opacity: 0.7; stroke: #9edae5; stroke-opacity: 0.7"/>
    </g>
    <g clip-path="url(#pf3d2273d03)">
     <use xlink:href="#C0_0_51466a223c" x="128.199275" y="178.732807" style="fill: #9edae5; fill-opacity: 0.7; stroke: #9edae5; stroke-opacity: 0.7"/>
    </g>
   </g>
   <g id="matplotlib.axis_1"/>
   <g id="matplotlib.axis_2"/>
   <g id="patch_3">
    <path d="M 10.8 349.2 
L 10.8 26.88 
" style="fill: none; stroke: #000000; stroke-width: 0.8; stroke-linejoin: miter; stroke-linecap: square"/>
   </g>
   <g id="patch_4">
    <path d="M 421.2 349.2 
L 421.2 26.88 
" style="fill: none; stroke: #000000; stroke-width: 0.8; stroke-linejoin: miter; stroke-linecap: square"/>
   </g>
   <g id="patch_5">
    <path d="M 10.8 349.2 
L 421.2 349.2 
" style="fill: none; stroke: #000000; stroke-width: 0.8; stroke-linejoin: miter; stroke-linecap: square"/>
   </g>
   <g id="patch_6">
    <path d="M 10.8 26.88 
L 421.2 26.88 
" style="fill: none; stroke: #000000; stroke-width: 0.8; stroke-linejoin: miter; stroke-linecap: square"/>
   </g>
   <g id="text_1">
    <!-- t-SNE: real -->
    <g transform="translate(184.09875 20.88) scale(0.12 -0.12)">
     <defs>
      <path id="DejaVuSans-74" d="M 1172 4494 
L 1172 3500 
L 2356 3500 
L 2356 3053 
L 1172 3053 
L 1172 1153 
Q 1172 725 1289 603 
Q 1406 481 1766 481 
L 2356 481 
L 2356 0 
L 1766 0 
Q 1100 0 847 248 
Q 594 497 594 1153 
L 594 3053 
L 172 3053 
L 172 3500 
L 594 3500 
L 594 4494 
L 1172 4494 
z
" transform="scale(0.015625)"/>
      <path id="DejaVuSans-2d" d="M 313 2009 
L 1997 2009 
L 1997 1497 
L 313 1497 
L 313 2009 
z
" transform="scale(0.015625)"/>
      <path id="DejaVuSans-53" d="M 3425 4513 
L 3425 3897 
Q 3066 4069 2747 4153 
Q 2428 4238 2131 4238 
Q 1616 4238 1336 4038 
Q 1056 3838 1056 3469 
Q 1056 3159 1242 3001 
Q 1428 2844 1947 2747 
L 2328 2669 
Q 3034 2534 3370 2195 
Q 3706 1856 3706 1288 
Q 3706 609 3251 259 
Q 2797 -91 1919 -91 
Q 1588 -91 1214 -16 
Q 841 59 441 206 
L 441 856 
Q 825 641 1194 531 
Q 1563 422 1919 422 
Q 2459 422 2753 634 
Q 3047 847 3047 1241 
Q 3047 1584 2836 1778 
Q 2625 1972 2144 2069 
L 1759 2144 
Q 1053 2284 737 2584 
Q 422 2884 422 3419 
Q 422 4038 858 4394 
Q 1294 4750 2059 4750 
Q 2388 4750 2728 4690 
Q 3069 4631 3425 4513 
z
" transform="scale(0.015625)"/>
      <path id="DejaVuSans-4e" d="M 628 4666 
L 1478 4666 
L 3547 763 
L 3547 4666 
L 4159 4666 
L 4159 0 
L 3309 0 
L 1241 3903 
L 1241 0 
L 628 0 
L 628 4666 
z
" transform="scale(0.015625)"/>
      <path id="DejaVuSans-45" d="M 628 4666 
L 3578 4666 
L 3578 4134 
L 1259 4134 
L 1259 2753 
L 3481 2753 
L 3481 2222 
L 1259 2222 
L 1259 531 
L 3634 531 
L 3634 0 
L 628 0 
L 628 4666 
z
" transform="scale(0.015625)"/>
      <path id="DejaVuSans-3a" d="M 750 794 
L 1409 794 
L 1409 0 
L 750 0 
L 750 794 
z
M 750 3309 
L 1409 3309 
L 1409 2516 
L 750 2516 
L 750 3309 
z
" transform="scale(0.015625)"/>
      <path id="DejaVuSans-20" transform="scale(0.015625)"/>
      <path id="DejaVuSans-72" d="M 2631 2963 
Q 2534 3019 2420 3045 
Q 2306 3072 2169 3072 
Q 1681 3072 1420 2755 
Q 1159 2438 1159 1844 
L 1159 0 
L 581 0 
L 581 3500 
L 1159 3500 
L 1159 2956 
Q 1341 3275 1631 3429 
Q 1922 3584 2338 3584 
Q 2397 3584 2469 3576 
Q 2541 3569 2628 3553 
L 2631 2963 
z
" transform="scale(0.015625)"/>
      <path id="DejaVuSans-65" d="M 3597 1894 
L 3597 1613 
L 953 1613 
Q 991 1019 1311 708 
Q 1631 397 2203 397 
Q 2534 397 2845 478 
Q 3156 559 3463 722 
L 3463 178 
Q 3153 47 2828 -22 
Q 2503 -91 2169 -91 
Q 1331 -91 842 396 
Q 353 884 353 1716 
Q 353 2575 817 3079 
Q 1281 3584 2069 3584 
Q 2775 3584 3186 3129 
Q 3597 2675 3597 1894 
z
M 3022 2063 
Q 3016 2534 2758 2815 
Q 2500 3097 2075 3097 
Q 1594 3097 1305 2825 
Q 1016 2553 972 2059 
L 3022 2063 
z
" transform="scale(0.015625)"/>
      <path id="DejaVuSans-61" d="M 2194 1759 
Q 1497 1759 1228 1600 
Q 959 1441 959 1056 
Q 959 750 1161 570 
Q 1363 391 1709 391 
Q 2188 391 2477 730 
Q 2766 1069 2766 1631 
L 2766 1759 
L 2194 1759 
z
M 3341 1997 
L 3341 0 
L 2766 0 
L 2766 531 
Q 2569 213 2275 61 
Q 1981 -91 1556 -91 
Q 1019 -91 701 211 
Q 384 513 384 1019 
Q 384 1609 779 1909 
Q 1175 2209 1959 2209 
L 2766 2209 
L 2766 2266 
Q 2766 2663 2505 2880 
Q 2244 3097 1772 3097 
Q 1472 3097 1187 3025 
Q 903 2953 641 2809 
L 641 3341 
Q 956 3463 1253 3523 
Q 1550 3584 1831 3584 
Q 2591 3584 2966 3190 
Q 3341 2797 3341 1997 
z
" transform="scale(0.015625)"/>
      <path id="DejaVuSans-6c" d="M 603 4863 
L 1178 4863 
L 1178 0 
L 603 0 
L 603 4863 
z
" transform="scale(0.015625)"/>
     </defs>
     <use xlink:href="#DejaVuSans-74"/>
     <use xlink:href="#DejaVuSans-2d" transform="translate(39.208984 0)"/>
     <use xlink:href="#DejaVuSans-53" transform="translate(75.292969 0)"/>
     <use xlink:href="#DejaVuSans-4e" transform="translate(138.769531 0)"/>
     <use xlink:href="#DejaVuSans-45" transform="translate(213.574219 0)"/>
     <use xlink:href="#DejaVuSans-3a" transform="translate(276.757812 0)"/>
     <use xlink:href="#DejaVuSans-20" transform="translate(310.449219 0)"/>
     <use xlink:href="#DejaVuSans-72" transform="translate(342.236328 0)"/>
     <use xlink:href="#DejaVuSans-65" transform="translate(381.099609 0)"/>
     <use xlink:href="#DejaVuSans-61" transform="translate(442.623047 0)"/>
     <use xlink:href="#DejaVuSans-6c" transform="translate(503.902344 0)"/>
    </g>
   </g>
  </g>
 </g>
 <defs>
  <clipPath id="pf3d2273d03">
   <rect x="10.8" y="26.88" width="410.4" height="322.32"/>
  </clipPath>
 </defs>
</svg>
