<?xml version="1.0" encoding="utf-8" standalone="no"?>
<!DOCTYPE svg PUBLIC "-//W3C//DTD SVG 1.1//EN"
  "http://www.w3.org/Graphics/SVG/1.1/DTD/svg11.dtd">
<svg xmlns:xlink="http://www.w3.org/1999/xlink" width="432pt" height="360pt" viewBox="0 0 432 360" xmlns="http://www.w3.org/2000/svg" version="1.1">
 <metadata>
  <rdf:RDF xmlns:dc="http://purl.org/dc/elements/1.1/" xmlns:cc="http://creativecommons.org/ns#" xmlns:rdf="http://www.w3.org/1999/02/22-rdf-syntax-ns#">
   <cc:Work>
    <dc:type rdf:resource="http://purl.org/dc/dcmitype/StillImage"/>
    <dc:date>2025-06-16T01:16:35.121828</dc:date>
    <dc:format>image/svg+xml</dc:format>
    <dc:creator>
     <cc:Agent>
      <dc:title>Matplotlib v3.10.1, https://matplotlib.org/</dc:title>
     </cc:Agent>
    </dc:creator>
   </cc:Work>
  </rdf:RDF>
 </metadata>
 <defs>
  <style type="text/css">*{stroke-linejoin: round; stroke-linecap: butt}</style>
 </defs>
 <g id="figure_1">
  <g id="patch_1">
   <path d="M 0 360 
L 432 360 
L 432 0 
L 0 0 
z
" style="fill: #ffffff"/>
  </g>
  <g id="axes_1">
   <g id="patch_2">
    <path d="M 10.8 349.2 
L 421.2 349.2 
L 421.2 26.88 
L 10.8 26.88 
z
" style="fill: #ffffff"/>
   </g>
   <g id="PathCollection_1">
    <defs>
     <path id="C0_0_6e38697f88" d="M 0 2.236068 
C 0.593012 2.236068 1.161816 2.000462 1.581139 1.581139 
C 2.000462 1.161816 2.236068 0.593012 2.236068 -0 
C 2.236068 -0.593012 2.000462 -1.161816 1.581139 -1.581139 
C 1.161816 -2.000462 0.593012 -2.236068 0 -2.236068 
C -0.593012 -2.236068 -1.161816 -2.000462 -1.581139 -1.581139 
C -2.000462 -1.161816 -2.236068 -0.593012 -2.236068 0 
C -2.236068 0.593012 -2.000462 1.161816 -1.581139 1.581139 
C -1.161816 2.000462 -0.593012 2.236068 0 2.236068 
z
"/>
    </defs>
    <g clip-path="url(#p9f27765de1)">
     <use xlink:href="#C0_0_6e38697f88" x="213.654014" y="251.018673" style="fill: #1f77b4; fill-opacity: 0.7; stroke: #1f77b4; stroke-opacity: 0.7"/>
    </g>
    <g clip-path="url(#p9f27765de1)">
     <use xlink:href="#C0_0_6e38697f88" x="166.138314" y="235.621611" style="fill: #1f77b4; fill-opacity: 0.7; stroke: #1f77b4; stroke-opacity: 0.7"/>
    </g>
    <g clip-path="url(#p9f27765de1)">
     <use xlink:href="#C0_0_6e38697f88" x="190.595228" y="290.41607" style="fill: #1f77b4; fill-opacity: 0.7; stroke: #1f77b4; stroke-opacity: 0.7"/>
    </g>
    <g clip-path="url(#p9f27765de1)">
     <use xlink:href="#C0_0_6e38697f88" x="213.376439" y="262.450793" style="fill: #1f77b4; fill-opacity: 0.7; stroke: #1f77b4; stroke-opacity: 0.7"/>
    </g>
    <g clip-path="url(#p9f27765de1)">
     <use xlink:href="#C0_0_6e38697f88" x="182.174819" y="301.160844" style="fill: #1f77b4; fill-opacity: 0.7; stroke: #1f77b4; stroke-opacity: 0.7"/>
    </g>
    <g clip-path="url(#p9f27765de1)">
     <use xlink:href="#C0_0_6e38697f88" x="206.910533" y="315.5393" style="fill: #1f77b4; fill-opacity: 0.7; stroke: #1f77b4; stroke-opacity: 0.7"/>
    </g>
    <g clip-path="url(#p9f27765de1)">
     <use xlink:href="#C0_0_6e38697f88" x="196.604142" y="269.686335" style="fill: #1f77b4; fill-opacity: 0.7; stroke: #1f77b4; stroke-opacity: 0.7"/>
    </g>
    <g clip-path="url(#p9f27765de1)">
     <use xlink:href="#C0_0_6e38697f88" x="239.43782" y="297.517704" style="fill: #1f77b4; fill-opacity: 0.7; stroke: #1f77b4; stroke-opacity: 0.7"/>
    </g>
    <g clip-path="url(#p9f27765de1)">
     <use xlink:href="#C0_0_6e38697f88" x="200.768706" y="278.480181" style="fill: #1f77b4; fill-opacity: 0.7; stroke: #1f77b4; stroke-opacity: 0.7"/>
    </g>
    <g clip-path="url(#p9f27765de1)">
     <use xlink:href="#C0_0_6e38697f88" x="234.520526" y="281.673799" style="fill: #1f77b4; fill-opacity: 0.7; stroke: #1f77b4; stroke-opacity: 0.7"/>
    </g>
    <g clip-path="url(#p9f27765de1)">
     <use xlink:href="#C0_0_6e38697f88" x="130.61078" y="319.935623" style="fill: #aec7e8; fill-opacity: 0.7; stroke: #aec7e8; stroke-opacity: 0.7"/>
    </g>
    <g clip-path="url(#p9f27765de1)">
     <use xlink:href="#C0_0_6e38697f88" x="131.130269" y="321.646094" style="fill: #aec7e8; fill-opacity: 0.7; stroke: #aec7e8; stroke-opacity: 0.7"/>
    </g>
    <g clip-path="url(#p9f27765de1)">
     <use xlink:href="#C0_0_6e38697f88" x="133.55925" y="313.256285" style="fill: #aec7e8; fill-opacity: 0.7; stroke: #aec7e8; stroke-opacity: 0.7"/>
    </g>
    <g clip-path="url(#p9f27765de1)">
     <use xlink:href="#C0_0_6e38697f88" x="322.804849" y="232.090171" style="fill: #aec7e8; fill-opacity: 0.7; stroke: #aec7e8; stroke-opacity: 0.7"/>
    </g>
    <g clip-path="url(#p9f27765de1)">
     <use xlink:href="#C0_0_6e38697f88" x="271.707338" y="214.429448" style="fill: #aec7e8; fill-opacity: 0.7; stroke: #aec7e8; stroke-opacity: 0.7"/>
    </g>
    <g clip-path="url(#p9f27765de1)">
     <use xlink:href="#C0_0_6e38697f88" x="198.859426" y="198.233404" style="fill: #aec7e8; fill-opacity: 0.7; stroke: #aec7e8; stroke-opacity: 0.7"/>
    </g>
    <g clip-path="url(#p9f27765de1)">
     <use xlink:href="#C0_0_6e38697f88" x="313.215449" y="218.062025" style="fill: #aec7e8; fill-opacity: 0.7; stroke: #aec7e8; stroke-opacity: 0.7"/>
    </g>
    <g clip-path="url(#p9f27765de1)">
     <use xlink:href="#C0_0_6e38697f88" x="284.793805" y="228.627031" style="fill: #aec7e8; fill-opacity: 0.7; stroke: #aec7e8; stroke-opacity: 0.7"/>
    </g>
    <g clip-path="url(#p9f27765de1)">
     <use xlink:href="#C0_0_6e38697f88" x="196.198234" y="185.850468" style="fill: #aec7e8; fill-opacity: 0.7; stroke: #aec7e8; stroke-opacity: 0.7"/>
    </g>
    <g clip-path="url(#p9f27765de1)">
     <use xlink:href="#C0_0_6e38697f88" x="187.374073" y="184.381417" style="fill: #aec7e8; fill-opacity: 0.7; stroke: #aec7e8; stroke-opacity: 0.7"/>
    </g>
    <g clip-path="url(#p9f27765de1)">
     <use xlink:href="#C0_0_6e38697f88" x="213.885063" y="235.271369" style="fill: #ffbb78; fill-opacity: 0.7; stroke: #ffbb78; stroke-opacity: 0.7"/>
    </g>
    <g clip-path="url(#p9f27765de1)">
     <use xlink:href="#C0_0_6e38697f88" x="224.774996" y="213.232092" style="fill: #ffbb78; fill-opacity: 0.7; stroke: #ffbb78; stroke-opacity: 0.7"/>
    </g>
    <g clip-path="url(#p9f27765de1)">
     <use xlink:href="#C0_0_6e38697f88" x="156.44576" y="219.626437" style="fill: #ffbb78; fill-opacity: 0.7; stroke: #ffbb78; stroke-opacity: 0.7"/>
    </g>
    <g clip-path="url(#p9f27765de1)">
     <use xlink:href="#C0_0_6e38697f88" x="248.198977" y="212.677874" style="fill: #ffbb78; fill-opacity: 0.7; stroke: #ffbb78; stroke-opacity: 0.7"/>
    </g>
    <g clip-path="url(#p9f27765de1)">
     <use xlink:href="#C0_0_6e38697f88" x="246.13331" y="241.894003" style="fill: #ffbb78; fill-opacity: 0.7; stroke: #ffbb78; stroke-opacity: 0.7"/>
    </g>
    <g clip-path="url(#p9f27765de1)">
     <use xlink:href="#C0_0_6e38697f88" x="236.448933" y="201.992735" style="fill: #ffbb78; fill-opacity: 0.7; stroke: #ffbb78; stroke-opacity: 0.7"/>
    </g>
    <g clip-path="url(#p9f27765de1)">
     <use xlink:href="#C0_0_6e38697f88" x="219.633075" y="184.347205" style="fill: #ffbb78; fill-opacity: 0.7; stroke: #ffbb78; stroke-opacity: 0.7"/>
    </g>
    <g clip-path="url(#p9f27765de1)">
     <use xlink:href="#C0_0_6e38697f88" x="228.455348" y="214.462441" style="fill: #ffbb78; fill-opacity: 0.7; stroke: #ffbb78; stroke-opacity: 0.7"/>
    </g>
    <g clip-path="url(#p9f27765de1)">
     <use xlink:href="#C0_0_6e38697f88" x="180.283431" y="219.628298" style="fill: #ffbb78; fill-opacity: 0.7; stroke: #ffbb78; stroke-opacity: 0.7"/>
    </g>
    <g clip-path="url(#p9f27765de1)">
     <use xlink:href="#C0_0_6e38697f88" x="243.003691" y="157.29087" style="fill: #ffbb78; fill-opacity: 0.7; stroke: #ffbb78; stroke-opacity: 0.7"/>
    </g>
    <g clip-path="url(#p9f27765de1)">
     <use xlink:href="#C0_0_6e38697f88" x="364.998368" y="162.320404" style="fill: #98df8a; fill-opacity: 0.7; stroke: #98df8a; stroke-opacity: 0.7"/>
    </g>
    <g clip-path="url(#p9f27765de1)">
     <use xlink:href="#C0_0_6e38697f88" x="323.128641" y="147.26392" style="fill: #98df8a; fill-opacity: 0.7; stroke: #98df8a; stroke-opacity: 0.7"/>
    </g>
    <g clip-path="url(#p9f27765de1)">
     <use xlink:href="#C0_0_6e38697f88" x="332.540799" y="168.837432" style="fill: #98df8a; fill-opacity: 0.7; stroke: #98df8a; stroke-opacity: 0.7"/>
    </g>
    <g clip-path="url(#p9f27765de1)">
     <use xlink:href="#C0_0_6e38697f88" x="344.318721" y="166.332945" style="fill: #98df8a; fill-opacity: 0.7; stroke: #98df8a; stroke-opacity: 0.7"/>
    </g>
    <g clip-path="url(#p9f27765de1)">
     <use xlink:href="#C0_0_6e38697f88" x="353.604422" y="148.537795" style="fill: #98df8a; fill-opacity: 0.7; stroke: #98df8a; stroke-opacity: 0.7"/>
    </g>
    <g clip-path="url(#p9f27765de1)">
     <use xlink:href="#C0_0_6e38697f88" x="390.136024" y="156.757157" style="fill: #98df8a; fill-opacity: 0.7; stroke: #98df8a; stroke-opacity: 0.7"/>
    </g>
    <g clip-path="url(#p9f27765de1)">
     <use xlink:href="#C0_0_6e38697f88" x="387.336847" y="159.348036" style="fill: #98df8a; fill-opacity: 0.7; stroke: #98df8a; stroke-opacity: 0.7"/>
    </g>
    <g clip-path="url(#p9f27765de1)">
     <use xlink:href="#C0_0_6e38697f88" x="352.713008" y="162.453824" style="fill: #98df8a; fill-opacity: 0.7; stroke: #98df8a; stroke-opacity: 0.7"/>
    </g>
    <g clip-path="url(#p9f27765de1)">
     <use xlink:href="#C0_0_6e38697f88" x="336.182894" y="134.606425" style="fill: #98df8a; fill-opacity: 0.7; stroke: #98df8a; stroke-opacity: 0.7"/>
    </g>
    <g clip-path="url(#p9f27765de1)">
     <use xlink:href="#C0_0_6e38697f88" x="372.362836" y="142.007631" style="fill: #98df8a; fill-opacity: 0.7; stroke: #98df8a; stroke-opacity: 0.7"/>
    </g>
    <g clip-path="url(#p9f27765de1)">
     <use xlink:href="#C0_0_6e38697f88" x="119.119057" y="221.129844" style="fill: #d62728; fill-opacity: 0.7; stroke: #d62728; stroke-opacity: 0.7"/>
    </g>
    <g clip-path="url(#p9f27765de1)">
     <use xlink:href="#C0_0_6e38697f88" x="228.822471" y="223.777607" style="fill: #d62728; fill-opacity: 0.7; stroke: #d62728; stroke-opacity: 0.7"/>
    </g>
    <g clip-path="url(#p9f27765de1)">
     <use xlink:href="#C0_0_6e38697f88" x="223.891251" y="236.939571" style="fill: #d62728; fill-opacity: 0.7; stroke: #d62728; stroke-opacity: 0.7"/>
    </g>
    <g clip-path="url(#p9f27765de1)">
     <use xlink:href="#C0_0_6e38697f88" x="38.220832" y="218.842836" style="fill: #d62728; fill-opacity: 0.7; stroke: #d62728; stroke-opacity: 0.7"/>
    </g>
    <g clip-path="url(#p9f27765de1)">
     <use xlink:href="#C0_0_6e38697f88" x="77.909449" y="174.931435" style="fill: #d62728; fill-opacity: 0.7; stroke: #d62728; stroke-opacity: 0.7"/>
    </g>
    <g clip-path="url(#p9f27765de1)">
     <use xlink:href="#C0_0_6e38697f88" x="40.01973" y="214.151374" style="fill: #d62728; fill-opacity: 0.7; stroke: #d62728; stroke-opacity: 0.7"/>
    </g>
    <g clip-path="url(#p9f27765de1)">
     <use xlink:href="#C0_0_6e38697f88" x="29.454545" y="208.535726" style="fill: #d62728; fill-opacity: 0.7; stroke: #d62728; stroke-opacity: 0.7"/>
    </g>
    <g clip-path="url(#p9f27765de1)">
     <use xlink:href="#C0_0_6e38697f88" x="64.890569" y="225.158025" style="fill: #d62728; fill-opacity: 0.7; stroke: #d62728; stroke-opacity: 0.7"/>
    </g>
    <g clip-path="url(#p9f27765de1)">
     <use xlink:href="#C0_0_6e38697f88" x="29.500955" y="211.237115" style="fill: #d62728; fill-opacity: 0.7; stroke: #d62728; stroke-opacity: 0.7"/>
    </g>
    <g clip-path="url(#p9f27765de1)">
     <use xlink:href="#C0_0_6e38697f88" x="61.828079" y="207.107095" style="fill: #d62728; fill-opacity: 0.7; stroke: #d62728; stroke-opacity: 0.7"/>
    </g>
    <g clip-path="url(#p9f27765de1)">
     <use xlink:href="#C0_0_6e38697f88" x="304.214876" y="280.06075" style="fill: #9467bd; fill-opacity: 0.7; stroke: #9467bd; stroke-opacity: 0.7"/>
    </g>
    <g clip-path="url(#p9f27765de1)">
     <use xlink:href="#C0_0_6e38697f88" x="200.603147" y="226.364298" style="fill: #9467bd; fill-opacity: 0.7; stroke: #9467bd; stroke-opacity: 0.7"/>
    </g>
    <g clip-path="url(#p9f27765de1)">
     <use xlink:href="#C0_0_6e38697f88" x="244.378314" y="185.986851" style="fill: #9467bd; fill-opacity: 0.7; stroke: #9467bd; stroke-opacity: 0.7"/>
    </g>
    <g clip-path="url(#p9f27765de1)">
     <use xlink:href="#C0_0_6e38697f88" x="166.912856" y="152.489292" style="fill: #9467bd; fill-opacity: 0.7; stroke: #9467bd; stroke-opacity: 0.7"/>
    </g>
    <g clip-path="url(#p9f27765de1)">
     <use xlink:href="#C0_0_6e38697f88" x="222.289322" y="165.378383" style="fill: #9467bd; fill-opacity: 0.7; stroke: #9467bd; stroke-opacity: 0.7"/>
    </g>
    <g clip-path="url(#p9f27765de1)">
     <use xlink:href="#C0_0_6e38697f88" x="280.481553" y="173.945135" style="fill: #9467bd; fill-opacity: 0.7; stroke: #9467bd; stroke-opacity: 0.7"/>
    </g>
    <g clip-path="url(#p9f27765de1)">
     <use xlink:href="#C0_0_6e38697f88" x="188.046596" y="164.404722" style="fill: #9467bd; fill-opacity: 0.7; stroke: #9467bd; stroke-opacity: 0.7"/>
    </g>
    <g clip-path="url(#p9f27765de1)">
     <use xlink:href="#C0_0_6e38697f88" x="291.224771" y="159.31168" style="fill: #9467bd; fill-opacity: 0.7; stroke: #9467bd; stroke-opacity: 0.7"/>
    </g>
    <g clip-path="url(#p9f27765de1)">
     <use xlink:href="#C0_0_6e38697f88" x="194.989686" y="177.173897" style="fill: #9467bd; fill-opacity: 0.7; stroke: #9467bd; stroke-opacity: 0.7"/>
    </g>
    <g clip-path="url(#p9f27765de1)">
     <use xlink:href="#C0_0_6e38697f88" x="287.11645" y="168.422173" style="fill: #9467bd; fill-opacity: 0.7; stroke: #9467bd; stroke-opacity: 0.7"/>
    </g>
    <g clip-path="url(#p9f27765de1)">
     <use xlink:href="#C0_0_6e38697f88" x="180.30848" y="247.904283" style="fill: #8c564b; fill-opacity: 0.7; stroke: #8c564b; stroke-opacity: 0.7"/>
    </g>
    <g clip-path="url(#p9f27765de1)">
     <use xlink:href="#C0_0_6e38697f88" x="142.699837" y="270.855131" style="fill: #8c564b; fill-opacity: 0.7; stroke: #8c564b; stroke-opacity: 0.7"/>
    </g>
    <g clip-path="url(#p9f27765de1)">
     <use xlink:href="#C0_0_6e38697f88" x="164.5947" y="271.543592" style="fill: #8c564b; fill-opacity: 0.7; stroke: #8c564b; stroke-opacity: 0.7"/>
    </g>
    <g clip-path="url(#p9f27765de1)">
     <use xlink:href="#C0_0_6e38697f88" x="164.379446" y="277.331342" style="fill: #8c564b; fill-opacity: 0.7; stroke: #8c564b; stroke-opacity: 0.7"/>
    </g>
    <g clip-path="url(#p9f27765de1)">
     <use xlink:href="#C0_0_6e38697f88" x="146.424953" y="275.89402" style="fill: #8c564b; fill-opacity: 0.7; stroke: #8c564b; stroke-opacity: 0.7"/>
    </g>
    <g clip-path="url(#p9f27765de1)">
     <use xlink:href="#C0_0_6e38697f88" x="149.528769" y="293.382987" style="fill: #8c564b; fill-opacity: 0.7; stroke: #8c564b; stroke-opacity: 0.7"/>
    </g>
    <g clip-path="url(#p9f27765de1)">
     <use xlink:href="#C0_0_6e38697f88" x="147.55893" y="258.849187" style="fill: #8c564b; fill-opacity: 0.7; stroke: #8c564b; stroke-opacity: 0.7"/>
    </g>
    <g clip-path="url(#p9f27765de1)">
     <use xlink:href="#C0_0_6e38697f88" x="121.51854" y="265.651324" style="fill: #8c564b; fill-opacity: 0.7; stroke: #8c564b; stroke-opacity: 0.7"/>
    </g>
    <g clip-path="url(#p9f27765de1)">
     <use xlink:href="#C0_0_6e38697f88" x="152.31862" y="279.582983" style="fill: #8c564b; fill-opacity: 0.7; stroke: #8c564b; stroke-opacity: 0.7"/>
    </g>
    <g clip-path="url(#p9f27765de1)">
     <use xlink:href="#C0_0_6e38697f88" x="157.765215" y="263.876849" style="fill: #8c564b; fill-opacity: 0.7; stroke: #8c564b; stroke-opacity: 0.7"/>
    </g>
    <g clip-path="url(#p9f27765de1)">
     <use xlink:href="#C0_0_6e38697f88" x="208.207307" y="253.675742" style="fill: #c49c94; fill-opacity: 0.7; stroke: #c49c94; stroke-opacity: 0.7"/>
    </g>
    <g clip-path="url(#p9f27765de1)">
     <use xlink:href="#C0_0_6e38697f88" x="202.020356" y="215.596881" style="fill: #c49c94; fill-opacity: 0.7; stroke: #c49c94; stroke-opacity: 0.7"/>
    </g>
    <g clip-path="url(#p9f27765de1)">
     <use xlink:href="#C0_0_6e38697f88" x="168.57974" y="180.354991" style="fill: #c49c94; fill-opacity: 0.7; stroke: #c49c94; stroke-opacity: 0.7"/>
    </g>
    <g clip-path="url(#p9f27765de1)">
     <use xlink:href="#C0_0_6e38697f88" x="97.334109" y="203.021093" style="fill: #c49c94; fill-opacity: 0.7; stroke: #c49c94; stroke-opacity: 0.7"/>
    </g>
    <g clip-path="url(#p9f27765de1)">
     <use xlink:href="#C0_0_6e38697f88" x="248.387519" y="259.51096" style="fill: #c49c94; fill-opacity: 0.7; stroke: #c49c94; stroke-opacity: 0.7"/>
    </g>
    <g clip-path="url(#p9f27765de1)">
     <use xlink:href="#C0_0_6e38697f88" x="145.011433" y="183.689945" style="fill: #c49c94; fill-opacity: 0.7; stroke: #c49c94; stroke-opacity: 0.7"/>
    </g>
    <g clip-path="url(#p9f27765de1)">
     <use xlink:href="#C0_0_6e38697f88" x="124.590079" y="185.7005" style="fill: #c49c94; fill-opacity: 0.7; stroke: #c49c94; stroke-opacity: 0.7"/>
    </g>
    <g clip-path="url(#p9f27765de1)">
     <use xlink:href="#C0_0_6e38697f88" x="93.563044" y="204.388009" style="fill: #c49c94; fill-opacity: 0.7; stroke: #c49c94; stroke-opacity: 0.7"/>
    </g>
    <g clip-path="url(#p9f27765de1)">
     <use xlink:href="#C0_0_6e38697f88" x="176.54545" y="199.303249" style="fill: #c49c94; fill-opacity: 0.7; stroke: #c49c94; stroke-opacity: 0.7"/>
    </g>
    <g clip-path="url(#p9f27765de1)">
     <use xlink:href="#C0_0_6e38697f88" x="100.201149" y="198.932812" style="fill: #c49c94; fill-opacity: 0.7; stroke: #c49c94; stroke-opacity: 0.7"/>
    </g>
    <g clip-path="url(#p9f27765de1)">
     <use xlink:href="#C0_0_6e38697f88" x="230.866407" y="245.660479" style="fill: #f7b6d2; fill-opacity: 0.7; stroke: #f7b6d2; stroke-opacity: 0.7"/>
    </g>
    <g clip-path="url(#p9f27765de1)">
     <use xlink:href="#C0_0_6e38697f88" x="191.486671" y="233.463214" style="fill: #f7b6d2; fill-opacity: 0.7; stroke: #f7b6d2; stroke-opacity: 0.7"/>
    </g>
    <g clip-path="url(#p9f27765de1)">
     <use xlink:href="#C0_0_6e38697f88" x="346.307207" y="198.930706" style="fill: #f7b6d2; fill-opacity: 0.7; stroke: #f7b6d2; stroke-opacity: 0.7"/>
    </g>
    <g clip-path="url(#p9f27765de1)">
     <use xlink:href="#C0_0_6e38697f88" x="324.737616" y="201.117992" style="fill: #f7b6d2; fill-opacity: 0.7; stroke: #f7b6d2; stroke-opacity: 0.7"/>
    </g>
    <g clip-path="url(#p9f27765de1)">
     <use xlink:href="#C0_0_6e38697f88" x="324.885843" y="218.413141" style="fill: #f7b6d2; fill-opacity: 0.7; stroke: #f7b6d2; stroke-opacity: 0.7"/>
    </g>
    <g clip-path="url(#p9f27765de1)">
     <use xlink:href="#C0_0_6e38697f88" x="325.82124" y="210.014784" style="fill: #f7b6d2; fill-opacity: 0.7; stroke: #f7b6d2; stroke-opacity: 0.7"/>
    </g>
    <g clip-path="url(#p9f27765de1)">
     <use xlink:href="#C0_0_6e38697f88" x="278.713097" y="186.126348" style="fill: #f7b6d2; fill-opacity: 0.7; stroke: #f7b6d2; stroke-opacity: 0.7"/>
    </g>
    <g clip-path="url(#p9f27765de1)">
     <use xlink:href="#C0_0_6e38697f88" x="304.691967" y="202.306125" style="fill: #f7b6d2; fill-opacity: 0.7; stroke: #f7b6d2; stroke-opacity: 0.7"/>
    </g>
    <g clip-path="url(#p9f27765de1)">
     <use xlink:href="#C0_0_6e38697f88" x="208.394866" y="159.67365" style="fill: #f7b6d2; fill-opacity: 0.7; stroke: #f7b6d2; stroke-opacity: 0.7"/>
    </g>
    <g clip-path="url(#p9f27765de1)">
     <use xlink:href="#C0_0_6e38697f88" x="335.419361" y="225.204663" style="fill: #f7b6d2; fill-opacity: 0.7; stroke: #f7b6d2; stroke-opacity: 0.7"/>
    </g>
    <g clip-path="url(#p9f27765de1)">
     <use xlink:href="#C0_0_6e38697f88" x="329.480015" y="334.549091" style="fill: #c7c7c7; fill-opacity: 0.7; stroke: #c7c7c7; stroke-opacity: 0.7"/>
    </g>
    <g clip-path="url(#p9f27765de1)">
     <use xlink:href="#C0_0_6e38697f88" x="339.707459" y="322.76988" style="fill: #c7c7c7; fill-opacity: 0.7; stroke: #c7c7c7; stroke-opacity: 0.7"/>
    </g>
    <g clip-path="url(#p9f27765de1)">
     <use xlink:href="#C0_0_6e38697f88" x="315.633197" y="312.82469" style="fill: #c7c7c7; fill-opacity: 0.7; stroke: #c7c7c7; stroke-opacity: 0.7"/>
    </g>
    <g clip-path="url(#p9f27765de1)">
     <use xlink:href="#C0_0_6e38697f88" x="324.352354" y="309.322007" style="fill: #c7c7c7; fill-opacity: 0.7; stroke: #c7c7c7; stroke-opacity: 0.7"/>
    </g>
    <g clip-path="url(#p9f27765de1)">
     <use xlink:href="#C0_0_6e38697f88" x="316.589713" y="327.531449" style="fill: #c7c7c7; fill-opacity: 0.7; stroke: #c7c7c7; stroke-opacity: 0.7"/>
    </g>
    <g clip-path="url(#p9f27765de1)">
     <use xlink:href="#C0_0_6e38697f88" x="311.352793" y="320.909865" style="fill: #c7c7c7; fill-opacity: 0.7; stroke: #c7c7c7; stroke-opacity: 0.7"/>
    </g>
    <g clip-path="url(#p9f27765de1)">
     <use xlink:href="#C0_0_6e38697f88" x="340.233911" y="330.47622" style="fill: #c7c7c7; fill-opacity: 0.7; stroke: #c7c7c7; stroke-opacity: 0.7"/>
    </g>
    <g clip-path="url(#p9f27765de1)">
     <use xlink:href="#C0_0_6e38697f88" x="324.831992" y="334.093398" style="fill: #c7c7c7; fill-opacity: 0.7; stroke: #c7c7c7; stroke-opacity: 0.7"/>
    </g>
    <g clip-path="url(#p9f27765de1)">
     <use xlink:href="#C0_0_6e38697f88" x="306.324262" y="296.095922" style="fill: #c7c7c7; fill-opacity: 0.7; stroke: #c7c7c7; stroke-opacity: 0.7"/>
    </g>
    <g clip-path="url(#p9f27765de1)">
     <use xlink:href="#C0_0_6e38697f88" x="323.106721" y="314.055893" style="fill: #c7c7c7; fill-opacity: 0.7; stroke: #c7c7c7; stroke-opacity: 0.7"/>
    </g>
    <g clip-path="url(#p9f27765de1)">
     <use xlink:href="#C0_0_6e38697f88" x="264.497908" y="101.713394" style="fill: #bcbd22; fill-opacity: 0.7; stroke: #bcbd22; stroke-opacity: 0.7"/>
    </g>
    <g clip-path="url(#p9f27765de1)">
     <use xlink:href="#C0_0_6e38697f88" x="273.282059" y="110.114196" style="fill: #bcbd22; fill-opacity: 0.7; stroke: #bcbd22; stroke-opacity: 0.7"/>
    </g>
    <g clip-path="url(#p9f27765de1)">
     <use xlink:href="#C0_0_6e38697f88" x="204.113332" y="131.739082" style="fill: #bcbd22; fill-opacity: 0.7; stroke: #bcbd22; stroke-opacity: 0.7"/>
    </g>
    <g clip-path="url(#p9f27765de1)">
     <use xlink:href="#C0_0_6e38697f88" x="242.27239" y="69.088142" style="fill: #bcbd22; fill-opacity: 0.7; stroke: #bcbd22; stroke-opacity: 0.7"/>
    </g>
    <g clip-path="url(#p9f27765de1)">
     <use xlink:href="#C0_0_6e38697f88" x="253.731726" y="88.614966" style="fill: #bcbd22; fill-opacity: 0.7; stroke: #bcbd22; stroke-opacity: 0.7"/>
    </g>
    <g clip-path="url(#p9f27765de1)">
     <use xlink:href="#C0_0_6e38697f88" x="242.353913" y="93.583864" style="fill: #bcbd22; fill-opacity: 0.7; stroke: #bcbd22; stroke-opacity: 0.7"/>
    </g>
    <g clip-path="url(#p9f27765de1)">
     <use xlink:href="#C0_0_6e38697f88" x="248.63381" y="87.006453" style="fill: #bcbd22; fill-opacity: 0.7; stroke: #bcbd22; stroke-opacity: 0.7"/>
    </g>
    <g clip-path="url(#p9f27765de1)">
     <use xlink:href="#C0_0_6e38697f88" x="235.925915" y="93.482222" style="fill: #bcbd22; fill-opacity: 0.7; stroke: #bcbd22; stroke-opacity: 0.7"/>
    </g>
    <g clip-path="url(#p9f27765de1)">
     <use xlink:href="#C0_0_6e38697f88" x="232.820523" y="73.426474" style="fill: #bcbd22; fill-opacity: 0.7; stroke: #bcbd22; stroke-opacity: 0.7"/>
    </g>
    <g clip-path="url(#p9f27765de1)">
     <use xlink:href="#C0_0_6e38697f88" x="234.630793" y="77.866811" style="fill: #bcbd22; fill-opacity: 0.7; stroke: #bcbd22; stroke-opacity: 0.7"/>
    </g>
    <g clip-path="url(#p9f27765de1)">
     <use xlink:href="#C0_0_6e38697f88" x="361.03462" y="62.56312" style="fill: #17becf; fill-opacity: 0.7; stroke: #17becf; stroke-opacity: 0.7"/>
    </g>
    <g clip-path="url(#p9f27765de1)">
     <use xlink:href="#C0_0_6e38697f88" x="353.890098" y="62.028113" style="fill: #17becf; fill-opacity: 0.7; stroke: #17becf; stroke-opacity: 0.7"/>
    </g>
    <g clip-path="url(#p9f27765de1)">
     <use xlink:href="#C0_0_6e38697f88" x="359.544788" y="56.204225" style="fill: #17becf; fill-opacity: 0.7; stroke: #17becf; stroke-opacity: 0.7"/>
    </g>
    <g clip-path="url(#p9f27765de1)">
     <use xlink:href="#C0_0_6e38697f88" x="400.927413" y="57.255728" style="fill: #17becf; fill-opacity: 0.7; stroke: #17becf; stroke-opacity: 0.7"/>
    </g>
    <g clip-path="url(#p9f27765de1)">
     <use xlink:href="#C0_0_6e38697f88" x="368.484691" y="50.378346" style="fill: #17becf; fill-opacity: 0.7; stroke: #17becf; stroke-opacity: 0.7"/>
    </g>
    <g clip-path="url(#p9f27765de1)">
     <use xlink:href="#C0_0_6e38697f88" x="385.14773" y="66.732418" style="fill: #17becf; fill-opacity: 0.7; stroke: #17becf; stroke-opacity: 0.7"/>
    </g>
    <g clip-path="url(#p9f27765de1)">
     <use xlink:href="#C0_0_6e38697f88" x="402.545455" y="59.724004" style="fill: #17becf; fill-opacity: 0.7; stroke: #17becf; stroke-opacity: 0.7"/>
    </g>
    <g clip-path="url(#p9f27765de1)">
     <use xlink:href="#C0_0_6e38697f88" x="382.91021" y="81.888147" style="fill: #17becf; fill-opacity: 0.7; stroke: #17becf; stroke-opacity: 0.7"/>
    </g>
    <g clip-path="url(#p9f27765de1)">
     <use xlink:href="#C0_0_6e38697f88" x="387.235358" y="66.0033" style="fill: #17becf; fill-opacity: 0.7; stroke: #17becf; stroke-opacity: 0.7"/>
    </g>
    <g clip-path="url(#p9f27765de1)">
     <use xlink:href="#C0_0_6e38697f88" x="345.628799" y="41.530909" style="fill: #17becf; fill-opacity: 0.7; stroke: #17becf; stroke-opacity: 0.7"/>
    </g>
    <g clip-path="url(#p9f27765de1)">
     <use xlink:href="#C0_0_6e38697f88" x="95.872024" y="102.86292" style="fill: #9edae5; fill-opacity: 0.7; stroke: #9edae5; stroke-opacity: 0.7"/>
    </g>
    <g clip-path="url(#p9f27765de1)">
     <use xlink:href="#C0_0_6e38697f88" x="80.325877" y="94.423243" style="fill: #9edae5; fill-opacity: 0.7; stroke: #9edae5; stroke-opacity: 0.7"/>
    </g>
    <g clip-path="url(#p9f27765de1)">
     <use xlink:href="#C0_0_6e38697f88" x="115.562958" y="105.520961" style="fill: #9edae5; fill-opacity: 0.7; stroke: #9edae5; stroke-opacity: 0.7"/>
    </g>
    <g clip-path="url(#p9f27765de1)">
     <use xlink:href="#C0_0_6e38697f88" x="104.778889" y="92.208016" style="fill: #9edae5; fill-opacity: 0.7; stroke: #9edae5; stroke-opacity: 0.7"/>
    </g>
    <g clip-path="url(#p9f27765de1)">
     <use xlink:href="#C0_0_6e38697f88" x="94.054786" y="77.261425" style="fill: #9edae5; fill-opacity: 0.7; stroke: #9edae5; stroke-opacity: 0.7"/>
    </g>
    <g clip-path="url(#p9f27765de1)">
     <use xlink:href="#C0_0_6e38697f88" x="94.003304" y="97.056887" style="fill: #9edae5; fill-opacity: 0.7; stroke: #9edae5; stroke-opacity: 0.7"/>
    </g>
    <g clip-path="url(#p9f27765de1)">
     <use xlink:href="#C0_0_6e38697f88" x="108.445503" y="87.834068" style="fill: #9edae5; fill-opacity: 0.7; stroke: #9edae5; stroke-opacity: 0.7"/>
    </g>
    <g clip-path="url(#p9f27765de1)">
     <use xlink:href="#C0_0_6e38697f88" x="101.311725" y="110.034668" style="fill: #9edae5; fill-opacity: 0.7; stroke: #9edae5; stroke-opacity: 0.7"/>
    </g>
    <g clip-path="url(#p9f27765de1)">
     <use xlink:href="#C0_0_6e38697f88" x="87.767799" y="83.824386" style="fill: #9edae5; fill-opacity: 0.7; stroke: #9edae5; stroke-opacity: 0.7"/>
    </g>
    <g clip-path="url(#p9f27765de1)">
     <use xlink:href="#C0_0_6e38697f88" x="128.725426" y="102.659455" style="fill: #9edae5; fill-opacity: 0.7; stroke: #9edae5; stroke-opacity: 0.7"/>
    </g>
   </g>
   <g id="matplotlib.axis_1"/>
   <g id="matplotlib.axis_2"/>
   <g id="patch_3">
    <path d="M 10.8 349.2 
L 10.8 26.88 
" style="fill: none; stroke: #000000; stroke-width: 0.8; stroke-linejoin: miter; stroke-linecap: square"/>
   </g>
   <g id="patch_4">
    <path d="M 421.2 349.2 
L 421.2 26.88 
" style="fill: none; stroke: #000000; stroke-width: 0.8; stroke-linejoin: miter; stroke-linecap: square"/>
   </g>
   <g id="patch_5">
    <path d="M 10.8 349.2 
L 421.2 349.2 
" style="fill: none; stroke: #000000; stroke-width: 0.8; stroke-linejoin: miter; stroke-linecap: square"/>
   </g>
   <g id="patch_6">
    <path d="M 10.8 26.88 
L 421.2 26.88 
" style="fill: none; stroke: #000000; stroke-width: 0.8; stroke-linejoin: miter; stroke-linecap: square"/>
   </g>
   <g id="text_1">
    <!-- t-SNE: ti_v1_up -->
    <g transform="translate(170.466563 20.88) scale(0.12 -0.12)">
     <defs>
      <path id="DejaVuSans-74" d="M 1172 4494 
L 1172 3500 
L 2356 3500 
L 2356 3053 
L 1172 3053 
L 1172 1153 
Q 1172 725 1289 603 
Q 1406 481 1766 481 
L 2356 481 
L 2356 0 
L 1766 0 
Q 1100 0 847 248 
Q 594 497 594 1153 
L 594 3053 
L 172 3053 
L 172 3500 
L 594 3500 
L 594 4494 
L 1172 4494 
z
" transform="scale(0.015625)"/>
      <path id="DejaVuSans-2d" d="M 313 2009 
L 1997 2009 
L 1997 1497 
L 313 1497 
L 313 2009 
z
" transform="scale(0.015625)"/>
      <path id="DejaVuSans-53" d="M 3425 4513 
L 3425 3897 
Q 3066 4069 2747 4153 
Q 2428 4238 2131 4238 
Q 1616 4238 1336 4038 
Q 1056 3838 1056 3469 
Q 1056 3159 1242 3001 
Q 1428 2844 1947 2747 
L 2328 2669 
Q 3034 2534 3370 2195 
Q 3706 1856 3706 1288 
Q 3706 609 3251 259 
Q 2797 -91 1919 -91 
Q 1588 -91 1214 -16 
Q 841 59 441 206 
L 441 856 
Q 825 641 1194 531 
Q 1563 422 1919 422 
Q 2459 422 2753 634 
Q 3047 847 3047 1241 
Q 3047 1584 2836 1778 
Q 2625 1972 2144 2069 
L 1759 2144 
Q 1053 2284 737 2584 
Q 422 2884 422 3419 
Q 422 4038 858 4394 
Q 1294 4750 2059 4750 
Q 2388 4750 2728 4690 
Q 3069 4631 3425 4513 
z
" transform="scale(0.015625)"/>
      <path id="DejaVuSans-4e" d="M 628 4666 
L 1478 4666 
L 3547 763 
L 3547 4666 
L 4159 4666 
L 4159 0 
L 3309 0 
L 1241 3903 
L 1241 0 
L 628 0 
L 628 4666 
z
" transform="scale(0.015625)"/>
      <path id="DejaVuSans-45" d="M 628 4666 
L 3578 4666 
L 3578 4134 
L 1259 4134 
L 1259 2753 
L 3481 2753 
L 3481 2222 
L 1259 2222 
L 1259 531 
L 3634 531 
L 3634 0 
L 628 0 
L 628 4666 
z
" transform="scale(0.015625)"/>
      <path id="DejaVuSans-3a" d="M 750 794 
L 1409 794 
L 1409 0 
L 750 0 
L 750 794 
z
M 750 3309 
L 1409 3309 
L 1409 2516 
L 750 2516 
L 750 3309 
z
" transform="scale(0.015625)"/>
      <path id="DejaVuSans-20" transform="scale(0.015625)"/>
      <path id="DejaVuSans-69" d="M 603 3500 
L 1178 3500 
L 1178 0 
L 603 0 
L 603 3500 
z
M 603 4863 
L 1178 4863 
L 1178 4134 
L 603 4134 
L 603 4863 
z
" transform="scale(0.015625)"/>
      <path id="DejaVuSans-5f" d="M 3263 -1063 
L 3263 -1509 
L -63 -1509 
L -63 -1063 
L 3263 -1063 
z
" transform="scale(0.015625)"/>
      <path id="DejaVuSans-76" d="M 191 3500 
L 800 3500 
L 1894 563 
L 2988 3500 
L 3597 3500 
L 2284 0 
L 1503 0 
L 191 3500 
z
" transform="scale(0.015625)"/>
      <path id="DejaVuSans-31" d="M 794 531 
L 1825 531 
L 1825 4091 
L 703 3866 
L 703 4441 
L 1819 4666 
L 2450 4666 
L 2450 531 
L 3481 531 
L 3481 0 
L 794 0 
L 794 531 
z
" transform="scale(0.015625)"/>
      <path id="DejaVuSans-75" d="M 544 1381 
L 544 3500 
L 1119 3500 
L 1119 1403 
Q 1119 906 1312 657 
Q 1506 409 1894 409 
Q 2359 409 2629 706 
Q 2900 1003 2900 1516 
L 2900 3500 
L 3475 3500 
L 3475 0 
L 2900 0 
L 2900 538 
Q 2691 219 2414 64 
Q 2138 -91 1772 -91 
Q 1169 -91 856 284 
Q 544 659 544 1381 
z
M 1991 3584 
L 1991 3584 
z
" transform="scale(0.015625)"/>
      <path id="DejaVuSans-70" d="M 1159 525 
L 1159 -1331 
L 581 -1331 
L 581 3500 
L 1159 3500 
L 1159 2969 
Q 1341 3281 1617 3432 
Q 1894 3584 2278 3584 
Q 2916 3584 3314 3078 
Q 3713 2572 3713 1747 
Q 3713 922 3314 415 
Q 2916 -91 2278 -91 
Q 1894 -91 1617 61 
Q 1341 213 1159 525 
z
M 3116 1747 
Q 3116 2381 2855 2742 
Q 2594 3103 2138 3103 
Q 1681 3103 1420 2742 
Q 1159 2381 1159 1747 
Q 1159 1113 1420 752 
Q 1681 391 2138 391 
Q 2594 391 2855 752 
Q 3116 1113 3116 1747 
z
" transform="scale(0.015625)"/>
     </defs>
     <use xlink:href="#DejaVuSans-74"/>
     <use xlink:href="#DejaVuSans-2d" transform="translate(39.208984 0)"/>
     <use xlink:href="#DejaVuSans-53" transform="translate(75.292969 0)"/>
     <use xlink:href="#DejaVuSans-4e" transform="translate(138.769531 0)"/>
     <use xlink:href="#DejaVuSans-45" transform="translate(213.574219 0)"/>
     <use xlink:href="#DejaVuSans-3a" transform="translate(276.757812 0)"/>
     <use xlink:href="#DejaVuSans-20" transform="translate(310.449219 0)"/>
     <use xlink:href="#DejaVuSans-74" transform="translate(342.236328 0)"/>
     <use xlink:href="#DejaVuSans-69" transform="translate(381.445312 0)"/>
     <use xlink:href="#DejaVuSans-5f" transform="translate(409.228516 0)"/>
     <use xlink:href="#DejaVuSans-76" transform="translate(459.228516 0)"/>
     <use xlink:href="#DejaVuSans-31" transform="translate(518.408203 0)"/>
     <use xlink:href="#DejaVuSans-5f" transform="translate(582.03125 0)"/>
     <use xlink:href="#DejaVuSans-75" transform="translate(632.03125 0)"/>
     <use xlink:href="#DejaVuSans-70" transform="translate(695.410156 0)"/>
    </g>
   </g>
  </g>
 </g>
 <defs>
  <clipPath id="p9f27765de1">
   <rect x="10.8" y="26.88" width="410.4" height="322.32"/>
  </clipPath>
 </defs>
</svg>
