<?xml version="1.0" encoding="utf-8" standalone="no"?>
<!DOCTYPE svg PUBLIC "-//W3C//DTD SVG 1.1//EN"
  "http://www.w3.org/Graphics/SVG/1.1/DTD/svg11.dtd">
<svg xmlns:xlink="http://www.w3.org/1999/xlink" width="432pt" height="360pt" viewBox="0 0 432 360" xmlns="http://www.w3.org/2000/svg" version="1.1">
 <metadata>
  <rdf:RDF xmlns:dc="http://purl.org/dc/elements/1.1/" xmlns:cc="http://creativecommons.org/ns#" xmlns:rdf="http://www.w3.org/1999/02/22-rdf-syntax-ns#">
   <cc:Work>
    <dc:type rdf:resource="http://purl.org/dc/dcmitype/StillImage"/>
    <dc:date>2025-06-16T01:16:36.715160</dc:date>
    <dc:format>image/svg+xml</dc:format>
    <dc:creator>
     <cc:Agent>
      <dc:title>Matplotlib v3.10.1, https://matplotlib.org/</dc:title>
     </cc:Agent>
    </dc:creator>
   </cc:Work>
  </rdf:RDF>
 </metadata>
 <defs>
  <style type="text/css">*{stroke-linejoin: round; stroke-linecap: butt}</style>
 </defs>
 <g id="figure_1">
  <g id="patch_1">
   <path d="M 0 360 
L 432 360 
L 432 0 
L 0 0 
z
" style="fill: #ffffff"/>
  </g>
  <g id="axes_1">
   <g id="patch_2">
    <path d="M 10.8 349.2 
L 421.2 349.2 
L 421.2 26.88 
L 10.8 26.88 
z
" style="fill: #ffffff"/>
   </g>
   <g id="PathCollection_1">
    <defs>
     <path id="C0_0_740331de2e" d="M 0 2.236068 
C 0.593012 2.236068 1.161816 2.000462 1.581139 1.581139 
C 2.000462 1.161816 2.236068 0.593012 2.236068 -0 
C 2.236068 -0.593012 2.000462 -1.161816 1.581139 -1.581139 
C 1.161816 -2.000462 0.593012 -2.236068 0 -2.236068 
C -0.593012 -2.236068 -1.161816 -2.000462 -1.581139 -1.581139 
C -2.000462 -1.161816 -2.236068 -0.593012 -2.236068 0 
C -2.236068 0.593012 -2.000462 1.161816 -1.581139 1.581139 
C -1.161816 2.000462 -0.593012 2.236068 0 2.236068 
z
"/>
    </defs>
    <g clip-path="url(#p58314d445d)">
     <use xlink:href="#C0_0_740331de2e" x="346.78307" y="55.125857" style="fill: #1f77b4; fill-opacity: 0.7; stroke: #1f77b4; stroke-opacity: 0.7"/>
    </g>
    <g clip-path="url(#p58314d445d)">
     <use xlink:href="#C0_0_740331de2e" x="385.544495" y="73.207154" style="fill: #1f77b4; fill-opacity: 0.7; stroke: #1f77b4; stroke-opacity: 0.7"/>
    </g>
    <g clip-path="url(#p58314d445d)">
     <use xlink:href="#C0_0_740331de2e" x="383.481726" y="69.455032" style="fill: #1f77b4; fill-opacity: 0.7; stroke: #1f77b4; stroke-opacity: 0.7"/>
    </g>
    <g clip-path="url(#p58314d445d)">
     <use xlink:href="#C0_0_740331de2e" x="239.895622" y="61.793346" style="fill: #1f77b4; fill-opacity: 0.7; stroke: #1f77b4; stroke-opacity: 0.7"/>
    </g>
    <g clip-path="url(#p58314d445d)">
     <use xlink:href="#C0_0_740331de2e" x="376.033426" y="62.429284" style="fill: #1f77b4; fill-opacity: 0.7; stroke: #1f77b4; stroke-opacity: 0.7"/>
    </g>
    <g clip-path="url(#p58314d445d)">
     <use xlink:href="#C0_0_740331de2e" x="387.5223" y="74.46155" style="fill: #1f77b4; fill-opacity: 0.7; stroke: #1f77b4; stroke-opacity: 0.7"/>
    </g>
    <g clip-path="url(#p58314d445d)">
     <use xlink:href="#C0_0_740331de2e" x="370.334845" y="41.530909" style="fill: #1f77b4; fill-opacity: 0.7; stroke: #1f77b4; stroke-opacity: 0.7"/>
    </g>
    <g clip-path="url(#p58314d445d)">
     <use xlink:href="#C0_0_740331de2e" x="344.192538" y="83.687566" style="fill: #1f77b4; fill-opacity: 0.7; stroke: #1f77b4; stroke-opacity: 0.7"/>
    </g>
    <g clip-path="url(#p58314d445d)">
     <use xlink:href="#C0_0_740331de2e" x="185.44888" y="147.210203" style="fill: #1f77b4; fill-opacity: 0.7; stroke: #1f77b4; stroke-opacity: 0.7"/>
    </g>
    <g clip-path="url(#p58314d445d)">
     <use xlink:href="#C0_0_740331de2e" x="353.228022" y="72.62777" style="fill: #1f77b4; fill-opacity: 0.7; stroke: #1f77b4; stroke-opacity: 0.7"/>
    </g>
    <g clip-path="url(#p58314d445d)">
     <use xlink:href="#C0_0_740331de2e" x="302.761796" y="97.149277" style="fill: #aec7e8; fill-opacity: 0.7; stroke: #aec7e8; stroke-opacity: 0.7"/>
    </g>
    <g clip-path="url(#p58314d445d)">
     <use xlink:href="#C0_0_740331de2e" x="306.304114" y="115.816569" style="fill: #aec7e8; fill-opacity: 0.7; stroke: #aec7e8; stroke-opacity: 0.7"/>
    </g>
    <g clip-path="url(#p58314d445d)">
     <use xlink:href="#C0_0_740331de2e" x="314.184574" y="130.167158" style="fill: #aec7e8; fill-opacity: 0.7; stroke: #aec7e8; stroke-opacity: 0.7"/>
    </g>
    <g clip-path="url(#p58314d445d)">
     <use xlink:href="#C0_0_740331de2e" x="242.988661" y="107.105869" style="fill: #aec7e8; fill-opacity: 0.7; stroke: #aec7e8; stroke-opacity: 0.7"/>
    </g>
    <g clip-path="url(#p58314d445d)">
     <use xlink:href="#C0_0_740331de2e" x="312.943988" y="103.894426" style="fill: #aec7e8; fill-opacity: 0.7; stroke: #aec7e8; stroke-opacity: 0.7"/>
    </g>
    <g clip-path="url(#p58314d445d)">
     <use xlink:href="#C0_0_740331de2e" x="303.650926" y="95.815855" style="fill: #aec7e8; fill-opacity: 0.7; stroke: #aec7e8; stroke-opacity: 0.7"/>
    </g>
    <g clip-path="url(#p58314d445d)">
     <use xlink:href="#C0_0_740331de2e" x="268.672123" y="207.859402" style="fill: #aec7e8; fill-opacity: 0.7; stroke: #aec7e8; stroke-opacity: 0.7"/>
    </g>
    <g clip-path="url(#p58314d445d)">
     <use xlink:href="#C0_0_740331de2e" x="247.025855" y="90.820783" style="fill: #aec7e8; fill-opacity: 0.7; stroke: #aec7e8; stroke-opacity: 0.7"/>
    </g>
    <g clip-path="url(#p58314d445d)">
     <use xlink:href="#C0_0_740331de2e" x="237.247979" y="106.214611" style="fill: #aec7e8; fill-opacity: 0.7; stroke: #aec7e8; stroke-opacity: 0.7"/>
    </g>
    <g clip-path="url(#p58314d445d)">
     <use xlink:href="#C0_0_740331de2e" x="267.58282" y="172.585159" style="fill: #aec7e8; fill-opacity: 0.7; stroke: #aec7e8; stroke-opacity: 0.7"/>
    </g>
    <g clip-path="url(#p58314d445d)">
     <use xlink:href="#C0_0_740331de2e" x="308.288801" y="148.622158" style="fill: #ffbb78; fill-opacity: 0.7; stroke: #ffbb78; stroke-opacity: 0.7"/>
    </g>
    <g clip-path="url(#p58314d445d)">
     <use xlink:href="#C0_0_740331de2e" x="319.722255" y="148.232242" style="fill: #ffbb78; fill-opacity: 0.7; stroke: #ffbb78; stroke-opacity: 0.7"/>
    </g>
    <g clip-path="url(#p58314d445d)">
     <use xlink:href="#C0_0_740331de2e" x="196.999729" y="190.082004" style="fill: #ffbb78; fill-opacity: 0.7; stroke: #ffbb78; stroke-opacity: 0.7"/>
    </g>
    <g clip-path="url(#p58314d445d)">
     <use xlink:href="#C0_0_740331de2e" x="229.219442" y="170.541016" style="fill: #ffbb78; fill-opacity: 0.7; stroke: #ffbb78; stroke-opacity: 0.7"/>
    </g>
    <g clip-path="url(#p58314d445d)">
     <use xlink:href="#C0_0_740331de2e" x="249.581111" y="178.269659" style="fill: #ffbb78; fill-opacity: 0.7; stroke: #ffbb78; stroke-opacity: 0.7"/>
    </g>
    <g clip-path="url(#p58314d445d)">
     <use xlink:href="#C0_0_740331de2e" x="315.420458" y="140.979652" style="fill: #ffbb78; fill-opacity: 0.7; stroke: #ffbb78; stroke-opacity: 0.7"/>
    </g>
    <g clip-path="url(#p58314d445d)">
     <use xlink:href="#C0_0_740331de2e" x="185.57788" y="179.267" style="fill: #ffbb78; fill-opacity: 0.7; stroke: #ffbb78; stroke-opacity: 0.7"/>
    </g>
    <g clip-path="url(#p58314d445d)">
     <use xlink:href="#C0_0_740331de2e" x="239.70846" y="182.885035" style="fill: #ffbb78; fill-opacity: 0.7; stroke: #ffbb78; stroke-opacity: 0.7"/>
    </g>
    <g clip-path="url(#p58314d445d)">
     <use xlink:href="#C0_0_740331de2e" x="206.508907" y="194.926763" style="fill: #ffbb78; fill-opacity: 0.7; stroke: #ffbb78; stroke-opacity: 0.7"/>
    </g>
    <g clip-path="url(#p58314d445d)">
     <use xlink:href="#C0_0_740331de2e" x="188.586089" y="163.465963" style="fill: #ffbb78; fill-opacity: 0.7; stroke: #ffbb78; stroke-opacity: 0.7"/>
    </g>
    <g clip-path="url(#p58314d445d)">
     <use xlink:href="#C0_0_740331de2e" x="145.082541" y="226.709597" style="fill: #98df8a; fill-opacity: 0.7; stroke: #98df8a; stroke-opacity: 0.7"/>
    </g>
    <g clip-path="url(#p58314d445d)">
     <use xlink:href="#C0_0_740331de2e" x="118.88234" y="225.947179" style="fill: #98df8a; fill-opacity: 0.7; stroke: #98df8a; stroke-opacity: 0.7"/>
    </g>
    <g clip-path="url(#p58314d445d)">
     <use xlink:href="#C0_0_740331de2e" x="120.227666" y="194.356954" style="fill: #98df8a; fill-opacity: 0.7; stroke: #98df8a; stroke-opacity: 0.7"/>
    </g>
    <g clip-path="url(#p58314d445d)">
     <use xlink:href="#C0_0_740331de2e" x="237.626308" y="146.337444" style="fill: #98df8a; fill-opacity: 0.7; stroke: #98df8a; stroke-opacity: 0.7"/>
    </g>
    <g clip-path="url(#p58314d445d)">
     <use xlink:href="#C0_0_740331de2e" x="207.298243" y="124.675609" style="fill: #98df8a; fill-opacity: 0.7; stroke: #98df8a; stroke-opacity: 0.7"/>
    </g>
    <g clip-path="url(#p58314d445d)">
     <use xlink:href="#C0_0_740331de2e" x="121.310357" y="226.104458" style="fill: #98df8a; fill-opacity: 0.7; stroke: #98df8a; stroke-opacity: 0.7"/>
    </g>
    <g clip-path="url(#p58314d445d)">
     <use xlink:href="#C0_0_740331de2e" x="386.037804" y="132.634943" style="fill: #98df8a; fill-opacity: 0.7; stroke: #98df8a; stroke-opacity: 0.7"/>
    </g>
    <g clip-path="url(#p58314d445d)">
     <use xlink:href="#C0_0_740331de2e" x="238.064073" y="145.744169" style="fill: #98df8a; fill-opacity: 0.7; stroke: #98df8a; stroke-opacity: 0.7"/>
    </g>
    <g clip-path="url(#p58314d445d)">
     <use xlink:href="#C0_0_740331de2e" x="218.166102" y="132.597494" style="fill: #98df8a; fill-opacity: 0.7; stroke: #98df8a; stroke-opacity: 0.7"/>
    </g>
    <g clip-path="url(#p58314d445d)">
     <use xlink:href="#C0_0_740331de2e" x="216.750087" y="155.430641" style="fill: #98df8a; fill-opacity: 0.7; stroke: #98df8a; stroke-opacity: 0.7"/>
    </g>
    <g clip-path="url(#p58314d445d)">
     <use xlink:href="#C0_0_740331de2e" x="394.481348" y="176.366659" style="fill: #d62728; fill-opacity: 0.7; stroke: #d62728; stroke-opacity: 0.7"/>
    </g>
    <g clip-path="url(#p58314d445d)">
     <use xlink:href="#C0_0_740331de2e" x="340.562015" y="174.604213" style="fill: #d62728; fill-opacity: 0.7; stroke: #d62728; stroke-opacity: 0.7"/>
    </g>
    <g clip-path="url(#p58314d445d)">
     <use xlink:href="#C0_0_740331de2e" x="349.193551" y="188.074232" style="fill: #d62728; fill-opacity: 0.7; stroke: #d62728; stroke-opacity: 0.7"/>
    </g>
    <g clip-path="url(#p58314d445d)">
     <use xlink:href="#C0_0_740331de2e" x="253.061069" y="227.015704" style="fill: #d62728; fill-opacity: 0.7; stroke: #d62728; stroke-opacity: 0.7"/>
    </g>
    <g clip-path="url(#p58314d445d)">
     <use xlink:href="#C0_0_740331de2e" x="357.866992" y="182.943158" style="fill: #d62728; fill-opacity: 0.7; stroke: #d62728; stroke-opacity: 0.7"/>
    </g>
    <g clip-path="url(#p58314d445d)">
     <use xlink:href="#C0_0_740331de2e" x="372.286177" y="182.997954" style="fill: #d62728; fill-opacity: 0.7; stroke: #d62728; stroke-opacity: 0.7"/>
    </g>
    <g clip-path="url(#p58314d445d)">
     <use xlink:href="#C0_0_740331de2e" x="272.56424" y="226.018783" style="fill: #d62728; fill-opacity: 0.7; stroke: #d62728; stroke-opacity: 0.7"/>
    </g>
    <g clip-path="url(#p58314d445d)">
     <use xlink:href="#C0_0_740331de2e" x="273.990458" y="227.640859" style="fill: #d62728; fill-opacity: 0.7; stroke: #d62728; stroke-opacity: 0.7"/>
    </g>
    <g clip-path="url(#p58314d445d)">
     <use xlink:href="#C0_0_740331de2e" x="311.331279" y="172.033905" style="fill: #d62728; fill-opacity: 0.7; stroke: #d62728; stroke-opacity: 0.7"/>
    </g>
    <g clip-path="url(#p58314d445d)">
     <use xlink:href="#C0_0_740331de2e" x="309.806637" y="230.090343" style="fill: #d62728; fill-opacity: 0.7; stroke: #d62728; stroke-opacity: 0.7"/>
    </g>
    <g clip-path="url(#p58314d445d)">
     <use xlink:href="#C0_0_740331de2e" x="243.221478" y="269.71883" style="fill: #9467bd; fill-opacity: 0.7; stroke: #9467bd; stroke-opacity: 0.7"/>
    </g>
    <g clip-path="url(#p58314d445d)">
     <use xlink:href="#C0_0_740331de2e" x="282.807642" y="283.475695" style="fill: #9467bd; fill-opacity: 0.7; stroke: #9467bd; stroke-opacity: 0.7"/>
    </g>
    <g clip-path="url(#p58314d445d)">
     <use xlink:href="#C0_0_740331de2e" x="305.424914" y="270.007377" style="fill: #9467bd; fill-opacity: 0.7; stroke: #9467bd; stroke-opacity: 0.7"/>
    </g>
    <g clip-path="url(#p58314d445d)">
     <use xlink:href="#C0_0_740331de2e" x="262.923995" y="251.870618" style="fill: #9467bd; fill-opacity: 0.7; stroke: #9467bd; stroke-opacity: 0.7"/>
    </g>
    <g clip-path="url(#p58314d445d)">
     <use xlink:href="#C0_0_740331de2e" x="254.305692" y="247.842408" style="fill: #9467bd; fill-opacity: 0.7; stroke: #9467bd; stroke-opacity: 0.7"/>
    </g>
    <g clip-path="url(#p58314d445d)">
     <use xlink:href="#C0_0_740331de2e" x="254.359375" y="268.421131" style="fill: #9467bd; fill-opacity: 0.7; stroke: #9467bd; stroke-opacity: 0.7"/>
    </g>
    <g clip-path="url(#p58314d445d)">
     <use xlink:href="#C0_0_740331de2e" x="235.028943" y="249.354088" style="fill: #9467bd; fill-opacity: 0.7; stroke: #9467bd; stroke-opacity: 0.7"/>
    </g>
    <g clip-path="url(#p58314d445d)">
     <use xlink:href="#C0_0_740331de2e" x="270.150174" y="256.970737" style="fill: #9467bd; fill-opacity: 0.7; stroke: #9467bd; stroke-opacity: 0.7"/>
    </g>
    <g clip-path="url(#p58314d445d)">
     <use xlink:href="#C0_0_740331de2e" x="233.630821" y="218.854801" style="fill: #9467bd; fill-opacity: 0.7; stroke: #9467bd; stroke-opacity: 0.7"/>
    </g>
    <g clip-path="url(#p58314d445d)">
     <use xlink:href="#C0_0_740331de2e" x="231.720027" y="219.356743" style="fill: #9467bd; fill-opacity: 0.7; stroke: #9467bd; stroke-opacity: 0.7"/>
    </g>
    <g clip-path="url(#p58314d445d)">
     <use xlink:href="#C0_0_740331de2e" x="284.378171" y="75.426369" style="fill: #8c564b; fill-opacity: 0.7; stroke: #8c564b; stroke-opacity: 0.7"/>
    </g>
    <g clip-path="url(#p58314d445d)">
     <use xlink:href="#C0_0_740331de2e" x="287.204759" y="68.78402" style="fill: #8c564b; fill-opacity: 0.7; stroke: #8c564b; stroke-opacity: 0.7"/>
    </g>
    <g clip-path="url(#p58314d445d)">
     <use xlink:href="#C0_0_740331de2e" x="257.608029" y="66.190309" style="fill: #8c564b; fill-opacity: 0.7; stroke: #8c564b; stroke-opacity: 0.7"/>
    </g>
    <g clip-path="url(#p58314d445d)">
     <use xlink:href="#C0_0_740331de2e" x="271.855857" y="128.215596" style="fill: #8c564b; fill-opacity: 0.7; stroke: #8c564b; stroke-opacity: 0.7"/>
    </g>
    <g clip-path="url(#p58314d445d)">
     <use xlink:href="#C0_0_740331de2e" x="292.949466" y="109.520463" style="fill: #8c564b; fill-opacity: 0.7; stroke: #8c564b; stroke-opacity: 0.7"/>
    </g>
    <g clip-path="url(#p58314d445d)">
     <use xlink:href="#C0_0_740331de2e" x="278.413614" y="75.438266" style="fill: #8c564b; fill-opacity: 0.7; stroke: #8c564b; stroke-opacity: 0.7"/>
    </g>
    <g clip-path="url(#p58314d445d)">
     <use xlink:href="#C0_0_740331de2e" x="255.079232" y="123.375957" style="fill: #8c564b; fill-opacity: 0.7; stroke: #8c564b; stroke-opacity: 0.7"/>
    </g>
    <g clip-path="url(#p58314d445d)">
     <use xlink:href="#C0_0_740331de2e" x="261.576881" y="128.904033" style="fill: #8c564b; fill-opacity: 0.7; stroke: #8c564b; stroke-opacity: 0.7"/>
    </g>
    <g clip-path="url(#p58314d445d)">
     <use xlink:href="#C0_0_740331de2e" x="277.504635" y="107.80744" style="fill: #8c564b; fill-opacity: 0.7; stroke: #8c564b; stroke-opacity: 0.7"/>
    </g>
    <g clip-path="url(#p58314d445d)">
     <use xlink:href="#C0_0_740331de2e" x="272.252813" y="141.580014" style="fill: #8c564b; fill-opacity: 0.7; stroke: #8c564b; stroke-opacity: 0.7"/>
    </g>
    <g clip-path="url(#p58314d445d)">
     <use xlink:href="#C0_0_740331de2e" x="367.295381" y="168.805539" style="fill: #c49c94; fill-opacity: 0.7; stroke: #c49c94; stroke-opacity: 0.7"/>
    </g>
    <g clip-path="url(#p58314d445d)">
     <use xlink:href="#C0_0_740331de2e" x="361.056962" y="217.296563" style="fill: #c49c94; fill-opacity: 0.7; stroke: #c49c94; stroke-opacity: 0.7"/>
    </g>
    <g clip-path="url(#p58314d445d)">
     <use xlink:href="#C0_0_740331de2e" x="374.422328" y="184.81127" style="fill: #c49c94; fill-opacity: 0.7; stroke: #c49c94; stroke-opacity: 0.7"/>
    </g>
    <g clip-path="url(#p58314d445d)">
     <use xlink:href="#C0_0_740331de2e" x="389.232627" y="219.868669" style="fill: #c49c94; fill-opacity: 0.7; stroke: #c49c94; stroke-opacity: 0.7"/>
    </g>
    <g clip-path="url(#p58314d445d)">
     <use xlink:href="#C0_0_740331de2e" x="362.282368" y="232.629971" style="fill: #c49c94; fill-opacity: 0.7; stroke: #c49c94; stroke-opacity: 0.7"/>
    </g>
    <g clip-path="url(#p58314d445d)">
     <use xlink:href="#C0_0_740331de2e" x="402.545455" y="205.822279" style="fill: #c49c94; fill-opacity: 0.7; stroke: #c49c94; stroke-opacity: 0.7"/>
    </g>
    <g clip-path="url(#p58314d445d)">
     <use xlink:href="#C0_0_740331de2e" x="357.065845" y="213.709502" style="fill: #c49c94; fill-opacity: 0.7; stroke: #c49c94; stroke-opacity: 0.7"/>
    </g>
    <g clip-path="url(#p58314d445d)">
     <use xlink:href="#C0_0_740331de2e" x="386.225579" y="204.212476" style="fill: #c49c94; fill-opacity: 0.7; stroke: #c49c94; stroke-opacity: 0.7"/>
    </g>
    <g clip-path="url(#p58314d445d)">
     <use xlink:href="#C0_0_740331de2e" x="352.467879" y="196.523996" style="fill: #c49c94; fill-opacity: 0.7; stroke: #c49c94; stroke-opacity: 0.7"/>
    </g>
    <g clip-path="url(#p58314d445d)">
     <use xlink:href="#C0_0_740331de2e" x="361.760576" y="234.2819" style="fill: #c49c94; fill-opacity: 0.7; stroke: #c49c94; stroke-opacity: 0.7"/>
    </g>
    <g clip-path="url(#p58314d445d)">
     <use xlink:href="#C0_0_740331de2e" x="289.078267" y="186.332692" style="fill: #f7b6d2; fill-opacity: 0.7; stroke: #f7b6d2; stroke-opacity: 0.7"/>
    </g>
    <g clip-path="url(#p58314d445d)">
     <use xlink:href="#C0_0_740331de2e" x="298.295062" y="195.045793" style="fill: #f7b6d2; fill-opacity: 0.7; stroke: #f7b6d2; stroke-opacity: 0.7"/>
    </g>
    <g clip-path="url(#p58314d445d)">
     <use xlink:href="#C0_0_740331de2e" x="308.562113" y="199.878778" style="fill: #f7b6d2; fill-opacity: 0.7; stroke: #f7b6d2; stroke-opacity: 0.7"/>
    </g>
    <g clip-path="url(#p58314d445d)">
     <use xlink:href="#C0_0_740331de2e" x="189.664178" y="221.937151" style="fill: #f7b6d2; fill-opacity: 0.7; stroke: #f7b6d2; stroke-opacity: 0.7"/>
    </g>
    <g clip-path="url(#p58314d445d)">
     <use xlink:href="#C0_0_740331de2e" x="185.535702" y="220.392679" style="fill: #f7b6d2; fill-opacity: 0.7; stroke: #f7b6d2; stroke-opacity: 0.7"/>
    </g>
    <g clip-path="url(#p58314d445d)">
     <use xlink:href="#C0_0_740331de2e" x="283.534908" y="175.84062" style="fill: #f7b6d2; fill-opacity: 0.7; stroke: #f7b6d2; stroke-opacity: 0.7"/>
    </g>
    <g clip-path="url(#p58314d445d)">
     <use xlink:href="#C0_0_740331de2e" x="195.836974" y="221.211335" style="fill: #f7b6d2; fill-opacity: 0.7; stroke: #f7b6d2; stroke-opacity: 0.7"/>
    </g>
    <g clip-path="url(#p58314d445d)">
     <use xlink:href="#C0_0_740331de2e" x="115.955783" y="206.363536" style="fill: #f7b6d2; fill-opacity: 0.7; stroke: #f7b6d2; stroke-opacity: 0.7"/>
    </g>
    <g clip-path="url(#p58314d445d)">
     <use xlink:href="#C0_0_740331de2e" x="174.552283" y="226.646899" style="fill: #f7b6d2; fill-opacity: 0.7; stroke: #f7b6d2; stroke-opacity: 0.7"/>
    </g>
    <g clip-path="url(#p58314d445d)">
     <use xlink:href="#C0_0_740331de2e" x="256.95028" y="159.510934" style="fill: #f7b6d2; fill-opacity: 0.7; stroke: #f7b6d2; stroke-opacity: 0.7"/>
    </g>
    <g clip-path="url(#p58314d445d)">
     <use xlink:href="#C0_0_740331de2e" x="332.814209" y="106.22437" style="fill: #c7c7c7; fill-opacity: 0.7; stroke: #c7c7c7; stroke-opacity: 0.7"/>
    </g>
    <g clip-path="url(#p58314d445d)">
     <use xlink:href="#C0_0_740331de2e" x="307.080375" y="78.725476" style="fill: #c7c7c7; fill-opacity: 0.7; stroke: #c7c7c7; stroke-opacity: 0.7"/>
    </g>
    <g clip-path="url(#p58314d445d)">
     <use xlink:href="#C0_0_740331de2e" x="352.565041" y="127.631289" style="fill: #c7c7c7; fill-opacity: 0.7; stroke: #c7c7c7; stroke-opacity: 0.7"/>
    </g>
    <g clip-path="url(#p58314d445d)">
     <use xlink:href="#C0_0_740331de2e" x="347.067875" y="123.297181" style="fill: #c7c7c7; fill-opacity: 0.7; stroke: #c7c7c7; stroke-opacity: 0.7"/>
    </g>
    <g clip-path="url(#p58314d445d)">
     <use xlink:href="#C0_0_740331de2e" x="169.476883" y="175.909069" style="fill: #c7c7c7; fill-opacity: 0.7; stroke: #c7c7c7; stroke-opacity: 0.7"/>
    </g>
    <g clip-path="url(#p58314d445d)">
     <use xlink:href="#C0_0_740331de2e" x="181.237516" y="158.571362" style="fill: #c7c7c7; fill-opacity: 0.7; stroke: #c7c7c7; stroke-opacity: 0.7"/>
    </g>
    <g clip-path="url(#p58314d445d)">
     <use xlink:href="#C0_0_740331de2e" x="238.741045" y="195.010221" style="fill: #c7c7c7; fill-opacity: 0.7; stroke: #c7c7c7; stroke-opacity: 0.7"/>
    </g>
    <g clip-path="url(#p58314d445d)">
     <use xlink:href="#C0_0_740331de2e" x="289.591085" y="159.285469" style="fill: #c7c7c7; fill-opacity: 0.7; stroke: #c7c7c7; stroke-opacity: 0.7"/>
    </g>
    <g clip-path="url(#p58314d445d)">
     <use xlink:href="#C0_0_740331de2e" x="326.905982" y="158.94175" style="fill: #c7c7c7; fill-opacity: 0.7; stroke: #c7c7c7; stroke-opacity: 0.7"/>
    </g>
    <g clip-path="url(#p58314d445d)">
     <use xlink:href="#C0_0_740331de2e" x="247.22052" y="195.652965" style="fill: #c7c7c7; fill-opacity: 0.7; stroke: #c7c7c7; stroke-opacity: 0.7"/>
    </g>
    <g clip-path="url(#p58314d445d)">
     <use xlink:href="#C0_0_740331de2e" x="168.624819" y="293.712818" style="fill: #bcbd22; fill-opacity: 0.7; stroke: #bcbd22; stroke-opacity: 0.7"/>
    </g>
    <g clip-path="url(#p58314d445d)">
     <use xlink:href="#C0_0_740331de2e" x="180.563659" y="307.101088" style="fill: #bcbd22; fill-opacity: 0.7; stroke: #bcbd22; stroke-opacity: 0.7"/>
    </g>
    <g clip-path="url(#p58314d445d)">
     <use xlink:href="#C0_0_740331de2e" x="191.033987" y="318.175529" style="fill: #bcbd22; fill-opacity: 0.7; stroke: #bcbd22; stroke-opacity: 0.7"/>
    </g>
    <g clip-path="url(#p58314d445d)">
     <use xlink:href="#C0_0_740331de2e" x="206.904054" y="295.699446" style="fill: #bcbd22; fill-opacity: 0.7; stroke: #bcbd22; stroke-opacity: 0.7"/>
    </g>
    <g clip-path="url(#p58314d445d)">
     <use xlink:href="#C0_0_740331de2e" x="189.976826" y="334.549091" style="fill: #bcbd22; fill-opacity: 0.7; stroke: #bcbd22; stroke-opacity: 0.7"/>
    </g>
    <g clip-path="url(#p58314d445d)">
     <use xlink:href="#C0_0_740331de2e" x="181.034627" y="311.012371" style="fill: #bcbd22; fill-opacity: 0.7; stroke: #bcbd22; stroke-opacity: 0.7"/>
    </g>
    <g clip-path="url(#p58314d445d)">
     <use xlink:href="#C0_0_740331de2e" x="205.267771" y="292.599358" style="fill: #bcbd22; fill-opacity: 0.7; stroke: #bcbd22; stroke-opacity: 0.7"/>
    </g>
    <g clip-path="url(#p58314d445d)">
     <use xlink:href="#C0_0_740331de2e" x="206.11957" y="298.394361" style="fill: #bcbd22; fill-opacity: 0.7; stroke: #bcbd22; stroke-opacity: 0.7"/>
    </g>
    <g clip-path="url(#p58314d445d)">
     <use xlink:href="#C0_0_740331de2e" x="215.33641" y="308.628934" style="fill: #bcbd22; fill-opacity: 0.7; stroke: #bcbd22; stroke-opacity: 0.7"/>
    </g>
    <g clip-path="url(#p58314d445d)">
     <use xlink:href="#C0_0_740331de2e" x="201.69882" y="314.958918" style="fill: #bcbd22; fill-opacity: 0.7; stroke: #bcbd22; stroke-opacity: 0.7"/>
    </g>
    <g clip-path="url(#p58314d445d)">
     <use xlink:href="#C0_0_740331de2e" x="49.019166" y="99.824049" style="fill: #17becf; fill-opacity: 0.7; stroke: #17becf; stroke-opacity: 0.7"/>
    </g>
    <g clip-path="url(#p58314d445d)">
     <use xlink:href="#C0_0_740331de2e" x="34.181939" y="108.466309" style="fill: #17becf; fill-opacity: 0.7; stroke: #17becf; stroke-opacity: 0.7"/>
    </g>
    <g clip-path="url(#p58314d445d)">
     <use xlink:href="#C0_0_740331de2e" x="29.454545" y="82.601962" style="fill: #17becf; fill-opacity: 0.7; stroke: #17becf; stroke-opacity: 0.7"/>
    </g>
    <g clip-path="url(#p58314d445d)">
     <use xlink:href="#C0_0_740331de2e" x="64.939482" y="85.82834" style="fill: #17becf; fill-opacity: 0.7; stroke: #17becf; stroke-opacity: 0.7"/>
    </g>
    <g clip-path="url(#p58314d445d)">
     <use xlink:href="#C0_0_740331de2e" x="44.463406" y="89.521619" style="fill: #17becf; fill-opacity: 0.7; stroke: #17becf; stroke-opacity: 0.7"/>
    </g>
    <g clip-path="url(#p58314d445d)">
     <use xlink:href="#C0_0_740331de2e" x="30.070997" y="93.560696" style="fill: #17becf; fill-opacity: 0.7; stroke: #17becf; stroke-opacity: 0.7"/>
    </g>
    <g clip-path="url(#p58314d445d)">
     <use xlink:href="#C0_0_740331de2e" x="37.025173" y="98.164551" style="fill: #17becf; fill-opacity: 0.7; stroke: #17becf; stroke-opacity: 0.7"/>
    </g>
    <g clip-path="url(#p58314d445d)">
     <use xlink:href="#C0_0_740331de2e" x="62.087036" y="85.571706" style="fill: #17becf; fill-opacity: 0.7; stroke: #17becf; stroke-opacity: 0.7"/>
    </g>
    <g clip-path="url(#p58314d445d)">
     <use xlink:href="#C0_0_740331de2e" x="65.601904" y="110.183807" style="fill: #17becf; fill-opacity: 0.7; stroke: #17becf; stroke-opacity: 0.7"/>
    </g>
    <g clip-path="url(#p58314d445d)">
     <use xlink:href="#C0_0_740331de2e" x="56.620787" y="104.216542" style="fill: #17becf; fill-opacity: 0.7; stroke: #17becf; stroke-opacity: 0.7"/>
    </g>
    <g clip-path="url(#p58314d445d)">
     <use xlink:href="#C0_0_740331de2e" x="157.154428" y="70.450536" style="fill: #9edae5; fill-opacity: 0.7; stroke: #9edae5; stroke-opacity: 0.7"/>
    </g>
    <g clip-path="url(#p58314d445d)">
     <use xlink:href="#C0_0_740331de2e" x="160.424869" y="65.840986" style="fill: #9edae5; fill-opacity: 0.7; stroke: #9edae5; stroke-opacity: 0.7"/>
    </g>
    <g clip-path="url(#p58314d445d)">
     <use xlink:href="#C0_0_740331de2e" x="140.806393" y="73.471488" style="fill: #9edae5; fill-opacity: 0.7; stroke: #9edae5; stroke-opacity: 0.7"/>
    </g>
    <g clip-path="url(#p58314d445d)">
     <use xlink:href="#C0_0_740331de2e" x="119.269521" y="85.260442" style="fill: #9edae5; fill-opacity: 0.7; stroke: #9edae5; stroke-opacity: 0.7"/>
    </g>
    <g clip-path="url(#p58314d445d)">
     <use xlink:href="#C0_0_740331de2e" x="123.678319" y="70.830474" style="fill: #9edae5; fill-opacity: 0.7; stroke: #9edae5; stroke-opacity: 0.7"/>
    </g>
    <g clip-path="url(#p58314d445d)">
     <use xlink:href="#C0_0_740331de2e" x="169.34086" y="59.823083" style="fill: #9edae5; fill-opacity: 0.7; stroke: #9edae5; stroke-opacity: 0.7"/>
    </g>
    <g clip-path="url(#p58314d445d)">
     <use xlink:href="#C0_0_740331de2e" x="123.907344" y="84.658064" style="fill: #9edae5; fill-opacity: 0.7; stroke: #9edae5; stroke-opacity: 0.7"/>
    </g>
    <g clip-path="url(#p58314d445d)">
     <use xlink:href="#C0_0_740331de2e" x="91.265489" y="91.78302" style="fill: #9edae5; fill-opacity: 0.7; stroke: #9edae5; stroke-opacity: 0.7"/>
    </g>
    <g clip-path="url(#p58314d445d)">
     <use xlink:href="#C0_0_740331de2e" x="101.348936" y="79.162016" style="fill: #9edae5; fill-opacity: 0.7; stroke: #9edae5; stroke-opacity: 0.7"/>
    </g>
    <g clip-path="url(#p58314d445d)">
     <use xlink:href="#C0_0_740331de2e" x="118.858455" y="99.29147" style="fill: #9edae5; fill-opacity: 0.7; stroke: #9edae5; stroke-opacity: 0.7"/>
    </g>
   </g>
   <g id="matplotlib.axis_1"/>
   <g id="matplotlib.axis_2"/>
   <g id="patch_3">
    <path d="M 10.8 349.2 
L 10.8 26.88 
" style="fill: none; stroke: #000000; stroke-width: 0.8; stroke-linejoin: miter; stroke-linecap: square"/>
   </g>
   <g id="patch_4">
    <path d="M 421.2 349.2 
L 421.2 26.88 
" style="fill: none; stroke: #000000; stroke-width: 0.8; stroke-linejoin: miter; stroke-linecap: square"/>
   </g>
   <g id="patch_5">
    <path d="M 10.8 349.2 
L 421.2 349.2 
" style="fill: none; stroke: #000000; stroke-width: 0.8; stroke-linejoin: miter; stroke-linecap: square"/>
   </g>
   <g id="patch_6">
    <path d="M 10.8 26.88 
L 421.2 26.88 
" style="fill: none; stroke: #000000; stroke-width: 0.8; stroke-linejoin: miter; stroke-linecap: square"/>
   </g>
   <g id="text_1">
    <!-- t-SNE: best_fid -->
    <g transform="translate(171.899063 20.88) scale(0.12 -0.12)">
     <defs>
      <path id="DejaVuSans-74" d="M 1172 4494 
L 1172 3500 
L 2356 3500 
L 2356 3053 
L 1172 3053 
L 1172 1153 
Q 1172 725 1289 603 
Q 1406 481 1766 481 
L 2356 481 
L 2356 0 
L 1766 0 
Q 1100 0 847 248 
Q 594 497 594 1153 
L 594 3053 
L 172 3053 
L 172 3500 
L 594 3500 
L 594 4494 
L 1172 4494 
z
" transform="scale(0.015625)"/>
      <path id="DejaVuSans-2d" d="M 313 2009 
L 1997 2009 
L 1997 1497 
L 313 1497 
L 313 2009 
z
" transform="scale(0.015625)"/>
      <path id="DejaVuSans-53" d="M 3425 4513 
L 3425 3897 
Q 3066 4069 2747 4153 
Q 2428 4238 2131 4238 
Q 1616 4238 1336 4038 
Q 1056 3838 1056 3469 
Q 1056 3159 1242 3001 
Q 1428 2844 1947 2747 
L 2328 2669 
Q 3034 2534 3370 2195 
Q 3706 1856 3706 1288 
Q 3706 609 3251 259 
Q 2797 -91 1919 -91 
Q 1588 -91 1214 -16 
Q 841 59 441 206 
L 441 856 
Q 825 641 1194 531 
Q 1563 422 1919 422 
Q 2459 422 2753 634 
Q 3047 847 3047 1241 
Q 3047 1584 2836 1778 
Q 2625 1972 2144 2069 
L 1759 2144 
Q 1053 2284 737 2584 
Q 422 2884 422 3419 
Q 422 4038 858 4394 
Q 1294 4750 2059 4750 
Q 2388 4750 2728 4690 
Q 3069 4631 3425 4513 
z
" transform="scale(0.015625)"/>
      <path id="DejaVuSans-4e" d="M 628 4666 
L 1478 4666 
L 3547 763 
L 3547 4666 
L 4159 4666 
L 4159 0 
L 3309 0 
L 1241 3903 
L 1241 0 
L 628 0 
L 628 4666 
z
" transform="scale(0.015625)"/>
      <path id="DejaVuSans-45" d="M 628 4666 
L 3578 4666 
L 3578 4134 
L 1259 4134 
L 1259 2753 
L 3481 2753 
L 3481 2222 
L 1259 2222 
L 1259 531 
L 3634 531 
L 3634 0 
L 628 0 
L 628 4666 
z
" transform="scale(0.015625)"/>
      <path id="DejaVuSans-3a" d="M 750 794 
L 1409 794 
L 1409 0 
L 750 0 
L 750 794 
z
M 750 3309 
L 1409 3309 
L 1409 2516 
L 750 2516 
L 750 3309 
z
" transform="scale(0.015625)"/>
      <path id="DejaVuSans-20" transform="scale(0.015625)"/>
      <path id="DejaVuSans-62" d="M 3116 1747 
Q 3116 2381 2855 2742 
Q 2594 3103 2138 3103 
Q 1681 3103 1420 2742 
Q 1159 2381 1159 1747 
Q 1159 1113 1420 752 
Q 1681 391 2138 391 
Q 2594 391 2855 752 
Q 3116 1113 3116 1747 
z
M 1159 2969 
Q 1341 3281 1617 3432 
Q 1894 3584 2278 3584 
Q 2916 3584 3314 3078 
Q 3713 2572 3713 1747 
Q 3713 922 3314 415 
Q 2916 -91 2278 -91 
Q 1894 -91 1617 61 
Q 1341 213 1159 525 
L 1159 0 
L 581 0 
L 581 4863 
L 1159 4863 
L 1159 2969 
z
" transform="scale(0.015625)"/>
      <path id="DejaVuSans-65" d="M 3597 1894 
L 3597 1613 
L 953 1613 
Q 991 1019 1311 708 
Q 1631 397 2203 397 
Q 2534 397 2845 478 
Q 3156 559 3463 722 
L 3463 178 
Q 3153 47 2828 -22 
Q 2503 -91 2169 -91 
Q 1331 -91 842 396 
Q 353 884 353 1716 
Q 353 2575 817 3079 
Q 1281 3584 2069 3584 
Q 2775 3584 3186 3129 
Q 3597 2675 3597 1894 
z
M 3022 2063 
Q 3016 2534 2758 2815 
Q 2500 3097 2075 3097 
Q 1594 3097 1305 2825 
Q 1016 2553 972 2059 
L 3022 2063 
z
" transform="scale(0.015625)"/>
      <path id="DejaVuSans-73" d="M 2834 3397 
L 2834 2853 
Q 2591 2978 2328 3040 
Q 2066 3103 1784 3103 
Q 1356 3103 1142 2972 
Q 928 2841 928 2578 
Q 928 2378 1081 2264 
Q 1234 2150 1697 2047 
L 1894 2003 
Q 2506 1872 2764 1633 
Q 3022 1394 3022 966 
Q 3022 478 2636 193 
Q 2250 -91 1575 -91 
Q 1294 -91 989 -36 
Q 684 19 347 128 
L 347 722 
Q 666 556 975 473 
Q 1284 391 1588 391 
Q 1994 391 2212 530 
Q 2431 669 2431 922 
Q 2431 1156 2273 1281 
Q 2116 1406 1581 1522 
L 1381 1569 
Q 847 1681 609 1914 
Q 372 2147 372 2553 
Q 372 3047 722 3315 
Q 1072 3584 1716 3584 
Q 2034 3584 2315 3537 
Q 2597 3491 2834 3397 
z
" transform="scale(0.015625)"/>
      <path id="DejaVuSans-5f" d="M 3263 -1063 
L 3263 -1509 
L -63 -1509 
L -63 -1063 
L 3263 -1063 
z
" transform="scale(0.015625)"/>
      <path id="DejaVuSans-66" d="M 2375 4863 
L 2375 4384 
L 1825 4384 
Q 1516 4384 1395 4259 
Q 1275 4134 1275 3809 
L 1275 3500 
L 2222 3500 
L 2222 3053 
L 1275 3053 
L 1275 0 
L 697 0 
L 697 3053 
L 147 3053 
L 147 3500 
L 697 3500 
L 697 3744 
Q 697 4328 969 4595 
Q 1241 4863 1831 4863 
L 2375 4863 
z
" transform="scale(0.015625)"/>
      <path id="DejaVuSans-69" d="M 603 3500 
L 1178 3500 
L 1178 0 
L 603 0 
L 603 3500 
z
M 603 4863 
L 1178 4863 
L 1178 4134 
L 603 4134 
L 603 4863 
z
" transform="scale(0.015625)"/>
      <path id="DejaVuSans-64" d="M 2906 2969 
L 2906 4863 
L 3481 4863 
L 3481 0 
L 2906 0 
L 2906 525 
Q 2725 213 2448 61 
Q 2172 -91 1784 -91 
Q 1150 -91 751 415 
Q 353 922 353 1747 
Q 353 2572 751 3078 
Q 1150 3584 1784 3584 
Q 2172 3584 2448 3432 
Q 2725 3281 2906 2969 
z
M 947 1747 
Q 947 1113 1208 752 
Q 1469 391 1925 391 
Q 2381 391 2643 752 
Q 2906 1113 2906 1747 
Q 2906 2381 2643 2742 
Q 2381 3103 1925 3103 
Q 1469 3103 1208 2742 
Q 947 2381 947 1747 
z
" transform="scale(0.015625)"/>
     </defs>
     <use xlink:href="#DejaVuSans-74"/>
     <use xlink:href="#DejaVuSans-2d" transform="translate(39.208984 0)"/>
     <use xlink:href="#DejaVuSans-53" transform="translate(75.292969 0)"/>
     <use xlink:href="#DejaVuSans-4e" transform="translate(138.769531 0)"/>
     <use xlink:href="#DejaVuSans-45" transform="translate(213.574219 0)"/>
     <use xlink:href="#DejaVuSans-3a" transform="translate(276.757812 0)"/>
     <use xlink:href="#DejaVuSans-20" transform="translate(310.449219 0)"/>
     <use xlink:href="#DejaVuSans-62" transform="translate(342.236328 0)"/>
     <use xlink:href="#DejaVuSans-65" transform="translate(405.712891 0)"/>
     <use xlink:href="#DejaVuSans-73" transform="translate(467.236328 0)"/>
     <use xlink:href="#DejaVuSans-74" transform="translate(519.335938 0)"/>
     <use xlink:href="#DejaVuSans-5f" transform="translate(558.544922 0)"/>
     <use xlink:href="#DejaVuSans-66" transform="translate(608.544922 0)"/>
     <use xlink:href="#DejaVuSans-69" transform="translate(643.75 0)"/>
     <use xlink:href="#DejaVuSans-64" transform="translate(671.533203 0)"/>
    </g>
   </g>
  </g>
 </g>
 <defs>
  <clipPath id="p58314d445d">
   <rect x="10.8" y="26.88" width="410.4" height="322.32"/>
  </clipPath>
 </defs>
</svg>
