<?xml version="1.0" encoding="utf-8" standalone="no"?>
<!DOCTYPE svg PUBLIC "-//W3C//DTD SVG 1.1//EN"
  "http://www.w3.org/Graphics/SVG/1.1/DTD/svg11.dtd">
<svg xmlns:xlink="http://www.w3.org/1999/xlink" width="432pt" height="360pt" viewBox="0 0 432 360" xmlns="http://www.w3.org/2000/svg" version="1.1">
 <metadata>
  <rdf:RDF xmlns:dc="http://purl.org/dc/elements/1.1/" xmlns:cc="http://creativecommons.org/ns#" xmlns:rdf="http://www.w3.org/1999/02/22-rdf-syntax-ns#">
   <cc:Work>
    <dc:type rdf:resource="http://purl.org/dc/dcmitype/StillImage"/>
    <dc:date>2025-06-16T01:16:35.541579</dc:date>
    <dc:format>image/svg+xml</dc:format>
    <dc:creator>
     <cc:Agent>
      <dc:title>Matplotlib v3.10.1, https://matplotlib.org/</dc:title>
     </cc:Agent>
    </dc:creator>
   </cc:Work>
  </rdf:RDF>
 </metadata>
 <defs>
  <style type="text/css">*{stroke-linejoin: round; stroke-linecap: butt}</style>
 </defs>
 <g id="figure_1">
  <g id="patch_1">
   <path d="M 0 360 
L 432 360 
L 432 0 
L 0 0 
z
" style="fill: #ffffff"/>
  </g>
  <g id="axes_1">
   <g id="patch_2">
    <path d="M 10.8 349.2 
L 421.2 349.2 
L 421.2 26.88 
L 10.8 26.88 
z
" style="fill: #ffffff"/>
   </g>
   <g id="PathCollection_1">
    <defs>
     <path id="C0_0_df934a0dd3" d="M 0 2.236068 
C 0.593012 2.236068 1.161816 2.000462 1.581139 1.581139 
C 2.000462 1.161816 2.236068 0.593012 2.236068 -0 
C 2.236068 -0.593012 2.000462 -1.161816 1.581139 -1.581139 
C 1.161816 -2.000462 0.593012 -2.236068 0 -2.236068 
C -0.593012 -2.236068 -1.161816 -2.000462 -1.581139 -1.581139 
C -2.000462 -1.161816 -2.236068 -0.593012 -2.236068 0 
C -2.236068 0.593012 -2.000462 1.161816 -1.581139 1.581139 
C -1.161816 2.000462 -0.593012 2.236068 0 2.236068 
z
"/>
    </defs>
    <g clip-path="url(#p7fef2f8cbc)">
     <use xlink:href="#C0_0_df934a0dd3" x="207.937861" y="175.188039" style="fill: #1f77b4; fill-opacity: 0.7; stroke: #1f77b4; stroke-opacity: 0.7"/>
    </g>
    <g clip-path="url(#p7fef2f8cbc)">
     <use xlink:href="#C0_0_df934a0dd3" x="222.913367" y="128.69832" style="fill: #1f77b4; fill-opacity: 0.7; stroke: #1f77b4; stroke-opacity: 0.7"/>
    </g>
    <g clip-path="url(#p7fef2f8cbc)">
     <use xlink:href="#C0_0_df934a0dd3" x="219.62512" y="177.365832" style="fill: #1f77b4; fill-opacity: 0.7; stroke: #1f77b4; stroke-opacity: 0.7"/>
    </g>
    <g clip-path="url(#p7fef2f8cbc)">
     <use xlink:href="#C0_0_df934a0dd3" x="234.843458" y="259.832733" style="fill: #1f77b4; fill-opacity: 0.7; stroke: #1f77b4; stroke-opacity: 0.7"/>
    </g>
    <g clip-path="url(#p7fef2f8cbc)">
     <use xlink:href="#C0_0_df934a0dd3" x="220.40692" y="243.712333" style="fill: #1f77b4; fill-opacity: 0.7; stroke: #1f77b4; stroke-opacity: 0.7"/>
    </g>
    <g clip-path="url(#p7fef2f8cbc)">
     <use xlink:href="#C0_0_df934a0dd3" x="228.556931" y="260.760867" style="fill: #1f77b4; fill-opacity: 0.7; stroke: #1f77b4; stroke-opacity: 0.7"/>
    </g>
    <g clip-path="url(#p7fef2f8cbc)">
     <use xlink:href="#C0_0_df934a0dd3" x="293.821992" y="123.005583" style="fill: #1f77b4; fill-opacity: 0.7; stroke: #1f77b4; stroke-opacity: 0.7"/>
    </g>
    <g clip-path="url(#p7fef2f8cbc)">
     <use xlink:href="#C0_0_df934a0dd3" x="254.458281" y="275.293976" style="fill: #1f77b4; fill-opacity: 0.7; stroke: #1f77b4; stroke-opacity: 0.7"/>
    </g>
    <g clip-path="url(#p7fef2f8cbc)">
     <use xlink:href="#C0_0_df934a0dd3" x="241.320066" y="235.05224" style="fill: #1f77b4; fill-opacity: 0.7; stroke: #1f77b4; stroke-opacity: 0.7"/>
    </g>
    <g clip-path="url(#p7fef2f8cbc)">
     <use xlink:href="#C0_0_df934a0dd3" x="211.943684" y="188.438965" style="fill: #1f77b4; fill-opacity: 0.7; stroke: #1f77b4; stroke-opacity: 0.7"/>
    </g>
    <g clip-path="url(#p7fef2f8cbc)">
     <use xlink:href="#C0_0_df934a0dd3" x="131.338582" y="195.050886" style="fill: #aec7e8; fill-opacity: 0.7; stroke: #aec7e8; stroke-opacity: 0.7"/>
    </g>
    <g clip-path="url(#p7fef2f8cbc)">
     <use xlink:href="#C0_0_df934a0dd3" x="134.699119" y="187.849866" style="fill: #aec7e8; fill-opacity: 0.7; stroke: #aec7e8; stroke-opacity: 0.7"/>
    </g>
    <g clip-path="url(#p7fef2f8cbc)">
     <use xlink:href="#C0_0_df934a0dd3" x="135.464035" y="187.255531" style="fill: #aec7e8; fill-opacity: 0.7; stroke: #aec7e8; stroke-opacity: 0.7"/>
    </g>
    <g clip-path="url(#p7fef2f8cbc)">
     <use xlink:href="#C0_0_df934a0dd3" x="277.362813" y="105.839585" style="fill: #aec7e8; fill-opacity: 0.7; stroke: #aec7e8; stroke-opacity: 0.7"/>
    </g>
    <g clip-path="url(#p7fef2f8cbc)">
     <use xlink:href="#C0_0_df934a0dd3" x="283.073692" y="145.271048" style="fill: #aec7e8; fill-opacity: 0.7; stroke: #aec7e8; stroke-opacity: 0.7"/>
    </g>
    <g clip-path="url(#p7fef2f8cbc)">
     <use xlink:href="#C0_0_df934a0dd3" x="253.281856" y="172.530415" style="fill: #aec7e8; fill-opacity: 0.7; stroke: #aec7e8; stroke-opacity: 0.7"/>
    </g>
    <g clip-path="url(#p7fef2f8cbc)">
     <use xlink:href="#C0_0_df934a0dd3" x="260.04493" y="113.934462" style="fill: #aec7e8; fill-opacity: 0.7; stroke: #aec7e8; stroke-opacity: 0.7"/>
    </g>
    <g clip-path="url(#p7fef2f8cbc)">
     <use xlink:href="#C0_0_df934a0dd3" x="264.185155" y="128.662305" style="fill: #aec7e8; fill-opacity: 0.7; stroke: #aec7e8; stroke-opacity: 0.7"/>
    </g>
    <g clip-path="url(#p7fef2f8cbc)">
     <use xlink:href="#C0_0_df934a0dd3" x="271.418538" y="143.608032" style="fill: #aec7e8; fill-opacity: 0.7; stroke: #aec7e8; stroke-opacity: 0.7"/>
    </g>
    <g clip-path="url(#p7fef2f8cbc)">
     <use xlink:href="#C0_0_df934a0dd3" x="265.207825" y="97.331852" style="fill: #aec7e8; fill-opacity: 0.7; stroke: #aec7e8; stroke-opacity: 0.7"/>
    </g>
    <g clip-path="url(#p7fef2f8cbc)">
     <use xlink:href="#C0_0_df934a0dd3" x="238.745971" y="185.800748" style="fill: #ffbb78; fill-opacity: 0.7; stroke: #ffbb78; stroke-opacity: 0.7"/>
    </g>
    <g clip-path="url(#p7fef2f8cbc)">
     <use xlink:href="#C0_0_df934a0dd3" x="266.532155" y="188.703281" style="fill: #ffbb78; fill-opacity: 0.7; stroke: #ffbb78; stroke-opacity: 0.7"/>
    </g>
    <g clip-path="url(#p7fef2f8cbc)">
     <use xlink:href="#C0_0_df934a0dd3" x="245.406769" y="127.397612" style="fill: #ffbb78; fill-opacity: 0.7; stroke: #ffbb78; stroke-opacity: 0.7"/>
    </g>
    <g clip-path="url(#p7fef2f8cbc)">
     <use xlink:href="#C0_0_df934a0dd3" x="254.148646" y="147.683852" style="fill: #ffbb78; fill-opacity: 0.7; stroke: #ffbb78; stroke-opacity: 0.7"/>
    </g>
    <g clip-path="url(#p7fef2f8cbc)">
     <use xlink:href="#C0_0_df934a0dd3" x="263.721869" y="198.87397" style="fill: #ffbb78; fill-opacity: 0.7; stroke: #ffbb78; stroke-opacity: 0.7"/>
    </g>
    <g clip-path="url(#p7fef2f8cbc)">
     <use xlink:href="#C0_0_df934a0dd3" x="253.277466" y="185.217045" style="fill: #ffbb78; fill-opacity: 0.7; stroke: #ffbb78; stroke-opacity: 0.7"/>
    </g>
    <g clip-path="url(#p7fef2f8cbc)">
     <use xlink:href="#C0_0_df934a0dd3" x="248.519772" y="147.518164" style="fill: #ffbb78; fill-opacity: 0.7; stroke: #ffbb78; stroke-opacity: 0.7"/>
    </g>
    <g clip-path="url(#p7fef2f8cbc)">
     <use xlink:href="#C0_0_df934a0dd3" x="248.104468" y="156.213737" style="fill: #ffbb78; fill-opacity: 0.7; stroke: #ffbb78; stroke-opacity: 0.7"/>
    </g>
    <g clip-path="url(#p7fef2f8cbc)">
     <use xlink:href="#C0_0_df934a0dd3" x="259.541499" y="164.06991" style="fill: #ffbb78; fill-opacity: 0.7; stroke: #ffbb78; stroke-opacity: 0.7"/>
    </g>
    <g clip-path="url(#p7fef2f8cbc)">
     <use xlink:href="#C0_0_df934a0dd3" x="252.83781" y="162.587165" style="fill: #ffbb78; fill-opacity: 0.7; stroke: #ffbb78; stroke-opacity: 0.7"/>
    </g>
    <g clip-path="url(#p7fef2f8cbc)">
     <use xlink:href="#C0_0_df934a0dd3" x="213.583247" y="114.205862" style="fill: #98df8a; fill-opacity: 0.7; stroke: #98df8a; stroke-opacity: 0.7"/>
    </g>
    <g clip-path="url(#p7fef2f8cbc)">
     <use xlink:href="#C0_0_df934a0dd3" x="181.948345" y="163.680228" style="fill: #98df8a; fill-opacity: 0.7; stroke: #98df8a; stroke-opacity: 0.7"/>
    </g>
    <g clip-path="url(#p7fef2f8cbc)">
     <use xlink:href="#C0_0_df934a0dd3" x="201.492242" y="96.191488" style="fill: #98df8a; fill-opacity: 0.7; stroke: #98df8a; stroke-opacity: 0.7"/>
    </g>
    <g clip-path="url(#p7fef2f8cbc)">
     <use xlink:href="#C0_0_df934a0dd3" x="291.282759" y="258.704562" style="fill: #98df8a; fill-opacity: 0.7; stroke: #98df8a; stroke-opacity: 0.7"/>
    </g>
    <g clip-path="url(#p7fef2f8cbc)">
     <use xlink:href="#C0_0_df934a0dd3" x="308.348078" y="228.17956" style="fill: #98df8a; fill-opacity: 0.7; stroke: #98df8a; stroke-opacity: 0.7"/>
    </g>
    <g clip-path="url(#p7fef2f8cbc)">
     <use xlink:href="#C0_0_df934a0dd3" x="305.142045" y="226.370409" style="fill: #98df8a; fill-opacity: 0.7; stroke: #98df8a; stroke-opacity: 0.7"/>
    </g>
    <g clip-path="url(#p7fef2f8cbc)">
     <use xlink:href="#C0_0_df934a0dd3" x="277.395406" y="218.910684" style="fill: #98df8a; fill-opacity: 0.7; stroke: #98df8a; stroke-opacity: 0.7"/>
    </g>
    <g clip-path="url(#p7fef2f8cbc)">
     <use xlink:href="#C0_0_df934a0dd3" x="307.282458" y="236.887107" style="fill: #98df8a; fill-opacity: 0.7; stroke: #98df8a; stroke-opacity: 0.7"/>
    </g>
    <g clip-path="url(#p7fef2f8cbc)">
     <use xlink:href="#C0_0_df934a0dd3" x="281.007057" y="227.610507" style="fill: #98df8a; fill-opacity: 0.7; stroke: #98df8a; stroke-opacity: 0.7"/>
    </g>
    <g clip-path="url(#p7fef2f8cbc)">
     <use xlink:href="#C0_0_df934a0dd3" x="175.59599" y="153.890087" style="fill: #98df8a; fill-opacity: 0.7; stroke: #98df8a; stroke-opacity: 0.7"/>
    </g>
    <g clip-path="url(#p7fef2f8cbc)">
     <use xlink:href="#C0_0_df934a0dd3" x="271.223509" y="167.393869" style="fill: #d62728; fill-opacity: 0.7; stroke: #d62728; stroke-opacity: 0.7"/>
    </g>
    <g clip-path="url(#p7fef2f8cbc)">
     <use xlink:href="#C0_0_df934a0dd3" x="150.347394" y="292.596225" style="fill: #d62728; fill-opacity: 0.7; stroke: #d62728; stroke-opacity: 0.7"/>
    </g>
    <g clip-path="url(#p7fef2f8cbc)">
     <use xlink:href="#C0_0_df934a0dd3" x="223.796604" y="155.61622" style="fill: #d62728; fill-opacity: 0.7; stroke: #d62728; stroke-opacity: 0.7"/>
    </g>
    <g clip-path="url(#p7fef2f8cbc)">
     <use xlink:href="#C0_0_df934a0dd3" x="156.896996" y="323.428009" style="fill: #d62728; fill-opacity: 0.7; stroke: #d62728; stroke-opacity: 0.7"/>
    </g>
    <g clip-path="url(#p7fef2f8cbc)">
     <use xlink:href="#C0_0_df934a0dd3" x="146.950539" y="319.810521" style="fill: #d62728; fill-opacity: 0.7; stroke: #d62728; stroke-opacity: 0.7"/>
    </g>
    <g clip-path="url(#p7fef2f8cbc)">
     <use xlink:href="#C0_0_df934a0dd3" x="130.918451" y="305.204677" style="fill: #d62728; fill-opacity: 0.7; stroke: #d62728; stroke-opacity: 0.7"/>
    </g>
    <g clip-path="url(#p7fef2f8cbc)">
     <use xlink:href="#C0_0_df934a0dd3" x="139.752183" y="294.26331" style="fill: #d62728; fill-opacity: 0.7; stroke: #d62728; stroke-opacity: 0.7"/>
    </g>
    <g clip-path="url(#p7fef2f8cbc)">
     <use xlink:href="#C0_0_df934a0dd3" x="141.565627" y="303.802516" style="fill: #d62728; fill-opacity: 0.7; stroke: #d62728; stroke-opacity: 0.7"/>
    </g>
    <g clip-path="url(#p7fef2f8cbc)">
     <use xlink:href="#C0_0_df934a0dd3" x="148.701649" y="304.615852" style="fill: #d62728; fill-opacity: 0.7; stroke: #d62728; stroke-opacity: 0.7"/>
    </g>
    <g clip-path="url(#p7fef2f8cbc)">
     <use xlink:href="#C0_0_df934a0dd3" x="133.683017" y="311.40272" style="fill: #d62728; fill-opacity: 0.7; stroke: #d62728; stroke-opacity: 0.7"/>
    </g>
    <g clip-path="url(#p7fef2f8cbc)">
     <use xlink:href="#C0_0_df934a0dd3" x="279.24992" y="179.364918" style="fill: #9467bd; fill-opacity: 0.7; stroke: #9467bd; stroke-opacity: 0.7"/>
    </g>
    <g clip-path="url(#p7fef2f8cbc)">
     <use xlink:href="#C0_0_df934a0dd3" x="211.807849" y="160.871839" style="fill: #9467bd; fill-opacity: 0.7; stroke: #9467bd; stroke-opacity: 0.7"/>
    </g>
    <g clip-path="url(#p7fef2f8cbc)">
     <use xlink:href="#C0_0_df934a0dd3" x="196.240959" y="148.048043" style="fill: #9467bd; fill-opacity: 0.7; stroke: #9467bd; stroke-opacity: 0.7"/>
    </g>
    <g clip-path="url(#p7fef2f8cbc)">
     <use xlink:href="#C0_0_df934a0dd3" x="188.496507" y="206.514539" style="fill: #9467bd; fill-opacity: 0.7; stroke: #9467bd; stroke-opacity: 0.7"/>
    </g>
    <g clip-path="url(#p7fef2f8cbc)">
     <use xlink:href="#C0_0_df934a0dd3" x="301.428072" y="177.120527" style="fill: #9467bd; fill-opacity: 0.7; stroke: #9467bd; stroke-opacity: 0.7"/>
    </g>
    <g clip-path="url(#p7fef2f8cbc)">
     <use xlink:href="#C0_0_df934a0dd3" x="306.222438" y="206.688014" style="fill: #9467bd; fill-opacity: 0.7; stroke: #9467bd; stroke-opacity: 0.7"/>
    </g>
    <g clip-path="url(#p7fef2f8cbc)">
     <use xlink:href="#C0_0_df934a0dd3" x="310.87143" y="162.356038" style="fill: #9467bd; fill-opacity: 0.7; stroke: #9467bd; stroke-opacity: 0.7"/>
    </g>
    <g clip-path="url(#p7fef2f8cbc)">
     <use xlink:href="#C0_0_df934a0dd3" x="306.14797" y="198.143482" style="fill: #9467bd; fill-opacity: 0.7; stroke: #9467bd; stroke-opacity: 0.7"/>
    </g>
    <g clip-path="url(#p7fef2f8cbc)">
     <use xlink:href="#C0_0_df934a0dd3" x="282.205214" y="200.394738" style="fill: #9467bd; fill-opacity: 0.7; stroke: #9467bd; stroke-opacity: 0.7"/>
    </g>
    <g clip-path="url(#p7fef2f8cbc)">
     <use xlink:href="#C0_0_df934a0dd3" x="295.101837" y="196.563361" style="fill: #9467bd; fill-opacity: 0.7; stroke: #9467bd; stroke-opacity: 0.7"/>
    </g>
    <g clip-path="url(#p7fef2f8cbc)">
     <use xlink:href="#C0_0_df934a0dd3" x="196.5923" y="218.555164" style="fill: #8c564b; fill-opacity: 0.7; stroke: #8c564b; stroke-opacity: 0.7"/>
    </g>
    <g clip-path="url(#p7fef2f8cbc)">
     <use xlink:href="#C0_0_df934a0dd3" x="193.997653" y="237.857057" style="fill: #8c564b; fill-opacity: 0.7; stroke: #8c564b; stroke-opacity: 0.7"/>
    </g>
    <g clip-path="url(#p7fef2f8cbc)">
     <use xlink:href="#C0_0_df934a0dd3" x="243.654711" y="201.697401" style="fill: #8c564b; fill-opacity: 0.7; stroke: #8c564b; stroke-opacity: 0.7"/>
    </g>
    <g clip-path="url(#p7fef2f8cbc)">
     <use xlink:href="#C0_0_df934a0dd3" x="175.886061" y="228.374233" style="fill: #8c564b; fill-opacity: 0.7; stroke: #8c564b; stroke-opacity: 0.7"/>
    </g>
    <g clip-path="url(#p7fef2f8cbc)">
     <use xlink:href="#C0_0_df934a0dd3" x="189.424536" y="246.162774" style="fill: #8c564b; fill-opacity: 0.7; stroke: #8c564b; stroke-opacity: 0.7"/>
    </g>
    <g clip-path="url(#p7fef2f8cbc)">
     <use xlink:href="#C0_0_df934a0dd3" x="187.168343" y="240.258334" style="fill: #8c564b; fill-opacity: 0.7; stroke: #8c564b; stroke-opacity: 0.7"/>
    </g>
    <g clip-path="url(#p7fef2f8cbc)">
     <use xlink:href="#C0_0_df934a0dd3" x="203.727027" y="231.83595" style="fill: #8c564b; fill-opacity: 0.7; stroke: #8c564b; stroke-opacity: 0.7"/>
    </g>
    <g clip-path="url(#p7fef2f8cbc)">
     <use xlink:href="#C0_0_df934a0dd3" x="216.952059" y="202.114717" style="fill: #8c564b; fill-opacity: 0.7; stroke: #8c564b; stroke-opacity: 0.7"/>
    </g>
    <g clip-path="url(#p7fef2f8cbc)">
     <use xlink:href="#C0_0_df934a0dd3" x="211.435291" y="226.439134" style="fill: #8c564b; fill-opacity: 0.7; stroke: #8c564b; stroke-opacity: 0.7"/>
    </g>
    <g clip-path="url(#p7fef2f8cbc)">
     <use xlink:href="#C0_0_df934a0dd3" x="197.426252" y="235.741429" style="fill: #8c564b; fill-opacity: 0.7; stroke: #8c564b; stroke-opacity: 0.7"/>
    </g>
    <g clip-path="url(#p7fef2f8cbc)">
     <use xlink:href="#C0_0_df934a0dd3" x="346.531875" y="183.149557" style="fill: #c49c94; fill-opacity: 0.7; stroke: #c49c94; stroke-opacity: 0.7"/>
    </g>
    <g clip-path="url(#p7fef2f8cbc)">
     <use xlink:href="#C0_0_df934a0dd3" x="155.29158" y="86.834753" style="fill: #c49c94; fill-opacity: 0.7; stroke: #c49c94; stroke-opacity: 0.7"/>
    </g>
    <g clip-path="url(#p7fef2f8cbc)">
     <use xlink:href="#C0_0_df934a0dd3" x="198.986226" y="301.144295" style="fill: #c49c94; fill-opacity: 0.7; stroke: #c49c94; stroke-opacity: 0.7"/>
    </g>
    <g clip-path="url(#p7fef2f8cbc)">
     <use xlink:href="#C0_0_df934a0dd3" x="340.837414" y="183.260524" style="fill: #c49c94; fill-opacity: 0.7; stroke: #c49c94; stroke-opacity: 0.7"/>
    </g>
    <g clip-path="url(#p7fef2f8cbc)">
     <use xlink:href="#C0_0_df934a0dd3" x="211.689386" y="301.754929" style="fill: #c49c94; fill-opacity: 0.7; stroke: #c49c94; stroke-opacity: 0.7"/>
    </g>
    <g clip-path="url(#p7fef2f8cbc)">
     <use xlink:href="#C0_0_df934a0dd3" x="208.282509" y="315.860446" style="fill: #c49c94; fill-opacity: 0.7; stroke: #c49c94; stroke-opacity: 0.7"/>
    </g>
    <g clip-path="url(#p7fef2f8cbc)">
     <use xlink:href="#C0_0_df934a0dd3" x="337.491147" y="184.232173" style="fill: #c49c94; fill-opacity: 0.7; stroke: #c49c94; stroke-opacity: 0.7"/>
    </g>
    <g clip-path="url(#p7fef2f8cbc)">
     <use xlink:href="#C0_0_df934a0dd3" x="209.652138" y="274.81616" style="fill: #c49c94; fill-opacity: 0.7; stroke: #c49c94; stroke-opacity: 0.7"/>
    </g>
    <g clip-path="url(#p7fef2f8cbc)">
     <use xlink:href="#C0_0_df934a0dd3" x="202.124411" y="300.564192" style="fill: #c49c94; fill-opacity: 0.7; stroke: #c49c94; stroke-opacity: 0.7"/>
    </g>
    <g clip-path="url(#p7fef2f8cbc)">
     <use xlink:href="#C0_0_df934a0dd3" x="201.644104" y="186.142744" style="fill: #c49c94; fill-opacity: 0.7; stroke: #c49c94; stroke-opacity: 0.7"/>
    </g>
    <g clip-path="url(#p7fef2f8cbc)">
     <use xlink:href="#C0_0_df934a0dd3" x="190.908022" y="170.590052" style="fill: #f7b6d2; fill-opacity: 0.7; stroke: #f7b6d2; stroke-opacity: 0.7"/>
    </g>
    <g clip-path="url(#p7fef2f8cbc)">
     <use xlink:href="#C0_0_df934a0dd3" x="166.49762" y="126.549093" style="fill: #f7b6d2; fill-opacity: 0.7; stroke: #f7b6d2; stroke-opacity: 0.7"/>
    </g>
    <g clip-path="url(#p7fef2f8cbc)">
     <use xlink:href="#C0_0_df934a0dd3" x="199.157948" y="134.004256" style="fill: #f7b6d2; fill-opacity: 0.7; stroke: #f7b6d2; stroke-opacity: 0.7"/>
    </g>
    <g clip-path="url(#p7fef2f8cbc)">
     <use xlink:href="#C0_0_df934a0dd3" x="235.836558" y="96.482018" style="fill: #f7b6d2; fill-opacity: 0.7; stroke: #f7b6d2; stroke-opacity: 0.7"/>
    </g>
    <g clip-path="url(#p7fef2f8cbc)">
     <use xlink:href="#C0_0_df934a0dd3" x="239.093392" y="101.213492" style="fill: #f7b6d2; fill-opacity: 0.7; stroke: #f7b6d2; stroke-opacity: 0.7"/>
    </g>
    <g clip-path="url(#p7fef2f8cbc)">
     <use xlink:href="#C0_0_df934a0dd3" x="207.520514" y="122.362665" style="fill: #f7b6d2; fill-opacity: 0.7; stroke: #f7b6d2; stroke-opacity: 0.7"/>
    </g>
    <g clip-path="url(#p7fef2f8cbc)">
     <use xlink:href="#C0_0_df934a0dd3" x="234.073573" y="138.485994" style="fill: #f7b6d2; fill-opacity: 0.7; stroke: #f7b6d2; stroke-opacity: 0.7"/>
    </g>
    <g clip-path="url(#p7fef2f8cbc)">
     <use xlink:href="#C0_0_df934a0dd3" x="175.440041" y="103.808483" style="fill: #f7b6d2; fill-opacity: 0.7; stroke: #f7b6d2; stroke-opacity: 0.7"/>
    </g>
    <g clip-path="url(#p7fef2f8cbc)">
     <use xlink:href="#C0_0_df934a0dd3" x="235.642842" y="101.046279" style="fill: #f7b6d2; fill-opacity: 0.7; stroke: #f7b6d2; stroke-opacity: 0.7"/>
    </g>
    <g clip-path="url(#p7fef2f8cbc)">
     <use xlink:href="#C0_0_df934a0dd3" x="216.540243" y="97.454245" style="fill: #f7b6d2; fill-opacity: 0.7; stroke: #f7b6d2; stroke-opacity: 0.7"/>
    </g>
    <g clip-path="url(#p7fef2f8cbc)">
     <use xlink:href="#C0_0_df934a0dd3" x="154.624307" y="54.230147" style="fill: #c7c7c7; fill-opacity: 0.7; stroke: #c7c7c7; stroke-opacity: 0.7"/>
    </g>
    <g clip-path="url(#p7fef2f8cbc)">
     <use xlink:href="#C0_0_df934a0dd3" x="167.906959" y="47.015192" style="fill: #c7c7c7; fill-opacity: 0.7; stroke: #c7c7c7; stroke-opacity: 0.7"/>
    </g>
    <g clip-path="url(#p7fef2f8cbc)">
     <use xlink:href="#C0_0_df934a0dd3" x="152.827971" y="41.530909" style="fill: #c7c7c7; fill-opacity: 0.7; stroke: #c7c7c7; stroke-opacity: 0.7"/>
    </g>
    <g clip-path="url(#p7fef2f8cbc)">
     <use xlink:href="#C0_0_df934a0dd3" x="172.600415" y="81.174475" style="fill: #c7c7c7; fill-opacity: 0.7; stroke: #c7c7c7; stroke-opacity: 0.7"/>
    </g>
    <g clip-path="url(#p7fef2f8cbc)">
     <use xlink:href="#C0_0_df934a0dd3" x="153.930634" y="52.752991" style="fill: #c7c7c7; fill-opacity: 0.7; stroke: #c7c7c7; stroke-opacity: 0.7"/>
    </g>
    <g clip-path="url(#p7fef2f8cbc)">
     <use xlink:href="#C0_0_df934a0dd3" x="169.218597" y="61.215021" style="fill: #c7c7c7; fill-opacity: 0.7; stroke: #c7c7c7; stroke-opacity: 0.7"/>
    </g>
    <g clip-path="url(#p7fef2f8cbc)">
     <use xlink:href="#C0_0_df934a0dd3" x="159.738029" y="71.402892" style="fill: #c7c7c7; fill-opacity: 0.7; stroke: #c7c7c7; stroke-opacity: 0.7"/>
    </g>
    <g clip-path="url(#p7fef2f8cbc)">
     <use xlink:href="#C0_0_df934a0dd3" x="143.651842" y="54.06512" style="fill: #c7c7c7; fill-opacity: 0.7; stroke: #c7c7c7; stroke-opacity: 0.7"/>
    </g>
    <g clip-path="url(#p7fef2f8cbc)">
     <use xlink:href="#C0_0_df934a0dd3" x="178.639621" y="279.388397" style="fill: #c7c7c7; fill-opacity: 0.7; stroke: #c7c7c7; stroke-opacity: 0.7"/>
    </g>
    <g clip-path="url(#p7fef2f8cbc)">
     <use xlink:href="#C0_0_df934a0dd3" x="157.055055" y="47.452619" style="fill: #c7c7c7; fill-opacity: 0.7; stroke: #c7c7c7; stroke-opacity: 0.7"/>
    </g>
    <g clip-path="url(#p7fef2f8cbc)">
     <use xlink:href="#C0_0_df934a0dd3" x="320.492701" y="291.116637" style="fill: #bcbd22; fill-opacity: 0.7; stroke: #bcbd22; stroke-opacity: 0.7"/>
    </g>
    <g clip-path="url(#p7fef2f8cbc)">
     <use xlink:href="#C0_0_df934a0dd3" x="311.534096" y="331.044198" style="fill: #bcbd22; fill-opacity: 0.7; stroke: #bcbd22; stroke-opacity: 0.7"/>
    </g>
    <g clip-path="url(#p7fef2f8cbc)">
     <use xlink:href="#C0_0_df934a0dd3" x="332.56912" y="296.321968" style="fill: #bcbd22; fill-opacity: 0.7; stroke: #bcbd22; stroke-opacity: 0.7"/>
    </g>
    <g clip-path="url(#p7fef2f8cbc)">
     <use xlink:href="#C0_0_df934a0dd3" x="308.258607" y="334.549091" style="fill: #bcbd22; fill-opacity: 0.7; stroke: #bcbd22; stroke-opacity: 0.7"/>
    </g>
    <g clip-path="url(#p7fef2f8cbc)">
     <use xlink:href="#C0_0_df934a0dd3" x="315.003847" y="312.599415" style="fill: #bcbd22; fill-opacity: 0.7; stroke: #bcbd22; stroke-opacity: 0.7"/>
    </g>
    <g clip-path="url(#p7fef2f8cbc)">
     <use xlink:href="#C0_0_df934a0dd3" x="314.658543" y="325.198916" style="fill: #bcbd22; fill-opacity: 0.7; stroke: #bcbd22; stroke-opacity: 0.7"/>
    </g>
    <g clip-path="url(#p7fef2f8cbc)">
     <use xlink:href="#C0_0_df934a0dd3" x="307.88715" y="309.02296" style="fill: #bcbd22; fill-opacity: 0.7; stroke: #bcbd22; stroke-opacity: 0.7"/>
    </g>
    <g clip-path="url(#p7fef2f8cbc)">
     <use xlink:href="#C0_0_df934a0dd3" x="315.876348" y="294.487796" style="fill: #bcbd22; fill-opacity: 0.7; stroke: #bcbd22; stroke-opacity: 0.7"/>
    </g>
    <g clip-path="url(#p7fef2f8cbc)">
     <use xlink:href="#C0_0_df934a0dd3" x="297.576388" y="301.753394" style="fill: #bcbd22; fill-opacity: 0.7; stroke: #bcbd22; stroke-opacity: 0.7"/>
    </g>
    <g clip-path="url(#p7fef2f8cbc)">
     <use xlink:href="#C0_0_df934a0dd3" x="333.127047" y="296.533977" style="fill: #bcbd22; fill-opacity: 0.7; stroke: #bcbd22; stroke-opacity: 0.7"/>
    </g>
    <g clip-path="url(#p7fef2f8cbc)">
     <use xlink:href="#C0_0_df934a0dd3" x="29.454545" y="159.531319" style="fill: #17becf; fill-opacity: 0.7; stroke: #17becf; stroke-opacity: 0.7"/>
    </g>
    <g clip-path="url(#p7fef2f8cbc)">
     <use xlink:href="#C0_0_df934a0dd3" x="41.094799" y="131.737802" style="fill: #17becf; fill-opacity: 0.7; stroke: #17becf; stroke-opacity: 0.7"/>
    </g>
    <g clip-path="url(#p7fef2f8cbc)">
     <use xlink:href="#C0_0_df934a0dd3" x="34.632013" y="135.814313" style="fill: #17becf; fill-opacity: 0.7; stroke: #17becf; stroke-opacity: 0.7"/>
    </g>
    <g clip-path="url(#p7fef2f8cbc)">
     <use xlink:href="#C0_0_df934a0dd3" x="58.726016" y="133.426492" style="fill: #17becf; fill-opacity: 0.7; stroke: #17becf; stroke-opacity: 0.7"/>
    </g>
    <g clip-path="url(#p7fef2f8cbc)">
     <use xlink:href="#C0_0_df934a0dd3" x="35.50015" y="142.960447" style="fill: #17becf; fill-opacity: 0.7; stroke: #17becf; stroke-opacity: 0.7"/>
    </g>
    <g clip-path="url(#p7fef2f8cbc)">
     <use xlink:href="#C0_0_df934a0dd3" x="38.495793" y="152.155097" style="fill: #17becf; fill-opacity: 0.7; stroke: #17becf; stroke-opacity: 0.7"/>
    </g>
    <g clip-path="url(#p7fef2f8cbc)">
     <use xlink:href="#C0_0_df934a0dd3" x="51.646664" y="142.644171" style="fill: #17becf; fill-opacity: 0.7; stroke: #17becf; stroke-opacity: 0.7"/>
    </g>
    <g clip-path="url(#p7fef2f8cbc)">
     <use xlink:href="#C0_0_df934a0dd3" x="53.840661" y="135.769976" style="fill: #17becf; fill-opacity: 0.7; stroke: #17becf; stroke-opacity: 0.7"/>
    </g>
    <g clip-path="url(#p7fef2f8cbc)">
     <use xlink:href="#C0_0_df934a0dd3" x="43.277834" y="150.206233" style="fill: #17becf; fill-opacity: 0.7; stroke: #17becf; stroke-opacity: 0.7"/>
    </g>
    <g clip-path="url(#p7fef2f8cbc)">
     <use xlink:href="#C0_0_df934a0dd3" x="45.143984" y="125.632681" style="fill: #17becf; fill-opacity: 0.7; stroke: #17becf; stroke-opacity: 0.7"/>
    </g>
    <g clip-path="url(#p7fef2f8cbc)">
     <use xlink:href="#C0_0_df934a0dd3" x="386.919897" y="101.353439" style="fill: #9edae5; fill-opacity: 0.7; stroke: #9edae5; stroke-opacity: 0.7"/>
    </g>
    <g clip-path="url(#p7fef2f8cbc)">
     <use xlink:href="#C0_0_df934a0dd3" x="383.612604" y="89.583615" style="fill: #9edae5; fill-opacity: 0.7; stroke: #9edae5; stroke-opacity: 0.7"/>
    </g>
    <g clip-path="url(#p7fef2f8cbc)">
     <use xlink:href="#C0_0_df934a0dd3" x="402.545455" y="104.725666" style="fill: #9edae5; fill-opacity: 0.7; stroke: #9edae5; stroke-opacity: 0.7"/>
    </g>
    <g clip-path="url(#p7fef2f8cbc)">
     <use xlink:href="#C0_0_df934a0dd3" x="355.126311" y="93.53253" style="fill: #9edae5; fill-opacity: 0.7; stroke: #9edae5; stroke-opacity: 0.7"/>
    </g>
    <g clip-path="url(#p7fef2f8cbc)">
     <use xlink:href="#C0_0_df934a0dd3" x="368.993397" y="85.789989" style="fill: #9edae5; fill-opacity: 0.7; stroke: #9edae5; stroke-opacity: 0.7"/>
    </g>
    <g clip-path="url(#p7fef2f8cbc)">
     <use xlink:href="#C0_0_df934a0dd3" x="389.639676" y="105.047846" style="fill: #9edae5; fill-opacity: 0.7; stroke: #9edae5; stroke-opacity: 0.7"/>
    </g>
    <g clip-path="url(#p7fef2f8cbc)">
     <use xlink:href="#C0_0_df934a0dd3" x="380.152451" y="97.599048" style="fill: #9edae5; fill-opacity: 0.7; stroke: #9edae5; stroke-opacity: 0.7"/>
    </g>
    <g clip-path="url(#p7fef2f8cbc)">
     <use xlink:href="#C0_0_df934a0dd3" x="365.099304" y="93.524105" style="fill: #9edae5; fill-opacity: 0.7; stroke: #9edae5; stroke-opacity: 0.7"/>
    </g>
    <g clip-path="url(#p7fef2f8cbc)">
     <use xlink:href="#C0_0_df934a0dd3" x="383.846461" y="80.993979" style="fill: #9edae5; fill-opacity: 0.7; stroke: #9edae5; stroke-opacity: 0.7"/>
    </g>
    <g clip-path="url(#p7fef2f8cbc)">
     <use xlink:href="#C0_0_df934a0dd3" x="369.092893" y="106.13815" style="fill: #9edae5; fill-opacity: 0.7; stroke: #9edae5; stroke-opacity: 0.7"/>
    </g>
   </g>
   <g id="matplotlib.axis_1"/>
   <g id="matplotlib.axis_2"/>
   <g id="patch_3">
    <path d="M 10.8 349.2 
L 10.8 26.88 
" style="fill: none; stroke: #000000; stroke-width: 0.8; stroke-linejoin: miter; stroke-linecap: square"/>
   </g>
   <g id="patch_4">
    <path d="M 421.2 349.2 
L 421.2 26.88 
" style="fill: none; stroke: #000000; stroke-width: 0.8; stroke-linejoin: miter; stroke-linecap: square"/>
   </g>
   <g id="patch_5">
    <path d="M 10.8 349.2 
L 421.2 349.2 
" style="fill: none; stroke: #000000; stroke-width: 0.8; stroke-linejoin: miter; stroke-linecap: square"/>
   </g>
   <g id="patch_6">
    <path d="M 10.8 26.88 
L 421.2 26.88 
" style="fill: none; stroke: #000000; stroke-width: 0.8; stroke-linejoin: miter; stroke-linecap: square"/>
   </g>
   <g id="text_1">
    <!-- t-SNE: ti_v2_up -->
    <g transform="translate(170.466563 20.88) scale(0.12 -0.12)">
     <defs>
      <path id="DejaVuSans-74" d="M 1172 4494 
L 1172 3500 
L 2356 3500 
L 2356 3053 
L 1172 3053 
L 1172 1153 
Q 1172 725 1289 603 
Q 1406 481 1766 481 
L 2356 481 
L 2356 0 
L 1766 0 
Q 1100 0 847 248 
Q 594 497 594 1153 
L 594 3053 
L 172 3053 
L 172 3500 
L 594 3500 
L 594 4494 
L 1172 4494 
z
" transform="scale(0.015625)"/>
      <path id="DejaVuSans-2d" d="M 313 2009 
L 1997 2009 
L 1997 1497 
L 313 1497 
L 313 2009 
z
" transform="scale(0.015625)"/>
      <path id="DejaVuSans-53" d="M 3425 4513 
L 3425 3897 
Q 3066 4069 2747 4153 
Q 2428 4238 2131 4238 
Q 1616 4238 1336 4038 
Q 1056 3838 1056 3469 
Q 1056 3159 1242 3001 
Q 1428 2844 1947 2747 
L 2328 2669 
Q 3034 2534 3370 2195 
Q 3706 1856 3706 1288 
Q 3706 609 3251 259 
Q 2797 -91 1919 -91 
Q 1588 -91 1214 -16 
Q 841 59 441 206 
L 441 856 
Q 825 641 1194 531 
Q 1563 422 1919 422 
Q 2459 422 2753 634 
Q 3047 847 3047 1241 
Q 3047 1584 2836 1778 
Q 2625 1972 2144 2069 
L 1759 2144 
Q 1053 2284 737 2584 
Q 422 2884 422 3419 
Q 422 4038 858 4394 
Q 1294 4750 2059 4750 
Q 2388 4750 2728 4690 
Q 3069 4631 3425 4513 
z
" transform="scale(0.015625)"/>
      <path id="DejaVuSans-4e" d="M 628 4666 
L 1478 4666 
L 3547 763 
L 3547 4666 
L 4159 4666 
L 4159 0 
L 3309 0 
L 1241 3903 
L 1241 0 
L 628 0 
L 628 4666 
z
" transform="scale(0.015625)"/>
      <path id="DejaVuSans-45" d="M 628 4666 
L 3578 4666 
L 3578 4134 
L 1259 4134 
L 1259 2753 
L 3481 2753 
L 3481 2222 
L 1259 2222 
L 1259 531 
L 3634 531 
L 3634 0 
L 628 0 
L 628 4666 
z
" transform="scale(0.015625)"/>
      <path id="DejaVuSans-3a" d="M 750 794 
L 1409 794 
L 1409 0 
L 750 0 
L 750 794 
z
M 750 3309 
L 1409 3309 
L 1409 2516 
L 750 2516 
L 750 3309 
z
" transform="scale(0.015625)"/>
      <path id="DejaVuSans-20" transform="scale(0.015625)"/>
      <path id="DejaVuSans-69" d="M 603 3500 
L 1178 3500 
L 1178 0 
L 603 0 
L 603 3500 
z
M 603 4863 
L 1178 4863 
L 1178 4134 
L 603 4134 
L 603 4863 
z
" transform="scale(0.015625)"/>
      <path id="DejaVuSans-5f" d="M 3263 -1063 
L 3263 -1509 
L -63 -1509 
L -63 -1063 
L 3263 -1063 
z
" transform="scale(0.015625)"/>
      <path id="DejaVuSans-76" d="M 191 3500 
L 800 3500 
L 1894 563 
L 2988 3500 
L 3597 3500 
L 2284 0 
L 1503 0 
L 191 3500 
z
" transform="scale(0.015625)"/>
      <path id="DejaVuSans-32" d="M 1228 531 
L 3431 531 
L 3431 0 
L 469 0 
L 469 531 
Q 828 903 1448 1529 
Q 2069 2156 2228 2338 
Q 2531 2678 2651 2914 
Q 2772 3150 2772 3378 
Q 2772 3750 2511 3984 
Q 2250 4219 1831 4219 
Q 1534 4219 1204 4116 
Q 875 4013 500 3803 
L 500 4441 
Q 881 4594 1212 4672 
Q 1544 4750 1819 4750 
Q 2544 4750 2975 4387 
Q 3406 4025 3406 3419 
Q 3406 3131 3298 2873 
Q 3191 2616 2906 2266 
Q 2828 2175 2409 1742 
Q 1991 1309 1228 531 
z
" transform="scale(0.015625)"/>
      <path id="DejaVuSans-75" d="M 544 1381 
L 544 3500 
L 1119 3500 
L 1119 1403 
Q 1119 906 1312 657 
Q 1506 409 1894 409 
Q 2359 409 2629 706 
Q 2900 1003 2900 1516 
L 2900 3500 
L 3475 3500 
L 3475 0 
L 2900 0 
L 2900 538 
Q 2691 219 2414 64 
Q 2138 -91 1772 -91 
Q 1169 -91 856 284 
Q 544 659 544 1381 
z
M 1991 3584 
L 1991 3584 
z
" transform="scale(0.015625)"/>
      <path id="DejaVuSans-70" d="M 1159 525 
L 1159 -1331 
L 581 -1331 
L 581 3500 
L 1159 3500 
L 1159 2969 
Q 1341 3281 1617 3432 
Q 1894 3584 2278 3584 
Q 2916 3584 3314 3078 
Q 3713 2572 3713 1747 
Q 3713 922 3314 415 
Q 2916 -91 2278 -91 
Q 1894 -91 1617 61 
Q 1341 213 1159 525 
z
M 3116 1747 
Q 3116 2381 2855 2742 
Q 2594 3103 2138 3103 
Q 1681 3103 1420 2742 
Q 1159 2381 1159 1747 
Q 1159 1113 1420 752 
Q 1681 391 2138 391 
Q 2594 391 2855 752 
Q 3116 1113 3116 1747 
z
" transform="scale(0.015625)"/>
     </defs>
     <use xlink:href="#DejaVuSans-74"/>
     <use xlink:href="#DejaVuSans-2d" transform="translate(39.208984 0)"/>
     <use xlink:href="#DejaVuSans-53" transform="translate(75.292969 0)"/>
     <use xlink:href="#DejaVuSans-4e" transform="translate(138.769531 0)"/>
     <use xlink:href="#DejaVuSans-45" transform="translate(213.574219 0)"/>
     <use xlink:href="#DejaVuSans-3a" transform="translate(276.757812 0)"/>
     <use xlink:href="#DejaVuSans-20" transform="translate(310.449219 0)"/>
     <use xlink:href="#DejaVuSans-74" transform="translate(342.236328 0)"/>
     <use xlink:href="#DejaVuSans-69" transform="translate(381.445312 0)"/>
     <use xlink:href="#DejaVuSans-5f" transform="translate(409.228516 0)"/>
     <use xlink:href="#DejaVuSans-76" transform="translate(459.228516 0)"/>
     <use xlink:href="#DejaVuSans-32" transform="translate(518.408203 0)"/>
     <use xlink:href="#DejaVuSans-5f" transform="translate(582.03125 0)"/>
     <use xlink:href="#DejaVuSans-75" transform="translate(632.03125 0)"/>
     <use xlink:href="#DejaVuSans-70" transform="translate(695.410156 0)"/>
    </g>
   </g>
  </g>
 </g>
 <defs>
  <clipPath id="p7fef2f8cbc">
   <rect x="10.8" y="26.88" width="410.4" height="322.32"/>
  </clipPath>
 </defs>
</svg>
