<?xml version="1.0" encoding="utf-8" standalone="no"?>
<!DOCTYPE svg PUBLIC "-//W3C//DTD SVG 1.1//EN"
  "http://www.w3.org/Graphics/SVG/1.1/DTD/svg11.dtd">
<svg xmlns:xlink="http://www.w3.org/1999/xlink" width="432pt" height="360pt" viewBox="0 0 432 360" xmlns="http://www.w3.org/2000/svg" version="1.1">
 <metadata>
  <rdf:RDF xmlns:dc="http://purl.org/dc/elements/1.1/" xmlns:cc="http://creativecommons.org/ns#" xmlns:rdf="http://www.w3.org/1999/02/22-rdf-syntax-ns#">
   <cc:Work>
    <dc:type rdf:resource="http://purl.org/dc/dcmitype/StillImage"/>
    <dc:date>2025-06-16T01:16:34.082451</dc:date>
    <dc:format>image/svg+xml</dc:format>
    <dc:creator>
     <cc:Agent>
      <dc:title>Matplotlib v3.10.1, https://matplotlib.org/</dc:title>
     </cc:Agent>
    </dc:creator>
   </cc:Work>
  </rdf:RDF>
 </metadata>
 <defs>
  <style type="text/css">*{stroke-linejoin: round; stroke-linecap: butt}</style>
 </defs>
 <g id="figure_1">
  <g id="patch_1">
   <path d="M 0 360 
L 432 360 
L 432 0 
L 0 0 
z
" style="fill: #ffffff"/>
  </g>
  <g id="axes_1">
   <g id="patch_2">
    <path d="M 10.8 349.2 
L 421.2 349.2 
L 421.2 26.68875 
L 10.8 26.68875 
z
" style="fill: #ffffff"/>
   </g>
   <g id="PathCollection_1">
    <defs>
     <path id="C0_0_93348e08f5" d="M 0 2.236068 
C 0.593012 2.236068 1.161816 2.000462 1.581139 1.581139 
C 2.000462 1.161816 2.236068 0.593012 2.236068 -0 
C 2.236068 -0.593012 2.000462 -1.161816 1.581139 -1.581139 
C 1.161816 -2.000462 0.593012 -2.236068 0 -2.236068 
C -0.593012 -2.236068 -1.161816 -2.000462 -1.581139 -1.581139 
C -2.000462 -1.161816 -2.236068 -0.593012 -2.236068 0 
C -2.236068 0.593012 -2.000462 1.161816 -1.581139 1.581139 
C -1.161816 2.000462 -0.593012 2.236068 0 2.236068 
z
"/>
    </defs>
    <g clip-path="url(#p03034ba072)">
     <use xlink:href="#C0_0_93348e08f5" x="240.098325" y="266.831677" style="fill: #1f77b4; fill-opacity: 0.7; stroke: #1f77b4; stroke-opacity: 0.7"/>
    </g>
    <g clip-path="url(#p03034ba072)">
     <use xlink:href="#C0_0_93348e08f5" x="253.621448" y="268.655854" style="fill: #1f77b4; fill-opacity: 0.7; stroke: #1f77b4; stroke-opacity: 0.7"/>
    </g>
    <g clip-path="url(#p03034ba072)">
     <use xlink:href="#C0_0_93348e08f5" x="252.623283" y="282.134465" style="fill: #1f77b4; fill-opacity: 0.7; stroke: #1f77b4; stroke-opacity: 0.7"/>
    </g>
    <g clip-path="url(#p03034ba072)">
     <use xlink:href="#C0_0_93348e08f5" x="251.371756" y="290.86133" style="fill: #1f77b4; fill-opacity: 0.7; stroke: #1f77b4; stroke-opacity: 0.7"/>
    </g>
    <g clip-path="url(#p03034ba072)">
     <use xlink:href="#C0_0_93348e08f5" x="252.71441" y="250.157126" style="fill: #1f77b4; fill-opacity: 0.7; stroke: #1f77b4; stroke-opacity: 0.7"/>
    </g>
    <g clip-path="url(#p03034ba072)">
     <use xlink:href="#C0_0_93348e08f5" x="296.435331" y="294.008647" style="fill: #1f77b4; fill-opacity: 0.7; stroke: #1f77b4; stroke-opacity: 0.7"/>
    </g>
    <g clip-path="url(#p03034ba072)">
     <use xlink:href="#C0_0_93348e08f5" x="289.129551" y="288.413764" style="fill: #1f77b4; fill-opacity: 0.7; stroke: #1f77b4; stroke-opacity: 0.7"/>
    </g>
    <g clip-path="url(#p03034ba072)">
     <use xlink:href="#C0_0_93348e08f5" x="264.012681" y="272.502241" style="fill: #1f77b4; fill-opacity: 0.7; stroke: #1f77b4; stroke-opacity: 0.7"/>
    </g>
    <g clip-path="url(#p03034ba072)">
     <use xlink:href="#C0_0_93348e08f5" x="265.860316" y="258.392601" style="fill: #1f77b4; fill-opacity: 0.7; stroke: #1f77b4; stroke-opacity: 0.7"/>
    </g>
    <g clip-path="url(#p03034ba072)">
     <use xlink:href="#C0_0_93348e08f5" x="264.560933" y="288.903092" style="fill: #1f77b4; fill-opacity: 0.7; stroke: #1f77b4; stroke-opacity: 0.7"/>
    </g>
    <g clip-path="url(#p03034ba072)">
     <use xlink:href="#C0_0_93348e08f5" x="239.815207" y="247.681619" style="fill: #aec7e8; fill-opacity: 0.7; stroke: #aec7e8; stroke-opacity: 0.7"/>
    </g>
    <g clip-path="url(#p03034ba072)">
     <use xlink:href="#C0_0_93348e08f5" x="231.051899" y="231.961723" style="fill: #aec7e8; fill-opacity: 0.7; stroke: #aec7e8; stroke-opacity: 0.7"/>
    </g>
    <g clip-path="url(#p03034ba072)">
     <use xlink:href="#C0_0_93348e08f5" x="225.926724" y="249.707719" style="fill: #aec7e8; fill-opacity: 0.7; stroke: #aec7e8; stroke-opacity: 0.7"/>
    </g>
    <g clip-path="url(#p03034ba072)">
     <use xlink:href="#C0_0_93348e08f5" x="199.067482" y="187.734772" style="fill: #aec7e8; fill-opacity: 0.7; stroke: #aec7e8; stroke-opacity: 0.7"/>
    </g>
    <g clip-path="url(#p03034ba072)">
     <use xlink:href="#C0_0_93348e08f5" x="241.641018" y="280.763184" style="fill: #aec7e8; fill-opacity: 0.7; stroke: #aec7e8; stroke-opacity: 0.7"/>
    </g>
    <g clip-path="url(#p03034ba072)">
     <use xlink:href="#C0_0_93348e08f5" x="348.843053" y="144.611608" style="fill: #aec7e8; fill-opacity: 0.7; stroke: #aec7e8; stroke-opacity: 0.7"/>
    </g>
    <g clip-path="url(#p03034ba072)">
     <use xlink:href="#C0_0_93348e08f5" x="234.232264" y="199.445723" style="fill: #aec7e8; fill-opacity: 0.7; stroke: #aec7e8; stroke-opacity: 0.7"/>
    </g>
    <g clip-path="url(#p03034ba072)">
     <use xlink:href="#C0_0_93348e08f5" x="210.451195" y="191.72088" style="fill: #aec7e8; fill-opacity: 0.7; stroke: #aec7e8; stroke-opacity: 0.7"/>
    </g>
    <g clip-path="url(#p03034ba072)">
     <use xlink:href="#C0_0_93348e08f5" x="204.914529" y="185.858883" style="fill: #aec7e8; fill-opacity: 0.7; stroke: #aec7e8; stroke-opacity: 0.7"/>
    </g>
    <g clip-path="url(#p03034ba072)">
     <use xlink:href="#C0_0_93348e08f5" x="230.940606" y="201.495829" style="fill: #aec7e8; fill-opacity: 0.7; stroke: #aec7e8; stroke-opacity: 0.7"/>
    </g>
    <g clip-path="url(#p03034ba072)">
     <use xlink:href="#C0_0_93348e08f5" x="221.868593" y="276.368911" style="fill: #ffbb78; fill-opacity: 0.7; stroke: #ffbb78; stroke-opacity: 0.7"/>
    </g>
    <g clip-path="url(#p03034ba072)">
     <use xlink:href="#C0_0_93348e08f5" x="224.132152" y="291.273266" style="fill: #ffbb78; fill-opacity: 0.7; stroke: #ffbb78; stroke-opacity: 0.7"/>
    </g>
    <g clip-path="url(#p03034ba072)">
     <use xlink:href="#C0_0_93348e08f5" x="274.303497" y="172.938406" style="fill: #ffbb78; fill-opacity: 0.7; stroke: #ffbb78; stroke-opacity: 0.7"/>
    </g>
    <g clip-path="url(#p03034ba072)">
     <use xlink:href="#C0_0_93348e08f5" x="208.32247" y="288.985655" style="fill: #ffbb78; fill-opacity: 0.7; stroke: #ffbb78; stroke-opacity: 0.7"/>
    </g>
    <g clip-path="url(#p03034ba072)">
     <use xlink:href="#C0_0_93348e08f5" x="209.662884" y="294.926529" style="fill: #ffbb78; fill-opacity: 0.7; stroke: #ffbb78; stroke-opacity: 0.7"/>
    </g>
    <g clip-path="url(#p03034ba072)">
     <use xlink:href="#C0_0_93348e08f5" x="183.171765" y="288.324627" style="fill: #ffbb78; fill-opacity: 0.7; stroke: #ffbb78; stroke-opacity: 0.7"/>
    </g>
    <g clip-path="url(#p03034ba072)">
     <use xlink:href="#C0_0_93348e08f5" x="195.884257" y="317.398976" style="fill: #ffbb78; fill-opacity: 0.7; stroke: #ffbb78; stroke-opacity: 0.7"/>
    </g>
    <g clip-path="url(#p03034ba072)">
     <use xlink:href="#C0_0_93348e08f5" x="212.905191" y="283.212563" style="fill: #ffbb78; fill-opacity: 0.7; stroke: #ffbb78; stroke-opacity: 0.7"/>
    </g>
    <g clip-path="url(#p03034ba072)">
     <use xlink:href="#C0_0_93348e08f5" x="247.066486" y="323.890634" style="fill: #ffbb78; fill-opacity: 0.7; stroke: #ffbb78; stroke-opacity: 0.7"/>
    </g>
    <g clip-path="url(#p03034ba072)">
     <use xlink:href="#C0_0_93348e08f5" x="173.26488" y="290.257092" style="fill: #ffbb78; fill-opacity: 0.7; stroke: #ffbb78; stroke-opacity: 0.7"/>
    </g>
    <g clip-path="url(#p03034ba072)">
     <use xlink:href="#C0_0_93348e08f5" x="174.033884" y="44.777267" style="fill: #98df8a; fill-opacity: 0.7; stroke: #98df8a; stroke-opacity: 0.7"/>
    </g>
    <g clip-path="url(#p03034ba072)">
     <use xlink:href="#C0_0_93348e08f5" x="174.50328" y="45.083093" style="fill: #98df8a; fill-opacity: 0.7; stroke: #98df8a; stroke-opacity: 0.7"/>
    </g>
    <g clip-path="url(#p03034ba072)">
     <use xlink:href="#C0_0_93348e08f5" x="215.462622" y="334.540398" style="fill: #98df8a; fill-opacity: 0.7; stroke: #98df8a; stroke-opacity: 0.7"/>
    </g>
    <g clip-path="url(#p03034ba072)">
     <use xlink:href="#C0_0_93348e08f5" x="187.89916" y="273.228279" style="fill: #98df8a; fill-opacity: 0.7; stroke: #98df8a; stroke-opacity: 0.7"/>
    </g>
    <g clip-path="url(#p03034ba072)">
     <use xlink:href="#C0_0_93348e08f5" x="177.952667" y="332.113031" style="fill: #98df8a; fill-opacity: 0.7; stroke: #98df8a; stroke-opacity: 0.7"/>
    </g>
    <g clip-path="url(#p03034ba072)">
     <use xlink:href="#C0_0_93348e08f5" x="206.800022" y="43.197375" style="fill: #98df8a; fill-opacity: 0.7; stroke: #98df8a; stroke-opacity: 0.7"/>
    </g>
    <g clip-path="url(#p03034ba072)">
     <use xlink:href="#C0_0_93348e08f5" x="150.102535" y="231.15379" style="fill: #98df8a; fill-opacity: 0.7; stroke: #98df8a; stroke-opacity: 0.7"/>
    </g>
    <g clip-path="url(#p03034ba072)">
     <use xlink:href="#C0_0_93348e08f5" x="215.43905" y="51.210826" style="fill: #98df8a; fill-opacity: 0.7; stroke: #98df8a; stroke-opacity: 0.7"/>
    </g>
    <g clip-path="url(#p03034ba072)">
     <use xlink:href="#C0_0_93348e08f5" x="199.170139" y="41.348352" style="fill: #98df8a; fill-opacity: 0.7; stroke: #98df8a; stroke-opacity: 0.7"/>
    </g>
    <g clip-path="url(#p03034ba072)">
     <use xlink:href="#C0_0_93348e08f5" x="205.922704" y="45.595351" style="fill: #98df8a; fill-opacity: 0.7; stroke: #98df8a; stroke-opacity: 0.7"/>
    </g>
    <g clip-path="url(#p03034ba072)">
     <use xlink:href="#C0_0_93348e08f5" x="292.273898" y="243.699651" style="fill: #d62728; fill-opacity: 0.7; stroke: #d62728; stroke-opacity: 0.7"/>
    </g>
    <g clip-path="url(#p03034ba072)">
     <use xlink:href="#C0_0_93348e08f5" x="310.929094" y="211.449358" style="fill: #d62728; fill-opacity: 0.7; stroke: #d62728; stroke-opacity: 0.7"/>
    </g>
    <g clip-path="url(#p03034ba072)">
     <use xlink:href="#C0_0_93348e08f5" x="307.344417" y="220.971711" style="fill: #d62728; fill-opacity: 0.7; stroke: #d62728; stroke-opacity: 0.7"/>
    </g>
    <g clip-path="url(#p03034ba072)">
     <use xlink:href="#C0_0_93348e08f5" x="330.259352" y="225.474951" style="fill: #d62728; fill-opacity: 0.7; stroke: #d62728; stroke-opacity: 0.7"/>
    </g>
    <g clip-path="url(#p03034ba072)">
     <use xlink:href="#C0_0_93348e08f5" x="279.6231" y="127.398151" style="fill: #d62728; fill-opacity: 0.7; stroke: #d62728; stroke-opacity: 0.7"/>
    </g>
    <g clip-path="url(#p03034ba072)">
     <use xlink:href="#C0_0_93348e08f5" x="309.348689" y="195.853565" style="fill: #d62728; fill-opacity: 0.7; stroke: #d62728; stroke-opacity: 0.7"/>
    </g>
    <g clip-path="url(#p03034ba072)">
     <use xlink:href="#C0_0_93348e08f5" x="308.548166" y="232.444491" style="fill: #d62728; fill-opacity: 0.7; stroke: #d62728; stroke-opacity: 0.7"/>
    </g>
    <g clip-path="url(#p03034ba072)">
     <use xlink:href="#C0_0_93348e08f5" x="305.259136" y="200.032672" style="fill: #d62728; fill-opacity: 0.7; stroke: #d62728; stroke-opacity: 0.7"/>
    </g>
    <g clip-path="url(#p03034ba072)">
     <use xlink:href="#C0_0_93348e08f5" x="321.790657" y="227.565716" style="fill: #d62728; fill-opacity: 0.7; stroke: #d62728; stroke-opacity: 0.7"/>
    </g>
    <g clip-path="url(#p03034ba072)">
     <use xlink:href="#C0_0_93348e08f5" x="328.999448" y="245.005913" style="fill: #d62728; fill-opacity: 0.7; stroke: #d62728; stroke-opacity: 0.7"/>
    </g>
    <g clip-path="url(#p03034ba072)">
     <use xlink:href="#C0_0_93348e08f5" x="241.566291" y="183.186364" style="fill: #9467bd; fill-opacity: 0.7; stroke: #9467bd; stroke-opacity: 0.7"/>
    </g>
    <g clip-path="url(#p03034ba072)">
     <use xlink:href="#C0_0_93348e08f5" x="319.111874" y="147.794688" style="fill: #9467bd; fill-opacity: 0.7; stroke: #9467bd; stroke-opacity: 0.7"/>
    </g>
    <g clip-path="url(#p03034ba072)">
     <use xlink:href="#C0_0_93348e08f5" x="291.612974" y="156.326492" style="fill: #9467bd; fill-opacity: 0.7; stroke: #9467bd; stroke-opacity: 0.7"/>
    </g>
    <g clip-path="url(#p03034ba072)">
     <use xlink:href="#C0_0_93348e08f5" x="324.60344" y="170.960251" style="fill: #9467bd; fill-opacity: 0.7; stroke: #9467bd; stroke-opacity: 0.7"/>
    </g>
    <g clip-path="url(#p03034ba072)">
     <use xlink:href="#C0_0_93348e08f5" x="296.205168" y="186.134227" style="fill: #9467bd; fill-opacity: 0.7; stroke: #9467bd; stroke-opacity: 0.7"/>
    </g>
    <g clip-path="url(#p03034ba072)">
     <use xlink:href="#C0_0_93348e08f5" x="308.381714" y="169.495163" style="fill: #9467bd; fill-opacity: 0.7; stroke: #9467bd; stroke-opacity: 0.7"/>
    </g>
    <g clip-path="url(#p03034ba072)">
     <use xlink:href="#C0_0_93348e08f5" x="327.365737" y="135.450213" style="fill: #9467bd; fill-opacity: 0.7; stroke: #9467bd; stroke-opacity: 0.7"/>
    </g>
    <g clip-path="url(#p03034ba072)">
     <use xlink:href="#C0_0_93348e08f5" x="356.815277" y="117.093957" style="fill: #9467bd; fill-opacity: 0.7; stroke: #9467bd; stroke-opacity: 0.7"/>
    </g>
    <g clip-path="url(#p03034ba072)">
     <use xlink:href="#C0_0_93348e08f5" x="329.996955" y="85.59962" style="fill: #9467bd; fill-opacity: 0.7; stroke: #9467bd; stroke-opacity: 0.7"/>
    </g>
    <g clip-path="url(#p03034ba072)">
     <use xlink:href="#C0_0_93348e08f5" x="328.962172" y="129.655566" style="fill: #9467bd; fill-opacity: 0.7; stroke: #9467bd; stroke-opacity: 0.7"/>
    </g>
    <g clip-path="url(#p03034ba072)">
     <use xlink:href="#C0_0_93348e08f5" x="191.526513" y="229.823468" style="fill: #8c564b; fill-opacity: 0.7; stroke: #8c564b; stroke-opacity: 0.7"/>
    </g>
    <g clip-path="url(#p03034ba072)">
     <use xlink:href="#C0_0_93348e08f5" x="205.454953" y="226.521624" style="fill: #8c564b; fill-opacity: 0.7; stroke: #8c564b; stroke-opacity: 0.7"/>
    </g>
    <g clip-path="url(#p03034ba072)">
     <use xlink:href="#C0_0_93348e08f5" x="179.256021" y="199.170595" style="fill: #8c564b; fill-opacity: 0.7; stroke: #8c564b; stroke-opacity: 0.7"/>
    </g>
    <g clip-path="url(#p03034ba072)">
     <use xlink:href="#C0_0_93348e08f5" x="189.317844" y="248.719791" style="fill: #8c564b; fill-opacity: 0.7; stroke: #8c564b; stroke-opacity: 0.7"/>
    </g>
    <g clip-path="url(#p03034ba072)">
     <use xlink:href="#C0_0_93348e08f5" x="173.149286" y="245.245139" style="fill: #8c564b; fill-opacity: 0.7; stroke: #8c564b; stroke-opacity: 0.7"/>
    </g>
    <g clip-path="url(#p03034ba072)">
     <use xlink:href="#C0_0_93348e08f5" x="187.933885" y="220.665202" style="fill: #8c564b; fill-opacity: 0.7; stroke: #8c564b; stroke-opacity: 0.7"/>
    </g>
    <g clip-path="url(#p03034ba072)">
     <use xlink:href="#C0_0_93348e08f5" x="207.681009" y="245.256272" style="fill: #8c564b; fill-opacity: 0.7; stroke: #8c564b; stroke-opacity: 0.7"/>
    </g>
    <g clip-path="url(#p03034ba072)">
     <use xlink:href="#C0_0_93348e08f5" x="204.178858" y="250.299931" style="fill: #8c564b; fill-opacity: 0.7; stroke: #8c564b; stroke-opacity: 0.7"/>
    </g>
    <g clip-path="url(#p03034ba072)">
     <use xlink:href="#C0_0_93348e08f5" x="183.682746" y="227.102614" style="fill: #8c564b; fill-opacity: 0.7; stroke: #8c564b; stroke-opacity: 0.7"/>
    </g>
    <g clip-path="url(#p03034ba072)">
     <use xlink:href="#C0_0_93348e08f5" x="188.730892" y="218.970977" style="fill: #8c564b; fill-opacity: 0.7; stroke: #8c564b; stroke-opacity: 0.7"/>
    </g>
    <g clip-path="url(#p03034ba072)">
     <use xlink:href="#C0_0_93348e08f5" x="335.905607" y="223.059147" style="fill: #c49c94; fill-opacity: 0.7; stroke: #c49c94; stroke-opacity: 0.7"/>
    </g>
    <g clip-path="url(#p03034ba072)">
     <use xlink:href="#C0_0_93348e08f5" x="301.715553" y="121.818482" style="fill: #c49c94; fill-opacity: 0.7; stroke: #c49c94; stroke-opacity: 0.7"/>
    </g>
    <g clip-path="url(#p03034ba072)">
     <use xlink:href="#C0_0_93348e08f5" x="312.986283" y="81.827502" style="fill: #c49c94; fill-opacity: 0.7; stroke: #c49c94; stroke-opacity: 0.7"/>
    </g>
    <g clip-path="url(#p03034ba072)">
     <use xlink:href="#C0_0_93348e08f5" x="287.849622" y="71.464525" style="fill: #c49c94; fill-opacity: 0.7; stroke: #c49c94; stroke-opacity: 0.7"/>
    </g>
    <g clip-path="url(#p03034ba072)">
     <use xlink:href="#C0_0_93348e08f5" x="307.611035" y="262.319241" style="fill: #c49c94; fill-opacity: 0.7; stroke: #c49c94; stroke-opacity: 0.7"/>
    </g>
    <g clip-path="url(#p03034ba072)">
     <use xlink:href="#C0_0_93348e08f5" x="283.965421" y="83.749643" style="fill: #c49c94; fill-opacity: 0.7; stroke: #c49c94; stroke-opacity: 0.7"/>
    </g>
    <g clip-path="url(#p03034ba072)">
     <use xlink:href="#C0_0_93348e08f5" x="290.093975" y="87.946387" style="fill: #c49c94; fill-opacity: 0.7; stroke: #c49c94; stroke-opacity: 0.7"/>
    </g>
    <g clip-path="url(#p03034ba072)">
     <use xlink:href="#C0_0_93348e08f5" x="288.129734" y="55.242135" style="fill: #c49c94; fill-opacity: 0.7; stroke: #c49c94; stroke-opacity: 0.7"/>
    </g>
    <g clip-path="url(#p03034ba072)">
     <use xlink:href="#C0_0_93348e08f5" x="286.902486" y="79.978703" style="fill: #c49c94; fill-opacity: 0.7; stroke: #c49c94; stroke-opacity: 0.7"/>
    </g>
    <g clip-path="url(#p03034ba072)">
     <use xlink:href="#C0_0_93348e08f5" x="266.501605" y="99.095971" style="fill: #c49c94; fill-opacity: 0.7; stroke: #c49c94; stroke-opacity: 0.7"/>
    </g>
    <g clip-path="url(#p03034ba072)">
     <use xlink:href="#C0_0_93348e08f5" x="204.061626" y="103.916408" style="fill: #f7b6d2; fill-opacity: 0.7; stroke: #f7b6d2; stroke-opacity: 0.7"/>
    </g>
    <g clip-path="url(#p03034ba072)">
     <use xlink:href="#C0_0_93348e08f5" x="278.448055" y="193.384558" style="fill: #f7b6d2; fill-opacity: 0.7; stroke: #f7b6d2; stroke-opacity: 0.7"/>
    </g>
    <g clip-path="url(#p03034ba072)">
     <use xlink:href="#C0_0_93348e08f5" x="246.362454" y="131.436988" style="fill: #f7b6d2; fill-opacity: 0.7; stroke: #f7b6d2; stroke-opacity: 0.7"/>
    </g>
    <g clip-path="url(#p03034ba072)">
     <use xlink:href="#C0_0_93348e08f5" x="188.994899" y="77.277875" style="fill: #f7b6d2; fill-opacity: 0.7; stroke: #f7b6d2; stroke-opacity: 0.7"/>
    </g>
    <g clip-path="url(#p03034ba072)">
     <use xlink:href="#C0_0_93348e08f5" x="207.152339" y="128.047377" style="fill: #f7b6d2; fill-opacity: 0.7; stroke: #f7b6d2; stroke-opacity: 0.7"/>
    </g>
    <g clip-path="url(#p03034ba072)">
     <use xlink:href="#C0_0_93348e08f5" x="197.028212" y="153.295068" style="fill: #f7b6d2; fill-opacity: 0.7; stroke: #f7b6d2; stroke-opacity: 0.7"/>
    </g>
    <g clip-path="url(#p03034ba072)">
     <use xlink:href="#C0_0_93348e08f5" x="194.36648" y="87.95312" style="fill: #f7b6d2; fill-opacity: 0.7; stroke: #f7b6d2; stroke-opacity: 0.7"/>
    </g>
    <g clip-path="url(#p03034ba072)">
     <use xlink:href="#C0_0_93348e08f5" x="190.729503" y="75.973904" style="fill: #f7b6d2; fill-opacity: 0.7; stroke: #f7b6d2; stroke-opacity: 0.7"/>
    </g>
    <g clip-path="url(#p03034ba072)">
     <use xlink:href="#C0_0_93348e08f5" x="206.606163" y="130.67324" style="fill: #f7b6d2; fill-opacity: 0.7; stroke: #f7b6d2; stroke-opacity: 0.7"/>
    </g>
    <g clip-path="url(#p03034ba072)">
     <use xlink:href="#C0_0_93348e08f5" x="188.554964" y="137.1106" style="fill: #f7b6d2; fill-opacity: 0.7; stroke: #f7b6d2; stroke-opacity: 0.7"/>
    </g>
    <g clip-path="url(#p03034ba072)">
     <use xlink:href="#C0_0_93348e08f5" x="159.413037" y="216.581258" style="fill: #c7c7c7; fill-opacity: 0.7; stroke: #c7c7c7; stroke-opacity: 0.7"/>
    </g>
    <g clip-path="url(#p03034ba072)">
     <use xlink:href="#C0_0_93348e08f5" x="244.405794" y="217.518953" style="fill: #c7c7c7; fill-opacity: 0.7; stroke: #c7c7c7; stroke-opacity: 0.7"/>
    </g>
    <g clip-path="url(#p03034ba072)">
     <use xlink:href="#C0_0_93348e08f5" x="281.625651" y="158.3953" style="fill: #c7c7c7; fill-opacity: 0.7; stroke: #c7c7c7; stroke-opacity: 0.7"/>
    </g>
    <g clip-path="url(#p03034ba072)">
     <use xlink:href="#C0_0_93348e08f5" x="258.476668" y="164.976735" style="fill: #c7c7c7; fill-opacity: 0.7; stroke: #c7c7c7; stroke-opacity: 0.7"/>
    </g>
    <g clip-path="url(#p03034ba072)">
     <use xlink:href="#C0_0_93348e08f5" x="241.099199" y="229.825057" style="fill: #c7c7c7; fill-opacity: 0.7; stroke: #c7c7c7; stroke-opacity: 0.7"/>
    </g>
    <g clip-path="url(#p03034ba072)">
     <use xlink:href="#C0_0_93348e08f5" x="266.60201" y="216.180044" style="fill: #c7c7c7; fill-opacity: 0.7; stroke: #c7c7c7; stroke-opacity: 0.7"/>
    </g>
    <g clip-path="url(#p03034ba072)">
     <use xlink:href="#C0_0_93348e08f5" x="218.60907" y="225.180973" style="fill: #c7c7c7; fill-opacity: 0.7; stroke: #c7c7c7; stroke-opacity: 0.7"/>
    </g>
    <g clip-path="url(#p03034ba072)">
     <use xlink:href="#C0_0_93348e08f5" x="312.266435" y="137.631433" style="fill: #c7c7c7; fill-opacity: 0.7; stroke: #c7c7c7; stroke-opacity: 0.7"/>
    </g>
    <g clip-path="url(#p03034ba072)">
     <use xlink:href="#C0_0_93348e08f5" x="284.615606" y="151.502619" style="fill: #c7c7c7; fill-opacity: 0.7; stroke: #c7c7c7; stroke-opacity: 0.7"/>
    </g>
    <g clip-path="url(#p03034ba072)">
     <use xlink:href="#C0_0_93348e08f5" x="302.411401" y="150.031923" style="fill: #c7c7c7; fill-opacity: 0.7; stroke: #c7c7c7; stroke-opacity: 0.7"/>
    </g>
    <g clip-path="url(#p03034ba072)">
     <use xlink:href="#C0_0_93348e08f5" x="382.372499" y="120.964298" style="fill: #bcbd22; fill-opacity: 0.7; stroke: #bcbd22; stroke-opacity: 0.7"/>
    </g>
    <g clip-path="url(#p03034ba072)">
     <use xlink:href="#C0_0_93348e08f5" x="398.766318" y="116.021956" style="fill: #bcbd22; fill-opacity: 0.7; stroke: #bcbd22; stroke-opacity: 0.7"/>
    </g>
    <g clip-path="url(#p03034ba072)">
     <use xlink:href="#C0_0_93348e08f5" x="373.542483" y="124.477566" style="fill: #bcbd22; fill-opacity: 0.7; stroke: #bcbd22; stroke-opacity: 0.7"/>
    </g>
    <g clip-path="url(#p03034ba072)">
     <use xlink:href="#C0_0_93348e08f5" x="387.127434" y="134.205894" style="fill: #bcbd22; fill-opacity: 0.7; stroke: #bcbd22; stroke-opacity: 0.7"/>
    </g>
    <g clip-path="url(#p03034ba072)">
     <use xlink:href="#C0_0_93348e08f5" x="388.756609" y="107.23089" style="fill: #bcbd22; fill-opacity: 0.7; stroke: #bcbd22; stroke-opacity: 0.7"/>
    </g>
    <g clip-path="url(#p03034ba072)">
     <use xlink:href="#C0_0_93348e08f5" x="378.682534" y="98.597385" style="fill: #bcbd22; fill-opacity: 0.7; stroke: #bcbd22; stroke-opacity: 0.7"/>
    </g>
    <g clip-path="url(#p03034ba072)">
     <use xlink:href="#C0_0_93348e08f5" x="402.545455" y="102.135505" style="fill: #bcbd22; fill-opacity: 0.7; stroke: #bcbd22; stroke-opacity: 0.7"/>
    </g>
    <g clip-path="url(#p03034ba072)">
     <use xlink:href="#C0_0_93348e08f5" x="375.198553" y="105.62517" style="fill: #bcbd22; fill-opacity: 0.7; stroke: #bcbd22; stroke-opacity: 0.7"/>
    </g>
    <g clip-path="url(#p03034ba072)">
     <use xlink:href="#C0_0_93348e08f5" x="392.163432" y="106.89304" style="fill: #bcbd22; fill-opacity: 0.7; stroke: #bcbd22; stroke-opacity: 0.7"/>
    </g>
    <g clip-path="url(#p03034ba072)">
     <use xlink:href="#C0_0_93348e08f5" x="401.248033" y="123.374986" style="fill: #bcbd22; fill-opacity: 0.7; stroke: #bcbd22; stroke-opacity: 0.7"/>
    </g>
    <g clip-path="url(#p03034ba072)">
     <use xlink:href="#C0_0_93348e08f5" x="35.748073" y="113.072943" style="fill: #17becf; fill-opacity: 0.7; stroke: #17becf; stroke-opacity: 0.7"/>
    </g>
    <g clip-path="url(#p03034ba072)">
     <use xlink:href="#C0_0_93348e08f5" x="45.298892" y="98.042065" style="fill: #17becf; fill-opacity: 0.7; stroke: #17becf; stroke-opacity: 0.7"/>
    </g>
    <g clip-path="url(#p03034ba072)">
     <use xlink:href="#C0_0_93348e08f5" x="52.145918" y="133.318274" style="fill: #17becf; fill-opacity: 0.7; stroke: #17becf; stroke-opacity: 0.7"/>
    </g>
    <g clip-path="url(#p03034ba072)">
     <use xlink:href="#C0_0_93348e08f5" x="52.364341" y="99.699011" style="fill: #17becf; fill-opacity: 0.7; stroke: #17becf; stroke-opacity: 0.7"/>
    </g>
    <g clip-path="url(#p03034ba072)">
     <use xlink:href="#C0_0_93348e08f5" x="29.454545" y="104.001547" style="fill: #17becf; fill-opacity: 0.7; stroke: #17becf; stroke-opacity: 0.7"/>
    </g>
    <g clip-path="url(#p03034ba072)">
     <use xlink:href="#C0_0_93348e08f5" x="48.319857" y="111.187632" style="fill: #17becf; fill-opacity: 0.7; stroke: #17becf; stroke-opacity: 0.7"/>
    </g>
    <g clip-path="url(#p03034ba072)">
     <use xlink:href="#C0_0_93348e08f5" x="52.78703" y="83.401361" style="fill: #17becf; fill-opacity: 0.7; stroke: #17becf; stroke-opacity: 0.7"/>
    </g>
    <g clip-path="url(#p03034ba072)">
     <use xlink:href="#C0_0_93348e08f5" x="35.164015" y="107.40461" style="fill: #17becf; fill-opacity: 0.7; stroke: #17becf; stroke-opacity: 0.7"/>
    </g>
    <g clip-path="url(#p03034ba072)">
     <use xlink:href="#C0_0_93348e08f5" x="39.186531" y="107.392944" style="fill: #17becf; fill-opacity: 0.7; stroke: #17becf; stroke-opacity: 0.7"/>
    </g>
    <g clip-path="url(#p03034ba072)">
     <use xlink:href="#C0_0_93348e08f5" x="51.45636" y="89.650885" style="fill: #17becf; fill-opacity: 0.7; stroke: #17becf; stroke-opacity: 0.7"/>
    </g>
    <g clip-path="url(#p03034ba072)">
     <use xlink:href="#C0_0_93348e08f5" x="367.25994" y="190.03874" style="fill: #9edae5; fill-opacity: 0.7; stroke: #9edae5; stroke-opacity: 0.7"/>
    </g>
    <g clip-path="url(#p03034ba072)">
     <use xlink:href="#C0_0_93348e08f5" x="86.382827" y="157.097294" style="fill: #9edae5; fill-opacity: 0.7; stroke: #9edae5; stroke-opacity: 0.7"/>
    </g>
    <g clip-path="url(#p03034ba072)">
     <use xlink:href="#C0_0_93348e08f5" x="64.655155" y="143.75495" style="fill: #9edae5; fill-opacity: 0.7; stroke: #9edae5; stroke-opacity: 0.7"/>
    </g>
    <g clip-path="url(#p03034ba072)">
     <use xlink:href="#C0_0_93348e08f5" x="96.105294" y="138.229265" style="fill: #9edae5; fill-opacity: 0.7; stroke: #9edae5; stroke-opacity: 0.7"/>
    </g>
    <g clip-path="url(#p03034ba072)">
     <use xlink:href="#C0_0_93348e08f5" x="124.670111" y="129.908917" style="fill: #9edae5; fill-opacity: 0.7; stroke: #9edae5; stroke-opacity: 0.7"/>
    </g>
    <g clip-path="url(#p03034ba072)">
     <use xlink:href="#C0_0_93348e08f5" x="91.836968" y="143.874058" style="fill: #9edae5; fill-opacity: 0.7; stroke: #9edae5; stroke-opacity: 0.7"/>
    </g>
    <g clip-path="url(#p03034ba072)">
     <use xlink:href="#C0_0_93348e08f5" x="99.026769" y="150.218202" style="fill: #9edae5; fill-opacity: 0.7; stroke: #9edae5; stroke-opacity: 0.7"/>
    </g>
    <g clip-path="url(#p03034ba072)">
     <use xlink:href="#C0_0_93348e08f5" x="105.968562" y="160.484048" style="fill: #9edae5; fill-opacity: 0.7; stroke: #9edae5; stroke-opacity: 0.7"/>
    </g>
    <g clip-path="url(#p03034ba072)">
     <use xlink:href="#C0_0_93348e08f5" x="96.927368" y="132.913561" style="fill: #9edae5; fill-opacity: 0.7; stroke: #9edae5; stroke-opacity: 0.7"/>
    </g>
    <g clip-path="url(#p03034ba072)">
     <use xlink:href="#C0_0_93348e08f5" x="120.536844" y="130.306378" style="fill: #9edae5; fill-opacity: 0.7; stroke: #9edae5; stroke-opacity: 0.7"/>
    </g>
   </g>
   <g id="matplotlib.axis_1"/>
   <g id="matplotlib.axis_2"/>
   <g id="patch_3">
    <path d="M 10.8 349.2 
L 10.8 26.68875 
" style="fill: none; stroke: #000000; stroke-width: 0.8; stroke-linejoin: miter; stroke-linecap: square"/>
   </g>
   <g id="patch_4">
    <path d="M 421.2 349.2 
L 421.2 26.68875 
" style="fill: none; stroke: #000000; stroke-width: 0.8; stroke-linejoin: miter; stroke-linecap: square"/>
   </g>
   <g id="patch_5">
    <path d="M 10.8 349.2 
L 421.2 349.2 
" style="fill: none; stroke: #000000; stroke-width: 0.8; stroke-linejoin: miter; stroke-linecap: square"/>
   </g>
   <g id="patch_6">
    <path d="M 10.8 26.68875 
L 421.2 26.68875 
" style="fill: none; stroke: #000000; stroke-width: 0.8; stroke-linejoin: miter; stroke-linecap: square"/>
   </g>
   <g id="text_1">
    <!-- t-SNE: v2_up -->
    <g transform="translate(177.485625 20.68875) scale(0.12 -0.12)">
     <defs>
      <path id="DejaVuSans-74" d="M 1172 4494 
L 1172 3500 
L 2356 3500 
L 2356 3053 
L 1172 3053 
L 1172 1153 
Q 1172 725 1289 603 
Q 1406 481 1766 481 
L 2356 481 
L 2356 0 
L 1766 0 
Q 1100 0 847 248 
Q 594 497 594 1153 
L 594 3053 
L 172 3053 
L 172 3500 
L 594 3500 
L 594 4494 
L 1172 4494 
z
" transform="scale(0.015625)"/>
      <path id="DejaVuSans-2d" d="M 313 2009 
L 1997 2009 
L 1997 1497 
L 313 1497 
L 313 2009 
z
" transform="scale(0.015625)"/>
      <path id="DejaVuSans-53" d="M 3425 4513 
L 3425 3897 
Q 3066 4069 2747 4153 
Q 2428 4238 2131 4238 
Q 1616 4238 1336 4038 
Q 1056 3838 1056 3469 
Q 1056 3159 1242 3001 
Q 1428 2844 1947 2747 
L 2328 2669 
Q 3034 2534 3370 2195 
Q 3706 1856 3706 1288 
Q 3706 609 3251 259 
Q 2797 -91 1919 -91 
Q 1588 -91 1214 -16 
Q 841 59 441 206 
L 441 856 
Q 825 641 1194 531 
Q 1563 422 1919 422 
Q 2459 422 2753 634 
Q 3047 847 3047 1241 
Q 3047 1584 2836 1778 
Q 2625 1972 2144 2069 
L 1759 2144 
Q 1053 2284 737 2584 
Q 422 2884 422 3419 
Q 422 4038 858 4394 
Q 1294 4750 2059 4750 
Q 2388 4750 2728 4690 
Q 3069 4631 3425 4513 
z
" transform="scale(0.015625)"/>
      <path id="DejaVuSans-4e" d="M 628 4666 
L 1478 4666 
L 3547 763 
L 3547 4666 
L 4159 4666 
L 4159 0 
L 3309 0 
L 1241 3903 
L 1241 0 
L 628 0 
L 628 4666 
z
" transform="scale(0.015625)"/>
      <path id="DejaVuSans-45" d="M 628 4666 
L 3578 4666 
L 3578 4134 
L 1259 4134 
L 1259 2753 
L 3481 2753 
L 3481 2222 
L 1259 2222 
L 1259 531 
L 3634 531 
L 3634 0 
L 628 0 
L 628 4666 
z
" transform="scale(0.015625)"/>
      <path id="DejaVuSans-3a" d="M 750 794 
L 1409 794 
L 1409 0 
L 750 0 
L 750 794 
z
M 750 3309 
L 1409 3309 
L 1409 2516 
L 750 2516 
L 750 3309 
z
" transform="scale(0.015625)"/>
      <path id="DejaVuSans-20" transform="scale(0.015625)"/>
      <path id="DejaVuSans-76" d="M 191 3500 
L 800 3500 
L 1894 563 
L 2988 3500 
L 3597 3500 
L 2284 0 
L 1503 0 
L 191 3500 
z
" transform="scale(0.015625)"/>
      <path id="DejaVuSans-32" d="M 1228 531 
L 3431 531 
L 3431 0 
L 469 0 
L 469 531 
Q 828 903 1448 1529 
Q 2069 2156 2228 2338 
Q 2531 2678 2651 2914 
Q 2772 3150 2772 3378 
Q 2772 3750 2511 3984 
Q 2250 4219 1831 4219 
Q 1534 4219 1204 4116 
Q 875 4013 500 3803 
L 500 4441 
Q 881 4594 1212 4672 
Q 1544 4750 1819 4750 
Q 2544 4750 2975 4387 
Q 3406 4025 3406 3419 
Q 3406 3131 3298 2873 
Q 3191 2616 2906 2266 
Q 2828 2175 2409 1742 
Q 1991 1309 1228 531 
z
" transform="scale(0.015625)"/>
      <path id="DejaVuSans-5f" d="M 3263 -1063 
L 3263 -1509 
L -63 -1509 
L -63 -1063 
L 3263 -1063 
z
" transform="scale(0.015625)"/>
      <path id="DejaVuSans-75" d="M 544 1381 
L 544 3500 
L 1119 3500 
L 1119 1403 
Q 1119 906 1312 657 
Q 1506 409 1894 409 
Q 2359 409 2629 706 
Q 2900 1003 2900 1516 
L 2900 3500 
L 3475 3500 
L 3475 0 
L 2900 0 
L 2900 538 
Q 2691 219 2414 64 
Q 2138 -91 1772 -91 
Q 1169 -91 856 284 
Q 544 659 544 1381 
z
M 1991 3584 
L 1991 3584 
z
" transform="scale(0.015625)"/>
      <path id="DejaVuSans-70" d="M 1159 525 
L 1159 -1331 
L 581 -1331 
L 581 3500 
L 1159 3500 
L 1159 2969 
Q 1341 3281 1617 3432 
Q 1894 3584 2278 3584 
Q 2916 3584 3314 3078 
Q 3713 2572 3713 1747 
Q 3713 922 3314 415 
Q 2916 -91 2278 -91 
Q 1894 -91 1617 61 
Q 1341 213 1159 525 
z
M 3116 1747 
Q 3116 2381 2855 2742 
Q 2594 3103 2138 3103 
Q 1681 3103 1420 2742 
Q 1159 2381 1159 1747 
Q 1159 1113 1420 752 
Q 1681 391 2138 391 
Q 2594 391 2855 752 
Q 3116 1113 3116 1747 
z
" transform="scale(0.015625)"/>
     </defs>
     <use xlink:href="#DejaVuSans-74"/>
     <use xlink:href="#DejaVuSans-2d" transform="translate(39.208984 0)"/>
     <use xlink:href="#DejaVuSans-53" transform="translate(75.292969 0)"/>
     <use xlink:href="#DejaVuSans-4e" transform="translate(138.769531 0)"/>
     <use xlink:href="#DejaVuSans-45" transform="translate(213.574219 0)"/>
     <use xlink:href="#DejaVuSans-3a" transform="translate(276.757812 0)"/>
     <use xlink:href="#DejaVuSans-20" transform="translate(310.449219 0)"/>
     <use xlink:href="#DejaVuSans-76" transform="translate(342.236328 0)"/>
     <use xlink:href="#DejaVuSans-32" transform="translate(401.416016 0)"/>
     <use xlink:href="#DejaVuSans-5f" transform="translate(465.039062 0)"/>
     <use xlink:href="#DejaVuSans-75" transform="translate(515.039062 0)"/>
     <use xlink:href="#DejaVuSans-70" transform="translate(578.417969 0)"/>
    </g>
   </g>
  </g>
 </g>
 <defs>
  <clipPath id="p03034ba072">
   <rect x="10.8" y="26.68875" width="410.4" height="322.51125"/>
  </clipPath>
 </defs>
</svg>
