<?xml version="1.0" encoding="utf-8" standalone="no"?>
<!DOCTYPE svg PUBLIC "-//W3C//DTD SVG 1.1//EN"
  "http://www.w3.org/Graphics/SVG/1.1/DTD/svg11.dtd">
<svg xmlns:xlink="http://www.w3.org/1999/xlink" width="432pt" height="360pt" viewBox="0 0 432 360" xmlns="http://www.w3.org/2000/svg" version="1.1">
 <metadata>
  <rdf:RDF xmlns:dc="http://purl.org/dc/elements/1.1/" xmlns:cc="http://creativecommons.org/ns#" xmlns:rdf="http://www.w3.org/1999/02/22-rdf-syntax-ns#">
   <cc:Work>
    <dc:type rdf:resource="http://purl.org/dc/dcmitype/StillImage"/>
    <dc:date>2025-06-16T01:16:29.907997</dc:date>
    <dc:format>image/svg+xml</dc:format>
    <dc:creator>
     <cc:Agent>
      <dc:title>Matplotlib v3.10.1, https://matplotlib.org/</dc:title>
     </cc:Agent>
    </dc:creator>
   </cc:Work>
  </rdf:RDF>
 </metadata>
 <defs>
  <style type="text/css">*{stroke-linejoin: round; stroke-linecap: butt}</style>
 </defs>
 <g id="figure_1">
  <g id="patch_1">
   <path d="M 0 360 
L 432 360 
L 432 0 
L 0 0 
z
" style="fill: #ffffff"/>
  </g>
  <g id="axes_1">
   <g id="patch_2">
    <path d="M 10.8 349.2 
L 421.2 349.2 
L 421.2 26.68875 
L 10.8 26.68875 
z
" style="fill: #ffffff"/>
   </g>
   <g id="PathCollection_1">
    <defs>
     <path id="C0_0_2affc92fd0" d="M 0 2.236068 
C 0.593012 2.236068 1.161816 2.000462 1.581139 1.581139 
C 2.000462 1.161816 2.236068 0.593012 2.236068 -0 
C 2.236068 -0.593012 2.000462 -1.161816 1.581139 -1.581139 
C 1.161816 -2.000462 0.593012 -2.236068 0 -2.236068 
C -0.593012 -2.236068 -1.161816 -2.000462 -1.581139 -1.581139 
C -2.000462 -1.161816 -2.236068 -0.593012 -2.236068 0 
C -2.236068 0.593012 -2.000462 1.161816 -1.581139 1.581139 
C -1.161816 2.000462 -0.593012 2.236068 0 2.236068 
z
"/>
    </defs>
    <g clip-path="url(#p777d59aca8)">
     <use xlink:href="#C0_0_2affc92fd0" x="283.552149" y="112.70037" style="fill: #1f77b4; fill-opacity: 0.7; stroke: #1f77b4; stroke-opacity: 0.7"/>
    </g>
    <g clip-path="url(#p777d59aca8)">
     <use xlink:href="#C0_0_2affc92fd0" x="330.912078" y="141.750268" style="fill: #1f77b4; fill-opacity: 0.7; stroke: #1f77b4; stroke-opacity: 0.7"/>
    </g>
    <g clip-path="url(#p777d59aca8)">
     <use xlink:href="#C0_0_2affc92fd0" x="337.08929" y="104.539283" style="fill: #1f77b4; fill-opacity: 0.7; stroke: #1f77b4; stroke-opacity: 0.7"/>
    </g>
    <g clip-path="url(#p777d59aca8)">
     <use xlink:href="#C0_0_2affc92fd0" x="282.05814" y="119.612781" style="fill: #1f77b4; fill-opacity: 0.7; stroke: #1f77b4; stroke-opacity: 0.7"/>
    </g>
    <g clip-path="url(#p777d59aca8)">
     <use xlink:href="#C0_0_2affc92fd0" x="326.572201" y="153.007735" style="fill: #1f77b4; fill-opacity: 0.7; stroke: #1f77b4; stroke-opacity: 0.7"/>
    </g>
    <g clip-path="url(#p777d59aca8)">
     <use xlink:href="#C0_0_2affc92fd0" x="321.704573" y="100.190052" style="fill: #1f77b4; fill-opacity: 0.7; stroke: #1f77b4; stroke-opacity: 0.7"/>
    </g>
    <g clip-path="url(#p777d59aca8)">
     <use xlink:href="#C0_0_2affc92fd0" x="295.780986" y="133.545625" style="fill: #1f77b4; fill-opacity: 0.7; stroke: #1f77b4; stroke-opacity: 0.7"/>
    </g>
    <g clip-path="url(#p777d59aca8)">
     <use xlink:href="#C0_0_2affc92fd0" x="331.121508" y="136.867444" style="fill: #1f77b4; fill-opacity: 0.7; stroke: #1f77b4; stroke-opacity: 0.7"/>
    </g>
    <g clip-path="url(#p777d59aca8)">
     <use xlink:href="#C0_0_2affc92fd0" x="309.410879" y="122.778219" style="fill: #1f77b4; fill-opacity: 0.7; stroke: #1f77b4; stroke-opacity: 0.7"/>
    </g>
    <g clip-path="url(#p777d59aca8)">
     <use xlink:href="#C0_0_2affc92fd0" x="298.1677" y="114.034422" style="fill: #1f77b4; fill-opacity: 0.7; stroke: #1f77b4; stroke-opacity: 0.7"/>
    </g>
    <g clip-path="url(#p777d59aca8)">
     <use xlink:href="#C0_0_2affc92fd0" x="382.847908" y="170.12063" style="fill: #aec7e8; fill-opacity: 0.7; stroke: #aec7e8; stroke-opacity: 0.7"/>
    </g>
    <g clip-path="url(#p777d59aca8)">
     <use xlink:href="#C0_0_2affc92fd0" x="263.097277" y="127.076827" style="fill: #aec7e8; fill-opacity: 0.7; stroke: #aec7e8; stroke-opacity: 0.7"/>
    </g>
    <g clip-path="url(#p777d59aca8)">
     <use xlink:href="#C0_0_2affc92fd0" x="257.946761" y="160.862768" style="fill: #aec7e8; fill-opacity: 0.7; stroke: #aec7e8; stroke-opacity: 0.7"/>
    </g>
    <g clip-path="url(#p777d59aca8)">
     <use xlink:href="#C0_0_2affc92fd0" x="303.468661" y="147.503817" style="fill: #aec7e8; fill-opacity: 0.7; stroke: #aec7e8; stroke-opacity: 0.7"/>
    </g>
    <g clip-path="url(#p777d59aca8)">
     <use xlink:href="#C0_0_2affc92fd0" x="339.460761" y="116.424216" style="fill: #aec7e8; fill-opacity: 0.7; stroke: #aec7e8; stroke-opacity: 0.7"/>
    </g>
    <g clip-path="url(#p777d59aca8)">
     <use xlink:href="#C0_0_2affc92fd0" x="319.730371" y="129.266336" style="fill: #aec7e8; fill-opacity: 0.7; stroke: #aec7e8; stroke-opacity: 0.7"/>
    </g>
    <g clip-path="url(#p777d59aca8)">
     <use xlink:href="#C0_0_2affc92fd0" x="307.174609" y="152.470652" style="fill: #aec7e8; fill-opacity: 0.7; stroke: #aec7e8; stroke-opacity: 0.7"/>
    </g>
    <g clip-path="url(#p777d59aca8)">
     <use xlink:href="#C0_0_2affc92fd0" x="291.150755" y="143.939434" style="fill: #aec7e8; fill-opacity: 0.7; stroke: #aec7e8; stroke-opacity: 0.7"/>
    </g>
    <g clip-path="url(#p777d59aca8)">
     <use xlink:href="#C0_0_2affc92fd0" x="283.513009" y="143.308859" style="fill: #aec7e8; fill-opacity: 0.7; stroke: #aec7e8; stroke-opacity: 0.7"/>
    </g>
    <g clip-path="url(#p777d59aca8)">
     <use xlink:href="#C0_0_2affc92fd0" x="256.733491" y="168.093143" style="fill: #aec7e8; fill-opacity: 0.7; stroke: #aec7e8; stroke-opacity: 0.7"/>
    </g>
    <g clip-path="url(#p777d59aca8)">
     <use xlink:href="#C0_0_2affc92fd0" x="307.352235" y="184.797393" style="fill: #ffbb78; fill-opacity: 0.7; stroke: #ffbb78; stroke-opacity: 0.7"/>
    </g>
    <g clip-path="url(#p777d59aca8)">
     <use xlink:href="#C0_0_2affc92fd0" x="312.742396" y="193.67095" style="fill: #ffbb78; fill-opacity: 0.7; stroke: #ffbb78; stroke-opacity: 0.7"/>
    </g>
    <g clip-path="url(#p777d59aca8)">
     <use xlink:href="#C0_0_2affc92fd0" x="329.636881" y="196.281249" style="fill: #ffbb78; fill-opacity: 0.7; stroke: #ffbb78; stroke-opacity: 0.7"/>
    </g>
    <g clip-path="url(#p777d59aca8)">
     <use xlink:href="#C0_0_2affc92fd0" x="393.010047" y="215.639286" style="fill: #ffbb78; fill-opacity: 0.7; stroke: #ffbb78; stroke-opacity: 0.7"/>
    </g>
    <g clip-path="url(#p777d59aca8)">
     <use xlink:href="#C0_0_2affc92fd0" x="316.343502" y="216.22867" style="fill: #ffbb78; fill-opacity: 0.7; stroke: #ffbb78; stroke-opacity: 0.7"/>
    </g>
    <g clip-path="url(#p777d59aca8)">
     <use xlink:href="#C0_0_2affc92fd0" x="324.301522" y="181.245239" style="fill: #ffbb78; fill-opacity: 0.7; stroke: #ffbb78; stroke-opacity: 0.7"/>
    </g>
    <g clip-path="url(#p777d59aca8)">
     <use xlink:href="#C0_0_2affc92fd0" x="354.813509" y="216.535512" style="fill: #ffbb78; fill-opacity: 0.7; stroke: #ffbb78; stroke-opacity: 0.7"/>
    </g>
    <g clip-path="url(#p777d59aca8)">
     <use xlink:href="#C0_0_2affc92fd0" x="395.507973" y="223.200387" style="fill: #ffbb78; fill-opacity: 0.7; stroke: #ffbb78; stroke-opacity: 0.7"/>
    </g>
    <g clip-path="url(#p777d59aca8)">
     <use xlink:href="#C0_0_2affc92fd0" x="313.631349" y="205.081357" style="fill: #ffbb78; fill-opacity: 0.7; stroke: #ffbb78; stroke-opacity: 0.7"/>
    </g>
    <g clip-path="url(#p777d59aca8)">
     <use xlink:href="#C0_0_2affc92fd0" x="383.969515" y="217.191626" style="fill: #ffbb78; fill-opacity: 0.7; stroke: #ffbb78; stroke-opacity: 0.7"/>
    </g>
    <g clip-path="url(#p777d59aca8)">
     <use xlink:href="#C0_0_2affc92fd0" x="313.122327" y="330.232392" style="fill: #98df8a; fill-opacity: 0.7; stroke: #98df8a; stroke-opacity: 0.7"/>
    </g>
    <g clip-path="url(#p777d59aca8)">
     <use xlink:href="#C0_0_2affc92fd0" x="329.335618" y="318.193515" style="fill: #98df8a; fill-opacity: 0.7; stroke: #98df8a; stroke-opacity: 0.7"/>
    </g>
    <g clip-path="url(#p777d59aca8)">
     <use xlink:href="#C0_0_2affc92fd0" x="318.816085" y="302.281187" style="fill: #98df8a; fill-opacity: 0.7; stroke: #98df8a; stroke-opacity: 0.7"/>
    </g>
    <g clip-path="url(#p777d59aca8)">
     <use xlink:href="#C0_0_2affc92fd0" x="353.386063" y="285.980942" style="fill: #98df8a; fill-opacity: 0.7; stroke: #98df8a; stroke-opacity: 0.7"/>
    </g>
    <g clip-path="url(#p777d59aca8)">
     <use xlink:href="#C0_0_2affc92fd0" x="325.798423" y="316.634257" style="fill: #98df8a; fill-opacity: 0.7; stroke: #98df8a; stroke-opacity: 0.7"/>
    </g>
    <g clip-path="url(#p777d59aca8)">
     <use xlink:href="#C0_0_2affc92fd0" x="343.438837" y="83.400849" style="fill: #98df8a; fill-opacity: 0.7; stroke: #98df8a; stroke-opacity: 0.7"/>
    </g>
    <g clip-path="url(#p777d59aca8)">
     <use xlink:href="#C0_0_2affc92fd0" x="400.760867" y="101.23404" style="fill: #98df8a; fill-opacity: 0.7; stroke: #98df8a; stroke-opacity: 0.7"/>
    </g>
    <g clip-path="url(#p777d59aca8)">
     <use xlink:href="#C0_0_2affc92fd0" x="363.120506" y="277.567669" style="fill: #98df8a; fill-opacity: 0.7; stroke: #98df8a; stroke-opacity: 0.7"/>
    </g>
    <g clip-path="url(#p777d59aca8)">
     <use xlink:href="#C0_0_2affc92fd0" x="363.107936" y="270.542339" style="fill: #98df8a; fill-opacity: 0.7; stroke: #98df8a; stroke-opacity: 0.7"/>
    </g>
    <g clip-path="url(#p777d59aca8)">
     <use xlink:href="#C0_0_2affc92fd0" x="354.012816" y="268.335527" style="fill: #98df8a; fill-opacity: 0.7; stroke: #98df8a; stroke-opacity: 0.7"/>
    </g>
    <g clip-path="url(#p777d59aca8)">
     <use xlink:href="#C0_0_2affc92fd0" x="244.590527" y="249.515609" style="fill: #d62728; fill-opacity: 0.7; stroke: #d62728; stroke-opacity: 0.7"/>
    </g>
    <g clip-path="url(#p777d59aca8)">
     <use xlink:href="#C0_0_2affc92fd0" x="283.756316" y="221.291514" style="fill: #d62728; fill-opacity: 0.7; stroke: #d62728; stroke-opacity: 0.7"/>
    </g>
    <g clip-path="url(#p777d59aca8)">
     <use xlink:href="#C0_0_2affc92fd0" x="262.299478" y="219.965831" style="fill: #d62728; fill-opacity: 0.7; stroke: #d62728; stroke-opacity: 0.7"/>
    </g>
    <g clip-path="url(#p777d59aca8)">
     <use xlink:href="#C0_0_2affc92fd0" x="248.595011" y="236.276537" style="fill: #d62728; fill-opacity: 0.7; stroke: #d62728; stroke-opacity: 0.7"/>
    </g>
    <g clip-path="url(#p777d59aca8)">
     <use xlink:href="#C0_0_2affc92fd0" x="259.958264" y="199.129537" style="fill: #d62728; fill-opacity: 0.7; stroke: #d62728; stroke-opacity: 0.7"/>
    </g>
    <g clip-path="url(#p777d59aca8)">
     <use xlink:href="#C0_0_2affc92fd0" x="288.97521" y="187.375667" style="fill: #d62728; fill-opacity: 0.7; stroke: #d62728; stroke-opacity: 0.7"/>
    </g>
    <g clip-path="url(#p777d59aca8)">
     <use xlink:href="#C0_0_2affc92fd0" x="230.487725" y="238.464547" style="fill: #d62728; fill-opacity: 0.7; stroke: #d62728; stroke-opacity: 0.7"/>
    </g>
    <g clip-path="url(#p777d59aca8)">
     <use xlink:href="#C0_0_2affc92fd0" x="247.346415" y="220.761026" style="fill: #d62728; fill-opacity: 0.7; stroke: #d62728; stroke-opacity: 0.7"/>
    </g>
    <g clip-path="url(#p777d59aca8)">
     <use xlink:href="#C0_0_2affc92fd0" x="255.72019" y="253.169866" style="fill: #d62728; fill-opacity: 0.7; stroke: #d62728; stroke-opacity: 0.7"/>
    </g>
    <g clip-path="url(#p777d59aca8)">
     <use xlink:href="#C0_0_2affc92fd0" x="242.674597" y="244.550994" style="fill: #d62728; fill-opacity: 0.7; stroke: #d62728; stroke-opacity: 0.7"/>
    </g>
    <g clip-path="url(#p777d59aca8)">
     <use xlink:href="#C0_0_2affc92fd0" x="126.105423" y="234.166254" style="fill: #9467bd; fill-opacity: 0.7; stroke: #9467bd; stroke-opacity: 0.7"/>
    </g>
    <g clip-path="url(#p777d59aca8)">
     <use xlink:href="#C0_0_2affc92fd0" x="102.396017" y="198.407155" style="fill: #9467bd; fill-opacity: 0.7; stroke: #9467bd; stroke-opacity: 0.7"/>
    </g>
    <g clip-path="url(#p777d59aca8)">
     <use xlink:href="#C0_0_2affc92fd0" x="137.285278" y="215.146083" style="fill: #9467bd; fill-opacity: 0.7; stroke: #9467bd; stroke-opacity: 0.7"/>
    </g>
    <g clip-path="url(#p777d59aca8)">
     <use xlink:href="#C0_0_2affc92fd0" x="158.789888" y="185.544144" style="fill: #9467bd; fill-opacity: 0.7; stroke: #9467bd; stroke-opacity: 0.7"/>
    </g>
    <g clip-path="url(#p777d59aca8)">
     <use xlink:href="#C0_0_2affc92fd0" x="180.064048" y="193.459254" style="fill: #9467bd; fill-opacity: 0.7; stroke: #9467bd; stroke-opacity: 0.7"/>
    </g>
    <g clip-path="url(#p777d59aca8)">
     <use xlink:href="#C0_0_2affc92fd0" x="127.856541" y="216.461704" style="fill: #9467bd; fill-opacity: 0.7; stroke: #9467bd; stroke-opacity: 0.7"/>
    </g>
    <g clip-path="url(#p777d59aca8)">
     <use xlink:href="#C0_0_2affc92fd0" x="138.005912" y="180.456224" style="fill: #9467bd; fill-opacity: 0.7; stroke: #9467bd; stroke-opacity: 0.7"/>
    </g>
    <g clip-path="url(#p777d59aca8)">
     <use xlink:href="#C0_0_2affc92fd0" x="107.584423" y="199.687665" style="fill: #9467bd; fill-opacity: 0.7; stroke: #9467bd; stroke-opacity: 0.7"/>
    </g>
    <g clip-path="url(#p777d59aca8)">
     <use xlink:href="#C0_0_2affc92fd0" x="135.167502" y="258.529988" style="fill: #9467bd; fill-opacity: 0.7; stroke: #9467bd; stroke-opacity: 0.7"/>
    </g>
    <g clip-path="url(#p777d59aca8)">
     <use xlink:href="#C0_0_2affc92fd0" x="130.299516" y="188.025066" style="fill: #9467bd; fill-opacity: 0.7; stroke: #9467bd; stroke-opacity: 0.7"/>
    </g>
    <g clip-path="url(#p777d59aca8)">
     <use xlink:href="#C0_0_2affc92fd0" x="372.456527" y="135.886511" style="fill: #8c564b; fill-opacity: 0.7; stroke: #8c564b; stroke-opacity: 0.7"/>
    </g>
    <g clip-path="url(#p777d59aca8)">
     <use xlink:href="#C0_0_2affc92fd0" x="369.185125" y="124.87786" style="fill: #8c564b; fill-opacity: 0.7; stroke: #8c564b; stroke-opacity: 0.7"/>
    </g>
    <g clip-path="url(#p777d59aca8)">
     <use xlink:href="#C0_0_2affc92fd0" x="273.142094" y="182.149766" style="fill: #8c564b; fill-opacity: 0.7; stroke: #8c564b; stroke-opacity: 0.7"/>
    </g>
    <g clip-path="url(#p777d59aca8)">
     <use xlink:href="#C0_0_2affc92fd0" x="372.379171" y="91.930232" style="fill: #8c564b; fill-opacity: 0.7; stroke: #8c564b; stroke-opacity: 0.7"/>
    </g>
    <g clip-path="url(#p777d59aca8)">
     <use xlink:href="#C0_0_2affc92fd0" x="369.62894" y="128.38923" style="fill: #8c564b; fill-opacity: 0.7; stroke: #8c564b; stroke-opacity: 0.7"/>
    </g>
    <g clip-path="url(#p777d59aca8)">
     <use xlink:href="#C0_0_2affc92fd0" x="369.101638" y="105.036109" style="fill: #8c564b; fill-opacity: 0.7; stroke: #8c564b; stroke-opacity: 0.7"/>
    </g>
    <g clip-path="url(#p777d59aca8)">
     <use xlink:href="#C0_0_2affc92fd0" x="386.892829" y="139.307577" style="fill: #8c564b; fill-opacity: 0.7; stroke: #8c564b; stroke-opacity: 0.7"/>
    </g>
    <g clip-path="url(#p777d59aca8)">
     <use xlink:href="#C0_0_2affc92fd0" x="385.71103" y="113.564723" style="fill: #8c564b; fill-opacity: 0.7; stroke: #8c564b; stroke-opacity: 0.7"/>
    </g>
    <g clip-path="url(#p777d59aca8)">
     <use xlink:href="#C0_0_2affc92fd0" x="402.545455" y="138.923084" style="fill: #8c564b; fill-opacity: 0.7; stroke: #8c564b; stroke-opacity: 0.7"/>
    </g>
    <g clip-path="url(#p777d59aca8)">
     <use xlink:href="#C0_0_2affc92fd0" x="384.758439" y="118.147353" style="fill: #8c564b; fill-opacity: 0.7; stroke: #8c564b; stroke-opacity: 0.7"/>
    </g>
    <g clip-path="url(#p777d59aca8)">
     <use xlink:href="#C0_0_2affc92fd0" x="214.77395" y="266.363934" style="fill: #c49c94; fill-opacity: 0.7; stroke: #c49c94; stroke-opacity: 0.7"/>
    </g>
    <g clip-path="url(#p777d59aca8)">
     <use xlink:href="#C0_0_2affc92fd0" x="205.857161" y="256.038821" style="fill: #c49c94; fill-opacity: 0.7; stroke: #c49c94; stroke-opacity: 0.7"/>
    </g>
    <g clip-path="url(#p777d59aca8)">
     <use xlink:href="#C0_0_2affc92fd0" x="153.954389" y="285.061322" style="fill: #c49c94; fill-opacity: 0.7; stroke: #c49c94; stroke-opacity: 0.7"/>
    </g>
    <g clip-path="url(#p777d59aca8)">
     <use xlink:href="#C0_0_2affc92fd0" x="172.837469" y="272.397654" style="fill: #c49c94; fill-opacity: 0.7; stroke: #c49c94; stroke-opacity: 0.7"/>
    </g>
    <g clip-path="url(#p777d59aca8)">
     <use xlink:href="#C0_0_2affc92fd0" x="230.533465" y="263.220777" style="fill: #c49c94; fill-opacity: 0.7; stroke: #c49c94; stroke-opacity: 0.7"/>
    </g>
    <g clip-path="url(#p777d59aca8)">
     <use xlink:href="#C0_0_2affc92fd0" x="157.225768" y="270.072798" style="fill: #c49c94; fill-opacity: 0.7; stroke: #c49c94; stroke-opacity: 0.7"/>
    </g>
    <g clip-path="url(#p777d59aca8)">
     <use xlink:href="#C0_0_2affc92fd0" x="165.433737" y="249.369678" style="fill: #c49c94; fill-opacity: 0.7; stroke: #c49c94; stroke-opacity: 0.7"/>
    </g>
    <g clip-path="url(#p777d59aca8)">
     <use xlink:href="#C0_0_2affc92fd0" x="174.44036" y="282.512831" style="fill: #c49c94; fill-opacity: 0.7; stroke: #c49c94; stroke-opacity: 0.7"/>
    </g>
    <g clip-path="url(#p777d59aca8)">
     <use xlink:href="#C0_0_2affc92fd0" x="178.243365" y="284.734204" style="fill: #c49c94; fill-opacity: 0.7; stroke: #c49c94; stroke-opacity: 0.7"/>
    </g>
    <g clip-path="url(#p777d59aca8)">
     <use xlink:href="#C0_0_2affc92fd0" x="163.344437" y="246.799036" style="fill: #c49c94; fill-opacity: 0.7; stroke: #c49c94; stroke-opacity: 0.7"/>
    </g>
    <g clip-path="url(#p777d59aca8)">
     <use xlink:href="#C0_0_2affc92fd0" x="295.430566" y="326.503392" style="fill: #f7b6d2; fill-opacity: 0.7; stroke: #f7b6d2; stroke-opacity: 0.7"/>
    </g>
    <g clip-path="url(#p777d59aca8)">
     <use xlink:href="#C0_0_2affc92fd0" x="301.388607" y="334.540398" style="fill: #f7b6d2; fill-opacity: 0.7; stroke: #f7b6d2; stroke-opacity: 0.7"/>
    </g>
    <g clip-path="url(#p777d59aca8)">
     <use xlink:href="#C0_0_2affc92fd0" x="175.02642" y="185.627259" style="fill: #f7b6d2; fill-opacity: 0.7; stroke: #f7b6d2; stroke-opacity: 0.7"/>
    </g>
    <g clip-path="url(#p777d59aca8)">
     <use xlink:href="#C0_0_2affc92fd0" x="292.406253" y="303.032776" style="fill: #f7b6d2; fill-opacity: 0.7; stroke: #f7b6d2; stroke-opacity: 0.7"/>
    </g>
    <g clip-path="url(#p777d59aca8)">
     <use xlink:href="#C0_0_2affc92fd0" x="200.673843" y="170.544961" style="fill: #f7b6d2; fill-opacity: 0.7; stroke: #f7b6d2; stroke-opacity: 0.7"/>
    </g>
    <g clip-path="url(#p777d59aca8)">
     <use xlink:href="#C0_0_2affc92fd0" x="284.766164" y="292.274169" style="fill: #f7b6d2; fill-opacity: 0.7; stroke: #f7b6d2; stroke-opacity: 0.7"/>
    </g>
    <g clip-path="url(#p777d59aca8)">
     <use xlink:href="#C0_0_2affc92fd0" x="195.699318" y="161.100463" style="fill: #f7b6d2; fill-opacity: 0.7; stroke: #f7b6d2; stroke-opacity: 0.7"/>
    </g>
    <g clip-path="url(#p777d59aca8)">
     <use xlink:href="#C0_0_2affc92fd0" x="276.691672" y="324.411856" style="fill: #f7b6d2; fill-opacity: 0.7; stroke: #f7b6d2; stroke-opacity: 0.7"/>
    </g>
    <g clip-path="url(#p777d59aca8)">
     <use xlink:href="#C0_0_2affc92fd0" x="283.088388" y="318.44318" style="fill: #f7b6d2; fill-opacity: 0.7; stroke: #f7b6d2; stroke-opacity: 0.7"/>
    </g>
    <g clip-path="url(#p777d59aca8)">
     <use xlink:href="#C0_0_2affc92fd0" x="281.584405" y="318.545046" style="fill: #f7b6d2; fill-opacity: 0.7; stroke: #f7b6d2; stroke-opacity: 0.7"/>
    </g>
    <g clip-path="url(#p777d59aca8)">
     <use xlink:href="#C0_0_2affc92fd0" x="357.577146" y="170.224789" style="fill: #c7c7c7; fill-opacity: 0.7; stroke: #c7c7c7; stroke-opacity: 0.7"/>
    </g>
    <g clip-path="url(#p777d59aca8)">
     <use xlink:href="#C0_0_2affc92fd0" x="204.736977" y="199.044625" style="fill: #c7c7c7; fill-opacity: 0.7; stroke: #c7c7c7; stroke-opacity: 0.7"/>
    </g>
    <g clip-path="url(#p777d59aca8)">
     <use xlink:href="#C0_0_2affc92fd0" x="196.938722" y="213.265491" style="fill: #c7c7c7; fill-opacity: 0.7; stroke: #c7c7c7; stroke-opacity: 0.7"/>
    </g>
    <g clip-path="url(#p777d59aca8)">
     <use xlink:href="#C0_0_2affc92fd0" x="180.416526" y="216.91615" style="fill: #c7c7c7; fill-opacity: 0.7; stroke: #c7c7c7; stroke-opacity: 0.7"/>
    </g>
    <g clip-path="url(#p777d59aca8)">
     <use xlink:href="#C0_0_2affc92fd0" x="346.384028" y="187.189201" style="fill: #c7c7c7; fill-opacity: 0.7; stroke: #c7c7c7; stroke-opacity: 0.7"/>
    </g>
    <g clip-path="url(#p777d59aca8)">
     <use xlink:href="#C0_0_2affc92fd0" x="225.293206" y="182.285375" style="fill: #c7c7c7; fill-opacity: 0.7; stroke: #c7c7c7; stroke-opacity: 0.7"/>
    </g>
    <g clip-path="url(#p777d59aca8)">
     <use xlink:href="#C0_0_2affc92fd0" x="195.442678" y="200.935306" style="fill: #c7c7c7; fill-opacity: 0.7; stroke: #c7c7c7; stroke-opacity: 0.7"/>
    </g>
    <g clip-path="url(#p777d59aca8)">
     <use xlink:href="#C0_0_2affc92fd0" x="342.126484" y="164.891801" style="fill: #c7c7c7; fill-opacity: 0.7; stroke: #c7c7c7; stroke-opacity: 0.7"/>
    </g>
    <g clip-path="url(#p777d59aca8)">
     <use xlink:href="#C0_0_2affc92fd0" x="358.011302" y="171.692484" style="fill: #c7c7c7; fill-opacity: 0.7; stroke: #c7c7c7; stroke-opacity: 0.7"/>
    </g>
    <g clip-path="url(#p777d59aca8)">
     <use xlink:href="#C0_0_2affc92fd0" x="186.489797" y="209.160916" style="fill: #c7c7c7; fill-opacity: 0.7; stroke: #c7c7c7; stroke-opacity: 0.7"/>
    </g>
    <g clip-path="url(#p777d59aca8)">
     <use xlink:href="#C0_0_2affc92fd0" x="57.163701" y="219.715879" style="fill: #bcbd22; fill-opacity: 0.7; stroke: #bcbd22; stroke-opacity: 0.7"/>
    </g>
    <g clip-path="url(#p777d59aca8)">
     <use xlink:href="#C0_0_2affc92fd0" x="44.815649" y="226.657082" style="fill: #bcbd22; fill-opacity: 0.7; stroke: #bcbd22; stroke-opacity: 0.7"/>
    </g>
    <g clip-path="url(#p777d59aca8)">
     <use xlink:href="#C0_0_2affc92fd0" x="29.454545" y="221.542175" style="fill: #bcbd22; fill-opacity: 0.7; stroke: #bcbd22; stroke-opacity: 0.7"/>
    </g>
    <g clip-path="url(#p777d59aca8)">
     <use xlink:href="#C0_0_2affc92fd0" x="42.427086" y="249.317638" style="fill: #bcbd22; fill-opacity: 0.7; stroke: #bcbd22; stroke-opacity: 0.7"/>
    </g>
    <g clip-path="url(#p777d59aca8)">
     <use xlink:href="#C0_0_2affc92fd0" x="61.316271" y="231.235708" style="fill: #bcbd22; fill-opacity: 0.7; stroke: #bcbd22; stroke-opacity: 0.7"/>
    </g>
    <g clip-path="url(#p777d59aca8)">
     <use xlink:href="#C0_0_2affc92fd0" x="52.442987" y="250.14086" style="fill: #bcbd22; fill-opacity: 0.7; stroke: #bcbd22; stroke-opacity: 0.7"/>
    </g>
    <g clip-path="url(#p777d59aca8)">
     <use xlink:href="#C0_0_2affc92fd0" x="35.4109" y="240.97744" style="fill: #bcbd22; fill-opacity: 0.7; stroke: #bcbd22; stroke-opacity: 0.7"/>
    </g>
    <g clip-path="url(#p777d59aca8)">
     <use xlink:href="#C0_0_2affc92fd0" x="56.306728" y="236.906077" style="fill: #bcbd22; fill-opacity: 0.7; stroke: #bcbd22; stroke-opacity: 0.7"/>
    </g>
    <g clip-path="url(#p777d59aca8)">
     <use xlink:href="#C0_0_2affc92fd0" x="29.87789" y="245.35308" style="fill: #bcbd22; fill-opacity: 0.7; stroke: #bcbd22; stroke-opacity: 0.7"/>
    </g>
    <g clip-path="url(#p777d59aca8)">
     <use xlink:href="#C0_0_2affc92fd0" x="46.308584" y="243.877721" style="fill: #bcbd22; fill-opacity: 0.7; stroke: #bcbd22; stroke-opacity: 0.7"/>
    </g>
    <g clip-path="url(#p777d59aca8)">
     <use xlink:href="#C0_0_2affc92fd0" x="32.951508" y="62.703067" style="fill: #17becf; fill-opacity: 0.7; stroke: #17becf; stroke-opacity: 0.7"/>
    </g>
    <g clip-path="url(#p777d59aca8)">
     <use xlink:href="#C0_0_2affc92fd0" x="53.536904" y="63.255373" style="fill: #17becf; fill-opacity: 0.7; stroke: #17becf; stroke-opacity: 0.7"/>
    </g>
    <g clip-path="url(#p777d59aca8)">
     <use xlink:href="#C0_0_2affc92fd0" x="48.742439" y="56.999913" style="fill: #17becf; fill-opacity: 0.7; stroke: #17becf; stroke-opacity: 0.7"/>
    </g>
    <g clip-path="url(#p777d59aca8)">
     <use xlink:href="#C0_0_2affc92fd0" x="53.053588" y="66.753688" style="fill: #17becf; fill-opacity: 0.7; stroke: #17becf; stroke-opacity: 0.7"/>
    </g>
    <g clip-path="url(#p777d59aca8)">
     <use xlink:href="#C0_0_2affc92fd0" x="34.858073" y="56.157617" style="fill: #17becf; fill-opacity: 0.7; stroke: #17becf; stroke-opacity: 0.7"/>
    </g>
    <g clip-path="url(#p777d59aca8)">
     <use xlink:href="#C0_0_2affc92fd0" x="35.242784" y="87.470572" style="fill: #17becf; fill-opacity: 0.7; stroke: #17becf; stroke-opacity: 0.7"/>
    </g>
    <g clip-path="url(#p777d59aca8)">
     <use xlink:href="#C0_0_2affc92fd0" x="57.893257" y="80.047672" style="fill: #17becf; fill-opacity: 0.7; stroke: #17becf; stroke-opacity: 0.7"/>
    </g>
    <g clip-path="url(#p777d59aca8)">
     <use xlink:href="#C0_0_2affc92fd0" x="62.953851" y="82.232399" style="fill: #17becf; fill-opacity: 0.7; stroke: #17becf; stroke-opacity: 0.7"/>
    </g>
    <g clip-path="url(#p777d59aca8)">
     <use xlink:href="#C0_0_2affc92fd0" x="41.115827" y="67.275205" style="fill: #17becf; fill-opacity: 0.7; stroke: #17becf; stroke-opacity: 0.7"/>
    </g>
    <g clip-path="url(#p777d59aca8)">
     <use xlink:href="#C0_0_2affc92fd0" x="45.807928" y="77.68141" style="fill: #17becf; fill-opacity: 0.7; stroke: #17becf; stroke-opacity: 0.7"/>
    </g>
    <g clip-path="url(#p777d59aca8)">
     <use xlink:href="#C0_0_2affc92fd0" x="118.482865" y="73.559461" style="fill: #9edae5; fill-opacity: 0.7; stroke: #9edae5; stroke-opacity: 0.7"/>
    </g>
    <g clip-path="url(#p777d59aca8)">
     <use xlink:href="#C0_0_2affc92fd0" x="125.204069" y="69.499433" style="fill: #9edae5; fill-opacity: 0.7; stroke: #9edae5; stroke-opacity: 0.7"/>
    </g>
    <g clip-path="url(#p777d59aca8)">
     <use xlink:href="#C0_0_2affc92fd0" x="76.11911" y="50.297748" style="fill: #9edae5; fill-opacity: 0.7; stroke: #9edae5; stroke-opacity: 0.7"/>
    </g>
    <g clip-path="url(#p777d59aca8)">
     <use xlink:href="#C0_0_2affc92fd0" x="155.831572" y="51.119265" style="fill: #9edae5; fill-opacity: 0.7; stroke: #9edae5; stroke-opacity: 0.7"/>
    </g>
    <g clip-path="url(#p777d59aca8)">
     <use xlink:href="#C0_0_2affc92fd0" x="114.099899" y="69.372803" style="fill: #9edae5; fill-opacity: 0.7; stroke: #9edae5; stroke-opacity: 0.7"/>
    </g>
    <g clip-path="url(#p777d59aca8)">
     <use xlink:href="#C0_0_2affc92fd0" x="147.608445" y="47.171269" style="fill: #9edae5; fill-opacity: 0.7; stroke: #9edae5; stroke-opacity: 0.7"/>
    </g>
    <g clip-path="url(#p777d59aca8)">
     <use xlink:href="#C0_0_2affc92fd0" x="140.114766" y="61.843987" style="fill: #9edae5; fill-opacity: 0.7; stroke: #9edae5; stroke-opacity: 0.7"/>
    </g>
    <g clip-path="url(#p777d59aca8)">
     <use xlink:href="#C0_0_2affc92fd0" x="148.266635" y="55.71158" style="fill: #9edae5; fill-opacity: 0.7; stroke: #9edae5; stroke-opacity: 0.7"/>
    </g>
    <g clip-path="url(#p777d59aca8)">
     <use xlink:href="#C0_0_2affc92fd0" x="172.62572" y="41.348352" style="fill: #9edae5; fill-opacity: 0.7; stroke: #9edae5; stroke-opacity: 0.7"/>
    </g>
    <g clip-path="url(#p777d59aca8)">
     <use xlink:href="#C0_0_2affc92fd0" x="155.383076" y="47.231188" style="fill: #9edae5; fill-opacity: 0.7; stroke: #9edae5; stroke-opacity: 0.7"/>
    </g>
   </g>
   <g id="matplotlib.axis_1"/>
   <g id="matplotlib.axis_2"/>
   <g id="patch_3">
    <path d="M 10.8 349.2 
L 10.8 26.68875 
" style="fill: none; stroke: #000000; stroke-width: 0.8; stroke-linejoin: miter; stroke-linecap: square"/>
   </g>
   <g id="patch_4">
    <path d="M 421.2 349.2 
L 421.2 26.68875 
" style="fill: none; stroke: #000000; stroke-width: 0.8; stroke-linejoin: miter; stroke-linecap: square"/>
   </g>
   <g id="patch_5">
    <path d="M 10.8 349.2 
L 421.2 349.2 
" style="fill: none; stroke: #000000; stroke-width: 0.8; stroke-linejoin: miter; stroke-linecap: square"/>
   </g>
   <g id="patch_6">
    <path d="M 10.8 26.68875 
L 421.2 26.68875 
" style="fill: none; stroke: #000000; stroke-width: 0.8; stroke-linejoin: miter; stroke-linecap: square"/>
   </g>
   <g id="text_1">
    <!-- t-SNE: v0_up -->
    <g transform="translate(177.485625 20.68875) scale(0.12 -0.12)">
     <defs>
      <path id="DejaVuSans-74" d="M 1172 4494 
L 1172 3500 
L 2356 3500 
L 2356 3053 
L 1172 3053 
L 1172 1153 
Q 1172 725 1289 603 
Q 1406 481 1766 481 
L 2356 481 
L 2356 0 
L 1766 0 
Q 1100 0 847 248 
Q 594 497 594 1153 
L 594 3053 
L 172 3053 
L 172 3500 
L 594 3500 
L 594 4494 
L 1172 4494 
z
" transform="scale(0.015625)"/>
      <path id="DejaVuSans-2d" d="M 313 2009 
L 1997 2009 
L 1997 1497 
L 313 1497 
L 313 2009 
z
" transform="scale(0.015625)"/>
      <path id="DejaVuSans-53" d="M 3425 4513 
L 3425 3897 
Q 3066 4069 2747 4153 
Q 2428 4238 2131 4238 
Q 1616 4238 1336 4038 
Q 1056 3838 1056 3469 
Q 1056 3159 1242 3001 
Q 1428 2844 1947 2747 
L 2328 2669 
Q 3034 2534 3370 2195 
Q 3706 1856 3706 1288 
Q 3706 609 3251 259 
Q 2797 -91 1919 -91 
Q 1588 -91 1214 -16 
Q 841 59 441 206 
L 441 856 
Q 825 641 1194 531 
Q 1563 422 1919 422 
Q 2459 422 2753 634 
Q 3047 847 3047 1241 
Q 3047 1584 2836 1778 
Q 2625 1972 2144 2069 
L 1759 2144 
Q 1053 2284 737 2584 
Q 422 2884 422 3419 
Q 422 4038 858 4394 
Q 1294 4750 2059 4750 
Q 2388 4750 2728 4690 
Q 3069 4631 3425 4513 
z
" transform="scale(0.015625)"/>
      <path id="DejaVuSans-4e" d="M 628 4666 
L 1478 4666 
L 3547 763 
L 3547 4666 
L 4159 4666 
L 4159 0 
L 3309 0 
L 1241 3903 
L 1241 0 
L 628 0 
L 628 4666 
z
" transform="scale(0.015625)"/>
      <path id="DejaVuSans-45" d="M 628 4666 
L 3578 4666 
L 3578 4134 
L 1259 4134 
L 1259 2753 
L 3481 2753 
L 3481 2222 
L 1259 2222 
L 1259 531 
L 3634 531 
L 3634 0 
L 628 0 
L 628 4666 
z
" transform="scale(0.015625)"/>
      <path id="DejaVuSans-3a" d="M 750 794 
L 1409 794 
L 1409 0 
L 750 0 
L 750 794 
z
M 750 3309 
L 1409 3309 
L 1409 2516 
L 750 2516 
L 750 3309 
z
" transform="scale(0.015625)"/>
      <path id="DejaVuSans-20" transform="scale(0.015625)"/>
      <path id="DejaVuSans-76" d="M 191 3500 
L 800 3500 
L 1894 563 
L 2988 3500 
L 3597 3500 
L 2284 0 
L 1503 0 
L 191 3500 
z
" transform="scale(0.015625)"/>
      <path id="DejaVuSans-30" d="M 2034 4250 
Q 1547 4250 1301 3770 
Q 1056 3291 1056 2328 
Q 1056 1369 1301 889 
Q 1547 409 2034 409 
Q 2525 409 2770 889 
Q 3016 1369 3016 2328 
Q 3016 3291 2770 3770 
Q 2525 4250 2034 4250 
z
M 2034 4750 
Q 2819 4750 3233 4129 
Q 3647 3509 3647 2328 
Q 3647 1150 3233 529 
Q 2819 -91 2034 -91 
Q 1250 -91 836 529 
Q 422 1150 422 2328 
Q 422 3509 836 4129 
Q 1250 4750 2034 4750 
z
" transform="scale(0.015625)"/>
      <path id="DejaVuSans-5f" d="M 3263 -1063 
L 3263 -1509 
L -63 -1509 
L -63 -1063 
L 3263 -1063 
z
" transform="scale(0.015625)"/>
      <path id="DejaVuSans-75" d="M 544 1381 
L 544 3500 
L 1119 3500 
L 1119 1403 
Q 1119 906 1312 657 
Q 1506 409 1894 409 
Q 2359 409 2629 706 
Q 2900 1003 2900 1516 
L 2900 3500 
L 3475 3500 
L 3475 0 
L 2900 0 
L 2900 538 
Q 2691 219 2414 64 
Q 2138 -91 1772 -91 
Q 1169 -91 856 284 
Q 544 659 544 1381 
z
M 1991 3584 
L 1991 3584 
z
" transform="scale(0.015625)"/>
      <path id="DejaVuSans-70" d="M 1159 525 
L 1159 -1331 
L 581 -1331 
L 581 3500 
L 1159 3500 
L 1159 2969 
Q 1341 3281 1617 3432 
Q 1894 3584 2278 3584 
Q 2916 3584 3314 3078 
Q 3713 2572 3713 1747 
Q 3713 922 3314 415 
Q 2916 -91 2278 -91 
Q 1894 -91 1617 61 
Q 1341 213 1159 525 
z
M 3116 1747 
Q 3116 2381 2855 2742 
Q 2594 3103 2138 3103 
Q 1681 3103 1420 2742 
Q 1159 2381 1159 1747 
Q 1159 1113 1420 752 
Q 1681 391 2138 391 
Q 2594 391 2855 752 
Q 3116 1113 3116 1747 
z
" transform="scale(0.015625)"/>
     </defs>
     <use xlink:href="#DejaVuSans-74"/>
     <use xlink:href="#DejaVuSans-2d" transform="translate(39.208984 0)"/>
     <use xlink:href="#DejaVuSans-53" transform="translate(75.292969 0)"/>
     <use xlink:href="#DejaVuSans-4e" transform="translate(138.769531 0)"/>
     <use xlink:href="#DejaVuSans-45" transform="translate(213.574219 0)"/>
     <use xlink:href="#DejaVuSans-3a" transform="translate(276.757812 0)"/>
     <use xlink:href="#DejaVuSans-20" transform="translate(310.449219 0)"/>
     <use xlink:href="#DejaVuSans-76" transform="translate(342.236328 0)"/>
     <use xlink:href="#DejaVuSans-30" transform="translate(401.416016 0)"/>
     <use xlink:href="#DejaVuSans-5f" transform="translate(465.039062 0)"/>
     <use xlink:href="#DejaVuSans-75" transform="translate(515.039062 0)"/>
     <use xlink:href="#DejaVuSans-70" transform="translate(578.417969 0)"/>
    </g>
   </g>
  </g>
 </g>
 <defs>
  <clipPath id="p777d59aca8">
   <rect x="10.8" y="26.68875" width="410.4" height="322.51125"/>
  </clipPath>
 </defs>
</svg>
