<?xml version="1.0" encoding="utf-8" standalone="no"?>
<!DOCTYPE svg PUBLIC "-//W3C//DTD SVG 1.1//EN"
  "http://www.w3.org/Graphics/SVG/1.1/DTD/svg11.dtd">
<svg xmlns:xlink="http://www.w3.org/1999/xlink" width="432pt" height="360pt" viewBox="0 0 432 360" xmlns="http://www.w3.org/2000/svg" version="1.1">
 <metadata>
  <rdf:RDF xmlns:dc="http://purl.org/dc/elements/1.1/" xmlns:cc="http://creativecommons.org/ns#" xmlns:rdf="http://www.w3.org/1999/02/22-rdf-syntax-ns#">
   <cc:Work>
    <dc:type rdf:resource="http://purl.org/dc/dcmitype/StillImage"/>
    <dc:date>2025-06-16T01:31:41.538961</dc:date>
    <dc:format>image/svg+xml</dc:format>
    <dc:creator>
     <cc:Agent>
      <dc:title>Matplotlib v3.10.1, https://matplotlib.org/</dc:title>
     </cc:Agent>
    </dc:creator>
   </cc:Work>
  </rdf:RDF>
 </metadata>
 <defs>
  <style type="text/css">*{stroke-linejoin: round; stroke-linecap: butt}</style>
 </defs>
 <g id="figure_1">
  <g id="patch_1">
   <path d="M 0 360 
L 432 360 
L 432 0 
L 0 0 
z
" style="fill: #ffffff"/>
  </g>
  <g id="axes_1">
   <g id="patch_2">
    <path d="M 10.8 349.2 
L 421.2 349.2 
L 421.2 26.88 
L 10.8 26.88 
z
" style="fill: #ffffff"/>
   </g>
   <g id="PathCollection_1">
    <defs>
     <path id="m59dbb8ebec" d="M 0 2.236068 
C 0.593012 2.236068 1.161816 2.000462 1.581139 1.581139 
C 2.000462 1.161816 2.236068 0.593012 2.236068 0 
C 2.236068 -0.593012 2.000462 -1.161816 1.581139 -1.581139 
C 1.161816 -2.000462 0.593012 -2.236068 0 -2.236068 
C -0.593012 -2.236068 -1.161816 -2.000462 -1.581139 -1.581139 
C -2.000462 -1.161816 -2.236068 -0.593012 -2.236068 0 
C -2.236068 0.593012 -2.000462 1.161816 -1.581139 1.581139 
C -1.161816 2.000462 -0.593012 2.236068 0 2.236068 
z
" style="stroke: #1f77b4; stroke-opacity: 0.7"/>
    </defs>
    <g clip-path="url(#pc1cadb9c77)">
     <use xlink:href="#m59dbb8ebec" x="213.654014" y="251.018673" style="fill: #1f77b4; fill-opacity: 0.7; stroke: #1f77b4; stroke-opacity: 0.7"/>
     <use xlink:href="#m59dbb8ebec" x="166.138314" y="235.621611" style="fill: #1f77b4; fill-opacity: 0.7; stroke: #1f77b4; stroke-opacity: 0.7"/>
     <use xlink:href="#m59dbb8ebec" x="190.595228" y="290.41607" style="fill: #1f77b4; fill-opacity: 0.7; stroke: #1f77b4; stroke-opacity: 0.7"/>
     <use xlink:href="#m59dbb8ebec" x="213.376439" y="262.450793" style="fill: #1f77b4; fill-opacity: 0.7; stroke: #1f77b4; stroke-opacity: 0.7"/>
     <use xlink:href="#m59dbb8ebec" x="182.174819" y="301.160844" style="fill: #1f77b4; fill-opacity: 0.7; stroke: #1f77b4; stroke-opacity: 0.7"/>
     <use xlink:href="#m59dbb8ebec" x="206.910533" y="315.5393" style="fill: #1f77b4; fill-opacity: 0.7; stroke: #1f77b4; stroke-opacity: 0.7"/>
     <use xlink:href="#m59dbb8ebec" x="196.604142" y="269.686335" style="fill: #1f77b4; fill-opacity: 0.7; stroke: #1f77b4; stroke-opacity: 0.7"/>
     <use xlink:href="#m59dbb8ebec" x="239.43782" y="297.517704" style="fill: #1f77b4; fill-opacity: 0.7; stroke: #1f77b4; stroke-opacity: 0.7"/>
     <use xlink:href="#m59dbb8ebec" x="200.768706" y="278.480181" style="fill: #1f77b4; fill-opacity: 0.7; stroke: #1f77b4; stroke-opacity: 0.7"/>
     <use xlink:href="#m59dbb8ebec" x="234.520526" y="281.673799" style="fill: #1f77b4; fill-opacity: 0.7; stroke: #1f77b4; stroke-opacity: 0.7"/>
    </g>
   </g>
   <g id="PathCollection_2">
    <defs>
     <path id="me5e3f0b3a9" d="M 0 2.236068 
C 0.593012 2.236068 1.161816 2.000462 1.581139 1.581139 
C 2.000462 1.161816 2.236068 0.593012 2.236068 0 
C 2.236068 -0.593012 2.000462 -1.161816 1.581139 -1.581139 
C 1.161816 -2.000462 0.593012 -2.236068 0 -2.236068 
C -0.593012 -2.236068 -1.161816 -2.000462 -1.581139 -1.581139 
C -2.000462 -1.161816 -2.236068 -0.593012 -2.236068 0 
C -2.236068 0.593012 -2.000462 1.161816 -1.581139 1.581139 
C -1.161816 2.000462 -0.593012 2.236068 0 2.236068 
z
" style="stroke: #aec7e8; stroke-opacity: 0.7"/>
    </defs>
    <g clip-path="url(#pc1cadb9c77)">
     <use xlink:href="#me5e3f0b3a9" x="130.61078" y="319.935623" style="fill: #aec7e8; fill-opacity: 0.7; stroke: #aec7e8; stroke-opacity: 0.7"/>
     <use xlink:href="#me5e3f0b3a9" x="131.130269" y="321.646094" style="fill: #aec7e8; fill-opacity: 0.7; stroke: #aec7e8; stroke-opacity: 0.7"/>
     <use xlink:href="#me5e3f0b3a9" x="133.55925" y="313.256285" style="fill: #aec7e8; fill-opacity: 0.7; stroke: #aec7e8; stroke-opacity: 0.7"/>
     <use xlink:href="#me5e3f0b3a9" x="322.804849" y="232.090171" style="fill: #aec7e8; fill-opacity: 0.7; stroke: #aec7e8; stroke-opacity: 0.7"/>
     <use xlink:href="#me5e3f0b3a9" x="271.707338" y="214.429448" style="fill: #aec7e8; fill-opacity: 0.7; stroke: #aec7e8; stroke-opacity: 0.7"/>
     <use xlink:href="#me5e3f0b3a9" x="198.859426" y="198.233404" style="fill: #aec7e8; fill-opacity: 0.7; stroke: #aec7e8; stroke-opacity: 0.7"/>
     <use xlink:href="#me5e3f0b3a9" x="313.215449" y="218.062025" style="fill: #aec7e8; fill-opacity: 0.7; stroke: #aec7e8; stroke-opacity: 0.7"/>
     <use xlink:href="#me5e3f0b3a9" x="284.793805" y="228.627031" style="fill: #aec7e8; fill-opacity: 0.7; stroke: #aec7e8; stroke-opacity: 0.7"/>
     <use xlink:href="#me5e3f0b3a9" x="196.198234" y="185.850468" style="fill: #aec7e8; fill-opacity: 0.7; stroke: #aec7e8; stroke-opacity: 0.7"/>
     <use xlink:href="#me5e3f0b3a9" x="187.374073" y="184.381417" style="fill: #aec7e8; fill-opacity: 0.7; stroke: #aec7e8; stroke-opacity: 0.7"/>
    </g>
   </g>
   <g id="PathCollection_3">
    <defs>
     <path id="m3eca6a6ab0" d="M 0 2.236068 
C 0.593012 2.236068 1.161816 2.000462 1.581139 1.581139 
C 2.000462 1.161816 2.236068 0.593012 2.236068 0 
C 2.236068 -0.593012 2.000462 -1.161816 1.581139 -1.581139 
C 1.161816 -2.000462 0.593012 -2.236068 0 -2.236068 
C -0.593012 -2.236068 -1.161816 -2.000462 -1.581139 -1.581139 
C -2.000462 -1.161816 -2.236068 -0.593012 -2.236068 0 
C -2.236068 0.593012 -2.000462 1.161816 -1.581139 1.581139 
C -1.161816 2.000462 -0.593012 2.236068 0 2.236068 
z
" style="stroke: #ff7f0e; stroke-opacity: 0.7"/>
    </defs>
    <g clip-path="url(#pc1cadb9c77)">
     <use xlink:href="#m3eca6a6ab0" x="213.885063" y="235.271369" style="fill: #ff7f0e; fill-opacity: 0.7; stroke: #ff7f0e; stroke-opacity: 0.7"/>
     <use xlink:href="#m3eca6a6ab0" x="224.774996" y="213.232092" style="fill: #ff7f0e; fill-opacity: 0.7; stroke: #ff7f0e; stroke-opacity: 0.7"/>
     <use xlink:href="#m3eca6a6ab0" x="156.44576" y="219.626437" style="fill: #ff7f0e; fill-opacity: 0.7; stroke: #ff7f0e; stroke-opacity: 0.7"/>
     <use xlink:href="#m3eca6a6ab0" x="248.198977" y="212.677874" style="fill: #ff7f0e; fill-opacity: 0.7; stroke: #ff7f0e; stroke-opacity: 0.7"/>
     <use xlink:href="#m3eca6a6ab0" x="246.13331" y="241.894003" style="fill: #ff7f0e; fill-opacity: 0.7; stroke: #ff7f0e; stroke-opacity: 0.7"/>
     <use xlink:href="#m3eca6a6ab0" x="236.448933" y="201.992735" style="fill: #ff7f0e; fill-opacity: 0.7; stroke: #ff7f0e; stroke-opacity: 0.7"/>
     <use xlink:href="#m3eca6a6ab0" x="219.633075" y="184.347205" style="fill: #ff7f0e; fill-opacity: 0.7; stroke: #ff7f0e; stroke-opacity: 0.7"/>
     <use xlink:href="#m3eca6a6ab0" x="228.455348" y="214.462441" style="fill: #ff7f0e; fill-opacity: 0.7; stroke: #ff7f0e; stroke-opacity: 0.7"/>
     <use xlink:href="#m3eca6a6ab0" x="180.283431" y="219.628298" style="fill: #ff7f0e; fill-opacity: 0.7; stroke: #ff7f0e; stroke-opacity: 0.7"/>
     <use xlink:href="#m3eca6a6ab0" x="243.003691" y="157.29087" style="fill: #ff7f0e; fill-opacity: 0.7; stroke: #ff7f0e; stroke-opacity: 0.7"/>
    </g>
   </g>
   <g id="PathCollection_4">
    <defs>
     <path id="mdf1c1fcf1c" d="M 0 2.236068 
C 0.593012 2.236068 1.161816 2.000462 1.581139 1.581139 
C 2.000462 1.161816 2.236068 0.593012 2.236068 0 
C 2.236068 -0.593012 2.000462 -1.161816 1.581139 -1.581139 
C 1.161816 -2.000462 0.593012 -2.236068 0 -2.236068 
C -0.593012 -2.236068 -1.161816 -2.000462 -1.581139 -1.581139 
C -2.000462 -1.161816 -2.236068 -0.593012 -2.236068 0 
C -2.236068 0.593012 -2.000462 1.161816 -1.581139 1.581139 
C -1.161816 2.000462 -0.593012 2.236068 0 2.236068 
z
" style="stroke: #ffbb78; stroke-opacity: 0.7"/>
    </defs>
    <g clip-path="url(#pc1cadb9c77)">
     <use xlink:href="#mdf1c1fcf1c" x="364.998368" y="162.320404" style="fill: #ffbb78; fill-opacity: 0.7; stroke: #ffbb78; stroke-opacity: 0.7"/>
     <use xlink:href="#mdf1c1fcf1c" x="323.128641" y="147.26392" style="fill: #ffbb78; fill-opacity: 0.7; stroke: #ffbb78; stroke-opacity: 0.7"/>
     <use xlink:href="#mdf1c1fcf1c" x="332.540799" y="168.837432" style="fill: #ffbb78; fill-opacity: 0.7; stroke: #ffbb78; stroke-opacity: 0.7"/>
     <use xlink:href="#mdf1c1fcf1c" x="344.318721" y="166.332945" style="fill: #ffbb78; fill-opacity: 0.7; stroke: #ffbb78; stroke-opacity: 0.7"/>
     <use xlink:href="#mdf1c1fcf1c" x="353.604422" y="148.537795" style="fill: #ffbb78; fill-opacity: 0.7; stroke: #ffbb78; stroke-opacity: 0.7"/>
     <use xlink:href="#mdf1c1fcf1c" x="390.136024" y="156.757157" style="fill: #ffbb78; fill-opacity: 0.7; stroke: #ffbb78; stroke-opacity: 0.7"/>
     <use xlink:href="#mdf1c1fcf1c" x="387.336847" y="159.348036" style="fill: #ffbb78; fill-opacity: 0.7; stroke: #ffbb78; stroke-opacity: 0.7"/>
     <use xlink:href="#mdf1c1fcf1c" x="352.713008" y="162.453824" style="fill: #ffbb78; fill-opacity: 0.7; stroke: #ffbb78; stroke-opacity: 0.7"/>
     <use xlink:href="#mdf1c1fcf1c" x="336.182894" y="134.606425" style="fill: #ffbb78; fill-opacity: 0.7; stroke: #ffbb78; stroke-opacity: 0.7"/>
     <use xlink:href="#mdf1c1fcf1c" x="372.362836" y="142.007631" style="fill: #ffbb78; fill-opacity: 0.7; stroke: #ffbb78; stroke-opacity: 0.7"/>
    </g>
   </g>
   <g id="PathCollection_5">
    <defs>
     <path id="mb6f0d5b9ea" d="M 0 2.236068 
C 0.593012 2.236068 1.161816 2.000462 1.581139 1.581139 
C 2.000462 1.161816 2.236068 0.593012 2.236068 0 
C 2.236068 -0.593012 2.000462 -1.161816 1.581139 -1.581139 
C 1.161816 -2.000462 0.593012 -2.236068 0 -2.236068 
C -0.593012 -2.236068 -1.161816 -2.000462 -1.581139 -1.581139 
C -2.000462 -1.161816 -2.236068 -0.593012 -2.236068 0 
C -2.236068 0.593012 -2.000462 1.161816 -1.581139 1.581139 
C -1.161816 2.000462 -0.593012 2.236068 0 2.236068 
z
" style="stroke: #2ca02c; stroke-opacity: 0.7"/>
    </defs>
    <g clip-path="url(#pc1cadb9c77)">
     <use xlink:href="#mb6f0d5b9ea" x="119.119057" y="221.129844" style="fill: #2ca02c; fill-opacity: 0.7; stroke: #2ca02c; stroke-opacity: 0.7"/>
     <use xlink:href="#mb6f0d5b9ea" x="228.822471" y="223.777607" style="fill: #2ca02c; fill-opacity: 0.7; stroke: #2ca02c; stroke-opacity: 0.7"/>
     <use xlink:href="#mb6f0d5b9ea" x="223.891251" y="236.939571" style="fill: #2ca02c; fill-opacity: 0.7; stroke: #2ca02c; stroke-opacity: 0.7"/>
     <use xlink:href="#mb6f0d5b9ea" x="38.220832" y="218.842836" style="fill: #2ca02c; fill-opacity: 0.7; stroke: #2ca02c; stroke-opacity: 0.7"/>
     <use xlink:href="#mb6f0d5b9ea" x="77.909449" y="174.931435" style="fill: #2ca02c; fill-opacity: 0.7; stroke: #2ca02c; stroke-opacity: 0.7"/>
     <use xlink:href="#mb6f0d5b9ea" x="40.01973" y="214.151374" style="fill: #2ca02c; fill-opacity: 0.7; stroke: #2ca02c; stroke-opacity: 0.7"/>
     <use xlink:href="#mb6f0d5b9ea" x="29.454545" y="208.535726" style="fill: #2ca02c; fill-opacity: 0.7; stroke: #2ca02c; stroke-opacity: 0.7"/>
     <use xlink:href="#mb6f0d5b9ea" x="64.890569" y="225.158025" style="fill: #2ca02c; fill-opacity: 0.7; stroke: #2ca02c; stroke-opacity: 0.7"/>
     <use xlink:href="#mb6f0d5b9ea" x="29.500955" y="211.237115" style="fill: #2ca02c; fill-opacity: 0.7; stroke: #2ca02c; stroke-opacity: 0.7"/>
     <use xlink:href="#mb6f0d5b9ea" x="61.828079" y="207.107095" style="fill: #2ca02c; fill-opacity: 0.7; stroke: #2ca02c; stroke-opacity: 0.7"/>
    </g>
   </g>
   <g id="PathCollection_6">
    <defs>
     <path id="ma654eedb73" d="M 0 2.236068 
C 0.593012 2.236068 1.161816 2.000462 1.581139 1.581139 
C 2.000462 1.161816 2.236068 0.593012 2.236068 0 
C 2.236068 -0.593012 2.000462 -1.161816 1.581139 -1.581139 
C 1.161816 -2.000462 0.593012 -2.236068 0 -2.236068 
C -0.593012 -2.236068 -1.161816 -2.000462 -1.581139 -1.581139 
C -2.000462 -1.161816 -2.236068 -0.593012 -2.236068 0 
C -2.236068 0.593012 -2.000462 1.161816 -1.581139 1.581139 
C -1.161816 2.000462 -0.593012 2.236068 0 2.236068 
z
" style="stroke: #98df8a; stroke-opacity: 0.7"/>
    </defs>
    <g clip-path="url(#pc1cadb9c77)">
     <use xlink:href="#ma654eedb73" x="304.214876" y="280.06075" style="fill: #98df8a; fill-opacity: 0.7; stroke: #98df8a; stroke-opacity: 0.7"/>
     <use xlink:href="#ma654eedb73" x="200.603147" y="226.364298" style="fill: #98df8a; fill-opacity: 0.7; stroke: #98df8a; stroke-opacity: 0.7"/>
     <use xlink:href="#ma654eedb73" x="244.378314" y="185.986851" style="fill: #98df8a; fill-opacity: 0.7; stroke: #98df8a; stroke-opacity: 0.7"/>
     <use xlink:href="#ma654eedb73" x="166.912856" y="152.489292" style="fill: #98df8a; fill-opacity: 0.7; stroke: #98df8a; stroke-opacity: 0.7"/>
     <use xlink:href="#ma654eedb73" x="222.289322" y="165.378383" style="fill: #98df8a; fill-opacity: 0.7; stroke: #98df8a; stroke-opacity: 0.7"/>
     <use xlink:href="#ma654eedb73" x="280.481553" y="173.945135" style="fill: #98df8a; fill-opacity: 0.7; stroke: #98df8a; stroke-opacity: 0.7"/>
     <use xlink:href="#ma654eedb73" x="188.046596" y="164.404722" style="fill: #98df8a; fill-opacity: 0.7; stroke: #98df8a; stroke-opacity: 0.7"/>
     <use xlink:href="#ma654eedb73" x="291.224771" y="159.31168" style="fill: #98df8a; fill-opacity: 0.7; stroke: #98df8a; stroke-opacity: 0.7"/>
     <use xlink:href="#ma654eedb73" x="194.989686" y="177.173897" style="fill: #98df8a; fill-opacity: 0.7; stroke: #98df8a; stroke-opacity: 0.7"/>
     <use xlink:href="#ma654eedb73" x="287.11645" y="168.422173" style="fill: #98df8a; fill-opacity: 0.7; stroke: #98df8a; stroke-opacity: 0.7"/>
    </g>
   </g>
   <g id="PathCollection_7">
    <defs>
     <path id="mfc71c4cfa7" d="M 0 2.236068 
C 0.593012 2.236068 1.161816 2.000462 1.581139 1.581139 
C 2.000462 1.161816 2.236068 0.593012 2.236068 0 
C 2.236068 -0.593012 2.000462 -1.161816 1.581139 -1.581139 
C 1.161816 -2.000462 0.593012 -2.236068 0 -2.236068 
C -0.593012 -2.236068 -1.161816 -2.000462 -1.581139 -1.581139 
C -2.000462 -1.161816 -2.236068 -0.593012 -2.236068 0 
C -2.236068 0.593012 -2.000462 1.161816 -1.581139 1.581139 
C -1.161816 2.000462 -0.593012 2.236068 0 2.236068 
z
" style="stroke: #d62728; stroke-opacity: 0.7"/>
    </defs>
    <g clip-path="url(#pc1cadb9c77)">
     <use xlink:href="#mfc71c4cfa7" x="180.30848" y="247.904283" style="fill: #d62728; fill-opacity: 0.7; stroke: #d62728; stroke-opacity: 0.7"/>
     <use xlink:href="#mfc71c4cfa7" x="142.699837" y="270.855131" style="fill: #d62728; fill-opacity: 0.7; stroke: #d62728; stroke-opacity: 0.7"/>
     <use xlink:href="#mfc71c4cfa7" x="164.5947" y="271.543592" style="fill: #d62728; fill-opacity: 0.7; stroke: #d62728; stroke-opacity: 0.7"/>
     <use xlink:href="#mfc71c4cfa7" x="164.379446" y="277.331342" style="fill: #d62728; fill-opacity: 0.7; stroke: #d62728; stroke-opacity: 0.7"/>
     <use xlink:href="#mfc71c4cfa7" x="146.424953" y="275.89402" style="fill: #d62728; fill-opacity: 0.7; stroke: #d62728; stroke-opacity: 0.7"/>
     <use xlink:href="#mfc71c4cfa7" x="149.528769" y="293.382987" style="fill: #d62728; fill-opacity: 0.7; stroke: #d62728; stroke-opacity: 0.7"/>
     <use xlink:href="#mfc71c4cfa7" x="147.55893" y="258.849187" style="fill: #d62728; fill-opacity: 0.7; stroke: #d62728; stroke-opacity: 0.7"/>
     <use xlink:href="#mfc71c4cfa7" x="121.51854" y="265.651324" style="fill: #d62728; fill-opacity: 0.7; stroke: #d62728; stroke-opacity: 0.7"/>
     <use xlink:href="#mfc71c4cfa7" x="152.31862" y="279.582983" style="fill: #d62728; fill-opacity: 0.7; stroke: #d62728; stroke-opacity: 0.7"/>
     <use xlink:href="#mfc71c4cfa7" x="157.765215" y="263.876849" style="fill: #d62728; fill-opacity: 0.7; stroke: #d62728; stroke-opacity: 0.7"/>
    </g>
   </g>
   <g id="PathCollection_8">
    <defs>
     <path id="m118f1809d0" d="M 0 2.236068 
C 0.593012 2.236068 1.161816 2.000462 1.581139 1.581139 
C 2.000462 1.161816 2.236068 0.593012 2.236068 0 
C 2.236068 -0.593012 2.000462 -1.161816 1.581139 -1.581139 
C 1.161816 -2.000462 0.593012 -2.236068 0 -2.236068 
C -0.593012 -2.236068 -1.161816 -2.000462 -1.581139 -1.581139 
C -2.000462 -1.161816 -2.236068 -0.593012 -2.236068 0 
C -2.236068 0.593012 -2.000462 1.161816 -1.581139 1.581139 
C -1.161816 2.000462 -0.593012 2.236068 0 2.236068 
z
" style="stroke: #ff9896; stroke-opacity: 0.7"/>
    </defs>
    <g clip-path="url(#pc1cadb9c77)">
     <use xlink:href="#m118f1809d0" x="208.207307" y="253.675742" style="fill: #ff9896; fill-opacity: 0.7; stroke: #ff9896; stroke-opacity: 0.7"/>
     <use xlink:href="#m118f1809d0" x="202.020356" y="215.596881" style="fill: #ff9896; fill-opacity: 0.7; stroke: #ff9896; stroke-opacity: 0.7"/>
     <use xlink:href="#m118f1809d0" x="168.57974" y="180.354991" style="fill: #ff9896; fill-opacity: 0.7; stroke: #ff9896; stroke-opacity: 0.7"/>
     <use xlink:href="#m118f1809d0" x="97.334109" y="203.021093" style="fill: #ff9896; fill-opacity: 0.7; stroke: #ff9896; stroke-opacity: 0.7"/>
     <use xlink:href="#m118f1809d0" x="248.387519" y="259.51096" style="fill: #ff9896; fill-opacity: 0.7; stroke: #ff9896; stroke-opacity: 0.7"/>
     <use xlink:href="#m118f1809d0" x="145.011433" y="183.689945" style="fill: #ff9896; fill-opacity: 0.7; stroke: #ff9896; stroke-opacity: 0.7"/>
     <use xlink:href="#m118f1809d0" x="124.590079" y="185.7005" style="fill: #ff9896; fill-opacity: 0.7; stroke: #ff9896; stroke-opacity: 0.7"/>
     <use xlink:href="#m118f1809d0" x="93.563044" y="204.388009" style="fill: #ff9896; fill-opacity: 0.7; stroke: #ff9896; stroke-opacity: 0.7"/>
     <use xlink:href="#m118f1809d0" x="176.54545" y="199.303249" style="fill: #ff9896; fill-opacity: 0.7; stroke: #ff9896; stroke-opacity: 0.7"/>
     <use xlink:href="#m118f1809d0" x="100.201149" y="198.932812" style="fill: #ff9896; fill-opacity: 0.7; stroke: #ff9896; stroke-opacity: 0.7"/>
    </g>
   </g>
   <g id="PathCollection_9">
    <defs>
     <path id="m9568c58bcf" d="M 0 2.236068 
C 0.593012 2.236068 1.161816 2.000462 1.581139 1.581139 
C 2.000462 1.161816 2.236068 0.593012 2.236068 0 
C 2.236068 -0.593012 2.000462 -1.161816 1.581139 -1.581139 
C 1.161816 -2.000462 0.593012 -2.236068 0 -2.236068 
C -0.593012 -2.236068 -1.161816 -2.000462 -1.581139 -1.581139 
C -2.000462 -1.161816 -2.236068 -0.593012 -2.236068 0 
C -2.236068 0.593012 -2.000462 1.161816 -1.581139 1.581139 
C -1.161816 2.000462 -0.593012 2.236068 0 2.236068 
z
" style="stroke: #9467bd; stroke-opacity: 0.7"/>
    </defs>
    <g clip-path="url(#pc1cadb9c77)">
     <use xlink:href="#m9568c58bcf" x="230.866407" y="245.660479" style="fill: #9467bd; fill-opacity: 0.7; stroke: #9467bd; stroke-opacity: 0.7"/>
     <use xlink:href="#m9568c58bcf" x="191.486671" y="233.463214" style="fill: #9467bd; fill-opacity: 0.7; stroke: #9467bd; stroke-opacity: 0.7"/>
     <use xlink:href="#m9568c58bcf" x="346.307207" y="198.930706" style="fill: #9467bd; fill-opacity: 0.7; stroke: #9467bd; stroke-opacity: 0.7"/>
     <use xlink:href="#m9568c58bcf" x="324.737616" y="201.117992" style="fill: #9467bd; fill-opacity: 0.7; stroke: #9467bd; stroke-opacity: 0.7"/>
     <use xlink:href="#m9568c58bcf" x="324.885843" y="218.413141" style="fill: #9467bd; fill-opacity: 0.7; stroke: #9467bd; stroke-opacity: 0.7"/>
     <use xlink:href="#m9568c58bcf" x="325.82124" y="210.014784" style="fill: #9467bd; fill-opacity: 0.7; stroke: #9467bd; stroke-opacity: 0.7"/>
     <use xlink:href="#m9568c58bcf" x="278.713097" y="186.126348" style="fill: #9467bd; fill-opacity: 0.7; stroke: #9467bd; stroke-opacity: 0.7"/>
     <use xlink:href="#m9568c58bcf" x="304.691967" y="202.306125" style="fill: #9467bd; fill-opacity: 0.7; stroke: #9467bd; stroke-opacity: 0.7"/>
     <use xlink:href="#m9568c58bcf" x="208.394866" y="159.67365" style="fill: #9467bd; fill-opacity: 0.7; stroke: #9467bd; stroke-opacity: 0.7"/>
     <use xlink:href="#m9568c58bcf" x="335.419361" y="225.204663" style="fill: #9467bd; fill-opacity: 0.7; stroke: #9467bd; stroke-opacity: 0.7"/>
    </g>
   </g>
   <g id="PathCollection_10">
    <defs>
     <path id="me671a20d5a" d="M 0 2.236068 
C 0.593012 2.236068 1.161816 2.000462 1.581139 1.581139 
C 2.000462 1.161816 2.236068 0.593012 2.236068 0 
C 2.236068 -0.593012 2.000462 -1.161816 1.581139 -1.581139 
C 1.161816 -2.000462 0.593012 -2.236068 0 -2.236068 
C -0.593012 -2.236068 -1.161816 -2.000462 -1.581139 -1.581139 
C -2.000462 -1.161816 -2.236068 -0.593012 -2.236068 0 
C -2.236068 0.593012 -2.000462 1.161816 -1.581139 1.581139 
C -1.161816 2.000462 -0.593012 2.236068 0 2.236068 
z
" style="stroke: #c5b0d5; stroke-opacity: 0.7"/>
    </defs>
    <g clip-path="url(#pc1cadb9c77)">
     <use xlink:href="#me671a20d5a" x="329.480015" y="334.549091" style="fill: #c5b0d5; fill-opacity: 0.7; stroke: #c5b0d5; stroke-opacity: 0.7"/>
     <use xlink:href="#me671a20d5a" x="339.707459" y="322.76988" style="fill: #c5b0d5; fill-opacity: 0.7; stroke: #c5b0d5; stroke-opacity: 0.7"/>
     <use xlink:href="#me671a20d5a" x="315.633197" y="312.82469" style="fill: #c5b0d5; fill-opacity: 0.7; stroke: #c5b0d5; stroke-opacity: 0.7"/>
     <use xlink:href="#me671a20d5a" x="324.352354" y="309.322007" style="fill: #c5b0d5; fill-opacity: 0.7; stroke: #c5b0d5; stroke-opacity: 0.7"/>
     <use xlink:href="#me671a20d5a" x="316.589713" y="327.531449" style="fill: #c5b0d5; fill-opacity: 0.7; stroke: #c5b0d5; stroke-opacity: 0.7"/>
     <use xlink:href="#me671a20d5a" x="311.352793" y="320.909865" style="fill: #c5b0d5; fill-opacity: 0.7; stroke: #c5b0d5; stroke-opacity: 0.7"/>
     <use xlink:href="#me671a20d5a" x="340.233911" y="330.47622" style="fill: #c5b0d5; fill-opacity: 0.7; stroke: #c5b0d5; stroke-opacity: 0.7"/>
     <use xlink:href="#me671a20d5a" x="324.831992" y="334.093398" style="fill: #c5b0d5; fill-opacity: 0.7; stroke: #c5b0d5; stroke-opacity: 0.7"/>
     <use xlink:href="#me671a20d5a" x="306.324262" y="296.095922" style="fill: #c5b0d5; fill-opacity: 0.7; stroke: #c5b0d5; stroke-opacity: 0.7"/>
     <use xlink:href="#me671a20d5a" x="323.106721" y="314.055893" style="fill: #c5b0d5; fill-opacity: 0.7; stroke: #c5b0d5; stroke-opacity: 0.7"/>
    </g>
   </g>
   <g id="PathCollection_11">
    <defs>
     <path id="ma156abc8f2" d="M 0 2.236068 
C 0.593012 2.236068 1.161816 2.000462 1.581139 1.581139 
C 2.000462 1.161816 2.236068 0.593012 2.236068 0 
C 2.236068 -0.593012 2.000462 -1.161816 1.581139 -1.581139 
C 1.161816 -2.000462 0.593012 -2.236068 0 -2.236068 
C -0.593012 -2.236068 -1.161816 -2.000462 -1.581139 -1.581139 
C -2.000462 -1.161816 -2.236068 -0.593012 -2.236068 0 
C -2.236068 0.593012 -2.000462 1.161816 -1.581139 1.581139 
C -1.161816 2.000462 -0.593012 2.236068 0 2.236068 
z
" style="stroke: #8c564b; stroke-opacity: 0.7"/>
    </defs>
    <g clip-path="url(#pc1cadb9c77)">
     <use xlink:href="#ma156abc8f2" x="264.497908" y="101.713394" style="fill: #8c564b; fill-opacity: 0.7; stroke: #8c564b; stroke-opacity: 0.7"/>
     <use xlink:href="#ma156abc8f2" x="273.282059" y="110.114196" style="fill: #8c564b; fill-opacity: 0.7; stroke: #8c564b; stroke-opacity: 0.7"/>
     <use xlink:href="#ma156abc8f2" x="204.113332" y="131.739082" style="fill: #8c564b; fill-opacity: 0.7; stroke: #8c564b; stroke-opacity: 0.7"/>
     <use xlink:href="#ma156abc8f2" x="242.27239" y="69.088142" style="fill: #8c564b; fill-opacity: 0.7; stroke: #8c564b; stroke-opacity: 0.7"/>
     <use xlink:href="#ma156abc8f2" x="253.731726" y="88.614966" style="fill: #8c564b; fill-opacity: 0.7; stroke: #8c564b; stroke-opacity: 0.7"/>
     <use xlink:href="#ma156abc8f2" x="242.353913" y="93.583864" style="fill: #8c564b; fill-opacity: 0.7; stroke: #8c564b; stroke-opacity: 0.7"/>
     <use xlink:href="#ma156abc8f2" x="248.63381" y="87.006453" style="fill: #8c564b; fill-opacity: 0.7; stroke: #8c564b; stroke-opacity: 0.7"/>
     <use xlink:href="#ma156abc8f2" x="235.925915" y="93.482222" style="fill: #8c564b; fill-opacity: 0.7; stroke: #8c564b; stroke-opacity: 0.7"/>
     <use xlink:href="#ma156abc8f2" x="232.820523" y="73.426474" style="fill: #8c564b; fill-opacity: 0.7; stroke: #8c564b; stroke-opacity: 0.7"/>
     <use xlink:href="#ma156abc8f2" x="234.630793" y="77.866811" style="fill: #8c564b; fill-opacity: 0.7; stroke: #8c564b; stroke-opacity: 0.7"/>
    </g>
   </g>
   <g id="PathCollection_12">
    <defs>
     <path id="m81f5dda3eb" d="M 0 2.236068 
C 0.593012 2.236068 1.161816 2.000462 1.581139 1.581139 
C 2.000462 1.161816 2.236068 0.593012 2.236068 0 
C 2.236068 -0.593012 2.000462 -1.161816 1.581139 -1.581139 
C 1.161816 -2.000462 0.593012 -2.236068 0 -2.236068 
C -0.593012 -2.236068 -1.161816 -2.000462 -1.581139 -1.581139 
C -2.000462 -1.161816 -2.236068 -0.593012 -2.236068 0 
C -2.236068 0.593012 -2.000462 1.161816 -1.581139 1.581139 
C -1.161816 2.000462 -0.593012 2.236068 0 2.236068 
z
" style="stroke: #c49c94; stroke-opacity: 0.7"/>
    </defs>
    <g clip-path="url(#pc1cadb9c77)">
     <use xlink:href="#m81f5dda3eb" x="361.03462" y="62.56312" style="fill: #c49c94; fill-opacity: 0.7; stroke: #c49c94; stroke-opacity: 0.7"/>
     <use xlink:href="#m81f5dda3eb" x="353.890098" y="62.028113" style="fill: #c49c94; fill-opacity: 0.7; stroke: #c49c94; stroke-opacity: 0.7"/>
     <use xlink:href="#m81f5dda3eb" x="359.544788" y="56.204225" style="fill: #c49c94; fill-opacity: 0.7; stroke: #c49c94; stroke-opacity: 0.7"/>
     <use xlink:href="#m81f5dda3eb" x="400.927413" y="57.255728" style="fill: #c49c94; fill-opacity: 0.7; stroke: #c49c94; stroke-opacity: 0.7"/>
     <use xlink:href="#m81f5dda3eb" x="368.484691" y="50.378346" style="fill: #c49c94; fill-opacity: 0.7; stroke: #c49c94; stroke-opacity: 0.7"/>
     <use xlink:href="#m81f5dda3eb" x="385.14773" y="66.732418" style="fill: #c49c94; fill-opacity: 0.7; stroke: #c49c94; stroke-opacity: 0.7"/>
     <use xlink:href="#m81f5dda3eb" x="402.545455" y="59.724004" style="fill: #c49c94; fill-opacity: 0.7; stroke: #c49c94; stroke-opacity: 0.7"/>
     <use xlink:href="#m81f5dda3eb" x="382.91021" y="81.888147" style="fill: #c49c94; fill-opacity: 0.7; stroke: #c49c94; stroke-opacity: 0.7"/>
     <use xlink:href="#m81f5dda3eb" x="387.235358" y="66.0033" style="fill: #c49c94; fill-opacity: 0.7; stroke: #c49c94; stroke-opacity: 0.7"/>
     <use xlink:href="#m81f5dda3eb" x="345.628799" y="41.530909" style="fill: #c49c94; fill-opacity: 0.7; stroke: #c49c94; stroke-opacity: 0.7"/>
    </g>
   </g>
   <g id="PathCollection_13">
    <defs>
     <path id="m81247d3785" d="M 0 2.236068 
C 0.593012 2.236068 1.161816 2.000462 1.581139 1.581139 
C 2.000462 1.161816 2.236068 0.593012 2.236068 0 
C 2.236068 -0.593012 2.000462 -1.161816 1.581139 -1.581139 
C 1.161816 -2.000462 0.593012 -2.236068 0 -2.236068 
C -0.593012 -2.236068 -1.161816 -2.000462 -1.581139 -1.581139 
C -2.000462 -1.161816 -2.236068 -0.593012 -2.236068 0 
C -2.236068 0.593012 -2.000462 1.161816 -1.581139 1.581139 
C -1.161816 2.000462 -0.593012 2.236068 0 2.236068 
z
" style="stroke: #e377c2; stroke-opacity: 0.7"/>
    </defs>
    <g clip-path="url(#pc1cadb9c77)">
     <use xlink:href="#m81247d3785" x="95.872024" y="102.86292" style="fill: #e377c2; fill-opacity: 0.7; stroke: #e377c2; stroke-opacity: 0.7"/>
     <use xlink:href="#m81247d3785" x="80.325877" y="94.423243" style="fill: #e377c2; fill-opacity: 0.7; stroke: #e377c2; stroke-opacity: 0.7"/>
     <use xlink:href="#m81247d3785" x="115.562958" y="105.520961" style="fill: #e377c2; fill-opacity: 0.7; stroke: #e377c2; stroke-opacity: 0.7"/>
     <use xlink:href="#m81247d3785" x="104.778889" y="92.208016" style="fill: #e377c2; fill-opacity: 0.7; stroke: #e377c2; stroke-opacity: 0.7"/>
     <use xlink:href="#m81247d3785" x="94.054786" y="77.261425" style="fill: #e377c2; fill-opacity: 0.7; stroke: #e377c2; stroke-opacity: 0.7"/>
     <use xlink:href="#m81247d3785" x="94.003304" y="97.056887" style="fill: #e377c2; fill-opacity: 0.7; stroke: #e377c2; stroke-opacity: 0.7"/>
     <use xlink:href="#m81247d3785" x="108.445503" y="87.834068" style="fill: #e377c2; fill-opacity: 0.7; stroke: #e377c2; stroke-opacity: 0.7"/>
     <use xlink:href="#m81247d3785" x="101.311725" y="110.034668" style="fill: #e377c2; fill-opacity: 0.7; stroke: #e377c2; stroke-opacity: 0.7"/>
     <use xlink:href="#m81247d3785" x="87.767799" y="83.824386" style="fill: #e377c2; fill-opacity: 0.7; stroke: #e377c2; stroke-opacity: 0.7"/>
     <use xlink:href="#m81247d3785" x="128.725426" y="102.659455" style="fill: #e377c2; fill-opacity: 0.7; stroke: #e377c2; stroke-opacity: 0.7"/>
    </g>
   </g>
   <g id="matplotlib.axis_1"/>
   <g id="matplotlib.axis_2"/>
   <g id="patch_3">
    <path d="M 10.8 349.2 
L 10.8 26.88 
" style="fill: none; stroke: #000000; stroke-width: 0.8; stroke-linejoin: miter; stroke-linecap: square"/>
   </g>
   <g id="patch_4">
    <path d="M 421.2 349.2 
L 421.2 26.88 
" style="fill: none; stroke: #000000; stroke-width: 0.8; stroke-linejoin: miter; stroke-linecap: square"/>
   </g>
   <g id="patch_5">
    <path d="M 10.8 349.2 
L 421.2 349.2 
" style="fill: none; stroke: #000000; stroke-width: 0.8; stroke-linejoin: miter; stroke-linecap: square"/>
   </g>
   <g id="patch_6">
    <path d="M 10.8 26.88 
L 421.2 26.88 
" style="fill: none; stroke: #000000; stroke-width: 0.8; stroke-linejoin: miter; stroke-linecap: square"/>
   </g>
   <g id="text_1">
    <!-- t-SNE: ti_v1_up -->
    <g transform="translate(170.466563 20.88) scale(0.12 -0.12)">
     <defs>
      <path id="DejaVuSans-74" d="M 1172 4494 
L 1172 3500 
L 2356 3500 
L 2356 3053 
L 1172 3053 
L 1172 1153 
Q 1172 725 1289 603 
Q 1406 481 1766 481 
L 2356 481 
L 2356 0 
L 1766 0 
Q 1100 0 847 248 
Q 594 497 594 1153 
L 594 3053 
L 172 3053 
L 172 3500 
L 594 3500 
L 594 4494 
L 1172 4494 
z
" transform="scale(0.015625)"/>
      <path id="DejaVuSans-2d" d="M 313 2009 
L 1997 2009 
L 1997 1497 
L 313 1497 
L 313 2009 
z
" transform="scale(0.015625)"/>
      <path id="DejaVuSans-53" d="M 3425 4513 
L 3425 3897 
Q 3066 4069 2747 4153 
Q 2428 4238 2131 4238 
Q 1616 4238 1336 4038 
Q 1056 3838 1056 3469 
Q 1056 3159 1242 3001 
Q 1428 2844 1947 2747 
L 2328 2669 
Q 3034 2534 3370 2195 
Q 3706 1856 3706 1288 
Q 3706 609 3251 259 
Q 2797 -91 1919 -91 
Q 1588 -91 1214 -16 
Q 841 59 441 206 
L 441 856 
Q 825 641 1194 531 
Q 1563 422 1919 422 
Q 2459 422 2753 634 
Q 3047 847 3047 1241 
Q 3047 1584 2836 1778 
Q 2625 1972 2144 2069 
L 1759 2144 
Q 1053 2284 737 2584 
Q 422 2884 422 3419 
Q 422 4038 858 4394 
Q 1294 4750 2059 4750 
Q 2388 4750 2728 4690 
Q 3069 4631 3425 4513 
z
" transform="scale(0.015625)"/>
      <path id="DejaVuSans-4e" d="M 628 4666 
L 1478 4666 
L 3547 763 
L 3547 4666 
L 4159 4666 
L 4159 0 
L 3309 0 
L 1241 3903 
L 1241 0 
L 628 0 
L 628 4666 
z
" transform="scale(0.015625)"/>
      <path id="DejaVuSans-45" d="M 628 4666 
L 3578 4666 
L 3578 4134 
L 1259 4134 
L 1259 2753 
L 3481 2753 
L 3481 2222 
L 1259 2222 
L 1259 531 
L 3634 531 
L 3634 0 
L 628 0 
L 628 4666 
z
" transform="scale(0.015625)"/>
      <path id="DejaVuSans-3a" d="M 750 794 
L 1409 794 
L 1409 0 
L 750 0 
L 750 794 
z
M 750 3309 
L 1409 3309 
L 1409 2516 
L 750 2516 
L 750 3309 
z
" transform="scale(0.015625)"/>
      <path id="DejaVuSans-20" transform="scale(0.015625)"/>
      <path id="DejaVuSans-69" d="M 603 3500 
L 1178 3500 
L 1178 0 
L 603 0 
L 603 3500 
z
M 603 4863 
L 1178 4863 
L 1178 4134 
L 603 4134 
L 603 4863 
z
" transform="scale(0.015625)"/>
      <path id="DejaVuSans-5f" d="M 3263 -1063 
L 3263 -1509 
L -63 -1509 
L -63 -1063 
L 3263 -1063 
z
" transform="scale(0.015625)"/>
      <path id="DejaVuSans-76" d="M 191 3500 
L 800 3500 
L 1894 563 
L 2988 3500 
L 3597 3500 
L 2284 0 
L 1503 0 
L 191 3500 
z
" transform="scale(0.015625)"/>
      <path id="DejaVuSans-31" d="M 794 531 
L 1825 531 
L 1825 4091 
L 703 3866 
L 703 4441 
L 1819 4666 
L 2450 4666 
L 2450 531 
L 3481 531 
L 3481 0 
L 794 0 
L 794 531 
z
" transform="scale(0.015625)"/>
      <path id="DejaVuSans-75" d="M 544 1381 
L 544 3500 
L 1119 3500 
L 1119 1403 
Q 1119 906 1312 657 
Q 1506 409 1894 409 
Q 2359 409 2629 706 
Q 2900 1003 2900 1516 
L 2900 3500 
L 3475 3500 
L 3475 0 
L 2900 0 
L 2900 538 
Q 2691 219 2414 64 
Q 2138 -91 1772 -91 
Q 1169 -91 856 284 
Q 544 659 544 1381 
z
M 1991 3584 
L 1991 3584 
z
" transform="scale(0.015625)"/>
      <path id="DejaVuSans-70" d="M 1159 525 
L 1159 -1331 
L 581 -1331 
L 581 3500 
L 1159 3500 
L 1159 2969 
Q 1341 3281 1617 3432 
Q 1894 3584 2278 3584 
Q 2916 3584 3314 3078 
Q 3713 2572 3713 1747 
Q 3713 922 3314 415 
Q 2916 -91 2278 -91 
Q 1894 -91 1617 61 
Q 1341 213 1159 525 
z
M 3116 1747 
Q 3116 2381 2855 2742 
Q 2594 3103 2138 3103 
Q 1681 3103 1420 2742 
Q 1159 2381 1159 1747 
Q 1159 1113 1420 752 
Q 1681 391 2138 391 
Q 2594 391 2855 752 
Q 3116 1113 3116 1747 
z
" transform="scale(0.015625)"/>
     </defs>
     <use xlink:href="#DejaVuSans-74"/>
     <use xlink:href="#DejaVuSans-2d" transform="translate(39.208984 0)"/>
     <use xlink:href="#DejaVuSans-53" transform="translate(75.292969 0)"/>
     <use xlink:href="#DejaVuSans-4e" transform="translate(138.769531 0)"/>
     <use xlink:href="#DejaVuSans-45" transform="translate(213.574219 0)"/>
     <use xlink:href="#DejaVuSans-3a" transform="translate(276.757812 0)"/>
     <use xlink:href="#DejaVuSans-20" transform="translate(310.449219 0)"/>
     <use xlink:href="#DejaVuSans-74" transform="translate(342.236328 0)"/>
     <use xlink:href="#DejaVuSans-69" transform="translate(381.445312 0)"/>
     <use xlink:href="#DejaVuSans-5f" transform="translate(409.228516 0)"/>
     <use xlink:href="#DejaVuSans-76" transform="translate(459.228516 0)"/>
     <use xlink:href="#DejaVuSans-31" transform="translate(518.408203 0)"/>
     <use xlink:href="#DejaVuSans-5f" transform="translate(582.03125 0)"/>
     <use xlink:href="#DejaVuSans-75" transform="translate(632.03125 0)"/>
     <use xlink:href="#DejaVuSans-70" transform="translate(695.410156 0)"/>
    </g>
   </g>
   <g id="legend_1">
    <g id="patch_7">
     <path d="M 15 146.169375 
L 59.526563 146.169375 
Q 60.726563 146.169375 60.726563 144.969375 
L 60.726563 31.08 
Q 60.726563 29.88 59.526563 29.88 
L 15 29.88 
Q 13.8 29.88 13.8 31.08 
L 13.8 144.969375 
Q 13.8 146.169375 15 146.169375 
z
" style="fill: #ffffff; opacity: 0.8; stroke: #cccccc; stroke-linejoin: miter"/>
    </g>
    <g id="PathCollection_14">
     <g>
      <use xlink:href="#m59dbb8ebec" x="22.2" y="35.264063" style="fill: #1f77b4; fill-opacity: 0.7; stroke: #1f77b4; stroke-opacity: 0.7"/>
     </g>
    </g>
    <g id="text_2">
     <!-- Class 0 -->
     <g transform="translate(33 36.839063) scale(0.06 -0.06)">
      <defs>
       <path id="DejaVuSans-43" d="M 4122 4306 
L 4122 3641 
Q 3803 3938 3442 4084 
Q 3081 4231 2675 4231 
Q 1875 4231 1450 3742 
Q 1025 3253 1025 2328 
Q 1025 1406 1450 917 
Q 1875 428 2675 428 
Q 3081 428 3442 575 
Q 3803 722 4122 1019 
L 4122 359 
Q 3791 134 3420 21 
Q 3050 -91 2638 -91 
Q 1578 -91 968 557 
Q 359 1206 359 2328 
Q 359 3453 968 4101 
Q 1578 4750 2638 4750 
Q 3056 4750 3426 4639 
Q 3797 4528 4122 4306 
z
" transform="scale(0.015625)"/>
       <path id="DejaVuSans-6c" d="M 603 4863 
L 1178 4863 
L 1178 0 
L 603 0 
L 603 4863 
z
" transform="scale(0.015625)"/>
       <path id="DejaVuSans-61" d="M 2194 1759 
Q 1497 1759 1228 1600 
Q 959 1441 959 1056 
Q 959 750 1161 570 
Q 1363 391 1709 391 
Q 2188 391 2477 730 
Q 2766 1069 2766 1631 
L 2766 1759 
L 2194 1759 
z
M 3341 1997 
L 3341 0 
L 2766 0 
L 2766 531 
Q 2569 213 2275 61 
Q 1981 -91 1556 -91 
Q 1019 -91 701 211 
Q 384 513 384 1019 
Q 384 1609 779 1909 
Q 1175 2209 1959 2209 
L 2766 2209 
L 2766 2266 
Q 2766 2663 2505 2880 
Q 2244 3097 1772 3097 
Q 1472 3097 1187 3025 
Q 903 2953 641 2809 
L 641 3341 
Q 956 3463 1253 3523 
Q 1550 3584 1831 3584 
Q 2591 3584 2966 3190 
Q 3341 2797 3341 1997 
z
" transform="scale(0.015625)"/>
       <path id="DejaVuSans-73" d="M 2834 3397 
L 2834 2853 
Q 2591 2978 2328 3040 
Q 2066 3103 1784 3103 
Q 1356 3103 1142 2972 
Q 928 2841 928 2578 
Q 928 2378 1081 2264 
Q 1234 2150 1697 2047 
L 1894 2003 
Q 2506 1872 2764 1633 
Q 3022 1394 3022 966 
Q 3022 478 2636 193 
Q 2250 -91 1575 -91 
Q 1294 -91 989 -36 
Q 684 19 347 128 
L 347 722 
Q 666 556 975 473 
Q 1284 391 1588 391 
Q 1994 391 2212 530 
Q 2431 669 2431 922 
Q 2431 1156 2273 1281 
Q 2116 1406 1581 1522 
L 1381 1569 
Q 847 1681 609 1914 
Q 372 2147 372 2553 
Q 372 3047 722 3315 
Q 1072 3584 1716 3584 
Q 2034 3584 2315 3537 
Q 2597 3491 2834 3397 
z
" transform="scale(0.015625)"/>
       <path id="DejaVuSans-30" d="M 2034 4250 
Q 1547 4250 1301 3770 
Q 1056 3291 1056 2328 
Q 1056 1369 1301 889 
Q 1547 409 2034 409 
Q 2525 409 2770 889 
Q 3016 1369 3016 2328 
Q 3016 3291 2770 3770 
Q 2525 4250 2034 4250 
z
M 2034 4750 
Q 2819 4750 3233 4129 
Q 3647 3509 3647 2328 
Q 3647 1150 3233 529 
Q 2819 -91 2034 -91 
Q 1250 -91 836 529 
Q 422 1150 422 2328 
Q 422 3509 836 4129 
Q 1250 4750 2034 4750 
z
" transform="scale(0.015625)"/>
      </defs>
      <use xlink:href="#DejaVuSans-43"/>
      <use xlink:href="#DejaVuSans-6c" transform="translate(69.824219 0)"/>
      <use xlink:href="#DejaVuSans-61" transform="translate(97.607422 0)"/>
      <use xlink:href="#DejaVuSans-73" transform="translate(158.886719 0)"/>
      <use xlink:href="#DejaVuSans-73" transform="translate(210.986328 0)"/>
      <use xlink:href="#DejaVuSans-20" transform="translate(263.085938 0)"/>
      <use xlink:href="#DejaVuSans-30" transform="translate(294.873047 0)"/>
     </g>
    </g>
    <g id="PathCollection_15">
     <g>
      <use xlink:href="#me5e3f0b3a9" x="22.2" y="44.070937" style="fill: #aec7e8; fill-opacity: 0.7; stroke: #aec7e8; stroke-opacity: 0.7"/>
     </g>
    </g>
    <g id="text_3">
     <!-- Class 1 -->
     <g transform="translate(33 45.645938) scale(0.06 -0.06)">
      <use xlink:href="#DejaVuSans-43"/>
      <use xlink:href="#DejaVuSans-6c" transform="translate(69.824219 0)"/>
      <use xlink:href="#DejaVuSans-61" transform="translate(97.607422 0)"/>
      <use xlink:href="#DejaVuSans-73" transform="translate(158.886719 0)"/>
      <use xlink:href="#DejaVuSans-73" transform="translate(210.986328 0)"/>
      <use xlink:href="#DejaVuSans-20" transform="translate(263.085938 0)"/>
      <use xlink:href="#DejaVuSans-31" transform="translate(294.873047 0)"/>
     </g>
    </g>
    <g id="PathCollection_16">
     <g>
      <use xlink:href="#m3eca6a6ab0" x="22.2" y="52.877812" style="fill: #ff7f0e; fill-opacity: 0.7; stroke: #ff7f0e; stroke-opacity: 0.7"/>
     </g>
    </g>
    <g id="text_4">
     <!-- Class 2 -->
     <g transform="translate(33 54.452812) scale(0.06 -0.06)">
      <defs>
       <path id="DejaVuSans-32" d="M 1228 531 
L 3431 531 
L 3431 0 
L 469 0 
L 469 531 
Q 828 903 1448 1529 
Q 2069 2156 2228 2338 
Q 2531 2678 2651 2914 
Q 2772 3150 2772 3378 
Q 2772 3750 2511 3984 
Q 2250 4219 1831 4219 
Q 1534 4219 1204 4116 
Q 875 4013 500 3803 
L 500 4441 
Q 881 4594 1212 4672 
Q 1544 4750 1819 4750 
Q 2544 4750 2975 4387 
Q 3406 4025 3406 3419 
Q 3406 3131 3298 2873 
Q 3191 2616 2906 2266 
Q 2828 2175 2409 1742 
Q 1991 1309 1228 531 
z
" transform="scale(0.015625)"/>
      </defs>
      <use xlink:href="#DejaVuSans-43"/>
      <use xlink:href="#DejaVuSans-6c" transform="translate(69.824219 0)"/>
      <use xlink:href="#DejaVuSans-61" transform="translate(97.607422 0)"/>
      <use xlink:href="#DejaVuSans-73" transform="translate(158.886719 0)"/>
      <use xlink:href="#DejaVuSans-73" transform="translate(210.986328 0)"/>
      <use xlink:href="#DejaVuSans-20" transform="translate(263.085938 0)"/>
      <use xlink:href="#DejaVuSans-32" transform="translate(294.873047 0)"/>
     </g>
    </g>
    <g id="PathCollection_17">
     <g>
      <use xlink:href="#mdf1c1fcf1c" x="22.2" y="61.684688" style="fill: #ffbb78; fill-opacity: 0.7; stroke: #ffbb78; stroke-opacity: 0.7"/>
     </g>
    </g>
    <g id="text_5">
     <!-- Class 3 -->
     <g transform="translate(33 63.259688) scale(0.06 -0.06)">
      <defs>
       <path id="DejaVuSans-33" d="M 2597 2516 
Q 3050 2419 3304 2112 
Q 3559 1806 3559 1356 
Q 3559 666 3084 287 
Q 2609 -91 1734 -91 
Q 1441 -91 1130 -33 
Q 819 25 488 141 
L 488 750 
Q 750 597 1062 519 
Q 1375 441 1716 441 
Q 2309 441 2620 675 
Q 2931 909 2931 1356 
Q 2931 1769 2642 2001 
Q 2353 2234 1838 2234 
L 1294 2234 
L 1294 2753 
L 1863 2753 
Q 2328 2753 2575 2939 
Q 2822 3125 2822 3475 
Q 2822 3834 2567 4026 
Q 2313 4219 1838 4219 
Q 1578 4219 1281 4162 
Q 984 4106 628 3988 
L 628 4550 
Q 988 4650 1302 4700 
Q 1616 4750 1894 4750 
Q 2613 4750 3031 4423 
Q 3450 4097 3450 3541 
Q 3450 3153 3228 2886 
Q 3006 2619 2597 2516 
z
" transform="scale(0.015625)"/>
      </defs>
      <use xlink:href="#DejaVuSans-43"/>
      <use xlink:href="#DejaVuSans-6c" transform="translate(69.824219 0)"/>
      <use xlink:href="#DejaVuSans-61" transform="translate(97.607422 0)"/>
      <use xlink:href="#DejaVuSans-73" transform="translate(158.886719 0)"/>
      <use xlink:href="#DejaVuSans-73" transform="translate(210.986328 0)"/>
      <use xlink:href="#DejaVuSans-20" transform="translate(263.085938 0)"/>
      <use xlink:href="#DejaVuSans-33" transform="translate(294.873047 0)"/>
     </g>
    </g>
    <g id="PathCollection_18">
     <g>
      <use xlink:href="#mb6f0d5b9ea" x="22.2" y="70.491563" style="fill: #2ca02c; fill-opacity: 0.7; stroke: #2ca02c; stroke-opacity: 0.7"/>
     </g>
    </g>
    <g id="text_6">
     <!-- Class 4 -->
     <g transform="translate(33 72.066563) scale(0.06 -0.06)">
      <defs>
       <path id="DejaVuSans-34" d="M 2419 4116 
L 825 1625 
L 2419 1625 
L 2419 4116 
z
M 2253 4666 
L 3047 4666 
L 3047 1625 
L 3713 1625 
L 3713 1100 
L 3047 1100 
L 3047 0 
L 2419 0 
L 2419 1100 
L 313 1100 
L 313 1709 
L 2253 4666 
z
" transform="scale(0.015625)"/>
      </defs>
      <use xlink:href="#DejaVuSans-43"/>
      <use xlink:href="#DejaVuSans-6c" transform="translate(69.824219 0)"/>
      <use xlink:href="#DejaVuSans-61" transform="translate(97.607422 0)"/>
      <use xlink:href="#DejaVuSans-73" transform="translate(158.886719 0)"/>
      <use xlink:href="#DejaVuSans-73" transform="translate(210.986328 0)"/>
      <use xlink:href="#DejaVuSans-20" transform="translate(263.085938 0)"/>
      <use xlink:href="#DejaVuSans-34" transform="translate(294.873047 0)"/>
     </g>
    </g>
    <g id="PathCollection_19">
     <g>
      <use xlink:href="#ma654eedb73" x="22.2" y="79.298438" style="fill: #98df8a; fill-opacity: 0.7; stroke: #98df8a; stroke-opacity: 0.7"/>
     </g>
    </g>
    <g id="text_7">
     <!-- Class 5 -->
     <g transform="translate(33 80.873438) scale(0.06 -0.06)">
      <defs>
       <path id="DejaVuSans-35" d="M 691 4666 
L 3169 4666 
L 3169 4134 
L 1269 4134 
L 1269 2991 
Q 1406 3038 1543 3061 
Q 1681 3084 1819 3084 
Q 2600 3084 3056 2656 
Q 3513 2228 3513 1497 
Q 3513 744 3044 326 
Q 2575 -91 1722 -91 
Q 1428 -91 1123 -41 
Q 819 9 494 109 
L 494 744 
Q 775 591 1075 516 
Q 1375 441 1709 441 
Q 2250 441 2565 725 
Q 2881 1009 2881 1497 
Q 2881 1984 2565 2268 
Q 2250 2553 1709 2553 
Q 1456 2553 1204 2497 
Q 953 2441 691 2322 
L 691 4666 
z
" transform="scale(0.015625)"/>
      </defs>
      <use xlink:href="#DejaVuSans-43"/>
      <use xlink:href="#DejaVuSans-6c" transform="translate(69.824219 0)"/>
      <use xlink:href="#DejaVuSans-61" transform="translate(97.607422 0)"/>
      <use xlink:href="#DejaVuSans-73" transform="translate(158.886719 0)"/>
      <use xlink:href="#DejaVuSans-73" transform="translate(210.986328 0)"/>
      <use xlink:href="#DejaVuSans-20" transform="translate(263.085938 0)"/>
      <use xlink:href="#DejaVuSans-35" transform="translate(294.873047 0)"/>
     </g>
    </g>
    <g id="PathCollection_20">
     <g>
      <use xlink:href="#mfc71c4cfa7" x="22.2" y="88.105313" style="fill: #d62728; fill-opacity: 0.7; stroke: #d62728; stroke-opacity: 0.7"/>
     </g>
    </g>
    <g id="text_8">
     <!-- Class 6 -->
     <g transform="translate(33 89.680313) scale(0.06 -0.06)">
      <defs>
       <path id="DejaVuSans-36" d="M 2113 2584 
Q 1688 2584 1439 2293 
Q 1191 2003 1191 1497 
Q 1191 994 1439 701 
Q 1688 409 2113 409 
Q 2538 409 2786 701 
Q 3034 994 3034 1497 
Q 3034 2003 2786 2293 
Q 2538 2584 2113 2584 
z
M 3366 4563 
L 3366 3988 
Q 3128 4100 2886 4159 
Q 2644 4219 2406 4219 
Q 1781 4219 1451 3797 
Q 1122 3375 1075 2522 
Q 1259 2794 1537 2939 
Q 1816 3084 2150 3084 
Q 2853 3084 3261 2657 
Q 3669 2231 3669 1497 
Q 3669 778 3244 343 
Q 2819 -91 2113 -91 
Q 1303 -91 875 529 
Q 447 1150 447 2328 
Q 447 3434 972 4092 
Q 1497 4750 2381 4750 
Q 2619 4750 2861 4703 
Q 3103 4656 3366 4563 
z
" transform="scale(0.015625)"/>
      </defs>
      <use xlink:href="#DejaVuSans-43"/>
      <use xlink:href="#DejaVuSans-6c" transform="translate(69.824219 0)"/>
      <use xlink:href="#DejaVuSans-61" transform="translate(97.607422 0)"/>
      <use xlink:href="#DejaVuSans-73" transform="translate(158.886719 0)"/>
      <use xlink:href="#DejaVuSans-73" transform="translate(210.986328 0)"/>
      <use xlink:href="#DejaVuSans-20" transform="translate(263.085938 0)"/>
      <use xlink:href="#DejaVuSans-36" transform="translate(294.873047 0)"/>
     </g>
    </g>
    <g id="PathCollection_21">
     <g>
      <use xlink:href="#m118f1809d0" x="22.2" y="96.912188" style="fill: #ff9896; fill-opacity: 0.7; stroke: #ff9896; stroke-opacity: 0.7"/>
     </g>
    </g>
    <g id="text_9">
     <!-- Class 7 -->
     <g transform="translate(33 98.487188) scale(0.06 -0.06)">
      <defs>
       <path id="DejaVuSans-37" d="M 525 4666 
L 3525 4666 
L 3525 4397 
L 1831 0 
L 1172 0 
L 2766 4134 
L 525 4134 
L 525 4666 
z
" transform="scale(0.015625)"/>
      </defs>
      <use xlink:href="#DejaVuSans-43"/>
      <use xlink:href="#DejaVuSans-6c" transform="translate(69.824219 0)"/>
      <use xlink:href="#DejaVuSans-61" transform="translate(97.607422 0)"/>
      <use xlink:href="#DejaVuSans-73" transform="translate(158.886719 0)"/>
      <use xlink:href="#DejaVuSans-73" transform="translate(210.986328 0)"/>
      <use xlink:href="#DejaVuSans-20" transform="translate(263.085938 0)"/>
      <use xlink:href="#DejaVuSans-37" transform="translate(294.873047 0)"/>
     </g>
    </g>
    <g id="PathCollection_22">
     <g>
      <use xlink:href="#m9568c58bcf" x="22.2" y="105.719062" style="fill: #9467bd; fill-opacity: 0.7; stroke: #9467bd; stroke-opacity: 0.7"/>
     </g>
    </g>
    <g id="text_10">
     <!-- Class 8 -->
     <g transform="translate(33 107.294062) scale(0.06 -0.06)">
      <defs>
       <path id="DejaVuSans-38" d="M 2034 2216 
Q 1584 2216 1326 1975 
Q 1069 1734 1069 1313 
Q 1069 891 1326 650 
Q 1584 409 2034 409 
Q 2484 409 2743 651 
Q 3003 894 3003 1313 
Q 3003 1734 2745 1975 
Q 2488 2216 2034 2216 
z
M 1403 2484 
Q 997 2584 770 2862 
Q 544 3141 544 3541 
Q 544 4100 942 4425 
Q 1341 4750 2034 4750 
Q 2731 4750 3128 4425 
Q 3525 4100 3525 3541 
Q 3525 3141 3298 2862 
Q 3072 2584 2669 2484 
Q 3125 2378 3379 2068 
Q 3634 1759 3634 1313 
Q 3634 634 3220 271 
Q 2806 -91 2034 -91 
Q 1263 -91 848 271 
Q 434 634 434 1313 
Q 434 1759 690 2068 
Q 947 2378 1403 2484 
z
M 1172 3481 
Q 1172 3119 1398 2916 
Q 1625 2713 2034 2713 
Q 2441 2713 2670 2916 
Q 2900 3119 2900 3481 
Q 2900 3844 2670 4047 
Q 2441 4250 2034 4250 
Q 1625 4250 1398 4047 
Q 1172 3844 1172 3481 
z
" transform="scale(0.015625)"/>
      </defs>
      <use xlink:href="#DejaVuSans-43"/>
      <use xlink:href="#DejaVuSans-6c" transform="translate(69.824219 0)"/>
      <use xlink:href="#DejaVuSans-61" transform="translate(97.607422 0)"/>
      <use xlink:href="#DejaVuSans-73" transform="translate(158.886719 0)"/>
      <use xlink:href="#DejaVuSans-73" transform="translate(210.986328 0)"/>
      <use xlink:href="#DejaVuSans-20" transform="translate(263.085938 0)"/>
      <use xlink:href="#DejaVuSans-38" transform="translate(294.873047 0)"/>
     </g>
    </g>
    <g id="PathCollection_23">
     <g>
      <use xlink:href="#me671a20d5a" x="22.2" y="114.525938" style="fill: #c5b0d5; fill-opacity: 0.7; stroke: #c5b0d5; stroke-opacity: 0.7"/>
     </g>
    </g>
    <g id="text_11">
     <!-- Class 9 -->
     <g transform="translate(33 116.100938) scale(0.06 -0.06)">
      <defs>
       <path id="DejaVuSans-39" d="M 703 97 
L 703 672 
Q 941 559 1184 500 
Q 1428 441 1663 441 
Q 2288 441 2617 861 
Q 2947 1281 2994 2138 
Q 2813 1869 2534 1725 
Q 2256 1581 1919 1581 
Q 1219 1581 811 2004 
Q 403 2428 403 3163 
Q 403 3881 828 4315 
Q 1253 4750 1959 4750 
Q 2769 4750 3195 4129 
Q 3622 3509 3622 2328 
Q 3622 1225 3098 567 
Q 2575 -91 1691 -91 
Q 1453 -91 1209 -44 
Q 966 3 703 97 
z
M 1959 2075 
Q 2384 2075 2632 2365 
Q 2881 2656 2881 3163 
Q 2881 3666 2632 3958 
Q 2384 4250 1959 4250 
Q 1534 4250 1286 3958 
Q 1038 3666 1038 3163 
Q 1038 2656 1286 2365 
Q 1534 2075 1959 2075 
z
" transform="scale(0.015625)"/>
      </defs>
      <use xlink:href="#DejaVuSans-43"/>
      <use xlink:href="#DejaVuSans-6c" transform="translate(69.824219 0)"/>
      <use xlink:href="#DejaVuSans-61" transform="translate(97.607422 0)"/>
      <use xlink:href="#DejaVuSans-73" transform="translate(158.886719 0)"/>
      <use xlink:href="#DejaVuSans-73" transform="translate(210.986328 0)"/>
      <use xlink:href="#DejaVuSans-20" transform="translate(263.085938 0)"/>
      <use xlink:href="#DejaVuSans-39" transform="translate(294.873047 0)"/>
     </g>
    </g>
    <g id="PathCollection_24">
     <g>
      <use xlink:href="#ma156abc8f2" x="22.2" y="123.332813" style="fill: #8c564b; fill-opacity: 0.7; stroke: #8c564b; stroke-opacity: 0.7"/>
     </g>
    </g>
    <g id="text_12">
     <!-- Class 10 -->
     <g transform="translate(33 124.907813) scale(0.06 -0.06)">
      <use xlink:href="#DejaVuSans-43"/>
      <use xlink:href="#DejaVuSans-6c" transform="translate(69.824219 0)"/>
      <use xlink:href="#DejaVuSans-61" transform="translate(97.607422 0)"/>
      <use xlink:href="#DejaVuSans-73" transform="translate(158.886719 0)"/>
      <use xlink:href="#DejaVuSans-73" transform="translate(210.986328 0)"/>
      <use xlink:href="#DejaVuSans-20" transform="translate(263.085938 0)"/>
      <use xlink:href="#DejaVuSans-31" transform="translate(294.873047 0)"/>
      <use xlink:href="#DejaVuSans-30" transform="translate(358.496094 0)"/>
     </g>
    </g>
    <g id="PathCollection_25">
     <g>
      <use xlink:href="#m81f5dda3eb" x="22.2" y="132.139688" style="fill: #c49c94; fill-opacity: 0.7; stroke: #c49c94; stroke-opacity: 0.7"/>
     </g>
    </g>
    <g id="text_13">
     <!-- Class 11 -->
     <g transform="translate(33 133.714688) scale(0.06 -0.06)">
      <use xlink:href="#DejaVuSans-43"/>
      <use xlink:href="#DejaVuSans-6c" transform="translate(69.824219 0)"/>
      <use xlink:href="#DejaVuSans-61" transform="translate(97.607422 0)"/>
      <use xlink:href="#DejaVuSans-73" transform="translate(158.886719 0)"/>
      <use xlink:href="#DejaVuSans-73" transform="translate(210.986328 0)"/>
      <use xlink:href="#DejaVuSans-20" transform="translate(263.085938 0)"/>
      <use xlink:href="#DejaVuSans-31" transform="translate(294.873047 0)"/>
      <use xlink:href="#DejaVuSans-31" transform="translate(358.496094 0)"/>
     </g>
    </g>
    <g id="PathCollection_26">
     <g>
      <use xlink:href="#m81247d3785" x="22.2" y="140.946563" style="fill: #e377c2; fill-opacity: 0.7; stroke: #e377c2; stroke-opacity: 0.7"/>
     </g>
    </g>
    <g id="text_14">
     <!-- Class 12 -->
     <g transform="translate(33 142.521563) scale(0.06 -0.06)">
      <use xlink:href="#DejaVuSans-43"/>
      <use xlink:href="#DejaVuSans-6c" transform="translate(69.824219 0)"/>
      <use xlink:href="#DejaVuSans-61" transform="translate(97.607422 0)"/>
      <use xlink:href="#DejaVuSans-73" transform="translate(158.886719 0)"/>
      <use xlink:href="#DejaVuSans-73" transform="translate(210.986328 0)"/>
      <use xlink:href="#DejaVuSans-20" transform="translate(263.085938 0)"/>
      <use xlink:href="#DejaVuSans-31" transform="translate(294.873047 0)"/>
      <use xlink:href="#DejaVuSans-32" transform="translate(358.496094 0)"/>
     </g>
    </g>
   </g>
  </g>
 </g>
 <defs>
  <clipPath id="pc1cadb9c77">
   <rect x="10.8" y="26.88" width="410.4" height="322.32"/>
  </clipPath>
 </defs>
</svg>
