<?xml version="1.0" encoding="utf-8" standalone="no"?>
<!DOCTYPE svg PUBLIC "-//W3C//DTD SVG 1.1//EN"
  "http://www.w3.org/Graphics/SVG/1.1/DTD/svg11.dtd">
<svg xmlns:xlink="http://www.w3.org/1999/xlink" width="432pt" height="360pt" viewBox="0 0 432 360" xmlns="http://www.w3.org/2000/svg" version="1.1">
 <metadata>
  <rdf:RDF xmlns:dc="http://purl.org/dc/elements/1.1/" xmlns:cc="http://creativecommons.org/ns#" xmlns:rdf="http://www.w3.org/1999/02/22-rdf-syntax-ns#">
   <cc:Work>
    <dc:type rdf:resource="http://purl.org/dc/dcmitype/StillImage"/>
    <dc:date>2025-06-16T02:22:51.154976</dc:date>
    <dc:format>image/svg+xml</dc:format>
    <dc:creator>
     <cc:Agent>
      <dc:title>Matplotlib v3.10.1, https://matplotlib.org/</dc:title>
     </cc:Agent>
    </dc:creator>
   </cc:Work>
  </rdf:RDF>
 </metadata>
 <defs>
  <style type="text/css">*{stroke-linejoin: round; stroke-linecap: butt}</style>
 </defs>
 <g id="figure_1">
  <g id="patch_1">
   <path d="M 0 360 
L 432 360 
L 432 0 
L 0 0 
z
" style="fill: #ffffff"/>
  </g>
  <g id="axes_1">
   <g id="patch_2">
    <path d="M 10.8 349.2 
L 421.2 349.2 
L 421.2 28.32 
L 10.8 28.32 
z
" style="fill: #ffffff"/>
   </g>
   <g id="PathCollection_1">
    <defs>
     <path id="med19fbbf3a" d="M 0 2.236068 
C 0.593012 2.236068 1.161816 2.000462 1.581139 1.581139 
C 2.000462 1.161816 2.236068 0.593012 2.236068 0 
C 2.236068 -0.593012 2.000462 -1.161816 1.581139 -1.581139 
C 1.161816 -2.000462 0.593012 -2.236068 0 -2.236068 
C -0.593012 -2.236068 -1.161816 -2.000462 -1.581139 -1.581139 
C -2.000462 -1.161816 -2.236068 -0.593012 -2.236068 0 
C -2.236068 0.593012 -2.000462 1.161816 -1.581139 1.581139 
C -1.161816 2.000462 -0.593012 2.236068 0 2.236068 
z
" style="stroke: #1f77b4; stroke-opacity: 0.7"/>
    </defs>
    <g clip-path="url(#p66b2310da1)">
     <use xlink:href="#med19fbbf3a" x="109.710228" y="125.316158" style="fill: #1f77b4; fill-opacity: 0.7; stroke: #1f77b4; stroke-opacity: 0.7"/>
     <use xlink:href="#med19fbbf3a" x="127.503877" y="61.543722" style="fill: #1f77b4; fill-opacity: 0.7; stroke: #1f77b4; stroke-opacity: 0.7"/>
     <use xlink:href="#med19fbbf3a" x="116.381973" y="98.668415" style="fill: #1f77b4; fill-opacity: 0.7; stroke: #1f77b4; stroke-opacity: 0.7"/>
     <use xlink:href="#med19fbbf3a" x="95.118824" y="58.270777" style="fill: #1f77b4; fill-opacity: 0.7; stroke: #1f77b4; stroke-opacity: 0.7"/>
     <use xlink:href="#med19fbbf3a" x="115.614325" y="67.267088" style="fill: #1f77b4; fill-opacity: 0.7; stroke: #1f77b4; stroke-opacity: 0.7"/>
     <use xlink:href="#med19fbbf3a" x="77.275999" y="57.84869" style="fill: #1f77b4; fill-opacity: 0.7; stroke: #1f77b4; stroke-opacity: 0.7"/>
     <use xlink:href="#med19fbbf3a" x="95.783175" y="42.905455" style="fill: #1f77b4; fill-opacity: 0.7; stroke: #1f77b4; stroke-opacity: 0.7"/>
     <use xlink:href="#med19fbbf3a" x="80.942324" y="62.974075" style="fill: #1f77b4; fill-opacity: 0.7; stroke: #1f77b4; stroke-opacity: 0.7"/>
     <use xlink:href="#med19fbbf3a" x="116.414665" y="58.95323" style="fill: #1f77b4; fill-opacity: 0.7; stroke: #1f77b4; stroke-opacity: 0.7"/>
     <use xlink:href="#med19fbbf3a" x="78.629712" y="80.941201" style="fill: #1f77b4; fill-opacity: 0.7; stroke: #1f77b4; stroke-opacity: 0.7"/>
    </g>
   </g>
   <g id="PathCollection_2">
    <defs>
     <path id="md367f4991d" d="M 0 2.236068 
C 0.593012 2.236068 1.161816 2.000462 1.581139 1.581139 
C 2.000462 1.161816 2.236068 0.593012 2.236068 0 
C 2.236068 -0.593012 2.000462 -1.161816 1.581139 -1.581139 
C 1.161816 -2.000462 0.593012 -2.236068 0 -2.236068 
C -0.593012 -2.236068 -1.161816 -2.000462 -1.581139 -1.581139 
C -2.000462 -1.161816 -2.236068 -0.593012 -2.236068 0 
C -2.236068 0.593012 -2.000462 1.161816 -1.581139 1.581139 
C -1.161816 2.000462 -0.593012 2.236068 0 2.236068 
z
" style="stroke: #ff7f0e; stroke-opacity: 0.7"/>
    </defs>
    <g clip-path="url(#p66b2310da1)">
     <use xlink:href="#md367f4991d" x="177.414333" y="125.207272" style="fill: #ff7f0e; fill-opacity: 0.7; stroke: #ff7f0e; stroke-opacity: 0.7"/>
     <use xlink:href="#md367f4991d" x="124.165342" y="110.593165" style="fill: #ff7f0e; fill-opacity: 0.7; stroke: #ff7f0e; stroke-opacity: 0.7"/>
     <use xlink:href="#md367f4991d" x="95.683563" y="101.786074" style="fill: #ff7f0e; fill-opacity: 0.7; stroke: #ff7f0e; stroke-opacity: 0.7"/>
     <use xlink:href="#md367f4991d" x="166.576806" y="222.49721" style="fill: #ff7f0e; fill-opacity: 0.7; stroke: #ff7f0e; stroke-opacity: 0.7"/>
     <use xlink:href="#md367f4991d" x="252.724801" y="117.497738" style="fill: #ff7f0e; fill-opacity: 0.7; stroke: #ff7f0e; stroke-opacity: 0.7"/>
     <use xlink:href="#md367f4991d" x="198.245313" y="217.2998" style="fill: #ff7f0e; fill-opacity: 0.7; stroke: #ff7f0e; stroke-opacity: 0.7"/>
     <use xlink:href="#md367f4991d" x="205.716108" y="203.837475" style="fill: #ff7f0e; fill-opacity: 0.7; stroke: #ff7f0e; stroke-opacity: 0.7"/>
     <use xlink:href="#md367f4991d" x="172.228161" y="214.691246" style="fill: #ff7f0e; fill-opacity: 0.7; stroke: #ff7f0e; stroke-opacity: 0.7"/>
     <use xlink:href="#md367f4991d" x="184.179505" y="217.529532" style="fill: #ff7f0e; fill-opacity: 0.7; stroke: #ff7f0e; stroke-opacity: 0.7"/>
     <use xlink:href="#md367f4991d" x="193.145944" y="203.134773" style="fill: #ff7f0e; fill-opacity: 0.7; stroke: #ff7f0e; stroke-opacity: 0.7"/>
    </g>
   </g>
   <g id="PathCollection_3">
    <defs>
     <path id="m50aed1f44b" d="M 0 2.236068 
C 0.593012 2.236068 1.161816 2.000462 1.581139 1.581139 
C 2.000462 1.161816 2.236068 0.593012 2.236068 0 
C 2.236068 -0.593012 2.000462 -1.161816 1.581139 -1.581139 
C 1.161816 -2.000462 0.593012 -2.236068 0 -2.236068 
C -0.593012 -2.236068 -1.161816 -2.000462 -1.581139 -1.581139 
C -2.000462 -1.161816 -2.236068 -0.593012 -2.236068 0 
C -2.236068 0.593012 -2.000462 1.161816 -1.581139 1.581139 
C -1.161816 2.000462 -0.593012 2.236068 0 2.236068 
z
" style="stroke: #2ca02c; stroke-opacity: 0.7"/>
    </defs>
    <g clip-path="url(#p66b2310da1)">
     <use xlink:href="#m50aed1f44b" x="32.705649" y="105.734428" style="fill: #2ca02c; fill-opacity: 0.7; stroke: #2ca02c; stroke-opacity: 0.7"/>
     <use xlink:href="#m50aed1f44b" x="48.425853" y="100.461224" style="fill: #2ca02c; fill-opacity: 0.7; stroke: #2ca02c; stroke-opacity: 0.7"/>
     <use xlink:href="#m50aed1f44b" x="149.090734" y="148.319463" style="fill: #2ca02c; fill-opacity: 0.7; stroke: #2ca02c; stroke-opacity: 0.7"/>
     <use xlink:href="#m50aed1f44b" x="91.616071" y="158.483404" style="fill: #2ca02c; fill-opacity: 0.7; stroke: #2ca02c; stroke-opacity: 0.7"/>
     <use xlink:href="#m50aed1f44b" x="64.441862" y="102.164857" style="fill: #2ca02c; fill-opacity: 0.7; stroke: #2ca02c; stroke-opacity: 0.7"/>
     <use xlink:href="#m50aed1f44b" x="93.264625" y="155.635445" style="fill: #2ca02c; fill-opacity: 0.7; stroke: #2ca02c; stroke-opacity: 0.7"/>
     <use xlink:href="#m50aed1f44b" x="126.945631" y="142.076753" style="fill: #2ca02c; fill-opacity: 0.7; stroke: #2ca02c; stroke-opacity: 0.7"/>
     <use xlink:href="#m50aed1f44b" x="118.264992" y="153.05795" style="fill: #2ca02c; fill-opacity: 0.7; stroke: #2ca02c; stroke-opacity: 0.7"/>
     <use xlink:href="#m50aed1f44b" x="96.343093" y="143.746066" style="fill: #2ca02c; fill-opacity: 0.7; stroke: #2ca02c; stroke-opacity: 0.7"/>
     <use xlink:href="#m50aed1f44b" x="94.696138" y="194.264032" style="fill: #2ca02c; fill-opacity: 0.7; stroke: #2ca02c; stroke-opacity: 0.7"/>
    </g>
   </g>
   <g id="PathCollection_4">
    <defs>
     <path id="m8df93c1e7d" d="M 0 2.236068 
C 0.593012 2.236068 1.161816 2.000462 1.581139 1.581139 
C 2.000462 1.161816 2.236068 0.593012 2.236068 0 
C 2.236068 -0.593012 2.000462 -1.161816 1.581139 -1.581139 
C 1.161816 -2.000462 0.593012 -2.236068 0 -2.236068 
C -0.593012 -2.236068 -1.161816 -2.000462 -1.581139 -1.581139 
C -2.000462 -1.161816 -2.236068 -0.593012 -2.236068 0 
C -2.236068 0.593012 -2.000462 1.161816 -1.581139 1.581139 
C -1.161816 2.000462 -0.593012 2.236068 0 2.236068 
z
" style="stroke: #d62728; stroke-opacity: 0.7"/>
    </defs>
    <g clip-path="url(#p66b2310da1)">
     <use xlink:href="#m8df93c1e7d" x="82.738959" y="209.743567" style="fill: #d62728; fill-opacity: 0.7; stroke: #d62728; stroke-opacity: 0.7"/>
     <use xlink:href="#m8df93c1e7d" x="366.778613" y="218.60458" style="fill: #d62728; fill-opacity: 0.7; stroke: #d62728; stroke-opacity: 0.7"/>
     <use xlink:href="#m8df93c1e7d" x="370.386641" y="218.537718" style="fill: #d62728; fill-opacity: 0.7; stroke: #d62728; stroke-opacity: 0.7"/>
     <use xlink:href="#m8df93c1e7d" x="67.594475" y="133.930966" style="fill: #d62728; fill-opacity: 0.7; stroke: #d62728; stroke-opacity: 0.7"/>
     <use xlink:href="#m8df93c1e7d" x="362.420777" y="218.773929" style="fill: #d62728; fill-opacity: 0.7; stroke: #d62728; stroke-opacity: 0.7"/>
     <use xlink:href="#m8df93c1e7d" x="29.454545" y="134.421829" style="fill: #d62728; fill-opacity: 0.7; stroke: #d62728; stroke-opacity: 0.7"/>
     <use xlink:href="#m8df93c1e7d" x="53.281454" y="157.12988" style="fill: #d62728; fill-opacity: 0.7; stroke: #d62728; stroke-opacity: 0.7"/>
     <use xlink:href="#m8df93c1e7d" x="75.714006" y="178.855839" style="fill: #d62728; fill-opacity: 0.7; stroke: #d62728; stroke-opacity: 0.7"/>
     <use xlink:href="#m8df93c1e7d" x="342.612491" y="219.582591" style="fill: #d62728; fill-opacity: 0.7; stroke: #d62728; stroke-opacity: 0.7"/>
     <use xlink:href="#m8df93c1e7d" x="32.044219" y="135.178357" style="fill: #d62728; fill-opacity: 0.7; stroke: #d62728; stroke-opacity: 0.7"/>
    </g>
   </g>
   <g id="PathCollection_5">
    <defs>
     <path id="mae50a27107" d="M 0 2.236068 
C 0.593012 2.236068 1.161816 2.000462 1.581139 1.581139 
C 2.000462 1.161816 2.236068 0.593012 2.236068 0 
C 2.236068 -0.593012 2.000462 -1.161816 1.581139 -1.581139 
C 1.161816 -2.000462 0.593012 -2.236068 0 -2.236068 
C -0.593012 -2.236068 -1.161816 -2.000462 -1.581139 -1.581139 
C -2.000462 -1.161816 -2.236068 -0.593012 -2.236068 0 
C -2.236068 0.593012 -2.000462 1.161816 -1.581139 1.581139 
C -1.161816 2.000462 -0.593012 2.236068 0 2.236068 
z
" style="stroke: #9467bd; stroke-opacity: 0.7"/>
    </defs>
    <g clip-path="url(#p66b2310da1)">
     <use xlink:href="#mae50a27107" x="332.43287" y="133.235225" style="fill: #9467bd; fill-opacity: 0.7; stroke: #9467bd; stroke-opacity: 0.7"/>
     <use xlink:href="#mae50a27107" x="354.658603" y="124.031819" style="fill: #9467bd; fill-opacity: 0.7; stroke: #9467bd; stroke-opacity: 0.7"/>
     <use xlink:href="#mae50a27107" x="341.156144" y="140.790436" style="fill: #9467bd; fill-opacity: 0.7; stroke: #9467bd; stroke-opacity: 0.7"/>
     <use xlink:href="#mae50a27107" x="301.388855" y="149.768165" style="fill: #9467bd; fill-opacity: 0.7; stroke: #9467bd; stroke-opacity: 0.7"/>
     <use xlink:href="#mae50a27107" x="368.9956" y="140.432943" style="fill: #9467bd; fill-opacity: 0.7; stroke: #9467bd; stroke-opacity: 0.7"/>
     <use xlink:href="#mae50a27107" x="347.67073" y="154.313395" style="fill: #9467bd; fill-opacity: 0.7; stroke: #9467bd; stroke-opacity: 0.7"/>
     <use xlink:href="#mae50a27107" x="402.545455" y="149.87167" style="fill: #9467bd; fill-opacity: 0.7; stroke: #9467bd; stroke-opacity: 0.7"/>
     <use xlink:href="#mae50a27107" x="357.895243" y="149.767238" style="fill: #9467bd; fill-opacity: 0.7; stroke: #9467bd; stroke-opacity: 0.7"/>
     <use xlink:href="#mae50a27107" x="379.987522" y="154.809309" style="fill: #9467bd; fill-opacity: 0.7; stroke: #9467bd; stroke-opacity: 0.7"/>
     <use xlink:href="#mae50a27107" x="358.939188" y="171.538041" style="fill: #9467bd; fill-opacity: 0.7; stroke: #9467bd; stroke-opacity: 0.7"/>
    </g>
   </g>
   <g id="PathCollection_6">
    <defs>
     <path id="mebab7fae35" d="M 0 2.236068 
C 0.593012 2.236068 1.161816 2.000462 1.581139 1.581139 
C 2.000462 1.161816 2.236068 0.593012 2.236068 0 
C 2.236068 -0.593012 2.000462 -1.161816 1.581139 -1.581139 
C 1.161816 -2.000462 0.593012 -2.236068 0 -2.236068 
C -0.593012 -2.236068 -1.161816 -2.000462 -1.581139 -1.581139 
C -2.000462 -1.161816 -2.236068 -0.593012 -2.236068 0 
C -2.236068 0.593012 -2.000462 1.161816 -1.581139 1.581139 
C -1.161816 2.000462 -0.593012 2.236068 0 2.236068 
z
" style="stroke: #8c564b; stroke-opacity: 0.7"/>
    </defs>
    <g clip-path="url(#p66b2310da1)">
     <use xlink:href="#mebab7fae35" x="157.830688" y="152.571616" style="fill: #8c564b; fill-opacity: 0.7; stroke: #8c564b; stroke-opacity: 0.7"/>
     <use xlink:href="#mebab7fae35" x="203.763914" y="236.129854" style="fill: #8c564b; fill-opacity: 0.7; stroke: #8c564b; stroke-opacity: 0.7"/>
     <use xlink:href="#mebab7fae35" x="153.519036" y="244.388157" style="fill: #8c564b; fill-opacity: 0.7; stroke: #8c564b; stroke-opacity: 0.7"/>
     <use xlink:href="#mebab7fae35" x="152.561471" y="247.962054" style="fill: #8c564b; fill-opacity: 0.7; stroke: #8c564b; stroke-opacity: 0.7"/>
     <use xlink:href="#mebab7fae35" x="186.840655" y="236.465993" style="fill: #8c564b; fill-opacity: 0.7; stroke: #8c564b; stroke-opacity: 0.7"/>
     <use xlink:href="#mebab7fae35" x="270.166385" y="207.803038" style="fill: #8c564b; fill-opacity: 0.7; stroke: #8c564b; stroke-opacity: 0.7"/>
     <use xlink:href="#mebab7fae35" x="165.109986" y="251.926429" style="fill: #8c564b; fill-opacity: 0.7; stroke: #8c564b; stroke-opacity: 0.7"/>
     <use xlink:href="#mebab7fae35" x="165.364011" y="255.028337" style="fill: #8c564b; fill-opacity: 0.7; stroke: #8c564b; stroke-opacity: 0.7"/>
     <use xlink:href="#mebab7fae35" x="223.195005" y="237.811967" style="fill: #8c564b; fill-opacity: 0.7; stroke: #8c564b; stroke-opacity: 0.7"/>
     <use xlink:href="#mebab7fae35" x="151.158168" y="212.419078" style="fill: #8c564b; fill-opacity: 0.7; stroke: #8c564b; stroke-opacity: 0.7"/>
    </g>
   </g>
   <g id="PathCollection_7">
    <defs>
     <path id="mee483b585a" d="M 0 2.236068 
C 0.593012 2.236068 1.161816 2.000462 1.581139 1.581139 
C 2.000462 1.161816 2.236068 0.593012 2.236068 0 
C 2.236068 -0.593012 2.000462 -1.161816 1.581139 -1.581139 
C 1.161816 -2.000462 0.593012 -2.236068 0 -2.236068 
C -0.593012 -2.236068 -1.161816 -2.000462 -1.581139 -1.581139 
C -2.000462 -1.161816 -2.236068 -0.593012 -2.236068 0 
C -2.236068 0.593012 -2.000462 1.161816 -1.581139 1.581139 
C -1.161816 2.000462 -0.593012 2.236068 0 2.236068 
z
" style="stroke: #e377c2; stroke-opacity: 0.7"/>
    </defs>
    <g clip-path="url(#p66b2310da1)">
     <use xlink:href="#mee483b585a" x="137.533153" y="109.559857" style="fill: #e377c2; fill-opacity: 0.7; stroke: #e377c2; stroke-opacity: 0.7"/>
     <use xlink:href="#mee483b585a" x="91.993957" y="113.373687" style="fill: #e377c2; fill-opacity: 0.7; stroke: #e377c2; stroke-opacity: 0.7"/>
     <use xlink:href="#mee483b585a" x="202.604652" y="120.779427" style="fill: #e377c2; fill-opacity: 0.7; stroke: #e377c2; stroke-opacity: 0.7"/>
     <use xlink:href="#mee483b585a" x="168.346792" y="116.525954" style="fill: #e377c2; fill-opacity: 0.7; stroke: #e377c2; stroke-opacity: 0.7"/>
     <use xlink:href="#mee483b585a" x="85.650269" y="91.522734" style="fill: #e377c2; fill-opacity: 0.7; stroke: #e377c2; stroke-opacity: 0.7"/>
     <use xlink:href="#mee483b585a" x="171.967637" y="91.602796" style="fill: #e377c2; fill-opacity: 0.7; stroke: #e377c2; stroke-opacity: 0.7"/>
     <use xlink:href="#mee483b585a" x="168.427906" y="87.92712" style="fill: #e377c2; fill-opacity: 0.7; stroke: #e377c2; stroke-opacity: 0.7"/>
     <use xlink:href="#mee483b585a" x="144.376167" y="91.378661" style="fill: #e377c2; fill-opacity: 0.7; stroke: #e377c2; stroke-opacity: 0.7"/>
     <use xlink:href="#mee483b585a" x="145.937549" y="91.359023" style="fill: #e377c2; fill-opacity: 0.7; stroke: #e377c2; stroke-opacity: 0.7"/>
     <use xlink:href="#mee483b585a" x="148.202128" y="102.599207" style="fill: #e377c2; fill-opacity: 0.7; stroke: #e377c2; stroke-opacity: 0.7"/>
    </g>
   </g>
   <g id="PathCollection_8">
    <defs>
     <path id="m07c7e9ff2b" d="M 0 2.236068 
C 0.593012 2.236068 1.161816 2.000462 1.581139 1.581139 
C 2.000462 1.161816 2.236068 0.593012 2.236068 0 
C 2.236068 -0.593012 2.000462 -1.161816 1.581139 -1.581139 
C 1.161816 -2.000462 0.593012 -2.236068 0 -2.236068 
C -0.593012 -2.236068 -1.161816 -2.000462 -1.581139 -1.581139 
C -2.000462 -1.161816 -2.236068 -0.593012 -2.236068 0 
C -2.236068 0.593012 -2.000462 1.161816 -1.581139 1.581139 
C -1.161816 2.000462 -0.593012 2.236068 0 2.236068 
z
" style="stroke: #7f7f7f; stroke-opacity: 0.7"/>
    </defs>
    <g clip-path="url(#p66b2310da1)">
     <use xlink:href="#m07c7e9ff2b" x="324.488671" y="113.555955" style="fill: #7f7f7f; fill-opacity: 0.7; stroke: #7f7f7f; stroke-opacity: 0.7"/>
     <use xlink:href="#m07c7e9ff2b" x="291.389117" y="119.053872" style="fill: #7f7f7f; fill-opacity: 0.7; stroke: #7f7f7f; stroke-opacity: 0.7"/>
     <use xlink:href="#m07c7e9ff2b" x="274.956279" y="185.586127" style="fill: #7f7f7f; fill-opacity: 0.7; stroke: #7f7f7f; stroke-opacity: 0.7"/>
     <use xlink:href="#m07c7e9ff2b" x="315.07846" y="143.214066" style="fill: #7f7f7f; fill-opacity: 0.7; stroke: #7f7f7f; stroke-opacity: 0.7"/>
     <use xlink:href="#m07c7e9ff2b" x="280.008925" y="114.899565" style="fill: #7f7f7f; fill-opacity: 0.7; stroke: #7f7f7f; stroke-opacity: 0.7"/>
     <use xlink:href="#m07c7e9ff2b" x="317.86864" y="124.010983" style="fill: #7f7f7f; fill-opacity: 0.7; stroke: #7f7f7f; stroke-opacity: 0.7"/>
     <use xlink:href="#m07c7e9ff2b" x="290.728428" y="132.247167" style="fill: #7f7f7f; fill-opacity: 0.7; stroke: #7f7f7f; stroke-opacity: 0.7"/>
     <use xlink:href="#m07c7e9ff2b" x="315.611026" y="136.205604" style="fill: #7f7f7f; fill-opacity: 0.7; stroke: #7f7f7f; stroke-opacity: 0.7"/>
     <use xlink:href="#m07c7e9ff2b" x="333.130538" y="153.599922" style="fill: #7f7f7f; fill-opacity: 0.7; stroke: #7f7f7f; stroke-opacity: 0.7"/>
     <use xlink:href="#m07c7e9ff2b" x="311.190133" y="161.201192" style="fill: #7f7f7f; fill-opacity: 0.7; stroke: #7f7f7f; stroke-opacity: 0.7"/>
    </g>
   </g>
   <g id="PathCollection_9">
    <defs>
     <path id="m45cd2660db" d="M 0 2.236068 
C 0.593012 2.236068 1.161816 2.000462 1.581139 1.581139 
C 2.000462 1.161816 2.236068 0.593012 2.236068 0 
C 2.236068 -0.593012 2.000462 -1.161816 1.581139 -1.581139 
C 1.161816 -2.000462 0.593012 -2.236068 0 -2.236068 
C -0.593012 -2.236068 -1.161816 -2.000462 -1.581139 -1.581139 
C -2.000462 -1.161816 -2.236068 -0.593012 -2.236068 0 
C -2.236068 0.593012 -2.000462 1.161816 -1.581139 1.581139 
C -1.161816 2.000462 -0.593012 2.236068 0 2.236068 
z
" style="stroke: #bcbd22; stroke-opacity: 0.7"/>
    </defs>
    <g clip-path="url(#p66b2310da1)">
     <use xlink:href="#m45cd2660db" x="184.594981" y="187.009675" style="fill: #bcbd22; fill-opacity: 0.7; stroke: #bcbd22; stroke-opacity: 0.7"/>
     <use xlink:href="#m45cd2660db" x="156.522451" y="190.456454" style="fill: #bcbd22; fill-opacity: 0.7; stroke: #bcbd22; stroke-opacity: 0.7"/>
     <use xlink:href="#m45cd2660db" x="117.783005" y="223.954441" style="fill: #bcbd22; fill-opacity: 0.7; stroke: #bcbd22; stroke-opacity: 0.7"/>
     <use xlink:href="#m45cd2660db" x="40.805107" y="237.604227" style="fill: #bcbd22; fill-opacity: 0.7; stroke: #bcbd22; stroke-opacity: 0.7"/>
     <use xlink:href="#m45cd2660db" x="191.903516" y="189.363114" style="fill: #bcbd22; fill-opacity: 0.7; stroke: #bcbd22; stroke-opacity: 0.7"/>
     <use xlink:href="#m45cd2660db" x="99.885684" y="236.161221" style="fill: #bcbd22; fill-opacity: 0.7; stroke: #bcbd22; stroke-opacity: 0.7"/>
     <use xlink:href="#m45cd2660db" x="40.285722" y="238.902718" style="fill: #bcbd22; fill-opacity: 0.7; stroke: #bcbd22; stroke-opacity: 0.7"/>
     <use xlink:href="#m45cd2660db" x="50.620092" y="241.024573" style="fill: #bcbd22; fill-opacity: 0.7; stroke: #bcbd22; stroke-opacity: 0.7"/>
     <use xlink:href="#m45cd2660db" x="97.00226" y="238.779499" style="fill: #bcbd22; fill-opacity: 0.7; stroke: #bcbd22; stroke-opacity: 0.7"/>
     <use xlink:href="#m45cd2660db" x="100.62843" y="232.36468" style="fill: #bcbd22; fill-opacity: 0.7; stroke: #bcbd22; stroke-opacity: 0.7"/>
    </g>
   </g>
   <g id="PathCollection_10">
    <defs>
     <path id="m5d180cdb3d" d="M 0 2.236068 
C 0.593012 2.236068 1.161816 2.000462 1.581139 1.581139 
C 2.000462 1.161816 2.236068 0.593012 2.236068 0 
C 2.236068 -0.593012 2.000462 -1.161816 1.581139 -1.581139 
C 1.161816 -2.000462 0.593012 -2.236068 0 -2.236068 
C -0.593012 -2.236068 -1.161816 -2.000462 -1.581139 -1.581139 
C -2.000462 -1.161816 -2.236068 -0.593012 -2.236068 0 
C -2.236068 0.593012 -2.000462 1.161816 -1.581139 1.581139 
C -1.161816 2.000462 -0.593012 2.236068 0 2.236068 
z
" style="stroke: #17becf; stroke-opacity: 0.7"/>
    </defs>
    <g clip-path="url(#p66b2310da1)">
     <use xlink:href="#m5d180cdb3d" x="208.74363" y="130.350551" style="fill: #17becf; fill-opacity: 0.7; stroke: #17becf; stroke-opacity: 0.7"/>
     <use xlink:href="#m5d180cdb3d" x="212.06738" y="98.643632" style="fill: #17becf; fill-opacity: 0.7; stroke: #17becf; stroke-opacity: 0.7"/>
     <use xlink:href="#m5d180cdb3d" x="232.176913" y="159.729941" style="fill: #17becf; fill-opacity: 0.7; stroke: #17becf; stroke-opacity: 0.7"/>
     <use xlink:href="#m5d180cdb3d" x="215.897267" y="162.288925" style="fill: #17becf; fill-opacity: 0.7; stroke: #17becf; stroke-opacity: 0.7"/>
     <use xlink:href="#m5d180cdb3d" x="187.176397" y="147.515062" style="fill: #17becf; fill-opacity: 0.7; stroke: #17becf; stroke-opacity: 0.7"/>
     <use xlink:href="#m5d180cdb3d" x="157.424953" y="169.542806" style="fill: #17becf; fill-opacity: 0.7; stroke: #17becf; stroke-opacity: 0.7"/>
     <use xlink:href="#m5d180cdb3d" x="176.137927" y="172.844773" style="fill: #17becf; fill-opacity: 0.7; stroke: #17becf; stroke-opacity: 0.7"/>
     <use xlink:href="#m5d180cdb3d" x="227.130588" y="138.129652" style="fill: #17becf; fill-opacity: 0.7; stroke: #17becf; stroke-opacity: 0.7"/>
     <use xlink:href="#m5d180cdb3d" x="171.380749" y="167.447986" style="fill: #17becf; fill-opacity: 0.7; stroke: #17becf; stroke-opacity: 0.7"/>
     <use xlink:href="#m5d180cdb3d" x="209.160256" y="105.501843" style="fill: #17becf; fill-opacity: 0.7; stroke: #17becf; stroke-opacity: 0.7"/>
    </g>
   </g>
   <g id="PathCollection_11">
    <defs>
     <path id="mea2c790b0c" d="M 0 2.236068 
C 0.593012 2.236068 1.161816 2.000462 1.581139 1.581139 
C 2.000462 1.161816 2.236068 0.593012 2.236068 0 
C 2.236068 -0.593012 2.000462 -1.161816 1.581139 -1.581139 
C 1.161816 -2.000462 0.593012 -2.236068 0 -2.236068 
C -0.593012 -2.236068 -1.161816 -2.000462 -1.581139 -1.581139 
C -2.000462 -1.161816 -2.236068 -0.593012 -2.236068 0 
C -2.236068 0.593012 -2.000462 1.161816 -1.581139 1.581139 
C -1.161816 2.000462 -0.593012 2.236068 0 2.236068 
z
" style="stroke: #aec7e8; stroke-opacity: 0.7"/>
    </defs>
    <g clip-path="url(#p66b2310da1)">
     <use xlink:href="#mea2c790b0c" x="161.815291" y="266.367153" style="fill: #aec7e8; fill-opacity: 0.7; stroke: #aec7e8; stroke-opacity: 0.7"/>
     <use xlink:href="#mea2c790b0c" x="130.124653" y="287.020405" style="fill: #aec7e8; fill-opacity: 0.7; stroke: #aec7e8; stroke-opacity: 0.7"/>
     <use xlink:href="#mea2c790b0c" x="109.365002" y="274.087733" style="fill: #aec7e8; fill-opacity: 0.7; stroke: #aec7e8; stroke-opacity: 0.7"/>
     <use xlink:href="#mea2c790b0c" x="131.233614" y="277.044886" style="fill: #aec7e8; fill-opacity: 0.7; stroke: #aec7e8; stroke-opacity: 0.7"/>
     <use xlink:href="#mea2c790b0c" x="127.626436" y="261.661368" style="fill: #aec7e8; fill-opacity: 0.7; stroke: #aec7e8; stroke-opacity: 0.7"/>
     <use xlink:href="#mea2c790b0c" x="141.738028" y="275.9647" style="fill: #aec7e8; fill-opacity: 0.7; stroke: #aec7e8; stroke-opacity: 0.7"/>
     <use xlink:href="#mea2c790b0c" x="118.99325" y="284.277471" style="fill: #aec7e8; fill-opacity: 0.7; stroke: #aec7e8; stroke-opacity: 0.7"/>
     <use xlink:href="#mea2c790b0c" x="162.655531" y="276.71895" style="fill: #aec7e8; fill-opacity: 0.7; stroke: #aec7e8; stroke-opacity: 0.7"/>
     <use xlink:href="#mea2c790b0c" x="138.553802" y="265.499202" style="fill: #aec7e8; fill-opacity: 0.7; stroke: #aec7e8; stroke-opacity: 0.7"/>
     <use xlink:href="#mea2c790b0c" x="157.410098" y="281.804863" style="fill: #aec7e8; fill-opacity: 0.7; stroke: #aec7e8; stroke-opacity: 0.7"/>
    </g>
   </g>
   <g id="PathCollection_12">
    <defs>
     <path id="m905c607e62" d="M 0 2.236068 
C 0.593012 2.236068 1.161816 2.000462 1.581139 1.581139 
C 2.000462 1.161816 2.236068 0.593012 2.236068 0 
C 2.236068 -0.593012 2.000462 -1.161816 1.581139 -1.581139 
C 1.161816 -2.000462 0.593012 -2.236068 0 -2.236068 
C -0.593012 -2.236068 -1.161816 -2.000462 -1.581139 -1.581139 
C -2.000462 -1.161816 -2.236068 -0.593012 -2.236068 0 
C -2.236068 0.593012 -2.000462 1.161816 -1.581139 1.581139 
C -1.161816 2.000462 -0.593012 2.236068 0 2.236068 
z
" style="stroke: #ffbb78; stroke-opacity: 0.7"/>
    </defs>
    <g clip-path="url(#p66b2310da1)">
     <use xlink:href="#m905c607e62" x="309.9238" y="328.703581" style="fill: #ffbb78; fill-opacity: 0.7; stroke: #ffbb78; stroke-opacity: 0.7"/>
     <use xlink:href="#m905c607e62" x="330.248211" y="334.614545" style="fill: #ffbb78; fill-opacity: 0.7; stroke: #ffbb78; stroke-opacity: 0.7"/>
     <use xlink:href="#m905c607e62" x="301.843289" y="321.156622" style="fill: #ffbb78; fill-opacity: 0.7; stroke: #ffbb78; stroke-opacity: 0.7"/>
     <use xlink:href="#m905c607e62" x="322.060005" y="324.741207" style="fill: #ffbb78; fill-opacity: 0.7; stroke: #ffbb78; stroke-opacity: 0.7"/>
     <use xlink:href="#m905c607e62" x="308.313083" y="330.441374" style="fill: #ffbb78; fill-opacity: 0.7; stroke: #ffbb78; stroke-opacity: 0.7"/>
     <use xlink:href="#m905c607e62" x="353.041945" y="325.971485" style="fill: #ffbb78; fill-opacity: 0.7; stroke: #ffbb78; stroke-opacity: 0.7"/>
     <use xlink:href="#m905c607e62" x="342.451344" y="319.738538" style="fill: #ffbb78; fill-opacity: 0.7; stroke: #ffbb78; stroke-opacity: 0.7"/>
     <use xlink:href="#m905c607e62" x="344.965744" y="327.589964" style="fill: #ffbb78; fill-opacity: 0.7; stroke: #ffbb78; stroke-opacity: 0.7"/>
     <use xlink:href="#m905c607e62" x="330.984729" y="319.154803" style="fill: #ffbb78; fill-opacity: 0.7; stroke: #ffbb78; stroke-opacity: 0.7"/>
     <use xlink:href="#m905c607e62" x="362.440589" y="318.119334" style="fill: #ffbb78; fill-opacity: 0.7; stroke: #ffbb78; stroke-opacity: 0.7"/>
    </g>
   </g>
   <g id="PathCollection_13">
    <defs>
     <path id="m9f41edd345" d="M 0 2.236068 
C 0.593012 2.236068 1.161816 2.000462 1.581139 1.581139 
C 2.000462 1.161816 2.236068 0.593012 2.236068 0 
C 2.236068 -0.593012 2.000462 -1.161816 1.581139 -1.581139 
C 1.161816 -2.000462 0.593012 -2.236068 0 -2.236068 
C -0.593012 -2.236068 -1.161816 -2.000462 -1.581139 -1.581139 
C -2.000462 -1.161816 -2.236068 -0.593012 -2.236068 0 
C -2.236068 0.593012 -2.000462 1.161816 -1.581139 1.581139 
C -1.161816 2.000462 -0.593012 2.236068 0 2.236068 
z
" style="stroke: #98df8a; stroke-opacity: 0.7"/>
    </defs>
    <g clip-path="url(#p66b2310da1)">
     <use xlink:href="#m9f41edd345" x="337.200974" y="275.004743" style="fill: #98df8a; fill-opacity: 0.7; stroke: #98df8a; stroke-opacity: 0.7"/>
     <use xlink:href="#m9f41edd345" x="326.785443" y="285.778682" style="fill: #98df8a; fill-opacity: 0.7; stroke: #98df8a; stroke-opacity: 0.7"/>
     <use xlink:href="#m9f41edd345" x="345.262895" y="302.700943" style="fill: #98df8a; fill-opacity: 0.7; stroke: #98df8a; stroke-opacity: 0.7"/>
     <use xlink:href="#m9f41edd345" x="362.423095" y="273.497286" style="fill: #98df8a; fill-opacity: 0.7; stroke: #98df8a; stroke-opacity: 0.7"/>
     <use xlink:href="#m9f41edd345" x="327.108726" y="279.85756" style="fill: #98df8a; fill-opacity: 0.7; stroke: #98df8a; stroke-opacity: 0.7"/>
     <use xlink:href="#m9f41edd345" x="348.209848" y="281.217455" style="fill: #98df8a; fill-opacity: 0.7; stroke: #98df8a; stroke-opacity: 0.7"/>
     <use xlink:href="#m9f41edd345" x="346.946791" y="293.717791" style="fill: #98df8a; fill-opacity: 0.7; stroke: #98df8a; stroke-opacity: 0.7"/>
     <use xlink:href="#m9f41edd345" x="323.399448" y="294.670251" style="fill: #98df8a; fill-opacity: 0.7; stroke: #98df8a; stroke-opacity: 0.7"/>
     <use xlink:href="#m9f41edd345" x="366.556318" y="269.360499" style="fill: #98df8a; fill-opacity: 0.7; stroke: #98df8a; stroke-opacity: 0.7"/>
     <use xlink:href="#m9f41edd345" x="354.606634" y="286.826685" style="fill: #98df8a; fill-opacity: 0.7; stroke: #98df8a; stroke-opacity: 0.7"/>
    </g>
   </g>
   <g id="matplotlib.axis_1"/>
   <g id="matplotlib.axis_2"/>
   <g id="patch_3">
    <path d="M 10.8 349.2 
L 10.8 28.32 
" style="fill: none; stroke: #000000; stroke-width: 0.8; stroke-linejoin: miter; stroke-linecap: square"/>
   </g>
   <g id="patch_4">
    <path d="M 421.2 349.2 
L 421.2 28.32 
" style="fill: none; stroke: #000000; stroke-width: 0.8; stroke-linejoin: miter; stroke-linecap: square"/>
   </g>
   <g id="patch_5">
    <path d="M 10.8 349.2 
L 421.2 349.2 
" style="fill: none; stroke: #000000; stroke-width: 0.8; stroke-linejoin: miter; stroke-linecap: square"/>
   </g>
   <g id="patch_6">
    <path d="M 10.8 28.32 
L 421.2 28.32 
" style="fill: none; stroke: #000000; stroke-width: 0.8; stroke-linejoin: miter; stroke-linecap: square"/>
   </g>
   <g id="text_1">
    <!-- t-SNE: v1_up -->
    <g transform="translate(164.6475 22.32) scale(0.16 -0.16)">
     <defs>
      <path id="DejaVuSans-74" d="M 1172 4494 
L 1172 3500 
L 2356 3500 
L 2356 3053 
L 1172 3053 
L 1172 1153 
Q 1172 725 1289 603 
Q 1406 481 1766 481 
L 2356 481 
L 2356 0 
L 1766 0 
Q 1100 0 847 248 
Q 594 497 594 1153 
L 594 3053 
L 172 3053 
L 172 3500 
L 594 3500 
L 594 4494 
L 1172 4494 
z
" transform="scale(0.015625)"/>
      <path id="DejaVuSans-2d" d="M 313 2009 
L 1997 2009 
L 1997 1497 
L 313 1497 
L 313 2009 
z
" transform="scale(0.015625)"/>
      <path id="DejaVuSans-53" d="M 3425 4513 
L 3425 3897 
Q 3066 4069 2747 4153 
Q 2428 4238 2131 4238 
Q 1616 4238 1336 4038 
Q 1056 3838 1056 3469 
Q 1056 3159 1242 3001 
Q 1428 2844 1947 2747 
L 2328 2669 
Q 3034 2534 3370 2195 
Q 3706 1856 3706 1288 
Q 3706 609 3251 259 
Q 2797 -91 1919 -91 
Q 1588 -91 1214 -16 
Q 841 59 441 206 
L 441 856 
Q 825 641 1194 531 
Q 1563 422 1919 422 
Q 2459 422 2753 634 
Q 3047 847 3047 1241 
Q 3047 1584 2836 1778 
Q 2625 1972 2144 2069 
L 1759 2144 
Q 1053 2284 737 2584 
Q 422 2884 422 3419 
Q 422 4038 858 4394 
Q 1294 4750 2059 4750 
Q 2388 4750 2728 4690 
Q 3069 4631 3425 4513 
z
" transform="scale(0.015625)"/>
      <path id="DejaVuSans-4e" d="M 628 4666 
L 1478 4666 
L 3547 763 
L 3547 4666 
L 4159 4666 
L 4159 0 
L 3309 0 
L 1241 3903 
L 1241 0 
L 628 0 
L 628 4666 
z
" transform="scale(0.015625)"/>
      <path id="DejaVuSans-45" d="M 628 4666 
L 3578 4666 
L 3578 4134 
L 1259 4134 
L 1259 2753 
L 3481 2753 
L 3481 2222 
L 1259 2222 
L 1259 531 
L 3634 531 
L 3634 0 
L 628 0 
L 628 4666 
z
" transform="scale(0.015625)"/>
      <path id="DejaVuSans-3a" d="M 750 794 
L 1409 794 
L 1409 0 
L 750 0 
L 750 794 
z
M 750 3309 
L 1409 3309 
L 1409 2516 
L 750 2516 
L 750 3309 
z
" transform="scale(0.015625)"/>
      <path id="DejaVuSans-20" transform="scale(0.015625)"/>
      <path id="DejaVuSans-76" d="M 191 3500 
L 800 3500 
L 1894 563 
L 2988 3500 
L 3597 3500 
L 2284 0 
L 1503 0 
L 191 3500 
z
" transform="scale(0.015625)"/>
      <path id="DejaVuSans-31" d="M 794 531 
L 1825 531 
L 1825 4091 
L 703 3866 
L 703 4441 
L 1819 4666 
L 2450 4666 
L 2450 531 
L 3481 531 
L 3481 0 
L 794 0 
L 794 531 
z
" transform="scale(0.015625)"/>
      <path id="DejaVuSans-5f" d="M 3263 -1063 
L 3263 -1509 
L -63 -1509 
L -63 -1063 
L 3263 -1063 
z
" transform="scale(0.015625)"/>
      <path id="DejaVuSans-75" d="M 544 1381 
L 544 3500 
L 1119 3500 
L 1119 1403 
Q 1119 906 1312 657 
Q 1506 409 1894 409 
Q 2359 409 2629 706 
Q 2900 1003 2900 1516 
L 2900 3500 
L 3475 3500 
L 3475 0 
L 2900 0 
L 2900 538 
Q 2691 219 2414 64 
Q 2138 -91 1772 -91 
Q 1169 -91 856 284 
Q 544 659 544 1381 
z
M 1991 3584 
L 1991 3584 
z
" transform="scale(0.015625)"/>
      <path id="DejaVuSans-70" d="M 1159 525 
L 1159 -1331 
L 581 -1331 
L 581 3500 
L 1159 3500 
L 1159 2969 
Q 1341 3281 1617 3432 
Q 1894 3584 2278 3584 
Q 2916 3584 3314 3078 
Q 3713 2572 3713 1747 
Q 3713 922 3314 415 
Q 2916 -91 2278 -91 
Q 1894 -91 1617 61 
Q 1341 213 1159 525 
z
M 3116 1747 
Q 3116 2381 2855 2742 
Q 2594 3103 2138 3103 
Q 1681 3103 1420 2742 
Q 1159 2381 1159 1747 
Q 1159 1113 1420 752 
Q 1681 391 2138 391 
Q 2594 391 2855 752 
Q 3116 1113 3116 1747 
z
" transform="scale(0.015625)"/>
     </defs>
     <use xlink:href="#DejaVuSans-74"/>
     <use xlink:href="#DejaVuSans-2d" transform="translate(39.208984 0)"/>
     <use xlink:href="#DejaVuSans-53" transform="translate(75.292969 0)"/>
     <use xlink:href="#DejaVuSans-4e" transform="translate(138.769531 0)"/>
     <use xlink:href="#DejaVuSans-45" transform="translate(213.574219 0)"/>
     <use xlink:href="#DejaVuSans-3a" transform="translate(276.757812 0)"/>
     <use xlink:href="#DejaVuSans-20" transform="translate(310.449219 0)"/>
     <use xlink:href="#DejaVuSans-76" transform="translate(342.236328 0)"/>
     <use xlink:href="#DejaVuSans-31" transform="translate(401.416016 0)"/>
     <use xlink:href="#DejaVuSans-5f" transform="translate(465.039062 0)"/>
     <use xlink:href="#DejaVuSans-75" transform="translate(515.039062 0)"/>
     <use xlink:href="#DejaVuSans-70" transform="translate(578.417969 0)"/>
    </g>
   </g>
   <g id="legend_1">
    <g id="patch_7">
     <path d="M 323.746875 266.89875 
L 412.8 266.89875 
Q 415.2 266.89875 415.2 264.49875 
L 415.2 36.72 
Q 415.2 34.32 412.8 34.32 
L 323.746875 34.32 
Q 321.346875 34.32 321.346875 36.72 
L 321.346875 264.49875 
Q 321.346875 266.89875 323.746875 266.89875 
z
" style="fill: #ffffff; opacity: 0.8; stroke: #cccccc; stroke-linejoin: miter"/>
    </g>
    <g id="PathCollection_14">
     <g>
      <use xlink:href="#med19fbbf3a" x="338.146875" y="45.088125" style="fill: #1f77b4; fill-opacity: 0.7; stroke: #1f77b4; stroke-opacity: 0.7"/>
     </g>
    </g>
    <g id="text_2">
     <!-- Class 0 -->
     <g transform="translate(359.746875 48.238125) scale(0.12 -0.12)">
      <defs>
       <path id="DejaVuSans-43" d="M 4122 4306 
L 4122 3641 
Q 3803 3938 3442 4084 
Q 3081 4231 2675 4231 
Q 1875 4231 1450 3742 
Q 1025 3253 1025 2328 
Q 1025 1406 1450 917 
Q 1875 428 2675 428 
Q 3081 428 3442 575 
Q 3803 722 4122 1019 
L 4122 359 
Q 3791 134 3420 21 
Q 3050 -91 2638 -91 
Q 1578 -91 968 557 
Q 359 1206 359 2328 
Q 359 3453 968 4101 
Q 1578 4750 2638 4750 
Q 3056 4750 3426 4639 
Q 3797 4528 4122 4306 
z
" transform="scale(0.015625)"/>
       <path id="DejaVuSans-6c" d="M 603 4863 
L 1178 4863 
L 1178 0 
L 603 0 
L 603 4863 
z
" transform="scale(0.015625)"/>
       <path id="DejaVuSans-61" d="M 2194 1759 
Q 1497 1759 1228 1600 
Q 959 1441 959 1056 
Q 959 750 1161 570 
Q 1363 391 1709 391 
Q 2188 391 2477 730 
Q 2766 1069 2766 1631 
L 2766 1759 
L 2194 1759 
z
M 3341 1997 
L 3341 0 
L 2766 0 
L 2766 531 
Q 2569 213 2275 61 
Q 1981 -91 1556 -91 
Q 1019 -91 701 211 
Q 384 513 384 1019 
Q 384 1609 779 1909 
Q 1175 2209 1959 2209 
L 2766 2209 
L 2766 2266 
Q 2766 2663 2505 2880 
Q 2244 3097 1772 3097 
Q 1472 3097 1187 3025 
Q 903 2953 641 2809 
L 641 3341 
Q 956 3463 1253 3523 
Q 1550 3584 1831 3584 
Q 2591 3584 2966 3190 
Q 3341 2797 3341 1997 
z
" transform="scale(0.015625)"/>
       <path id="DejaVuSans-73" d="M 2834 3397 
L 2834 2853 
Q 2591 2978 2328 3040 
Q 2066 3103 1784 3103 
Q 1356 3103 1142 2972 
Q 928 2841 928 2578 
Q 928 2378 1081 2264 
Q 1234 2150 1697 2047 
L 1894 2003 
Q 2506 1872 2764 1633 
Q 3022 1394 3022 966 
Q 3022 478 2636 193 
Q 2250 -91 1575 -91 
Q 1294 -91 989 -36 
Q 684 19 347 128 
L 347 722 
Q 666 556 975 473 
Q 1284 391 1588 391 
Q 1994 391 2212 530 
Q 2431 669 2431 922 
Q 2431 1156 2273 1281 
Q 2116 1406 1581 1522 
L 1381 1569 
Q 847 1681 609 1914 
Q 372 2147 372 2553 
Q 372 3047 722 3315 
Q 1072 3584 1716 3584 
Q 2034 3584 2315 3537 
Q 2597 3491 2834 3397 
z
" transform="scale(0.015625)"/>
       <path id="DejaVuSans-30" d="M 2034 4250 
Q 1547 4250 1301 3770 
Q 1056 3291 1056 2328 
Q 1056 1369 1301 889 
Q 1547 409 2034 409 
Q 2525 409 2770 889 
Q 3016 1369 3016 2328 
Q 3016 3291 2770 3770 
Q 2525 4250 2034 4250 
z
M 2034 4750 
Q 2819 4750 3233 4129 
Q 3647 3509 3647 2328 
Q 3647 1150 3233 529 
Q 2819 -91 2034 -91 
Q 1250 -91 836 529 
Q 422 1150 422 2328 
Q 422 3509 836 4129 
Q 1250 4750 2034 4750 
z
" transform="scale(0.015625)"/>
      </defs>
      <use xlink:href="#DejaVuSans-43"/>
      <use xlink:href="#DejaVuSans-6c" transform="translate(69.824219 0)"/>
      <use xlink:href="#DejaVuSans-61" transform="translate(97.607422 0)"/>
      <use xlink:href="#DejaVuSans-73" transform="translate(158.886719 0)"/>
      <use xlink:href="#DejaVuSans-73" transform="translate(210.986328 0)"/>
      <use xlink:href="#DejaVuSans-20" transform="translate(263.085938 0)"/>
      <use xlink:href="#DejaVuSans-30" transform="translate(294.873047 0)"/>
     </g>
    </g>
    <g id="PathCollection_15">
     <g>
      <use xlink:href="#md367f4991d" x="338.146875" y="62.701875" style="fill: #ff7f0e; fill-opacity: 0.7; stroke: #ff7f0e; stroke-opacity: 0.7"/>
     </g>
    </g>
    <g id="text_3">
     <!-- Class 1 -->
     <g transform="translate(359.746875 65.851875) scale(0.12 -0.12)">
      <use xlink:href="#DejaVuSans-43"/>
      <use xlink:href="#DejaVuSans-6c" transform="translate(69.824219 0)"/>
      <use xlink:href="#DejaVuSans-61" transform="translate(97.607422 0)"/>
      <use xlink:href="#DejaVuSans-73" transform="translate(158.886719 0)"/>
      <use xlink:href="#DejaVuSans-73" transform="translate(210.986328 0)"/>
      <use xlink:href="#DejaVuSans-20" transform="translate(263.085938 0)"/>
      <use xlink:href="#DejaVuSans-31" transform="translate(294.873047 0)"/>
     </g>
    </g>
    <g id="PathCollection_16">
     <g>
      <use xlink:href="#m50aed1f44b" x="338.146875" y="80.315625" style="fill: #2ca02c; fill-opacity: 0.7; stroke: #2ca02c; stroke-opacity: 0.7"/>
     </g>
    </g>
    <g id="text_4">
     <!-- Class 2 -->
     <g transform="translate(359.746875 83.465625) scale(0.12 -0.12)">
      <defs>
       <path id="DejaVuSans-32" d="M 1228 531 
L 3431 531 
L 3431 0 
L 469 0 
L 469 531 
Q 828 903 1448 1529 
Q 2069 2156 2228 2338 
Q 2531 2678 2651 2914 
Q 2772 3150 2772 3378 
Q 2772 3750 2511 3984 
Q 2250 4219 1831 4219 
Q 1534 4219 1204 4116 
Q 875 4013 500 3803 
L 500 4441 
Q 881 4594 1212 4672 
Q 1544 4750 1819 4750 
Q 2544 4750 2975 4387 
Q 3406 4025 3406 3419 
Q 3406 3131 3298 2873 
Q 3191 2616 2906 2266 
Q 2828 2175 2409 1742 
Q 1991 1309 1228 531 
z
" transform="scale(0.015625)"/>
      </defs>
      <use xlink:href="#DejaVuSans-43"/>
      <use xlink:href="#DejaVuSans-6c" transform="translate(69.824219 0)"/>
      <use xlink:href="#DejaVuSans-61" transform="translate(97.607422 0)"/>
      <use xlink:href="#DejaVuSans-73" transform="translate(158.886719 0)"/>
      <use xlink:href="#DejaVuSans-73" transform="translate(210.986328 0)"/>
      <use xlink:href="#DejaVuSans-20" transform="translate(263.085938 0)"/>
      <use xlink:href="#DejaVuSans-32" transform="translate(294.873047 0)"/>
     </g>
    </g>
    <g id="PathCollection_17">
     <g>
      <use xlink:href="#m8df93c1e7d" x="338.146875" y="97.929375" style="fill: #d62728; fill-opacity: 0.7; stroke: #d62728; stroke-opacity: 0.7"/>
     </g>
    </g>
    <g id="text_5">
     <!-- Class 3 -->
     <g transform="translate(359.746875 101.079375) scale(0.12 -0.12)">
      <defs>
       <path id="DejaVuSans-33" d="M 2597 2516 
Q 3050 2419 3304 2112 
Q 3559 1806 3559 1356 
Q 3559 666 3084 287 
Q 2609 -91 1734 -91 
Q 1441 -91 1130 -33 
Q 819 25 488 141 
L 488 750 
Q 750 597 1062 519 
Q 1375 441 1716 441 
Q 2309 441 2620 675 
Q 2931 909 2931 1356 
Q 2931 1769 2642 2001 
Q 2353 2234 1838 2234 
L 1294 2234 
L 1294 2753 
L 1863 2753 
Q 2328 2753 2575 2939 
Q 2822 3125 2822 3475 
Q 2822 3834 2567 4026 
Q 2313 4219 1838 4219 
Q 1578 4219 1281 4162 
Q 984 4106 628 3988 
L 628 4550 
Q 988 4650 1302 4700 
Q 1616 4750 1894 4750 
Q 2613 4750 3031 4423 
Q 3450 4097 3450 3541 
Q 3450 3153 3228 2886 
Q 3006 2619 2597 2516 
z
" transform="scale(0.015625)"/>
      </defs>
      <use xlink:href="#DejaVuSans-43"/>
      <use xlink:href="#DejaVuSans-6c" transform="translate(69.824219 0)"/>
      <use xlink:href="#DejaVuSans-61" transform="translate(97.607422 0)"/>
      <use xlink:href="#DejaVuSans-73" transform="translate(158.886719 0)"/>
      <use xlink:href="#DejaVuSans-73" transform="translate(210.986328 0)"/>
      <use xlink:href="#DejaVuSans-20" transform="translate(263.085938 0)"/>
      <use xlink:href="#DejaVuSans-33" transform="translate(294.873047 0)"/>
     </g>
    </g>
    <g id="PathCollection_18">
     <g>
      <use xlink:href="#mae50a27107" x="338.146875" y="115.543125" style="fill: #9467bd; fill-opacity: 0.7; stroke: #9467bd; stroke-opacity: 0.7"/>
     </g>
    </g>
    <g id="text_6">
     <!-- Class 4 -->
     <g transform="translate(359.746875 118.693125) scale(0.12 -0.12)">
      <defs>
       <path id="DejaVuSans-34" d="M 2419 4116 
L 825 1625 
L 2419 1625 
L 2419 4116 
z
M 2253 4666 
L 3047 4666 
L 3047 1625 
L 3713 1625 
L 3713 1100 
L 3047 1100 
L 3047 0 
L 2419 0 
L 2419 1100 
L 313 1100 
L 313 1709 
L 2253 4666 
z
" transform="scale(0.015625)"/>
      </defs>
      <use xlink:href="#DejaVuSans-43"/>
      <use xlink:href="#DejaVuSans-6c" transform="translate(69.824219 0)"/>
      <use xlink:href="#DejaVuSans-61" transform="translate(97.607422 0)"/>
      <use xlink:href="#DejaVuSans-73" transform="translate(158.886719 0)"/>
      <use xlink:href="#DejaVuSans-73" transform="translate(210.986328 0)"/>
      <use xlink:href="#DejaVuSans-20" transform="translate(263.085938 0)"/>
      <use xlink:href="#DejaVuSans-34" transform="translate(294.873047 0)"/>
     </g>
    </g>
    <g id="PathCollection_19">
     <g>
      <use xlink:href="#mebab7fae35" x="338.146875" y="133.156875" style="fill: #8c564b; fill-opacity: 0.7; stroke: #8c564b; stroke-opacity: 0.7"/>
     </g>
    </g>
    <g id="text_7">
     <!-- Class 5 -->
     <g transform="translate(359.746875 136.306875) scale(0.12 -0.12)">
      <defs>
       <path id="DejaVuSans-35" d="M 691 4666 
L 3169 4666 
L 3169 4134 
L 1269 4134 
L 1269 2991 
Q 1406 3038 1543 3061 
Q 1681 3084 1819 3084 
Q 2600 3084 3056 2656 
Q 3513 2228 3513 1497 
Q 3513 744 3044 326 
Q 2575 -91 1722 -91 
Q 1428 -91 1123 -41 
Q 819 9 494 109 
L 494 744 
Q 775 591 1075 516 
Q 1375 441 1709 441 
Q 2250 441 2565 725 
Q 2881 1009 2881 1497 
Q 2881 1984 2565 2268 
Q 2250 2553 1709 2553 
Q 1456 2553 1204 2497 
Q 953 2441 691 2322 
L 691 4666 
z
" transform="scale(0.015625)"/>
      </defs>
      <use xlink:href="#DejaVuSans-43"/>
      <use xlink:href="#DejaVuSans-6c" transform="translate(69.824219 0)"/>
      <use xlink:href="#DejaVuSans-61" transform="translate(97.607422 0)"/>
      <use xlink:href="#DejaVuSans-73" transform="translate(158.886719 0)"/>
      <use xlink:href="#DejaVuSans-73" transform="translate(210.986328 0)"/>
      <use xlink:href="#DejaVuSans-20" transform="translate(263.085938 0)"/>
      <use xlink:href="#DejaVuSans-35" transform="translate(294.873047 0)"/>
     </g>
    </g>
    <g id="PathCollection_20">
     <g>
      <use xlink:href="#mee483b585a" x="338.146875" y="150.770625" style="fill: #e377c2; fill-opacity: 0.7; stroke: #e377c2; stroke-opacity: 0.7"/>
     </g>
    </g>
    <g id="text_8">
     <!-- Class 6 -->
     <g transform="translate(359.746875 153.920625) scale(0.12 -0.12)">
      <defs>
       <path id="DejaVuSans-36" d="M 2113 2584 
Q 1688 2584 1439 2293 
Q 1191 2003 1191 1497 
Q 1191 994 1439 701 
Q 1688 409 2113 409 
Q 2538 409 2786 701 
Q 3034 994 3034 1497 
Q 3034 2003 2786 2293 
Q 2538 2584 2113 2584 
z
M 3366 4563 
L 3366 3988 
Q 3128 4100 2886 4159 
Q 2644 4219 2406 4219 
Q 1781 4219 1451 3797 
Q 1122 3375 1075 2522 
Q 1259 2794 1537 2939 
Q 1816 3084 2150 3084 
Q 2853 3084 3261 2657 
Q 3669 2231 3669 1497 
Q 3669 778 3244 343 
Q 2819 -91 2113 -91 
Q 1303 -91 875 529 
Q 447 1150 447 2328 
Q 447 3434 972 4092 
Q 1497 4750 2381 4750 
Q 2619 4750 2861 4703 
Q 3103 4656 3366 4563 
z
" transform="scale(0.015625)"/>
      </defs>
      <use xlink:href="#DejaVuSans-43"/>
      <use xlink:href="#DejaVuSans-6c" transform="translate(69.824219 0)"/>
      <use xlink:href="#DejaVuSans-61" transform="translate(97.607422 0)"/>
      <use xlink:href="#DejaVuSans-73" transform="translate(158.886719 0)"/>
      <use xlink:href="#DejaVuSans-73" transform="translate(210.986328 0)"/>
      <use xlink:href="#DejaVuSans-20" transform="translate(263.085938 0)"/>
      <use xlink:href="#DejaVuSans-36" transform="translate(294.873047 0)"/>
     </g>
    </g>
    <g id="PathCollection_21">
     <g>
      <use xlink:href="#m07c7e9ff2b" x="338.146875" y="168.384375" style="fill: #7f7f7f; fill-opacity: 0.7; stroke: #7f7f7f; stroke-opacity: 0.7"/>
     </g>
    </g>
    <g id="text_9">
     <!-- Class 7 -->
     <g transform="translate(359.746875 171.534375) scale(0.12 -0.12)">
      <defs>
       <path id="DejaVuSans-37" d="M 525 4666 
L 3525 4666 
L 3525 4397 
L 1831 0 
L 1172 0 
L 2766 4134 
L 525 4134 
L 525 4666 
z
" transform="scale(0.015625)"/>
      </defs>
      <use xlink:href="#DejaVuSans-43"/>
      <use xlink:href="#DejaVuSans-6c" transform="translate(69.824219 0)"/>
      <use xlink:href="#DejaVuSans-61" transform="translate(97.607422 0)"/>
      <use xlink:href="#DejaVuSans-73" transform="translate(158.886719 0)"/>
      <use xlink:href="#DejaVuSans-73" transform="translate(210.986328 0)"/>
      <use xlink:href="#DejaVuSans-20" transform="translate(263.085938 0)"/>
      <use xlink:href="#DejaVuSans-37" transform="translate(294.873047 0)"/>
     </g>
    </g>
    <g id="PathCollection_22">
     <g>
      <use xlink:href="#m45cd2660db" x="338.146875" y="185.998125" style="fill: #bcbd22; fill-opacity: 0.7; stroke: #bcbd22; stroke-opacity: 0.7"/>
     </g>
    </g>
    <g id="text_10">
     <!-- Class 8 -->
     <g transform="translate(359.746875 189.148125) scale(0.12 -0.12)">
      <defs>
       <path id="DejaVuSans-38" d="M 2034 2216 
Q 1584 2216 1326 1975 
Q 1069 1734 1069 1313 
Q 1069 891 1326 650 
Q 1584 409 2034 409 
Q 2484 409 2743 651 
Q 3003 894 3003 1313 
Q 3003 1734 2745 1975 
Q 2488 2216 2034 2216 
z
M 1403 2484 
Q 997 2584 770 2862 
Q 544 3141 544 3541 
Q 544 4100 942 4425 
Q 1341 4750 2034 4750 
Q 2731 4750 3128 4425 
Q 3525 4100 3525 3541 
Q 3525 3141 3298 2862 
Q 3072 2584 2669 2484 
Q 3125 2378 3379 2068 
Q 3634 1759 3634 1313 
Q 3634 634 3220 271 
Q 2806 -91 2034 -91 
Q 1263 -91 848 271 
Q 434 634 434 1313 
Q 434 1759 690 2068 
Q 947 2378 1403 2484 
z
M 1172 3481 
Q 1172 3119 1398 2916 
Q 1625 2713 2034 2713 
Q 2441 2713 2670 2916 
Q 2900 3119 2900 3481 
Q 2900 3844 2670 4047 
Q 2441 4250 2034 4250 
Q 1625 4250 1398 4047 
Q 1172 3844 1172 3481 
z
" transform="scale(0.015625)"/>
      </defs>
      <use xlink:href="#DejaVuSans-43"/>
      <use xlink:href="#DejaVuSans-6c" transform="translate(69.824219 0)"/>
      <use xlink:href="#DejaVuSans-61" transform="translate(97.607422 0)"/>
      <use xlink:href="#DejaVuSans-73" transform="translate(158.886719 0)"/>
      <use xlink:href="#DejaVuSans-73" transform="translate(210.986328 0)"/>
      <use xlink:href="#DejaVuSans-20" transform="translate(263.085938 0)"/>
      <use xlink:href="#DejaVuSans-38" transform="translate(294.873047 0)"/>
     </g>
    </g>
    <g id="PathCollection_23">
     <g>
      <use xlink:href="#m5d180cdb3d" x="338.146875" y="203.611875" style="fill: #17becf; fill-opacity: 0.7; stroke: #17becf; stroke-opacity: 0.7"/>
     </g>
    </g>
    <g id="text_11">
     <!-- Class 9 -->
     <g transform="translate(359.746875 206.761875) scale(0.12 -0.12)">
      <defs>
       <path id="DejaVuSans-39" d="M 703 97 
L 703 672 
Q 941 559 1184 500 
Q 1428 441 1663 441 
Q 2288 441 2617 861 
Q 2947 1281 2994 2138 
Q 2813 1869 2534 1725 
Q 2256 1581 1919 1581 
Q 1219 1581 811 2004 
Q 403 2428 403 3163 
Q 403 3881 828 4315 
Q 1253 4750 1959 4750 
Q 2769 4750 3195 4129 
Q 3622 3509 3622 2328 
Q 3622 1225 3098 567 
Q 2575 -91 1691 -91 
Q 1453 -91 1209 -44 
Q 966 3 703 97 
z
M 1959 2075 
Q 2384 2075 2632 2365 
Q 2881 2656 2881 3163 
Q 2881 3666 2632 3958 
Q 2384 4250 1959 4250 
Q 1534 4250 1286 3958 
Q 1038 3666 1038 3163 
Q 1038 2656 1286 2365 
Q 1534 2075 1959 2075 
z
" transform="scale(0.015625)"/>
      </defs>
      <use xlink:href="#DejaVuSans-43"/>
      <use xlink:href="#DejaVuSans-6c" transform="translate(69.824219 0)"/>
      <use xlink:href="#DejaVuSans-61" transform="translate(97.607422 0)"/>
      <use xlink:href="#DejaVuSans-73" transform="translate(158.886719 0)"/>
      <use xlink:href="#DejaVuSans-73" transform="translate(210.986328 0)"/>
      <use xlink:href="#DejaVuSans-20" transform="translate(263.085938 0)"/>
      <use xlink:href="#DejaVuSans-39" transform="translate(294.873047 0)"/>
     </g>
    </g>
    <g id="PathCollection_24">
     <g>
      <use xlink:href="#mea2c790b0c" x="338.146875" y="221.225625" style="fill: #aec7e8; fill-opacity: 0.7; stroke: #aec7e8; stroke-opacity: 0.7"/>
     </g>
    </g>
    <g id="text_12">
     <!-- Class 10 -->
     <g transform="translate(359.746875 224.375625) scale(0.12 -0.12)">
      <use xlink:href="#DejaVuSans-43"/>
      <use xlink:href="#DejaVuSans-6c" transform="translate(69.824219 0)"/>
      <use xlink:href="#DejaVuSans-61" transform="translate(97.607422 0)"/>
      <use xlink:href="#DejaVuSans-73" transform="translate(158.886719 0)"/>
      <use xlink:href="#DejaVuSans-73" transform="translate(210.986328 0)"/>
      <use xlink:href="#DejaVuSans-20" transform="translate(263.085938 0)"/>
      <use xlink:href="#DejaVuSans-31" transform="translate(294.873047 0)"/>
      <use xlink:href="#DejaVuSans-30" transform="translate(358.496094 0)"/>
     </g>
    </g>
    <g id="PathCollection_25">
     <g>
      <use xlink:href="#m905c607e62" x="338.146875" y="238.839375" style="fill: #ffbb78; fill-opacity: 0.7; stroke: #ffbb78; stroke-opacity: 0.7"/>
     </g>
    </g>
    <g id="text_13">
     <!-- Class 11 -->
     <g transform="translate(359.746875 241.989375) scale(0.12 -0.12)">
      <use xlink:href="#DejaVuSans-43"/>
      <use xlink:href="#DejaVuSans-6c" transform="translate(69.824219 0)"/>
      <use xlink:href="#DejaVuSans-61" transform="translate(97.607422 0)"/>
      <use xlink:href="#DejaVuSans-73" transform="translate(158.886719 0)"/>
      <use xlink:href="#DejaVuSans-73" transform="translate(210.986328 0)"/>
      <use xlink:href="#DejaVuSans-20" transform="translate(263.085938 0)"/>
      <use xlink:href="#DejaVuSans-31" transform="translate(294.873047 0)"/>
      <use xlink:href="#DejaVuSans-31" transform="translate(358.496094 0)"/>
     </g>
    </g>
    <g id="PathCollection_26">
     <g>
      <use xlink:href="#m9f41edd345" x="338.146875" y="256.453125" style="fill: #98df8a; fill-opacity: 0.7; stroke: #98df8a; stroke-opacity: 0.7"/>
     </g>
    </g>
    <g id="text_14">
     <!-- Class 12 -->
     <g transform="translate(359.746875 259.603125) scale(0.12 -0.12)">
      <use xlink:href="#DejaVuSans-43"/>
      <use xlink:href="#DejaVuSans-6c" transform="translate(69.824219 0)"/>
      <use xlink:href="#DejaVuSans-61" transform="translate(97.607422 0)"/>
      <use xlink:href="#DejaVuSans-73" transform="translate(158.886719 0)"/>
      <use xlink:href="#DejaVuSans-73" transform="translate(210.986328 0)"/>
      <use xlink:href="#DejaVuSans-20" transform="translate(263.085938 0)"/>
      <use xlink:href="#DejaVuSans-31" transform="translate(294.873047 0)"/>
      <use xlink:href="#DejaVuSans-32" transform="translate(358.496094 0)"/>
     </g>
    </g>
   </g>
  </g>
 </g>
 <defs>
  <clipPath id="p66b2310da1">
   <rect x="10.8" y="28.32" width="410.4" height="320.88"/>
  </clipPath>
 </defs>
</svg>
