<?xml version="1.0" encoding="utf-8" standalone="no"?>
<!DOCTYPE svg PUBLIC "-//W3C//DTD SVG 1.1//EN"
  "http://www.w3.org/Graphics/SVG/1.1/DTD/svg11.dtd">
<svg xmlns:xlink="http://www.w3.org/1999/xlink" width="432pt" height="360pt" viewBox="0 0 432 360" xmlns="http://www.w3.org/2000/svg" version="1.1">
 <metadata>
  <rdf:RDF xmlns:dc="http://purl.org/dc/elements/1.1/" xmlns:cc="http://creativecommons.org/ns#" xmlns:rdf="http://www.w3.org/1999/02/22-rdf-syntax-ns#">
   <cc:Work>
    <dc:type rdf:resource="http://purl.org/dc/dcmitype/StillImage"/>
    <dc:date>2025-06-16T15:11:17.410064</dc:date>
    <dc:format>image/svg+xml</dc:format>
    <dc:creator>
     <cc:Agent>
      <dc:title>Matplotlib v3.10.1, https://matplotlib.org/</dc:title>
     </cc:Agent>
    </dc:creator>
   </cc:Work>
  </rdf:RDF>
 </metadata>
 <defs>
  <style type="text/css">*{stroke-linejoin: round; stroke-linecap: butt}</style>
 </defs>
 <g id="figure_1">
  <g id="patch_1">
   <path d="M 0 360 
L 432 360 
L 432 0 
L 0 0 
z
" style="fill: #ffffff"/>
  </g>
  <g id="axes_1">
   <g id="patch_2">
    <path d="M 10.8 349.2 
L 421.2 349.2 
L 421.2 28.32 
L 10.8 28.32 
z
" style="fill: #ffffff"/>
   </g>
   <g id="PathCollection_1">
    <defs>
     <path id="m797a5c1bbe" d="M 0 2.236068 
C 0.593012 2.236068 1.161816 2.000462 1.581139 1.581139 
C 2.000462 1.161816 2.236068 0.593012 2.236068 0 
C 2.236068 -0.593012 2.000462 -1.161816 1.581139 -1.581139 
C 1.161816 -2.000462 0.593012 -2.236068 0 -2.236068 
C -0.593012 -2.236068 -1.161816 -2.000462 -1.581139 -1.581139 
C -2.000462 -1.161816 -2.236068 -0.593012 -2.236068 0 
C -2.236068 0.593012 -2.000462 1.161816 -1.581139 1.581139 
C -1.161816 2.000462 -0.593012 2.236068 0 2.236068 
z
" style="stroke: #1f77b4; stroke-opacity: 0.7"/>
    </defs>
    <g clip-path="url(#p6eca92e201)">
     <use xlink:href="#m797a5c1bbe" x="292.123097" y="209.849042" style="fill: #1f77b4; fill-opacity: 0.7; stroke: #1f77b4; stroke-opacity: 0.7"/>
     <use xlink:href="#m797a5c1bbe" x="258.949259" y="42.905455" style="fill: #1f77b4; fill-opacity: 0.7; stroke: #1f77b4; stroke-opacity: 0.7"/>
     <use xlink:href="#m797a5c1bbe" x="215.291939" y="185.113356" style="fill: #1f77b4; fill-opacity: 0.7; stroke: #1f77b4; stroke-opacity: 0.7"/>
     <use xlink:href="#m797a5c1bbe" x="219.422627" y="213.369728" style="fill: #1f77b4; fill-opacity: 0.7; stroke: #1f77b4; stroke-opacity: 0.7"/>
     <use xlink:href="#m797a5c1bbe" x="240.005437" y="230.122303" style="fill: #1f77b4; fill-opacity: 0.7; stroke: #1f77b4; stroke-opacity: 0.7"/>
     <use xlink:href="#m797a5c1bbe" x="241.44007" y="217.188942" style="fill: #1f77b4; fill-opacity: 0.7; stroke: #1f77b4; stroke-opacity: 0.7"/>
     <use xlink:href="#m797a5c1bbe" x="262.572556" y="216.519946" style="fill: #1f77b4; fill-opacity: 0.7; stroke: #1f77b4; stroke-opacity: 0.7"/>
     <use xlink:href="#m797a5c1bbe" x="383.312248" y="294.848388" style="fill: #1f77b4; fill-opacity: 0.7; stroke: #1f77b4; stroke-opacity: 0.7"/>
     <use xlink:href="#m797a5c1bbe" x="284.95721" y="151.67919" style="fill: #1f77b4; fill-opacity: 0.7; stroke: #1f77b4; stroke-opacity: 0.7"/>
     <use xlink:href="#m797a5c1bbe" x="363.341594" y="304.256407" style="fill: #1f77b4; fill-opacity: 0.7; stroke: #1f77b4; stroke-opacity: 0.7"/>
    </g>
   </g>
   <g id="PathCollection_2">
    <defs>
     <path id="m4a56f18479" d="M 0 2.236068 
C 0.593012 2.236068 1.161816 2.000462 1.581139 1.581139 
C 2.000462 1.161816 2.236068 0.593012 2.236068 0 
C 2.236068 -0.593012 2.000462 -1.161816 1.581139 -1.581139 
C 1.161816 -2.000462 0.593012 -2.236068 0 -2.236068 
C -0.593012 -2.236068 -1.161816 -2.000462 -1.581139 -1.581139 
C -2.000462 -1.161816 -2.236068 -0.593012 -2.236068 0 
C -2.236068 0.593012 -2.000462 1.161816 -1.581139 1.581139 
C -1.161816 2.000462 -0.593012 2.236068 0 2.236068 
z
" style="stroke: #ff7f0e; stroke-opacity: 0.7"/>
    </defs>
    <g clip-path="url(#p6eca92e201)">
     <use xlink:href="#m4a56f18479" x="265.282616" y="153.775613" style="fill: #ff7f0e; fill-opacity: 0.7; stroke: #ff7f0e; stroke-opacity: 0.7"/>
     <use xlink:href="#m4a56f18479" x="198.682364" y="167.299938" style="fill: #ff7f0e; fill-opacity: 0.7; stroke: #ff7f0e; stroke-opacity: 0.7"/>
     <use xlink:href="#m4a56f18479" x="183.639842" y="152.90616" style="fill: #ff7f0e; fill-opacity: 0.7; stroke: #ff7f0e; stroke-opacity: 0.7"/>
     <use xlink:href="#m4a56f18479" x="162.915084" y="189.080701" style="fill: #ff7f0e; fill-opacity: 0.7; stroke: #ff7f0e; stroke-opacity: 0.7"/>
     <use xlink:href="#m4a56f18479" x="272.719356" y="122.493564" style="fill: #ff7f0e; fill-opacity: 0.7; stroke: #ff7f0e; stroke-opacity: 0.7"/>
     <use xlink:href="#m4a56f18479" x="296.62606" y="238.002925" style="fill: #ff7f0e; fill-opacity: 0.7; stroke: #ff7f0e; stroke-opacity: 0.7"/>
     <use xlink:href="#m4a56f18479" x="243.486321" y="184.24954" style="fill: #ff7f0e; fill-opacity: 0.7; stroke: #ff7f0e; stroke-opacity: 0.7"/>
     <use xlink:href="#m4a56f18479" x="248.616307" y="185.366168" style="fill: #ff7f0e; fill-opacity: 0.7; stroke: #ff7f0e; stroke-opacity: 0.7"/>
     <use xlink:href="#m4a56f18479" x="372.861107" y="234.992422" style="fill: #ff7f0e; fill-opacity: 0.7; stroke: #ff7f0e; stroke-opacity: 0.7"/>
     <use xlink:href="#m4a56f18479" x="266.446246" y="276.718129" style="fill: #ff7f0e; fill-opacity: 0.7; stroke: #ff7f0e; stroke-opacity: 0.7"/>
    </g>
   </g>
   <g id="PathCollection_3">
    <defs>
     <path id="m02f3a87150" d="M 0 2.236068 
C 0.593012 2.236068 1.161816 2.000462 1.581139 1.581139 
C 2.000462 1.161816 2.236068 0.593012 2.236068 0 
C 2.236068 -0.593012 2.000462 -1.161816 1.581139 -1.581139 
C 1.161816 -2.000462 0.593012 -2.236068 0 -2.236068 
C -0.593012 -2.236068 -1.161816 -2.000462 -1.581139 -1.581139 
C -2.000462 -1.161816 -2.236068 -0.593012 -2.236068 0 
C -2.236068 0.593012 -2.000462 1.161816 -1.581139 1.581139 
C -1.161816 2.000462 -0.593012 2.236068 0 2.236068 
z
" style="stroke: #2ca02c; stroke-opacity: 0.7"/>
    </defs>
    <g clip-path="url(#p6eca92e201)">
     <use xlink:href="#m02f3a87150" x="326.802015" y="286.822858" style="fill: #2ca02c; fill-opacity: 0.7; stroke: #2ca02c; stroke-opacity: 0.7"/>
     <use xlink:href="#m02f3a87150" x="245.363612" y="210.40004" style="fill: #2ca02c; fill-opacity: 0.7; stroke: #2ca02c; stroke-opacity: 0.7"/>
     <use xlink:href="#m02f3a87150" x="160.248354" y="288.43352" style="fill: #2ca02c; fill-opacity: 0.7; stroke: #2ca02c; stroke-opacity: 0.7"/>
     <use xlink:href="#m02f3a87150" x="267.666577" y="224.869632" style="fill: #2ca02c; fill-opacity: 0.7; stroke: #2ca02c; stroke-opacity: 0.7"/>
     <use xlink:href="#m02f3a87150" x="174.910223" y="190.185948" style="fill: #2ca02c; fill-opacity: 0.7; stroke: #2ca02c; stroke-opacity: 0.7"/>
     <use xlink:href="#m02f3a87150" x="152.420204" y="273.368423" style="fill: #2ca02c; fill-opacity: 0.7; stroke: #2ca02c; stroke-opacity: 0.7"/>
     <use xlink:href="#m02f3a87150" x="237.035726" y="249.233794" style="fill: #2ca02c; fill-opacity: 0.7; stroke: #2ca02c; stroke-opacity: 0.7"/>
     <use xlink:href="#m02f3a87150" x="264.793132" y="189.766791" style="fill: #2ca02c; fill-opacity: 0.7; stroke: #2ca02c; stroke-opacity: 0.7"/>
     <use xlink:href="#m02f3a87150" x="319.090806" y="219.522289" style="fill: #2ca02c; fill-opacity: 0.7; stroke: #2ca02c; stroke-opacity: 0.7"/>
     <use xlink:href="#m02f3a87150" x="172.757913" y="271.079539" style="fill: #2ca02c; fill-opacity: 0.7; stroke: #2ca02c; stroke-opacity: 0.7"/>
    </g>
   </g>
   <g id="PathCollection_4">
    <defs>
     <path id="m8f648da71d" d="M 0 2.236068 
C 0.593012 2.236068 1.161816 2.000462 1.581139 1.581139 
C 2.000462 1.161816 2.236068 0.593012 2.236068 0 
C 2.236068 -0.593012 2.000462 -1.161816 1.581139 -1.581139 
C 1.161816 -2.000462 0.593012 -2.236068 0 -2.236068 
C -0.593012 -2.236068 -1.161816 -2.000462 -1.581139 -1.581139 
C -2.000462 -1.161816 -2.236068 -0.593012 -2.236068 0 
C -2.236068 0.593012 -2.000462 1.161816 -1.581139 1.581139 
C -1.161816 2.000462 -0.593012 2.236068 0 2.236068 
z
" style="stroke: #d62728; stroke-opacity: 0.7"/>
    </defs>
    <g clip-path="url(#p6eca92e201)">
     <use xlink:href="#m8f648da71d" x="367.864357" y="280.942557" style="fill: #d62728; fill-opacity: 0.7; stroke: #d62728; stroke-opacity: 0.7"/>
     <use xlink:href="#m8f648da71d" x="387.132676" y="314.095431" style="fill: #d62728; fill-opacity: 0.7; stroke: #d62728; stroke-opacity: 0.7"/>
     <use xlink:href="#m8f648da71d" x="402.545455" y="271.321153" style="fill: #d62728; fill-opacity: 0.7; stroke: #d62728; stroke-opacity: 0.7"/>
     <use xlink:href="#m8f648da71d" x="275.346982" y="328.562391" style="fill: #d62728; fill-opacity: 0.7; stroke: #d62728; stroke-opacity: 0.7"/>
     <use xlink:href="#m8f648da71d" x="157.968689" y="310.24889" style="fill: #d62728; fill-opacity: 0.7; stroke: #d62728; stroke-opacity: 0.7"/>
     <use xlink:href="#m8f648da71d" x="273.670715" y="309.474649" style="fill: #d62728; fill-opacity: 0.7; stroke: #d62728; stroke-opacity: 0.7"/>
     <use xlink:href="#m8f648da71d" x="261.749508" y="315.247581" style="fill: #d62728; fill-opacity: 0.7; stroke: #d62728; stroke-opacity: 0.7"/>
     <use xlink:href="#m8f648da71d" x="151.264728" y="304.503448" style="fill: #d62728; fill-opacity: 0.7; stroke: #d62728; stroke-opacity: 0.7"/>
     <use xlink:href="#m8f648da71d" x="155.308277" y="318.253216" style="fill: #d62728; fill-opacity: 0.7; stroke: #d62728; stroke-opacity: 0.7"/>
     <use xlink:href="#m8f648da71d" x="152.043932" y="314.425635" style="fill: #d62728; fill-opacity: 0.7; stroke: #d62728; stroke-opacity: 0.7"/>
    </g>
   </g>
   <g id="PathCollection_5">
    <defs>
     <path id="md244d47ad1" d="M 0 2.236068 
C 0.593012 2.236068 1.161816 2.000462 1.581139 1.581139 
C 2.000462 1.161816 2.236068 0.593012 2.236068 0 
C 2.236068 -0.593012 2.000462 -1.161816 1.581139 -1.581139 
C 1.161816 -2.000462 0.593012 -2.236068 0 -2.236068 
C -0.593012 -2.236068 -1.161816 -2.000462 -1.581139 -1.581139 
C -2.000462 -1.161816 -2.236068 -0.593012 -2.236068 0 
C -2.236068 0.593012 -2.000462 1.161816 -1.581139 1.581139 
C -1.161816 2.000462 -0.593012 2.236068 0 2.236068 
z
" style="stroke: #9467bd; stroke-opacity: 0.7"/>
    </defs>
    <g clip-path="url(#p6eca92e201)">
     <use xlink:href="#md244d47ad1" x="294.76223" y="185.421993" style="fill: #9467bd; fill-opacity: 0.7; stroke: #9467bd; stroke-opacity: 0.7"/>
     <use xlink:href="#md244d47ad1" x="240.319498" y="162.564284" style="fill: #9467bd; fill-opacity: 0.7; stroke: #9467bd; stroke-opacity: 0.7"/>
     <use xlink:href="#md244d47ad1" x="188.220569" y="202.773157" style="fill: #9467bd; fill-opacity: 0.7; stroke: #9467bd; stroke-opacity: 0.7"/>
     <use xlink:href="#md244d47ad1" x="199.306929" y="255.883467" style="fill: #9467bd; fill-opacity: 0.7; stroke: #9467bd; stroke-opacity: 0.7"/>
     <use xlink:href="#md244d47ad1" x="235.553694" y="294.339419" style="fill: #9467bd; fill-opacity: 0.7; stroke: #9467bd; stroke-opacity: 0.7"/>
     <use xlink:href="#md244d47ad1" x="214.001611" y="156.491796" style="fill: #9467bd; fill-opacity: 0.7; stroke: #9467bd; stroke-opacity: 0.7"/>
     <use xlink:href="#md244d47ad1" x="69.5149" y="204.325283" style="fill: #9467bd; fill-opacity: 0.7; stroke: #9467bd; stroke-opacity: 0.7"/>
     <use xlink:href="#md244d47ad1" x="85.301197" y="206.354176" style="fill: #9467bd; fill-opacity: 0.7; stroke: #9467bd; stroke-opacity: 0.7"/>
     <use xlink:href="#md244d47ad1" x="170.643278" y="186.024233" style="fill: #9467bd; fill-opacity: 0.7; stroke: #9467bd; stroke-opacity: 0.7"/>
     <use xlink:href="#md244d47ad1" x="179.879953" y="240.605687" style="fill: #9467bd; fill-opacity: 0.7; stroke: #9467bd; stroke-opacity: 0.7"/>
    </g>
   </g>
   <g id="PathCollection_6">
    <defs>
     <path id="m80c389af15" d="M 0 2.236068 
C 0.593012 2.236068 1.161816 2.000462 1.581139 1.581139 
C 2.000462 1.161816 2.236068 0.593012 2.236068 0 
C 2.236068 -0.593012 2.000462 -1.161816 1.581139 -1.581139 
C 1.161816 -2.000462 0.593012 -2.236068 0 -2.236068 
C -0.593012 -2.236068 -1.161816 -2.000462 -1.581139 -1.581139 
C -2.000462 -1.161816 -2.236068 -0.593012 -2.236068 0 
C -2.236068 0.593012 -2.000462 1.161816 -1.581139 1.581139 
C -1.161816 2.000462 -0.593012 2.236068 0 2.236068 
z
" style="stroke: #8c564b; stroke-opacity: 0.7"/>
    </defs>
    <g clip-path="url(#p6eca92e201)">
     <use xlink:href="#m80c389af15" x="140.627426" y="247.824016" style="fill: #8c564b; fill-opacity: 0.7; stroke: #8c564b; stroke-opacity: 0.7"/>
     <use xlink:href="#m80c389af15" x="273.584491" y="205.464101" style="fill: #8c564b; fill-opacity: 0.7; stroke: #8c564b; stroke-opacity: 0.7"/>
     <use xlink:href="#m80c389af15" x="76.092562" y="195.78213" style="fill: #8c564b; fill-opacity: 0.7; stroke: #8c564b; stroke-opacity: 0.7"/>
     <use xlink:href="#m80c389af15" x="117.601294" y="244.715661" style="fill: #8c564b; fill-opacity: 0.7; stroke: #8c564b; stroke-opacity: 0.7"/>
     <use xlink:href="#m80c389af15" x="132.883094" y="259.775311" style="fill: #8c564b; fill-opacity: 0.7; stroke: #8c564b; stroke-opacity: 0.7"/>
     <use xlink:href="#m80c389af15" x="124.053887" y="234.739796" style="fill: #8c564b; fill-opacity: 0.7; stroke: #8c564b; stroke-opacity: 0.7"/>
     <use xlink:href="#m80c389af15" x="167.691944" y="253.535094" style="fill: #8c564b; fill-opacity: 0.7; stroke: #8c564b; stroke-opacity: 0.7"/>
     <use xlink:href="#m80c389af15" x="132.687901" y="229.672367" style="fill: #8c564b; fill-opacity: 0.7; stroke: #8c564b; stroke-opacity: 0.7"/>
     <use xlink:href="#m80c389af15" x="261.161812" y="282.205711" style="fill: #8c564b; fill-opacity: 0.7; stroke: #8c564b; stroke-opacity: 0.7"/>
     <use xlink:href="#m80c389af15" x="189.073033" y="71.848725" style="fill: #8c564b; fill-opacity: 0.7; stroke: #8c564b; stroke-opacity: 0.7"/>
    </g>
   </g>
   <g id="PathCollection_7">
    <defs>
     <path id="mc7309af23d" d="M 0 2.236068 
C 0.593012 2.236068 1.161816 2.000462 1.581139 1.581139 
C 2.000462 1.161816 2.236068 0.593012 2.236068 0 
C 2.236068 -0.593012 2.000462 -1.161816 1.581139 -1.581139 
C 1.161816 -2.000462 0.593012 -2.236068 0 -2.236068 
C -0.593012 -2.236068 -1.161816 -2.000462 -1.581139 -1.581139 
C -2.000462 -1.161816 -2.236068 -0.593012 -2.236068 0 
C -2.236068 0.593012 -2.000462 1.161816 -1.581139 1.581139 
C -1.161816 2.000462 -0.593012 2.236068 0 2.236068 
z
" style="stroke: #e377c2; stroke-opacity: 0.7"/>
    </defs>
    <g clip-path="url(#p6eca92e201)">
     <use xlink:href="#mc7309af23d" x="49.653511" y="226.963768" style="fill: #e377c2; fill-opacity: 0.7; stroke: #e377c2; stroke-opacity: 0.7"/>
     <use xlink:href="#mc7309af23d" x="370.845975" y="301.205826" style="fill: #e377c2; fill-opacity: 0.7; stroke: #e377c2; stroke-opacity: 0.7"/>
     <use xlink:href="#mc7309af23d" x="266.054081" y="266.517692" style="fill: #e377c2; fill-opacity: 0.7; stroke: #e377c2; stroke-opacity: 0.7"/>
     <use xlink:href="#mc7309af23d" x="400.73205" y="300.946986" style="fill: #e377c2; fill-opacity: 0.7; stroke: #e377c2; stroke-opacity: 0.7"/>
     <use xlink:href="#mc7309af23d" x="342.78877" y="278.518776" style="fill: #e377c2; fill-opacity: 0.7; stroke: #e377c2; stroke-opacity: 0.7"/>
     <use xlink:href="#mc7309af23d" x="218.002073" y="201.461811" style="fill: #e377c2; fill-opacity: 0.7; stroke: #e377c2; stroke-opacity: 0.7"/>
     <use xlink:href="#mc7309af23d" x="277.386428" y="226.22725" style="fill: #e377c2; fill-opacity: 0.7; stroke: #e377c2; stroke-opacity: 0.7"/>
     <use xlink:href="#mc7309af23d" x="350.986346" y="276.949494" style="fill: #e377c2; fill-opacity: 0.7; stroke: #e377c2; stroke-opacity: 0.7"/>
     <use xlink:href="#mc7309af23d" x="272.486137" y="187.575188" style="fill: #e377c2; fill-opacity: 0.7; stroke: #e377c2; stroke-opacity: 0.7"/>
     <use xlink:href="#mc7309af23d" x="105.600261" y="278.308127" style="fill: #e377c2; fill-opacity: 0.7; stroke: #e377c2; stroke-opacity: 0.7"/>
    </g>
   </g>
   <g id="PathCollection_8">
    <defs>
     <path id="mb9be74a55f" d="M 0 2.236068 
C 0.593012 2.236068 1.161816 2.000462 1.581139 1.581139 
C 2.000462 1.161816 2.236068 0.593012 2.236068 0 
C 2.236068 -0.593012 2.000462 -1.161816 1.581139 -1.581139 
C 1.161816 -2.000462 0.593012 -2.236068 0 -2.236068 
C -0.593012 -2.236068 -1.161816 -2.000462 -1.581139 -1.581139 
C -2.000462 -1.161816 -2.236068 -0.593012 -2.236068 0 
C -2.236068 0.593012 -2.000462 1.161816 -1.581139 1.581139 
C -1.161816 2.000462 -0.593012 2.236068 0 2.236068 
z
" style="stroke: #7f7f7f; stroke-opacity: 0.7"/>
    </defs>
    <g clip-path="url(#p6eca92e201)">
     <use xlink:href="#mb9be74a55f" x="376.522557" y="237.413858" style="fill: #7f7f7f; fill-opacity: 0.7; stroke: #7f7f7f; stroke-opacity: 0.7"/>
     <use xlink:href="#mb9be74a55f" x="298.675291" y="167.003641" style="fill: #7f7f7f; fill-opacity: 0.7; stroke: #7f7f7f; stroke-opacity: 0.7"/>
     <use xlink:href="#mb9be74a55f" x="323.439152" y="334.614545" style="fill: #7f7f7f; fill-opacity: 0.7; stroke: #7f7f7f; stroke-opacity: 0.7"/>
     <use xlink:href="#mb9be74a55f" x="235.750937" y="288.872326" style="fill: #7f7f7f; fill-opacity: 0.7; stroke: #7f7f7f; stroke-opacity: 0.7"/>
     <use xlink:href="#mb9be74a55f" x="187.202914" y="131.222643" style="fill: #7f7f7f; fill-opacity: 0.7; stroke: #7f7f7f; stroke-opacity: 0.7"/>
     <use xlink:href="#mb9be74a55f" x="29.454545" y="180.387907" style="fill: #7f7f7f; fill-opacity: 0.7; stroke: #7f7f7f; stroke-opacity: 0.7"/>
     <use xlink:href="#mb9be74a55f" x="50.637694" y="181.168387" style="fill: #7f7f7f; fill-opacity: 0.7; stroke: #7f7f7f; stroke-opacity: 0.7"/>
     <use xlink:href="#mb9be74a55f" x="185.083954" y="185.981677" style="fill: #7f7f7f; fill-opacity: 0.7; stroke: #7f7f7f; stroke-opacity: 0.7"/>
     <use xlink:href="#mb9be74a55f" x="37.587479" y="181.213194" style="fill: #7f7f7f; fill-opacity: 0.7; stroke: #7f7f7f; stroke-opacity: 0.7"/>
     <use xlink:href="#mb9be74a55f" x="50.337946" y="198.5807" style="fill: #7f7f7f; fill-opacity: 0.7; stroke: #7f7f7f; stroke-opacity: 0.7"/>
    </g>
   </g>
   <g id="PathCollection_9">
    <defs>
     <path id="m11d5067d41" d="M 0 2.236068 
C 0.593012 2.236068 1.161816 2.000462 1.581139 1.581139 
C 2.000462 1.161816 2.236068 0.593012 2.236068 0 
C 2.236068 -0.593012 2.000462 -1.161816 1.581139 -1.581139 
C 1.161816 -2.000462 0.593012 -2.236068 0 -2.236068 
C -0.593012 -2.236068 -1.161816 -2.000462 -1.581139 -1.581139 
C -2.000462 -1.161816 -2.236068 -0.593012 -2.236068 0 
C -2.236068 0.593012 -2.000462 1.161816 -1.581139 1.581139 
C -1.161816 2.000462 -0.593012 2.236068 0 2.236068 
z
" style="stroke: #bcbd22; stroke-opacity: 0.7"/>
    </defs>
    <g clip-path="url(#p6eca92e201)">
     <use xlink:href="#m11d5067d41" x="303.697955" y="288.29955" style="fill: #bcbd22; fill-opacity: 0.7; stroke: #bcbd22; stroke-opacity: 0.7"/>
     <use xlink:href="#m11d5067d41" x="282.274575" y="253.637758" style="fill: #bcbd22; fill-opacity: 0.7; stroke: #bcbd22; stroke-opacity: 0.7"/>
     <use xlink:href="#m11d5067d41" x="244.034598" y="166.817842" style="fill: #bcbd22; fill-opacity: 0.7; stroke: #bcbd22; stroke-opacity: 0.7"/>
     <use xlink:href="#m11d5067d41" x="213.24211" y="265.585434" style="fill: #bcbd22; fill-opacity: 0.7; stroke: #bcbd22; stroke-opacity: 0.7"/>
     <use xlink:href="#m11d5067d41" x="218.17871" y="264.064474" style="fill: #bcbd22; fill-opacity: 0.7; stroke: #bcbd22; stroke-opacity: 0.7"/>
     <use xlink:href="#m11d5067d41" x="332.34255" y="263.793842" style="fill: #bcbd22; fill-opacity: 0.7; stroke: #bcbd22; stroke-opacity: 0.7"/>
     <use xlink:href="#m11d5067d41" x="313.039016" y="266.646409" style="fill: #bcbd22; fill-opacity: 0.7; stroke: #bcbd22; stroke-opacity: 0.7"/>
     <use xlink:href="#m11d5067d41" x="289.307921" y="266.787054" style="fill: #bcbd22; fill-opacity: 0.7; stroke: #bcbd22; stroke-opacity: 0.7"/>
     <use xlink:href="#m11d5067d41" x="294.930789" y="266.760856" style="fill: #bcbd22; fill-opacity: 0.7; stroke: #bcbd22; stroke-opacity: 0.7"/>
     <use xlink:href="#m11d5067d41" x="298.960785" y="296.46802" style="fill: #bcbd22; fill-opacity: 0.7; stroke: #bcbd22; stroke-opacity: 0.7"/>
    </g>
   </g>
   <g id="PathCollection_10">
    <defs>
     <path id="mb01f1484db" d="M 0 2.236068 
C 0.593012 2.236068 1.161816 2.000462 1.581139 1.581139 
C 2.000462 1.161816 2.236068 0.593012 2.236068 0 
C 2.236068 -0.593012 2.000462 -1.161816 1.581139 -1.581139 
C 1.161816 -2.000462 0.593012 -2.236068 0 -2.236068 
C -0.593012 -2.236068 -1.161816 -2.000462 -1.581139 -1.581139 
C -2.000462 -1.161816 -2.236068 -0.593012 -2.236068 0 
C -2.236068 0.593012 -2.000462 1.161816 -1.581139 1.581139 
C -1.161816 2.000462 -0.593012 2.236068 0 2.236068 
z
" style="stroke: #17becf; stroke-opacity: 0.7"/>
    </defs>
    <g clip-path="url(#p6eca92e201)">
     <use xlink:href="#mb01f1484db" x="331.932899" y="296.086613" style="fill: #17becf; fill-opacity: 0.7; stroke: #17becf; stroke-opacity: 0.7"/>
     <use xlink:href="#mb01f1484db" x="352.470461" y="289.914986" style="fill: #17becf; fill-opacity: 0.7; stroke: #17becf; stroke-opacity: 0.7"/>
     <use xlink:href="#mb01f1484db" x="187.01708" y="167.595668" style="fill: #17becf; fill-opacity: 0.7; stroke: #17becf; stroke-opacity: 0.7"/>
     <use xlink:href="#mb01f1484db" x="162.844118" y="261.239078" style="fill: #17becf; fill-opacity: 0.7; stroke: #17becf; stroke-opacity: 0.7"/>
     <use xlink:href="#mb01f1484db" x="253.789178" y="211.07753" style="fill: #17becf; fill-opacity: 0.7; stroke: #17becf; stroke-opacity: 0.7"/>
     <use xlink:href="#mb01f1484db" x="355.973673" y="315.149236" style="fill: #17becf; fill-opacity: 0.7; stroke: #17becf; stroke-opacity: 0.7"/>
     <use xlink:href="#mb01f1484db" x="249.909044" y="136.254242" style="fill: #17becf; fill-opacity: 0.7; stroke: #17becf; stroke-opacity: 0.7"/>
     <use xlink:href="#mb01f1484db" x="311.630182" y="312.67924" style="fill: #17becf; fill-opacity: 0.7; stroke: #17becf; stroke-opacity: 0.7"/>
     <use xlink:href="#mb01f1484db" x="259.806951" y="246.901349" style="fill: #17becf; fill-opacity: 0.7; stroke: #17becf; stroke-opacity: 0.7"/>
     <use xlink:href="#mb01f1484db" x="337.978346" y="307.459553" style="fill: #17becf; fill-opacity: 0.7; stroke: #17becf; stroke-opacity: 0.7"/>
    </g>
   </g>
   <g id="PathCollection_11">
    <defs>
     <path id="mb1e84fc028" d="M 0 2.236068 
C 0.593012 2.236068 1.161816 2.000462 1.581139 1.581139 
C 2.000462 1.161816 2.236068 0.593012 2.236068 0 
C 2.236068 -0.593012 2.000462 -1.161816 1.581139 -1.581139 
C 1.161816 -2.000462 0.593012 -2.236068 0 -2.236068 
C -0.593012 -2.236068 -1.161816 -2.000462 -1.581139 -1.581139 
C -2.000462 -1.161816 -2.236068 -0.593012 -2.236068 0 
C -2.236068 0.593012 -2.000462 1.161816 -1.581139 1.581139 
C -1.161816 2.000462 -0.593012 2.236068 0 2.236068 
z
" style="stroke: #aec7e8; stroke-opacity: 0.7"/>
    </defs>
    <g clip-path="url(#p6eca92e201)">
     <use xlink:href="#mb1e84fc028" x="133.466404" y="205.364102" style="fill: #aec7e8; fill-opacity: 0.7; stroke: #aec7e8; stroke-opacity: 0.7"/>
     <use xlink:href="#mb1e84fc028" x="153.872496" y="165.203246" style="fill: #aec7e8; fill-opacity: 0.7; stroke: #aec7e8; stroke-opacity: 0.7"/>
     <use xlink:href="#mb1e84fc028" x="198.435954" y="274.392191" style="fill: #aec7e8; fill-opacity: 0.7; stroke: #aec7e8; stroke-opacity: 0.7"/>
     <use xlink:href="#mb1e84fc028" x="193.021396" y="94.181646" style="fill: #aec7e8; fill-opacity: 0.7; stroke: #aec7e8; stroke-opacity: 0.7"/>
     <use xlink:href="#mb1e84fc028" x="143.808662" y="154.561182" style="fill: #aec7e8; fill-opacity: 0.7; stroke: #aec7e8; stroke-opacity: 0.7"/>
     <use xlink:href="#mb1e84fc028" x="209.767871" y="129.49582" style="fill: #aec7e8; fill-opacity: 0.7; stroke: #aec7e8; stroke-opacity: 0.7"/>
     <use xlink:href="#mb1e84fc028" x="198.864766" y="106.181035" style="fill: #aec7e8; fill-opacity: 0.7; stroke: #aec7e8; stroke-opacity: 0.7"/>
     <use xlink:href="#mb1e84fc028" x="165.388405" y="112.354692" style="fill: #aec7e8; fill-opacity: 0.7; stroke: #aec7e8; stroke-opacity: 0.7"/>
     <use xlink:href="#mb1e84fc028" x="217.367863" y="128.797813" style="fill: #aec7e8; fill-opacity: 0.7; stroke: #aec7e8; stroke-opacity: 0.7"/>
     <use xlink:href="#mb1e84fc028" x="191.693386" y="93.76041" style="fill: #aec7e8; fill-opacity: 0.7; stroke: #aec7e8; stroke-opacity: 0.7"/>
    </g>
   </g>
   <g id="PathCollection_12">
    <defs>
     <path id="m8a974c94b3" d="M 0 2.236068 
C 0.593012 2.236068 1.161816 2.000462 1.581139 1.581139 
C 2.000462 1.161816 2.236068 0.593012 2.236068 0 
C 2.236068 -0.593012 2.000462 -1.161816 1.581139 -1.581139 
C 1.161816 -2.000462 0.593012 -2.236068 0 -2.236068 
C -0.593012 -2.236068 -1.161816 -2.000462 -1.581139 -1.581139 
C -2.000462 -1.161816 -2.236068 -0.593012 -2.236068 0 
C -2.236068 0.593012 -2.000462 1.161816 -1.581139 1.581139 
C -1.161816 2.000462 -0.593012 2.236068 0 2.236068 
z
" style="stroke: #ffbb78; stroke-opacity: 0.7"/>
    </defs>
    <g clip-path="url(#p6eca92e201)">
     <use xlink:href="#m8a974c94b3" x="280.52418" y="67.536048" style="fill: #ffbb78; fill-opacity: 0.7; stroke: #ffbb78; stroke-opacity: 0.7"/>
     <use xlink:href="#m8a974c94b3" x="257.101392" y="44.244777" style="fill: #ffbb78; fill-opacity: 0.7; stroke: #ffbb78; stroke-opacity: 0.7"/>
     <use xlink:href="#m8a974c94b3" x="253.196838" y="93.33779" style="fill: #ffbb78; fill-opacity: 0.7; stroke: #ffbb78; stroke-opacity: 0.7"/>
     <use xlink:href="#m8a974c94b3" x="225.905747" y="72.298661" style="fill: #ffbb78; fill-opacity: 0.7; stroke: #ffbb78; stroke-opacity: 0.7"/>
     <use xlink:href="#m8a974c94b3" x="206.857216" y="91.538907" style="fill: #ffbb78; fill-opacity: 0.7; stroke: #ffbb78; stroke-opacity: 0.7"/>
     <use xlink:href="#m8a974c94b3" x="226.040476" y="80.971341" style="fill: #ffbb78; fill-opacity: 0.7; stroke: #ffbb78; stroke-opacity: 0.7"/>
     <use xlink:href="#m8a974c94b3" x="235.195308" y="77.290548" style="fill: #ffbb78; fill-opacity: 0.7; stroke: #ffbb78; stroke-opacity: 0.7"/>
     <use xlink:href="#m8a974c94b3" x="277.334626" y="77.164309" style="fill: #ffbb78; fill-opacity: 0.7; stroke: #ffbb78; stroke-opacity: 0.7"/>
     <use xlink:href="#m8a974c94b3" x="236.599787" y="62.595424" style="fill: #ffbb78; fill-opacity: 0.7; stroke: #ffbb78; stroke-opacity: 0.7"/>
     <use xlink:href="#m8a974c94b3" x="258.424506" y="63.641748" style="fill: #ffbb78; fill-opacity: 0.7; stroke: #ffbb78; stroke-opacity: 0.7"/>
    </g>
   </g>
   <g id="PathCollection_13">
    <defs>
     <path id="m7276b0ca54" d="M 0 2.236068 
C 0.593012 2.236068 1.161816 2.000462 1.581139 1.581139 
C 2.000462 1.161816 2.236068 0.593012 2.236068 0 
C 2.236068 -0.593012 2.000462 -1.161816 1.581139 -1.581139 
C 1.161816 -2.000462 0.593012 -2.236068 0 -2.236068 
C -0.593012 -2.236068 -1.161816 -2.000462 -1.581139 -1.581139 
C -2.000462 -1.161816 -2.236068 -0.593012 -2.236068 0 
C -2.236068 0.593012 -2.000462 1.161816 -1.581139 1.581139 
C -1.161816 2.000462 -0.593012 2.236068 0 2.236068 
z
" style="stroke: #98df8a; stroke-opacity: 0.7"/>
    </defs>
    <g clip-path="url(#p6eca92e201)">
     <use xlink:href="#m7276b0ca54" x="156.70649" y="217.95773" style="fill: #98df8a; fill-opacity: 0.7; stroke: #98df8a; stroke-opacity: 0.7"/>
     <use xlink:href="#m7276b0ca54" x="312.843383" y="67.006583" style="fill: #98df8a; fill-opacity: 0.7; stroke: #98df8a; stroke-opacity: 0.7"/>
     <use xlink:href="#m7276b0ca54" x="219.84397" y="230.919396" style="fill: #98df8a; fill-opacity: 0.7; stroke: #98df8a; stroke-opacity: 0.7"/>
     <use xlink:href="#m7276b0ca54" x="184.567077" y="68.119824" style="fill: #98df8a; fill-opacity: 0.7; stroke: #98df8a; stroke-opacity: 0.7"/>
     <use xlink:href="#m7276b0ca54" x="296.974914" y="85.612596" style="fill: #98df8a; fill-opacity: 0.7; stroke: #98df8a; stroke-opacity: 0.7"/>
     <use xlink:href="#m7276b0ca54" x="295.61247" y="72.597323" style="fill: #98df8a; fill-opacity: 0.7; stroke: #98df8a; stroke-opacity: 0.7"/>
     <use xlink:href="#m7276b0ca54" x="312.28556" y="78.012324" style="fill: #98df8a; fill-opacity: 0.7; stroke: #98df8a; stroke-opacity: 0.7"/>
     <use xlink:href="#m7276b0ca54" x="325.840609" y="83.94151" style="fill: #98df8a; fill-opacity: 0.7; stroke: #98df8a; stroke-opacity: 0.7"/>
     <use xlink:href="#m7276b0ca54" x="318.522413" y="68.073107" style="fill: #98df8a; fill-opacity: 0.7; stroke: #98df8a; stroke-opacity: 0.7"/>
     <use xlink:href="#m7276b0ca54" x="128.199275" y="179.494388" style="fill: #98df8a; fill-opacity: 0.7; stroke: #98df8a; stroke-opacity: 0.7"/>
    </g>
   </g>
   <g id="matplotlib.axis_1"/>
   <g id="matplotlib.axis_2"/>
   <g id="patch_3">
    <path d="M 10.8 349.2 
L 10.8 28.32 
" style="fill: none; stroke: #000000; stroke-width: 0.8; stroke-linejoin: miter; stroke-linecap: square"/>
   </g>
   <g id="patch_4">
    <path d="M 421.2 349.2 
L 421.2 28.32 
" style="fill: none; stroke: #000000; stroke-width: 0.8; stroke-linejoin: miter; stroke-linecap: square"/>
   </g>
   <g id="patch_5">
    <path d="M 10.8 349.2 
L 421.2 349.2 
" style="fill: none; stroke: #000000; stroke-width: 0.8; stroke-linejoin: miter; stroke-linecap: square"/>
   </g>
   <g id="patch_6">
    <path d="M 10.8 28.32 
L 421.2 28.32 
" style="fill: none; stroke: #000000; stroke-width: 0.8; stroke-linejoin: miter; stroke-linecap: square"/>
   </g>
   <g id="text_1">
    <!-- t-SNE: real -->
    <g transform="translate(173.465 22.32) scale(0.16 -0.16)">
     <defs>
      <path id="DejaVuSans-74" d="M 1172 4494 
L 1172 3500 
L 2356 3500 
L 2356 3053 
L 1172 3053 
L 1172 1153 
Q 1172 725 1289 603 
Q 1406 481 1766 481 
L 2356 481 
L 2356 0 
L 1766 0 
Q 1100 0 847 248 
Q 594 497 594 1153 
L 594 3053 
L 172 3053 
L 172 3500 
L 594 3500 
L 594 4494 
L 1172 4494 
z
" transform="scale(0.015625)"/>
      <path id="DejaVuSans-2d" d="M 313 2009 
L 1997 2009 
L 1997 1497 
L 313 1497 
L 313 2009 
z
" transform="scale(0.015625)"/>
      <path id="DejaVuSans-53" d="M 3425 4513 
L 3425 3897 
Q 3066 4069 2747 4153 
Q 2428 4238 2131 4238 
Q 1616 4238 1336 4038 
Q 1056 3838 1056 3469 
Q 1056 3159 1242 3001 
Q 1428 2844 1947 2747 
L 2328 2669 
Q 3034 2534 3370 2195 
Q 3706 1856 3706 1288 
Q 3706 609 3251 259 
Q 2797 -91 1919 -91 
Q 1588 -91 1214 -16 
Q 841 59 441 206 
L 441 856 
Q 825 641 1194 531 
Q 1563 422 1919 422 
Q 2459 422 2753 634 
Q 3047 847 3047 1241 
Q 3047 1584 2836 1778 
Q 2625 1972 2144 2069 
L 1759 2144 
Q 1053 2284 737 2584 
Q 422 2884 422 3419 
Q 422 4038 858 4394 
Q 1294 4750 2059 4750 
Q 2388 4750 2728 4690 
Q 3069 4631 3425 4513 
z
" transform="scale(0.015625)"/>
      <path id="DejaVuSans-4e" d="M 628 4666 
L 1478 4666 
L 3547 763 
L 3547 4666 
L 4159 4666 
L 4159 0 
L 3309 0 
L 1241 3903 
L 1241 0 
L 628 0 
L 628 4666 
z
" transform="scale(0.015625)"/>
      <path id="DejaVuSans-45" d="M 628 4666 
L 3578 4666 
L 3578 4134 
L 1259 4134 
L 1259 2753 
L 3481 2753 
L 3481 2222 
L 1259 2222 
L 1259 531 
L 3634 531 
L 3634 0 
L 628 0 
L 628 4666 
z
" transform="scale(0.015625)"/>
      <path id="DejaVuSans-3a" d="M 750 794 
L 1409 794 
L 1409 0 
L 750 0 
L 750 794 
z
M 750 3309 
L 1409 3309 
L 1409 2516 
L 750 2516 
L 750 3309 
z
" transform="scale(0.015625)"/>
      <path id="DejaVuSans-20" transform="scale(0.015625)"/>
      <path id="DejaVuSans-72" d="M 2631 2963 
Q 2534 3019 2420 3045 
Q 2306 3072 2169 3072 
Q 1681 3072 1420 2755 
Q 1159 2438 1159 1844 
L 1159 0 
L 581 0 
L 581 3500 
L 1159 3500 
L 1159 2956 
Q 1341 3275 1631 3429 
Q 1922 3584 2338 3584 
Q 2397 3584 2469 3576 
Q 2541 3569 2628 3553 
L 2631 2963 
z
" transform="scale(0.015625)"/>
      <path id="DejaVuSans-65" d="M 3597 1894 
L 3597 1613 
L 953 1613 
Q 991 1019 1311 708 
Q 1631 397 2203 397 
Q 2534 397 2845 478 
Q 3156 559 3463 722 
L 3463 178 
Q 3153 47 2828 -22 
Q 2503 -91 2169 -91 
Q 1331 -91 842 396 
Q 353 884 353 1716 
Q 353 2575 817 3079 
Q 1281 3584 2069 3584 
Q 2775 3584 3186 3129 
Q 3597 2675 3597 1894 
z
M 3022 2063 
Q 3016 2534 2758 2815 
Q 2500 3097 2075 3097 
Q 1594 3097 1305 2825 
Q 1016 2553 972 2059 
L 3022 2063 
z
" transform="scale(0.015625)"/>
      <path id="DejaVuSans-61" d="M 2194 1759 
Q 1497 1759 1228 1600 
Q 959 1441 959 1056 
Q 959 750 1161 570 
Q 1363 391 1709 391 
Q 2188 391 2477 730 
Q 2766 1069 2766 1631 
L 2766 1759 
L 2194 1759 
z
M 3341 1997 
L 3341 0 
L 2766 0 
L 2766 531 
Q 2569 213 2275 61 
Q 1981 -91 1556 -91 
Q 1019 -91 701 211 
Q 384 513 384 1019 
Q 384 1609 779 1909 
Q 1175 2209 1959 2209 
L 2766 2209 
L 2766 2266 
Q 2766 2663 2505 2880 
Q 2244 3097 1772 3097 
Q 1472 3097 1187 3025 
Q 903 2953 641 2809 
L 641 3341 
Q 956 3463 1253 3523 
Q 1550 3584 1831 3584 
Q 2591 3584 2966 3190 
Q 3341 2797 3341 1997 
z
" transform="scale(0.015625)"/>
      <path id="DejaVuSans-6c" d="M 603 4863 
L 1178 4863 
L 1178 0 
L 603 0 
L 603 4863 
z
" transform="scale(0.015625)"/>
     </defs>
     <use xlink:href="#DejaVuSans-74"/>
     <use xlink:href="#DejaVuSans-2d" transform="translate(39.208984 0)"/>
     <use xlink:href="#DejaVuSans-53" transform="translate(75.292969 0)"/>
     <use xlink:href="#DejaVuSans-4e" transform="translate(138.769531 0)"/>
     <use xlink:href="#DejaVuSans-45" transform="translate(213.574219 0)"/>
     <use xlink:href="#DejaVuSans-3a" transform="translate(276.757812 0)"/>
     <use xlink:href="#DejaVuSans-20" transform="translate(310.449219 0)"/>
     <use xlink:href="#DejaVuSans-72" transform="translate(342.236328 0)"/>
     <use xlink:href="#DejaVuSans-65" transform="translate(381.099609 0)"/>
     <use xlink:href="#DejaVuSans-61" transform="translate(442.623047 0)"/>
     <use xlink:href="#DejaVuSans-6c" transform="translate(503.902344 0)"/>
    </g>
   </g>
   <g id="legend_1">
    <g id="patch_7">
     <path d="M 323.746875 266.89875 
L 412.8 266.89875 
Q 415.2 266.89875 415.2 264.49875 
L 415.2 36.72 
Q 415.2 34.32 412.8 34.32 
L 323.746875 34.32 
Q 321.346875 34.32 321.346875 36.72 
L 321.346875 264.49875 
Q 321.346875 266.89875 323.746875 266.89875 
z
" style="fill: #ffffff; opacity: 0.8; stroke: #cccccc; stroke-linejoin: miter"/>
    </g>
    <g id="PathCollection_14">
     <g>
      <use xlink:href="#m797a5c1bbe" x="338.146875" y="45.088125" style="fill: #1f77b4; fill-opacity: 0.7; stroke: #1f77b4; stroke-opacity: 0.7"/>
     </g>
    </g>
    <g id="text_2">
     <!-- Class 0 -->
     <g transform="translate(359.746875 48.238125) scale(0.12 -0.12)">
      <defs>
       <path id="DejaVuSans-43" d="M 4122 4306 
L 4122 3641 
Q 3803 3938 3442 4084 
Q 3081 4231 2675 4231 
Q 1875 4231 1450 3742 
Q 1025 3253 1025 2328 
Q 1025 1406 1450 917 
Q 1875 428 2675 428 
Q 3081 428 3442 575 
Q 3803 722 4122 1019 
L 4122 359 
Q 3791 134 3420 21 
Q 3050 -91 2638 -91 
Q 1578 -91 968 557 
Q 359 1206 359 2328 
Q 359 3453 968 4101 
Q 1578 4750 2638 4750 
Q 3056 4750 3426 4639 
Q 3797 4528 4122 4306 
z
" transform="scale(0.015625)"/>
       <path id="DejaVuSans-73" d="M 2834 3397 
L 2834 2853 
Q 2591 2978 2328 3040 
Q 2066 3103 1784 3103 
Q 1356 3103 1142 2972 
Q 928 2841 928 2578 
Q 928 2378 1081 2264 
Q 1234 2150 1697 2047 
L 1894 2003 
Q 2506 1872 2764 1633 
Q 3022 1394 3022 966 
Q 3022 478 2636 193 
Q 2250 -91 1575 -91 
Q 1294 -91 989 -36 
Q 684 19 347 128 
L 347 722 
Q 666 556 975 473 
Q 1284 391 1588 391 
Q 1994 391 2212 530 
Q 2431 669 2431 922 
Q 2431 1156 2273 1281 
Q 2116 1406 1581 1522 
L 1381 1569 
Q 847 1681 609 1914 
Q 372 2147 372 2553 
Q 372 3047 722 3315 
Q 1072 3584 1716 3584 
Q 2034 3584 2315 3537 
Q 2597 3491 2834 3397 
z
" transform="scale(0.015625)"/>
       <path id="DejaVuSans-30" d="M 2034 4250 
Q 1547 4250 1301 3770 
Q 1056 3291 1056 2328 
Q 1056 1369 1301 889 
Q 1547 409 2034 409 
Q 2525 409 2770 889 
Q 3016 1369 3016 2328 
Q 3016 3291 2770 3770 
Q 2525 4250 2034 4250 
z
M 2034 4750 
Q 2819 4750 3233 4129 
Q 3647 3509 3647 2328 
Q 3647 1150 3233 529 
Q 2819 -91 2034 -91 
Q 1250 -91 836 529 
Q 422 1150 422 2328 
Q 422 3509 836 4129 
Q 1250 4750 2034 4750 
z
" transform="scale(0.015625)"/>
      </defs>
      <use xlink:href="#DejaVuSans-43"/>
      <use xlink:href="#DejaVuSans-6c" transform="translate(69.824219 0)"/>
      <use xlink:href="#DejaVuSans-61" transform="translate(97.607422 0)"/>
      <use xlink:href="#DejaVuSans-73" transform="translate(158.886719 0)"/>
      <use xlink:href="#DejaVuSans-73" transform="translate(210.986328 0)"/>
      <use xlink:href="#DejaVuSans-20" transform="translate(263.085938 0)"/>
      <use xlink:href="#DejaVuSans-30" transform="translate(294.873047 0)"/>
     </g>
    </g>
    <g id="PathCollection_15">
     <g>
      <use xlink:href="#m4a56f18479" x="338.146875" y="62.701875" style="fill: #ff7f0e; fill-opacity: 0.7; stroke: #ff7f0e; stroke-opacity: 0.7"/>
     </g>
    </g>
    <g id="text_3">
     <!-- Class 1 -->
     <g transform="translate(359.746875 65.851875) scale(0.12 -0.12)">
      <defs>
       <path id="DejaVuSans-31" d="M 794 531 
L 1825 531 
L 1825 4091 
L 703 3866 
L 703 4441 
L 1819 4666 
L 2450 4666 
L 2450 531 
L 3481 531 
L 3481 0 
L 794 0 
L 794 531 
z
" transform="scale(0.015625)"/>
      </defs>
      <use xlink:href="#DejaVuSans-43"/>
      <use xlink:href="#DejaVuSans-6c" transform="translate(69.824219 0)"/>
      <use xlink:href="#DejaVuSans-61" transform="translate(97.607422 0)"/>
      <use xlink:href="#DejaVuSans-73" transform="translate(158.886719 0)"/>
      <use xlink:href="#DejaVuSans-73" transform="translate(210.986328 0)"/>
      <use xlink:href="#DejaVuSans-20" transform="translate(263.085938 0)"/>
      <use xlink:href="#DejaVuSans-31" transform="translate(294.873047 0)"/>
     </g>
    </g>
    <g id="PathCollection_16">
     <g>
      <use xlink:href="#m02f3a87150" x="338.146875" y="80.315625" style="fill: #2ca02c; fill-opacity: 0.7; stroke: #2ca02c; stroke-opacity: 0.7"/>
     </g>
    </g>
    <g id="text_4">
     <!-- Class 2 -->
     <g transform="translate(359.746875 83.465625) scale(0.12 -0.12)">
      <defs>
       <path id="DejaVuSans-32" d="M 1228 531 
L 3431 531 
L 3431 0 
L 469 0 
L 469 531 
Q 828 903 1448 1529 
Q 2069 2156 2228 2338 
Q 2531 2678 2651 2914 
Q 2772 3150 2772 3378 
Q 2772 3750 2511 3984 
Q 2250 4219 1831 4219 
Q 1534 4219 1204 4116 
Q 875 4013 500 3803 
L 500 4441 
Q 881 4594 1212 4672 
Q 1544 4750 1819 4750 
Q 2544 4750 2975 4387 
Q 3406 4025 3406 3419 
Q 3406 3131 3298 2873 
Q 3191 2616 2906 2266 
Q 2828 2175 2409 1742 
Q 1991 1309 1228 531 
z
" transform="scale(0.015625)"/>
      </defs>
      <use xlink:href="#DejaVuSans-43"/>
      <use xlink:href="#DejaVuSans-6c" transform="translate(69.824219 0)"/>
      <use xlink:href="#DejaVuSans-61" transform="translate(97.607422 0)"/>
      <use xlink:href="#DejaVuSans-73" transform="translate(158.886719 0)"/>
      <use xlink:href="#DejaVuSans-73" transform="translate(210.986328 0)"/>
      <use xlink:href="#DejaVuSans-20" transform="translate(263.085938 0)"/>
      <use xlink:href="#DejaVuSans-32" transform="translate(294.873047 0)"/>
     </g>
    </g>
    <g id="PathCollection_17">
     <g>
      <use xlink:href="#m8f648da71d" x="338.146875" y="97.929375" style="fill: #d62728; fill-opacity: 0.7; stroke: #d62728; stroke-opacity: 0.7"/>
     </g>
    </g>
    <g id="text_5">
     <!-- Class 3 -->
     <g transform="translate(359.746875 101.079375) scale(0.12 -0.12)">
      <defs>
       <path id="DejaVuSans-33" d="M 2597 2516 
Q 3050 2419 3304 2112 
Q 3559 1806 3559 1356 
Q 3559 666 3084 287 
Q 2609 -91 1734 -91 
Q 1441 -91 1130 -33 
Q 819 25 488 141 
L 488 750 
Q 750 597 1062 519 
Q 1375 441 1716 441 
Q 2309 441 2620 675 
Q 2931 909 2931 1356 
Q 2931 1769 2642 2001 
Q 2353 2234 1838 2234 
L 1294 2234 
L 1294 2753 
L 1863 2753 
Q 2328 2753 2575 2939 
Q 2822 3125 2822 3475 
Q 2822 3834 2567 4026 
Q 2313 4219 1838 4219 
Q 1578 4219 1281 4162 
Q 984 4106 628 3988 
L 628 4550 
Q 988 4650 1302 4700 
Q 1616 4750 1894 4750 
Q 2613 4750 3031 4423 
Q 3450 4097 3450 3541 
Q 3450 3153 3228 2886 
Q 3006 2619 2597 2516 
z
" transform="scale(0.015625)"/>
      </defs>
      <use xlink:href="#DejaVuSans-43"/>
      <use xlink:href="#DejaVuSans-6c" transform="translate(69.824219 0)"/>
      <use xlink:href="#DejaVuSans-61" transform="translate(97.607422 0)"/>
      <use xlink:href="#DejaVuSans-73" transform="translate(158.886719 0)"/>
      <use xlink:href="#DejaVuSans-73" transform="translate(210.986328 0)"/>
      <use xlink:href="#DejaVuSans-20" transform="translate(263.085938 0)"/>
      <use xlink:href="#DejaVuSans-33" transform="translate(294.873047 0)"/>
     </g>
    </g>
    <g id="PathCollection_18">
     <g>
      <use xlink:href="#md244d47ad1" x="338.146875" y="115.543125" style="fill: #9467bd; fill-opacity: 0.7; stroke: #9467bd; stroke-opacity: 0.7"/>
     </g>
    </g>
    <g id="text_6">
     <!-- Class 4 -->
     <g transform="translate(359.746875 118.693125) scale(0.12 -0.12)">
      <defs>
       <path id="DejaVuSans-34" d="M 2419 4116 
L 825 1625 
L 2419 1625 
L 2419 4116 
z
M 2253 4666 
L 3047 4666 
L 3047 1625 
L 3713 1625 
L 3713 1100 
L 3047 1100 
L 3047 0 
L 2419 0 
L 2419 1100 
L 313 1100 
L 313 1709 
L 2253 4666 
z
" transform="scale(0.015625)"/>
      </defs>
      <use xlink:href="#DejaVuSans-43"/>
      <use xlink:href="#DejaVuSans-6c" transform="translate(69.824219 0)"/>
      <use xlink:href="#DejaVuSans-61" transform="translate(97.607422 0)"/>
      <use xlink:href="#DejaVuSans-73" transform="translate(158.886719 0)"/>
      <use xlink:href="#DejaVuSans-73" transform="translate(210.986328 0)"/>
      <use xlink:href="#DejaVuSans-20" transform="translate(263.085938 0)"/>
      <use xlink:href="#DejaVuSans-34" transform="translate(294.873047 0)"/>
     </g>
    </g>
    <g id="PathCollection_19">
     <g>
      <use xlink:href="#m80c389af15" x="338.146875" y="133.156875" style="fill: #8c564b; fill-opacity: 0.7; stroke: #8c564b; stroke-opacity: 0.7"/>
     </g>
    </g>
    <g id="text_7">
     <!-- Class 5 -->
     <g transform="translate(359.746875 136.306875) scale(0.12 -0.12)">
      <defs>
       <path id="DejaVuSans-35" d="M 691 4666 
L 3169 4666 
L 3169 4134 
L 1269 4134 
L 1269 2991 
Q 1406 3038 1543 3061 
Q 1681 3084 1819 3084 
Q 2600 3084 3056 2656 
Q 3513 2228 3513 1497 
Q 3513 744 3044 326 
Q 2575 -91 1722 -91 
Q 1428 -91 1123 -41 
Q 819 9 494 109 
L 494 744 
Q 775 591 1075 516 
Q 1375 441 1709 441 
Q 2250 441 2565 725 
Q 2881 1009 2881 1497 
Q 2881 1984 2565 2268 
Q 2250 2553 1709 2553 
Q 1456 2553 1204 2497 
Q 953 2441 691 2322 
L 691 4666 
z
" transform="scale(0.015625)"/>
      </defs>
      <use xlink:href="#DejaVuSans-43"/>
      <use xlink:href="#DejaVuSans-6c" transform="translate(69.824219 0)"/>
      <use xlink:href="#DejaVuSans-61" transform="translate(97.607422 0)"/>
      <use xlink:href="#DejaVuSans-73" transform="translate(158.886719 0)"/>
      <use xlink:href="#DejaVuSans-73" transform="translate(210.986328 0)"/>
      <use xlink:href="#DejaVuSans-20" transform="translate(263.085938 0)"/>
      <use xlink:href="#DejaVuSans-35" transform="translate(294.873047 0)"/>
     </g>
    </g>
    <g id="PathCollection_20">
     <g>
      <use xlink:href="#mc7309af23d" x="338.146875" y="150.770625" style="fill: #e377c2; fill-opacity: 0.7; stroke: #e377c2; stroke-opacity: 0.7"/>
     </g>
    </g>
    <g id="text_8">
     <!-- Class 6 -->
     <g transform="translate(359.746875 153.920625) scale(0.12 -0.12)">
      <defs>
       <path id="DejaVuSans-36" d="M 2113 2584 
Q 1688 2584 1439 2293 
Q 1191 2003 1191 1497 
Q 1191 994 1439 701 
Q 1688 409 2113 409 
Q 2538 409 2786 701 
Q 3034 994 3034 1497 
Q 3034 2003 2786 2293 
Q 2538 2584 2113 2584 
z
M 3366 4563 
L 3366 3988 
Q 3128 4100 2886 4159 
Q 2644 4219 2406 4219 
Q 1781 4219 1451 3797 
Q 1122 3375 1075 2522 
Q 1259 2794 1537 2939 
Q 1816 3084 2150 3084 
Q 2853 3084 3261 2657 
Q 3669 2231 3669 1497 
Q 3669 778 3244 343 
Q 2819 -91 2113 -91 
Q 1303 -91 875 529 
Q 447 1150 447 2328 
Q 447 3434 972 4092 
Q 1497 4750 2381 4750 
Q 2619 4750 2861 4703 
Q 3103 4656 3366 4563 
z
" transform="scale(0.015625)"/>
      </defs>
      <use xlink:href="#DejaVuSans-43"/>
      <use xlink:href="#DejaVuSans-6c" transform="translate(69.824219 0)"/>
      <use xlink:href="#DejaVuSans-61" transform="translate(97.607422 0)"/>
      <use xlink:href="#DejaVuSans-73" transform="translate(158.886719 0)"/>
      <use xlink:href="#DejaVuSans-73" transform="translate(210.986328 0)"/>
      <use xlink:href="#DejaVuSans-20" transform="translate(263.085938 0)"/>
      <use xlink:href="#DejaVuSans-36" transform="translate(294.873047 0)"/>
     </g>
    </g>
    <g id="PathCollection_21">
     <g>
      <use xlink:href="#mb9be74a55f" x="338.146875" y="168.384375" style="fill: #7f7f7f; fill-opacity: 0.7; stroke: #7f7f7f; stroke-opacity: 0.7"/>
     </g>
    </g>
    <g id="text_9">
     <!-- Class 7 -->
     <g transform="translate(359.746875 171.534375) scale(0.12 -0.12)">
      <defs>
       <path id="DejaVuSans-37" d="M 525 4666 
L 3525 4666 
L 3525 4397 
L 1831 0 
L 1172 0 
L 2766 4134 
L 525 4134 
L 525 4666 
z
" transform="scale(0.015625)"/>
      </defs>
      <use xlink:href="#DejaVuSans-43"/>
      <use xlink:href="#DejaVuSans-6c" transform="translate(69.824219 0)"/>
      <use xlink:href="#DejaVuSans-61" transform="translate(97.607422 0)"/>
      <use xlink:href="#DejaVuSans-73" transform="translate(158.886719 0)"/>
      <use xlink:href="#DejaVuSans-73" transform="translate(210.986328 0)"/>
      <use xlink:href="#DejaVuSans-20" transform="translate(263.085938 0)"/>
      <use xlink:href="#DejaVuSans-37" transform="translate(294.873047 0)"/>
     </g>
    </g>
    <g id="PathCollection_22">
     <g>
      <use xlink:href="#m11d5067d41" x="338.146875" y="185.998125" style="fill: #bcbd22; fill-opacity: 0.7; stroke: #bcbd22; stroke-opacity: 0.7"/>
     </g>
    </g>
    <g id="text_10">
     <!-- Class 8 -->
     <g transform="translate(359.746875 189.148125) scale(0.12 -0.12)">
      <defs>
       <path id="DejaVuSans-38" d="M 2034 2216 
Q 1584 2216 1326 1975 
Q 1069 1734 1069 1313 
Q 1069 891 1326 650 
Q 1584 409 2034 409 
Q 2484 409 2743 651 
Q 3003 894 3003 1313 
Q 3003 1734 2745 1975 
Q 2488 2216 2034 2216 
z
M 1403 2484 
Q 997 2584 770 2862 
Q 544 3141 544 3541 
Q 544 4100 942 4425 
Q 1341 4750 2034 4750 
Q 2731 4750 3128 4425 
Q 3525 4100 3525 3541 
Q 3525 3141 3298 2862 
Q 3072 2584 2669 2484 
Q 3125 2378 3379 2068 
Q 3634 1759 3634 1313 
Q 3634 634 3220 271 
Q 2806 -91 2034 -91 
Q 1263 -91 848 271 
Q 434 634 434 1313 
Q 434 1759 690 2068 
Q 947 2378 1403 2484 
z
M 1172 3481 
Q 1172 3119 1398 2916 
Q 1625 2713 2034 2713 
Q 2441 2713 2670 2916 
Q 2900 3119 2900 3481 
Q 2900 3844 2670 4047 
Q 2441 4250 2034 4250 
Q 1625 4250 1398 4047 
Q 1172 3844 1172 3481 
z
" transform="scale(0.015625)"/>
      </defs>
      <use xlink:href="#DejaVuSans-43"/>
      <use xlink:href="#DejaVuSans-6c" transform="translate(69.824219 0)"/>
      <use xlink:href="#DejaVuSans-61" transform="translate(97.607422 0)"/>
      <use xlink:href="#DejaVuSans-73" transform="translate(158.886719 0)"/>
      <use xlink:href="#DejaVuSans-73" transform="translate(210.986328 0)"/>
      <use xlink:href="#DejaVuSans-20" transform="translate(263.085938 0)"/>
      <use xlink:href="#DejaVuSans-38" transform="translate(294.873047 0)"/>
     </g>
    </g>
    <g id="PathCollection_23">
     <g>
      <use xlink:href="#mb01f1484db" x="338.146875" y="203.611875" style="fill: #17becf; fill-opacity: 0.7; stroke: #17becf; stroke-opacity: 0.7"/>
     </g>
    </g>
    <g id="text_11">
     <!-- Class 9 -->
     <g transform="translate(359.746875 206.761875) scale(0.12 -0.12)">
      <defs>
       <path id="DejaVuSans-39" d="M 703 97 
L 703 672 
Q 941 559 1184 500 
Q 1428 441 1663 441 
Q 2288 441 2617 861 
Q 2947 1281 2994 2138 
Q 2813 1869 2534 1725 
Q 2256 1581 1919 1581 
Q 1219 1581 811 2004 
Q 403 2428 403 3163 
Q 403 3881 828 4315 
Q 1253 4750 1959 4750 
Q 2769 4750 3195 4129 
Q 3622 3509 3622 2328 
Q 3622 1225 3098 567 
Q 2575 -91 1691 -91 
Q 1453 -91 1209 -44 
Q 966 3 703 97 
z
M 1959 2075 
Q 2384 2075 2632 2365 
Q 2881 2656 2881 3163 
Q 2881 3666 2632 3958 
Q 2384 4250 1959 4250 
Q 1534 4250 1286 3958 
Q 1038 3666 1038 3163 
Q 1038 2656 1286 2365 
Q 1534 2075 1959 2075 
z
" transform="scale(0.015625)"/>
      </defs>
      <use xlink:href="#DejaVuSans-43"/>
      <use xlink:href="#DejaVuSans-6c" transform="translate(69.824219 0)"/>
      <use xlink:href="#DejaVuSans-61" transform="translate(97.607422 0)"/>
      <use xlink:href="#DejaVuSans-73" transform="translate(158.886719 0)"/>
      <use xlink:href="#DejaVuSans-73" transform="translate(210.986328 0)"/>
      <use xlink:href="#DejaVuSans-20" transform="translate(263.085938 0)"/>
      <use xlink:href="#DejaVuSans-39" transform="translate(294.873047 0)"/>
     </g>
    </g>
    <g id="PathCollection_24">
     <g>
      <use xlink:href="#mb1e84fc028" x="338.146875" y="221.225625" style="fill: #aec7e8; fill-opacity: 0.7; stroke: #aec7e8; stroke-opacity: 0.7"/>
     </g>
    </g>
    <g id="text_12">
     <!-- Class 10 -->
     <g transform="translate(359.746875 224.375625) scale(0.12 -0.12)">
      <use xlink:href="#DejaVuSans-43"/>
      <use xlink:href="#DejaVuSans-6c" transform="translate(69.824219 0)"/>
      <use xlink:href="#DejaVuSans-61" transform="translate(97.607422 0)"/>
      <use xlink:href="#DejaVuSans-73" transform="translate(158.886719 0)"/>
      <use xlink:href="#DejaVuSans-73" transform="translate(210.986328 0)"/>
      <use xlink:href="#DejaVuSans-20" transform="translate(263.085938 0)"/>
      <use xlink:href="#DejaVuSans-31" transform="translate(294.873047 0)"/>
      <use xlink:href="#DejaVuSans-30" transform="translate(358.496094 0)"/>
     </g>
    </g>
    <g id="PathCollection_25">
     <g>
      <use xlink:href="#m8a974c94b3" x="338.146875" y="238.839375" style="fill: #ffbb78; fill-opacity: 0.7; stroke: #ffbb78; stroke-opacity: 0.7"/>
     </g>
    </g>
    <g id="text_13">
     <!-- Class 11 -->
     <g transform="translate(359.746875 241.989375) scale(0.12 -0.12)">
      <use xlink:href="#DejaVuSans-43"/>
      <use xlink:href="#DejaVuSans-6c" transform="translate(69.824219 0)"/>
      <use xlink:href="#DejaVuSans-61" transform="translate(97.607422 0)"/>
      <use xlink:href="#DejaVuSans-73" transform="translate(158.886719 0)"/>
      <use xlink:href="#DejaVuSans-73" transform="translate(210.986328 0)"/>
      <use xlink:href="#DejaVuSans-20" transform="translate(263.085938 0)"/>
      <use xlink:href="#DejaVuSans-31" transform="translate(294.873047 0)"/>
      <use xlink:href="#DejaVuSans-31" transform="translate(358.496094 0)"/>
     </g>
    </g>
    <g id="PathCollection_26">
     <g>
      <use xlink:href="#m7276b0ca54" x="338.146875" y="256.453125" style="fill: #98df8a; fill-opacity: 0.7; stroke: #98df8a; stroke-opacity: 0.7"/>
     </g>
    </g>
    <g id="text_14">
     <!-- Class 12 -->
     <g transform="translate(359.746875 259.603125) scale(0.12 -0.12)">
      <use xlink:href="#DejaVuSans-43"/>
      <use xlink:href="#DejaVuSans-6c" transform="translate(69.824219 0)"/>
      <use xlink:href="#DejaVuSans-61" transform="translate(97.607422 0)"/>
      <use xlink:href="#DejaVuSans-73" transform="translate(158.886719 0)"/>
      <use xlink:href="#DejaVuSans-73" transform="translate(210.986328 0)"/>
      <use xlink:href="#DejaVuSans-20" transform="translate(263.085938 0)"/>
      <use xlink:href="#DejaVuSans-31" transform="translate(294.873047 0)"/>
      <use xlink:href="#DejaVuSans-32" transform="translate(358.496094 0)"/>
     </g>
    </g>
   </g>
  </g>
 </g>
 <defs>
  <clipPath id="p6eca92e201">
   <rect x="10.8" y="28.32" width="410.4" height="320.88"/>
  </clipPath>
 </defs>
</svg>
